<svg width="55" height="55" viewBox="0 0 55 55" fill="none" xmlns="http://www.w3.org/2000/svg">
<rect x="23" width="32" height="32" rx="16" fill="#F1F5EB"/>
<g clip-path="url(#clip0_3755_161)">
<path d="M39.721 36.9535C41.2013 32.5912 41.1621 27.8564 39.6098 23.5192C38.0576 19.182 35.0836 15.4976 31.1715 13.0652C27.2595 10.6328 22.6396 9.59552 18.0632 10.1221C13.4868 10.6486 9.22313 12.708 5.96573 15.9653C2.70833 19.2226 0.648807 23.4862 0.122131 28.0626C-0.404546 32.639 0.632611 37.2589 3.06491 41.1711C5.49721 45.0832 9.18156 48.0573 13.5187 49.6096C17.8558 51.162 22.5906 51.2013 26.953 49.7212C27.6259 51.0733 28.6108 52.2459 29.8264 53.1423C31.0419 54.0387 32.4533 54.633 33.9439 54.8763C35.4344 55.1197 36.9615 55.0049 38.399 54.5416C39.8365 54.0783 41.1432 53.2797 42.2112 52.2118C43.2791 51.1438 44.0778 49.8372 44.5411 48.3997C45.0045 46.9622 45.1192 45.4351 44.876 43.9445C44.6327 42.4539 44.0384 41.0426 43.142 39.827C42.2457 38.6114 41.0731 37.6265 39.721 36.9535ZM38.5844 36.4754C36.2446 35.6641 33.6804 35.7993 31.4389 36.8522L32.3406 35.2783C32.394 35.1852 32.422 35.0797 32.4219 34.9724V32.0632L34.3337 30.0966C34.4454 29.9818 34.5079 29.8279 34.5077 29.6677V27.1649C34.5077 27.0306 34.4637 26.8999 34.3824 26.793C34.3012 26.686 34.1871 26.6086 34.0577 26.5725L30.6827 25.6318L29.4346 23.1898C29.3904 23.1034 29.3264 23.0287 29.2479 22.9718C29.1693 22.9148 29.0784 22.8773 28.9825 22.8622L24.1978 22.1095V21.6398L30.6567 20.2103L33.0701 22.622C33.1856 22.7374 33.3421 22.8022 33.5054 22.8024H37.9983C39.8715 27.1317 40.0802 32.0002 38.5844 36.474V36.4754ZM37.4098 21.5733H33.7599L31.2895 19.1018C31.2163 19.0288 31.126 18.9753 31.0268 18.9463C30.9276 18.9173 30.8227 18.9137 30.7217 18.9359L23.4496 20.545C23.3129 20.5753 23.1906 20.6513 23.103 20.7605C23.0153 20.8697 22.9674 21.0055 22.9673 21.1455V22.6354C22.9674 22.782 23.0197 22.9237 23.115 23.035C23.2102 23.1464 23.3421 23.2201 23.4869 23.2429L28.4815 24.0283L29.7096 26.4316C29.7482 26.5073 29.8022 26.5742 29.868 26.628C29.9339 26.6818 30.0101 26.7213 30.0921 26.7441L33.2772 27.6318V29.4177L31.3654 31.3844C31.2538 31.4993 31.1914 31.6531 31.1914 31.8133V34.8083L29.1601 38.3552C28.338 39.0843 27.6473 39.9493 27.1182 40.9124H25.7471V38.9651C25.7471 38.8799 25.7293 38.7955 25.695 38.7174C25.6607 38.6394 25.6106 38.5693 25.5478 38.5116L22.8871 36.0721V33.2434C22.8871 33.1172 22.8483 32.994 22.7758 32.8906C22.7034 32.7872 22.6008 32.7086 22.4821 32.6655L16.9865 30.6672V26.0969L20.5774 22.2195C20.6355 22.1567 20.68 22.0824 20.7078 22.0015C20.7357 21.9205 20.7463 21.8346 20.7391 21.7493C20.7318 21.664 20.7068 21.5812 20.6657 21.5061C20.6246 21.431 20.5683 21.3653 20.5004 21.3132L17.2161 18.7939L19.9076 14.997H25.4001C25.5632 14.9969 25.7197 14.932 25.835 14.8167L27.8944 12.7575C31.9889 14.5094 35.351 17.6243 37.4098 21.5733ZM8.02553 15.7782L9.5703 18.9602L8.32647 19.5824C8.26534 19.613 8.20973 19.6535 8.16194 19.7023L5.24186 22.6818C5.16116 22.7641 5.10519 22.8674 5.08033 22.98C5.05547 23.0926 5.06271 23.2098 5.10124 23.3185L5.51995 24.4955C5.03996 24.7913 4.60526 25.1549 4.22936 25.5752L1.74839 25.9928C2.69617 22.0049 4.89595 18.4253 8.02553 15.7782ZM1.23546 30.5811H3.25096L8.33632 32.4939L10.9379 36.8983V38.661L10.1757 39.8184C10.0922 39.9449 10.0584 40.0979 10.0808 40.2478C10.1031 40.3978 10.1801 40.5342 10.297 40.6308L10.4903 40.7904L8.64499 41.8936C8.55374 41.9482 8.47818 42.0254 8.42568 42.1178C8.37319 42.2102 8.34554 42.3147 8.34546 42.421V45.2908C6.14829 43.5155 4.37131 41.2759 3.14203 38.7327C1.91275 36.1895 1.26166 33.4057 1.23546 30.5811ZM20.4016 49.5728C16.5346 49.5763 12.7581 48.4034 9.57346 46.2098C9.57346 46.202 9.57557 46.1947 9.57557 46.1869V42.7708L11.8685 41.3997C11.9531 41.3492 12.0244 41.2792 12.0763 41.1954C12.1282 41.1117 12.1592 41.0167 12.1667 40.9184C12.1742 40.8202 12.158 40.7216 12.1194 40.6309C12.0809 40.5402 12.0211 40.4601 11.9451 40.3974L11.5064 40.0342L12.0664 39.1841C12.1328 39.0837 12.1681 38.966 12.168 38.8456V36.7299C12.1681 36.6199 12.1386 36.512 12.0826 36.4174L9.28553 31.6818C9.21418 31.561 9.10365 31.4682 8.97229 31.4188L3.57932 29.39C3.51008 29.364 3.43673 29.3506 3.36276 29.3506H1.26077C1.29941 28.6582 1.37535 27.9684 1.48823 27.2841L4.65229 26.7518C4.79841 26.7272 4.93073 26.6507 5.02495 26.5363C5.44229 26.0311 5.96163 25.6197 6.54897 25.3291C6.6834 25.2619 6.78862 25.1479 6.84477 25.0086C6.90092 24.8692 6.90412 24.7141 6.85378 24.5725L6.38971 23.2675L8.96878 20.6361L10.6644 19.7881C10.8092 19.7156 10.9196 19.589 10.9717 19.4357C11.0239 19.2824 11.0135 19.1147 10.9428 18.969L9.01202 14.9931C11.5075 13.1423 14.4165 11.9278 17.4872 11.4545C20.5578 10.9813 23.6975 11.2637 26.6344 12.2773L25.1452 13.7665H19.5895C19.4912 13.7666 19.3943 13.7902 19.307 13.8353C19.2196 13.8804 19.1443 13.9458 19.0874 14.026L15.8696 18.5657C15.7776 18.6956 15.7396 18.856 15.7633 19.0133C15.7871 19.1706 15.871 19.3126 15.9972 19.4095L19.2158 21.8781L15.9202 25.4345C15.8147 25.5483 15.7561 25.6977 15.756 25.8529V31.0982C15.756 31.2245 15.7949 31.3477 15.8674 31.4511C15.9398 31.5545 16.0424 31.6331 16.161 31.6762L21.6567 33.6745V36.3428C21.6567 36.4281 21.6744 36.5124 21.7087 36.5905C21.743 36.6686 21.7932 36.7387 21.856 36.7963L24.517 39.2355V41.5277C24.517 41.6908 24.5818 41.8473 24.6972 41.9627C24.8126 42.0781 24.969 42.1429 25.1322 42.1429H26.555C25.7785 44.2155 25.7503 46.4941 26.4752 48.5853C24.5172 49.2401 22.4662 49.5736 20.4016 49.5728ZM35.4759 53.7705C33.8354 53.7705 32.2317 53.2841 30.8676 52.3728C29.5036 51.4614 28.4404 50.166 27.8126 48.6504C27.1847 47.1347 27.0204 45.467 27.3405 43.858C27.6605 42.249 28.4505 40.771 29.6105 39.611C30.7705 38.451 32.2485 37.661 33.8575 37.341C35.4664 37.021 37.1342 37.1853 38.6498 37.8131C40.1655 38.4409 41.4609 39.5041 42.3722 40.8682C43.2836 42.2322 43.77 43.8359 43.7699 45.4764C43.7674 47.6754 42.8928 49.7835 41.3379 51.3384C39.783 52.8933 37.6748 53.768 35.4759 53.7705Z" fill="#034833"/>
<path d="M42.0628 41.9996L41.2805 41.217C40.899 40.8354 40.3815 40.6211 39.8419 40.6211C39.3024 40.6211 38.7849 40.8354 38.4033 41.217L36.7622 42.8577L33.9638 42.2098C33.5883 42.1216 33.1965 42.1311 32.8257 42.2373C32.4549 42.3436 32.1175 42.543 31.8456 42.8166L31.1991 43.4635C31.1282 43.5342 31.0757 43.6213 31.046 43.717C31.0164 43.8127 31.0107 43.9142 31.0293 44.0127C31.0478 44.1111 31.0902 44.2036 31.1526 44.2819C31.2151 44.3603 31.2957 44.4222 31.3876 44.4622L34.012 45.6083L32.9784 46.6416L30.5206 46.8694C30.3779 46.8821 30.2441 46.9442 30.1423 47.0452L28.8879 48.2992C28.8122 48.375 28.7576 48.4694 28.7295 48.5728C28.7014 48.6762 28.7008 48.7852 28.7278 48.8889C28.7547 48.9927 28.8083 49.0876 28.8832 49.1642C28.9581 49.2409 29.0517 49.2967 29.1548 49.3261L32.2246 50.1994C32.8163 50.3677 33.4421 50.3749 34.0374 50.2204C34.6328 50.0659 35.1761 49.7552 35.6112 49.3205L42.0628 42.869C42.1199 42.8119 42.1653 42.7441 42.1962 42.6695C42.2272 42.5949 42.2431 42.5149 42.2431 42.4341C42.2431 42.3533 42.2272 42.2733 42.1962 42.1987C42.1653 42.1241 42.1199 42.0566 42.0628 41.9996ZM34.7411 48.4507C34.4611 48.7307 34.1115 48.9307 33.7283 49.0303C33.3451 49.1299 32.9423 49.1253 32.5614 49.0171L30.4992 48.4307L30.8556 48.0742L33.3134 47.846C33.4562 47.8335 33.59 47.7713 33.6917 47.6703L35.5198 45.8421C35.5907 45.7713 35.6431 45.6843 35.6727 45.5886C35.7022 45.4929 35.7079 45.3914 35.6893 45.293C35.6707 45.1946 35.6283 45.1022 35.5659 45.0239C35.5035 44.9456 35.4228 44.8837 35.331 44.8437L32.707 43.6972L32.7161 43.6881C32.8405 43.5627 32.995 43.4713 33.1648 43.4226C33.3347 43.374 33.5141 43.3698 33.6861 43.4104L36.8174 44.1353C36.9191 44.1589 37.0251 44.1561 37.1255 44.1273C37.2258 44.0985 37.3171 44.0446 37.3908 43.9708L39.2735 42.0888C39.4265 41.9423 39.6301 41.8606 39.8419 41.8606C40.0538 41.8606 40.2574 41.9423 40.4104 42.0888L40.7578 42.4362L34.7411 48.4507Z" fill="#034833"/>
</g>
<defs>
<clipPath id="clip0_3755_161">
<rect width="45" height="45" fill="white" transform="translate(0 10)"/>
</clipPath>
</defs>
</svg>
