<svg width="600" height="672" viewBox="0 0 600 672" fill="none" xmlns="http://www.w3.org/2000/svg">
<g clip-path="url(#clip0_3843_1050)">
<path d="M598.149 373.216C591.619 428.419 566.417 492.62 516.059 522.17C439.987 566.751 446.351 635.3 297.893 665.106C276.236 669.555 254.16 671.643 232.052 671.335C221.234 671.141 210.439 670.256 199.734 668.687C105.366 654.905 41.8422 589.305 18.5512 510.118C-12.1123 405.971 49.1094 337.798 89.6882 296.707C130.267 255.617 159.968 127.561 305.717 97.0934C327.963 92.3536 350.683 90.1978 373.424 90.6688C425.272 91.9477 481.829 108.965 520.979 144.518C523.908 147.186 526.766 149.95 529.555 152.808C583.931 208.659 607.041 297.941 598.149 373.216Z" fill="#83CD20"/>
<path d="M598.149 373.216C591.619 428.419 566.417 492.62 516.059 522.17C439.987 566.751 446.351 635.3 297.893 665.106C276.236 669.555 254.16 671.643 232.052 671.335C221.234 671.141 210.439 670.256 199.734 668.687C105.366 654.905 41.8422 589.305 18.5512 510.118C-12.1123 405.971 49.1094 337.798 89.6882 296.707C130.267 255.617 159.968 127.561 305.717 97.0934C327.963 92.3536 350.683 90.1978 373.424 90.6688C425.272 91.9477 481.829 108.965 520.979 144.518C523.908 147.186 526.766 149.95 529.555 152.808C583.931 208.659 607.041 297.941 598.149 373.216Z" fill="white"/>
<g opacity="0.15">
<path d="M403.155 104.613C396.023 109.563 376.855 112.889 376.84 112.889C376.825 112.889 378.48 99.5881 378.691 98.7605C381.158 89.1763 391.54 72.0992 402.614 71.4222C410.573 70.9407 416.426 77.8618 416.155 85.5202C415.884 93.1785 409.234 100.355 403.155 104.613Z" fill="#D9D9D9"/>
<path d="M350.358 345.813C350.358 346.264 350.358 346.685 350.358 347.137L343.738 351.365C343.738 349.559 343.738 347.739 343.738 345.843C343.738 340.517 343.843 334.814 343.994 328.961C338.502 327.935 333.076 326.584 327.744 324.914C323.366 332.031 310.502 341.901 308.831 343.165C311.705 347.558 314.564 351.786 317.302 355.758C319.198 358.481 321.034 361.084 322.809 363.597L315.602 365.011C314.368 363.206 313.135 361.355 311.871 359.429C308.862 354.991 305.852 350.176 302.768 345.211C300.812 346.038 284.713 352.734 276.588 352.508C269.201 352.313 259.842 349.995 255.298 343.631C250.754 337.267 251.958 328.405 258.894 324.448C268.524 318.941 286.564 327.547 293.861 334.227C294.297 334.619 298.495 339.418 301.098 342.488C299.849 340.456 298.6 338.485 297.336 336.379C294.809 332.211 292.416 327.983 289.813 323.455L286.233 316.684C284.999 314.442 283.976 311.929 282.817 309.522C280.244 303.91 277.927 298.102 275.715 292.204C272.074 294.416 258.999 302.059 251.642 302.977C244.285 303.895 234.715 302.977 229.254 297.425C223.792 291.873 223.642 282.876 229.901 277.866C238.582 270.974 257.721 276.752 266.011 282.244C266.537 282.575 272.029 287.194 274.948 289.767C273.639 286.201 272.33 282.65 271.126 279.009C267.666 268.477 264.491 257.734 261.271 247.021C260.268 243.741 259.265 240.471 258.262 237.212C256.983 238.009 241.712 247.443 233.391 248.466C226.049 249.399 216.45 248.466 211.003 242.914C205.556 237.362 205.391 228.365 211.65 223.354C220.332 216.463 239.47 222.241 247.76 227.733C248.377 228.154 256.231 234.789 258.142 236.58C255.915 229.373 253.628 222.226 251.1 215.275C247.67 205.909 243.635 196.777 239.019 187.936C238.417 188.297 222.468 198.213 214.012 199.266C206.67 200.184 197.071 199.266 191.609 193.714C186.147 188.162 185.997 179.164 192.256 174.154C200.937 167.263 220.076 173.041 228.366 178.533C228.998 178.969 237.394 186.056 238.898 187.56C238.642 187.049 238.417 186.492 238.146 186.056C233.311 177.267 227.707 168.924 221.4 161.124C217.984 156.761 214.464 152.804 210.868 149.088C208.084 151.239 195.265 160.929 187.757 162.719C180.565 164.435 170.921 164.63 164.887 159.71C158.854 154.79 157.711 145.868 163.383 140.256C171.267 132.447 190.917 136.088 199.704 140.647C200.185 140.888 204.759 143.942 208.069 146.214C206.459 144.529 204.819 142.768 203.254 141.189C197.341 135.17 191.579 130.145 186.433 125.676C183.424 123.164 180.776 120.952 178.203 118.906C174.381 119.583 158.899 122.156 151.542 120.32C144.184 118.484 135.728 114.302 132.659 107.065C129.59 99.8275 132.659 91.4771 140.302 89.0998C150.835 85.8048 166.648 98.1273 172.35 106.177C172.847 106.884 179.286 118.695 179.091 118.74H178.865C181.363 120.651 184.026 122.742 186.9 125.09C192.151 129.453 198.049 134.418 204.097 140.271C210.69 146.499 216.91 153.11 222.724 160.071C229.29 167.82 235.146 176.144 240.222 184.942L240.388 185.273C239.696 182.098 238.086 173.161 238.041 172.454C237.394 162.584 241.937 143.115 252.244 139.022C259.661 136.013 267.38 140.828 269.471 148.2C271.563 155.573 267.606 164.314 263.092 170.212C258.067 176.878 242.178 185.484 240.914 186.176C245.859 195.25 250.192 204.645 253.884 214.297C256.066 219.909 258.097 225.641 260.053 231.404C259.556 228.635 259.12 226.153 259.105 225.807C258.458 215.937 263.002 196.467 273.308 192.375C280.726 189.366 288.444 194.18 290.536 201.553C292.627 208.925 288.67 217.832 284.156 223.73C279.642 229.628 266.237 237.272 262.656 239.303C263.393 241.53 264.16 243.726 264.867 245.953C268.313 256.606 271.713 267.258 275.399 277.55C276.678 281.191 278.078 284.726 279.477 288.277C279.026 285.825 278.68 283.764 278.649 283.432C278.002 273.562 282.546 254.093 292.853 250.001C300.27 247.067 307.989 251.806 310.08 259.179C312.172 266.551 308.23 275.518 303.716 281.416C299.202 287.314 287.165 294.281 282.862 296.628C284.367 300.224 285.871 303.82 287.572 307.16C288.745 309.462 289.723 311.764 291.032 314.021C292.341 316.278 293.53 318.535 294.749 320.716C297.276 324.884 299.849 329.202 302.407 333.204C304.167 336.003 305.898 338.636 307.628 341.299C306.304 337.673 303.851 330.556 303.716 329.924C302.166 321.375 302.824 312.571 305.627 304.346C305.411 303.397 305.285 302.43 305.251 301.457C304.98 293.814 310.863 286.923 318.792 287.45C329.851 288.172 340.142 305.309 342.549 314.909C342.7 315.465 343.557 321.784 344.054 325.772C344.144 323.394 344.189 321.062 344.295 318.61C344.49 313.75 344.806 308.89 345.137 303.669C345.393 301.157 345.649 298.614 345.905 296.056C346.16 293.498 346.642 290.835 346.988 288.202C347.951 282.184 349.215 275.985 350.629 269.831C346.371 269.665 331.25 268.838 324.6 265.543C317.949 262.248 310.441 256.23 308.982 248.556C307.522 240.883 312.337 233.315 320.281 232.638C331.325 231.675 344.114 247.052 347.951 256.169C348.191 256.741 350.208 263.602 351.246 267.379C352.118 263.692 352.976 260.006 353.984 256.32C356.903 245.622 360.183 234.91 363.403 224.197C364.396 220.917 365.344 217.637 366.307 214.342C364.802 214.342 346.747 213.71 339.345 210.009C332.724 206.729 325.186 200.71 323.727 193.022C322.267 185.333 327.082 177.795 335.041 177.103C346.07 176.155 358.859 191.517 362.696 200.65C362.982 201.327 365.87 211.182 366.487 213.755C368.594 206.518 370.64 199.296 372.355 192.104C374.732 182.393 376.471 172.537 377.561 162.599C376.854 162.599 358.001 162.042 350.478 158.251C343.843 154.971 336.32 148.952 334.861 141.264C333.401 133.575 338.201 126.037 346.16 125.345C357.204 124.397 369.978 139.759 373.815 148.892C374.131 149.599 377.23 160.222 377.651 162.193C377.651 161.621 377.832 161.019 377.892 160.447C378.717 150.431 378.646 140.36 377.681 130.356C377.23 124.834 376.478 119.583 375.635 114.497C372.13 114.753 356.076 115.761 348.838 113.113C341.887 110.585 333.793 105.425 331.46 97.9468C329.128 90.469 333.116 82.4345 340.939 80.8847C351.818 78.7181 366.201 92.5904 371.031 101.242C371.287 101.708 373.423 106.779 374.928 110.51C374.507 108.208 374.131 105.831 373.694 103.649C372.054 95.4341 370.053 88.0014 368.218 81.4414C367.149 77.7101 366.111 74.3699 365.103 71.2403C361.522 69.7357 347.198 63.3111 342.083 57.699C336.967 52.0869 332.228 43.917 333.642 36.2135C335.056 28.51 342.233 23.3643 349.907 25.561C360.559 28.6605 366.924 47.6032 367.225 57.5034C367.225 58.346 366.096 71.7669 365.916 71.6917L365.69 71.6014C366.728 74.6106 367.796 77.7853 368.895 81.3211C370.866 87.851 373.032 95.2536 374.913 103.484C376.978 112.313 378.525 121.256 379.547 130.265C380.733 140.356 381.02 150.532 380.405 160.673V161.034C381.593 158.025 385.174 149.66 385.52 148.997C390.425 140.406 404.96 126.684 415.808 128.956C423.617 130.596 427.438 138.811 425.121 146.124C422.804 153.436 414.589 158.642 407.578 161.17C399.709 163.938 381.699 162.358 380.269 162.223C379.389 172.527 377.821 182.761 375.575 192.856C374.296 198.739 372.837 204.637 371.287 210.52C372.4 207.932 373.408 205.63 373.574 205.329C378.479 196.738 393.013 183.001 403.861 185.288C411.685 186.928 415.492 195.143 413.175 202.44C410.858 209.738 402.643 214.974 395.631 217.486C388.62 219.999 373.183 218.991 369.105 218.615C368.503 220.872 367.902 223.129 367.285 225.37C364.276 236.173 361.266 246.931 358.588 257.584C357.655 261.33 356.873 265.107 356.076 268.778C357.054 266.491 357.896 264.565 358.062 264.264C362.967 255.673 377.501 241.951 388.349 244.223C396.158 245.863 399.979 254.078 397.662 261.39C395.345 268.703 387.13 273.908 380.119 276.436C373.107 278.964 359.16 277.941 354.33 277.61C353.623 281.461 352.916 285.313 352.404 289.06C352.118 291.633 351.652 294.085 351.517 296.688C351.381 299.291 351.11 301.804 350.915 304.316C350.719 309.191 350.478 314.201 350.403 318.956C350.403 322.266 350.313 325.411 350.298 328.585C351.186 324.839 353.081 317.542 353.307 316.955C356.858 307.717 369.15 291.948 380.209 292.55C388.183 292.987 393.194 300.54 392.005 308.108C390.816 315.676 383.459 322.085 376.959 325.576C369.782 329.413 352.45 330.616 350.283 330.752C350.147 335.882 350.178 340.998 350.358 345.813Z" fill="#D9D9D9"/>
<path d="M210.912 146.832C210.762 146.968 204.894 134.796 204.653 134.013C201.419 124.67 200.666 104.689 209.528 98.0235C215.908 93.2238 224.574 95.7666 228.576 102.327C232.579 108.887 231.029 118.531 228.29 125.407C225.071 133.457 210.928 146.817 210.912 146.832Z" fill="#D9D9D9"/>
</g>
<g opacity="0.15">
<path d="M111.024 383.37C109.79 387.673 103.23 395.271 103.23 395.287C103.23 395.302 99.5437 389.434 99.3481 389.042C97.1965 384.408 95.7672 374.207 99.9499 370.31C100.667 369.687 101.507 369.221 102.415 368.942C103.324 368.664 104.281 368.579 105.224 368.694C106.167 368.809 107.076 369.121 107.891 369.609C108.706 370.098 109.409 370.752 109.955 371.529C112.378 374.749 112.062 379.699 111.024 383.37Z" fill="#D9D9D9"/>
<path d="M168.799 496.873L169.236 497.385L168.002 501.237L166.196 499.04C164.451 496.919 162.631 494.617 160.78 492.224C158.251 493.609 155.644 494.845 152.971 495.926C153.558 500.199 151.647 508.338 151.391 509.377C153.979 510.189 156.492 510.956 158.914 511.633C160.569 512.115 162.149 512.551 163.684 512.958L161.261 515.967L157.951 514.959C155.318 514.146 152.535 513.228 149.676 512.25C149.165 513.228 144.937 521.158 141.627 523.73C138.617 526.063 134.104 528.244 130.222 527.146C129.298 526.927 128.431 526.517 127.676 525.942C126.921 525.366 126.295 524.638 125.84 523.806C125.384 522.973 125.109 522.053 125.032 521.107C124.955 520.161 125.078 519.209 125.392 518.314C127.423 512.973 137.429 510.505 142.529 510.791C142.83 510.791 146.08 511.348 148.111 511.724C146.953 511.318 145.809 510.941 144.621 510.505C142.258 509.678 139.911 508.775 137.399 507.812L133.758 506.307C132.524 505.826 131.29 505.164 130.056 504.577C127.198 503.178 124.369 501.568 121.555 499.988C120.818 502.064 118.11 509.377 115.537 512.16C112.964 514.944 108.796 517.712 104.794 517.261C103.848 517.186 102.928 516.913 102.094 516.46C101.26 516.007 100.53 515.383 99.953 514.63C99.3755 513.876 98.9629 513.01 98.742 512.087C98.5211 511.164 98.4967 510.204 98.6705 509.271C99.8742 503.689 109.398 499.732 114.484 499.236C114.8 499.236 118.486 499.236 120.502 499.311C118.817 498.318 117.132 497.34 115.462 496.302C110.647 493.293 105.862 489.998 101.078 486.778C99.5732 485.785 98.0687 484.822 96.6694 483.769C96.4136 484.506 93.3744 493.278 90.4254 496.392C87.8074 499.16 83.6848 501.944 79.6826 501.493C78.7363 501.418 77.8163 501.145 76.9823 500.692C76.1482 500.239 75.4188 499.615 74.8414 498.862C74.2639 498.108 73.8514 497.242 73.6304 496.319C73.4095 495.396 73.3851 494.436 73.5589 493.503C74.7626 487.921 84.2866 483.964 89.3721 483.468C89.7483 483.468 95.0595 483.468 96.3986 483.588C93.1637 481.451 89.9138 479.345 86.6338 477.404C82.2096 474.748 77.6157 472.386 72.8819 470.333C72.7765 470.679 69.647 479.857 66.6228 483.031C63.9897 485.8 59.8822 488.598 55.8649 488.147C54.9184 488.071 53.9986 487.796 53.1651 487.341C52.3317 486.886 51.6032 486.261 51.0272 485.506C50.4511 484.751 50.0402 483.883 49.8213 482.959C49.6023 482.035 49.5802 481.076 49.7563 480.142C50.96 474.56 60.484 470.603 65.5545 470.107C65.9607 470.107 71.6631 470.107 72.7013 470.242C72.4305 470.137 72.1446 469.986 71.8738 469.866C67.0806 467.916 62.1201 466.405 57.0536 465.352C54.255 464.735 51.5618 464.299 48.9288 463.938C48.5226 465.698 46.5666 473.763 44.1592 476.923C41.7519 480.082 38.0657 483.197 34.0334 483.182C33.0852 483.212 32.1412 483.042 31.263 482.683C30.3848 482.325 29.592 481.785 28.9362 481.099C28.2805 480.414 27.7765 479.598 27.457 478.704C27.1376 477.811 27.0098 476.86 27.0822 475.915C27.6689 470.227 36.6965 465.247 41.6917 464.194C41.9625 464.194 44.7912 463.863 46.8525 463.682C45.6488 463.547 44.4301 463.366 43.2866 463.246C38.9835 462.81 35.0113 462.659 31.5057 462.569C29.5045 462.569 27.699 462.569 26.0139 462.569C24.7049 464.073 19.3636 470.167 15.8429 471.837C12.3221 473.507 7.55259 474.591 3.97167 472.725C3.11457 472.316 2.3534 471.73 1.73784 471.007C1.12227 470.284 0.666142 469.439 0.399219 468.527C0.132296 467.616 0.0605766 466.658 0.188744 465.717C0.316911 464.776 0.642087 463.872 1.14304 463.065C4.28763 458.296 14.5941 458.04 19.5141 459.409C19.9354 459.515 26.375 462.133 26.3148 462.208L26.2245 462.298C27.8495 462.298 29.5948 462.208 31.5057 462.208C35.0264 462.208 39.0286 462.283 43.3317 462.644C47.9967 462.978 52.6385 463.581 57.2341 464.45C62.3629 465.405 67.3976 466.809 72.28 468.647L72.4606 468.723C71.1516 467.684 67.5857 464.645 67.3299 464.389C63.8393 460.658 59.2954 451.405 62.0639 446.334C62.5498 445.518 63.2019 444.812 63.9778 444.264C64.7537 443.715 65.6362 443.336 66.568 443.15C67.4999 442.964 68.4604 442.976 69.3873 443.185C70.3143 443.394 71.187 443.796 71.949 444.363C75.2591 446.665 76.4628 451.48 76.6584 455.287C76.8239 459.59 73.3031 468.211 73.0173 468.828C77.9606 470.824 82.7615 473.157 87.3861 475.809C90.0944 477.314 92.7725 478.954 95.4356 480.609C94.3373 479.676 93.3593 478.818 93.2389 478.683C89.7483 474.967 85.1894 465.713 87.9729 460.718C88.4557 459.9 89.1055 459.193 89.88 458.644C90.6545 458.094 91.5362 457.714 92.4676 457.528C93.3989 457.342 94.3591 457.354 95.2853 457.564C96.2116 457.774 97.0831 458.177 97.843 458.747C101.153 461.049 102.357 465.864 102.552 469.671C102.748 473.477 99.8591 480.955 99.0767 482.911L102.086 484.837C106.946 487.951 111.791 491.096 116.635 494.03C118.335 495.053 120.051 496.016 121.766 497.039C120.788 496.196 119.975 495.534 119.855 495.369C116.364 491.638 111.821 482.384 114.589 477.389C115.074 476.573 115.724 475.868 116.499 475.319C117.273 474.771 118.155 474.392 119.085 474.206C120.016 474.02 120.975 474.032 121.901 474.241C122.827 474.449 123.698 474.851 124.459 475.418C127.769 477.72 128.973 482.535 129.184 486.341C129.394 490.148 126.746 496.873 125.828 499.236C127.619 500.169 129.409 501.101 131.17 501.929C132.403 502.456 133.532 503.057 134.796 503.524L138.467 505.028C140.829 505.871 143.267 506.744 145.599 507.511C147.224 508.053 148.773 508.534 150.323 509.016C148.623 508.007 145.313 506.006 145.057 505.751C141.631 502.847 139.009 499.112 137.444 494.902C137.042 494.601 136.674 494.258 136.345 493.879C135.693 493.19 135.193 492.37 134.879 491.475C134.565 490.579 134.444 489.626 134.523 488.68C134.603 487.734 134.881 486.816 135.341 485.985C135.8 485.154 136.429 484.43 137.188 483.859C141.822 480.534 151.542 483.994 155.634 487.034C155.875 487.214 158.282 489.456 159.787 490.885C159.035 489.907 158.282 488.974 157.53 487.951C156.025 485.95 154.521 483.904 153.016 481.722L150.835 478.427C150.082 477.359 149.42 476.11 148.698 474.952C147.088 472.198 145.584 469.34 144.184 466.436C142.439 467.76 136.135 472.364 132.403 473.221C128.672 474.079 123.722 474.139 120.622 471.551C119.874 470.968 119.257 470.233 118.811 469.395C118.365 468.557 118.101 467.635 118.036 466.688C117.971 465.741 118.106 464.791 118.432 463.9C118.758 463.009 119.269 462.196 119.93 461.516C124.023 457.513 134.134 459.469 138.647 461.862C138.933 462.012 141.988 464.089 143.628 465.247C142.785 463.502 141.912 461.741 141.115 459.936C138.783 454.73 136.601 449.404 134.359 444.047C133.682 442.422 132.99 440.797 132.298 439.172C131.681 439.654 124.309 445.296 120.141 446.259C116.425 447.117 111.444 447.177 108.36 444.589C107.612 444.004 106.995 443.268 106.55 442.43C106.104 441.591 105.839 440.668 105.772 439.721C105.706 438.774 105.839 437.823 106.163 436.93C106.487 436.037 106.994 435.223 107.653 434.538C111.745 430.551 121.871 432.507 126.385 434.884C126.731 435.065 131.109 438.059 132.178 438.872C130.673 435.306 129.169 431.755 127.438 428.339C125.226 423.692 122.713 419.194 119.915 414.873C119.614 415.099 111.956 421.012 107.668 422.005C103.952 422.863 98.9865 422.923 95.887 420.335C95.1381 419.75 94.5207 419.014 94.0749 418.175C93.6292 417.336 93.3651 416.412 93.2998 415.464C93.2345 414.516 93.3695 413.565 93.696 412.673C94.0225 411.78 94.5332 410.966 95.1949 410.284C99.2874 406.297 109.413 408.253 113.927 410.63C114.273 410.826 118.982 414.046 119.795 414.693C119.629 414.437 119.494 414.166 119.329 413.91C116.385 409.66 113.072 405.677 109.428 402.009C107.442 399.948 105.426 398.097 103.41 396.352C102.101 397.601 96.0224 403.243 92.276 404.552C88.5296 405.861 83.745 406.418 80.3747 404.191C79.5678 403.69 78.875 403.025 78.3411 402.24C77.8073 401.455 77.4442 400.566 77.2754 399.631C77.1067 398.697 77.136 397.737 77.3614 396.814C77.5869 395.892 78.0035 395.027 78.5842 394.276C82.2103 389.867 92.4866 390.695 97.2411 392.575C97.4969 392.666 100.01 394.08 101.755 394.998C100.837 394.215 99.9193 393.388 99.0165 392.666C95.6764 389.927 92.4566 387.61 89.5828 385.594C87.9428 384.451 86.4231 383.458 85.069 382.585C83.1281 383.127 75.3343 385.263 71.5277 384.706C67.7211 384.15 63.087 382.434 61.1461 378.899C60.6562 378.083 60.3448 377.172 60.2321 376.227C60.1195 375.282 60.2082 374.324 60.4924 373.416C60.7767 372.508 61.2501 371.67 61.8814 370.958C62.5127 370.246 63.2876 369.675 64.1552 369.284C69.4062 367.043 78.1479 372.504 81.5031 376.356C81.789 376.687 85.716 382.374 85.6107 382.374H85.5054C86.8896 383.232 88.3641 384.165 90.0191 385.218C92.938 387.174 96.218 389.416 99.6334 392.094C103.317 394.95 106.833 398.014 110.166 401.272C113.934 404.907 117.373 408.87 120.442 413.113L120.547 413.279C120.021 411.684 118.727 407.26 118.666 406.824C117.809 401.783 119.118 391.567 124.188 388.934C125.042 388.517 125.974 388.284 126.924 388.251C127.874 388.219 128.82 388.387 129.7 388.745C130.581 389.102 131.376 389.642 132.033 390.328C132.691 391.014 133.196 391.831 133.517 392.726C135.021 396.472 133.396 401.182 131.425 404.447C129.184 408.118 121.495 413.369 120.893 413.79C123.907 418.189 126.626 422.783 129.033 427.542C130.447 430.31 131.787 433.139 133.096 435.983C132.689 434.599 132.343 433.35 132.313 433.169C131.456 428.129 132.764 417.913 137.835 415.28C138.689 414.862 139.621 414.629 140.571 414.597C141.52 414.564 142.466 414.732 143.347 415.09C144.227 415.448 145.022 415.987 145.68 416.673C146.338 417.359 146.843 418.176 147.163 419.071C148.668 422.818 147.043 427.527 145.057 430.792C143.071 434.057 136.586 438.706 134.856 439.91C135.337 441.008 135.849 442.091 136.36 443.205C138.693 448.486 140.995 453.737 143.417 458.883C144.275 460.688 145.177 462.433 146.08 464.179C145.719 462.945 145.433 461.892 145.403 461.726C144.545 456.701 145.854 446.47 150.925 443.837C151.78 443.422 152.713 443.192 153.663 443.161C154.612 443.131 155.558 443.301 156.438 443.66C157.318 444.019 158.112 444.559 158.77 445.245C159.427 445.932 159.933 446.749 160.253 447.643C161.758 451.39 160.133 456.084 158.147 459.349C156.161 462.614 150.308 466.872 148.262 468.256C149.225 470.017 150.203 471.777 151.271 473.447C151.993 474.56 152.625 475.689 153.407 476.772C154.19 477.855 154.912 478.939 155.664 480.022C157.169 482.023 158.674 484.1 160.253 486.04C161.307 487.38 162.33 488.643 163.353 489.907C162.48 488.132 160.855 484.596 160.75 484.28C159.155 479.45 158.899 469.144 163.503 465.759C164.286 465.222 165.173 464.855 166.106 464.682C167.04 464.51 167.999 464.535 168.922 464.756C169.845 464.977 170.712 465.39 171.466 465.967C172.219 466.544 172.844 467.272 173.298 468.106C175.344 471.581 174.457 476.486 172.997 480.007C171.387 483.874 164.872 490.028 164.06 490.78C165.489 492.962 167.174 494.993 168.799 496.873Z" fill="#D9D9D9"/>
<path d="M48.1624 463.067C48.1624 463.172 41.8581 460.238 41.482 460.057C37.1337 457.394 30.3029 449.661 31.657 444.109C31.9054 443.188 32.3458 442.331 32.9492 441.593C33.5526 440.855 34.3054 440.253 35.1581 439.826C36.0108 439.4 36.9441 439.159 37.8966 439.119C38.8491 439.079 39.7992 439.241 40.6846 439.595C44.4912 440.934 46.9738 445.252 48.1172 448.878C49.4413 453.106 48.1624 463.067 48.1624 463.067Z" fill="#D9D9D9"/>
</g>
<g opacity="0.15">
<path d="M478.111 383.369C479.329 387.672 485.889 395.271 485.904 395.286C485.92 395.301 489.591 389.433 489.786 389.042C491.938 384.407 493.367 374.206 489.169 370.309C488.454 369.686 487.615 369.22 486.708 368.942C485.801 368.664 484.845 368.579 483.903 368.694C482.961 368.809 482.053 369.121 481.24 369.609C480.426 370.097 479.724 370.751 479.179 371.528C476.742 374.748 477.057 379.698 478.111 383.369Z" fill="#D9D9D9"/>
<path d="M420.336 496.873L419.899 497.385L421.133 501.237L422.939 499.04C424.684 496.919 426.504 494.617 428.355 492.224C430.882 493.612 433.49 494.848 436.164 495.926C435.577 500.199 437.488 508.338 437.744 509.377C435.156 510.189 432.628 510.956 430.221 511.633C428.581 512.115 427.001 512.551 425.466 512.958L427.889 515.967L431.199 514.959C433.817 514.146 436.615 513.228 439.474 512.25C439.986 513.228 444.198 521.158 447.524 523.73C450.533 526.063 455.047 528.244 458.928 527.146C459.852 526.927 460.72 526.517 461.474 525.942C462.229 525.366 462.855 524.638 463.31 523.806C463.766 522.973 464.041 522.053 464.118 521.107C464.195 520.161 464.073 519.209 463.758 518.314C461.712 512.973 451.721 510.505 446.606 510.791C446.305 510.791 443.07 511.348 441.024 511.724C442.197 511.318 443.326 510.941 444.529 510.505C446.892 509.678 449.239 508.775 451.751 507.812L455.393 506.307C456.611 505.826 457.845 505.164 459.094 504.577C461.953 503.178 464.781 501.568 467.58 499.988C468.317 502.064 471.04 509.377 473.673 512.16C476.306 514.944 480.414 517.712 484.416 517.261C485.362 517.186 486.282 516.913 487.116 516.46C487.95 516.007 488.68 515.383 489.257 514.63C489.835 513.876 490.247 513.01 490.468 512.087C490.689 511.164 490.714 510.204 490.54 509.271C489.321 503.689 479.812 499.732 474.727 499.236C474.411 499.236 470.724 499.236 468.708 499.311C470.378 498.318 472.063 497.34 473.734 496.302C478.563 493.293 483.348 489.998 488.132 486.778C489.637 485.785 491.066 484.822 492.541 483.769C492.797 484.506 495.821 493.278 498.785 496.392C501.403 499.16 505.525 501.944 509.528 501.493C510.474 501.418 511.394 501.145 512.228 500.692C513.062 500.239 513.791 499.615 514.369 498.862C514.946 498.108 515.359 497.242 515.58 496.319C515.801 495.396 515.825 494.436 515.651 493.503C514.433 487.921 504.924 483.964 499.838 483.468C499.462 483.468 494.151 483.468 492.812 483.588C496.047 481.451 499.297 479.345 502.576 477.404C506.997 474.751 511.586 472.389 516.313 470.333C516.434 470.679 519.563 479.857 522.588 483.031C525.221 485.8 529.328 488.598 533.33 488.147C534.278 488.072 535.2 487.799 536.035 487.345C536.87 486.891 537.6 486.266 538.178 485.511C538.756 484.756 539.168 483.888 539.388 482.963C539.608 482.038 539.63 481.077 539.454 480.142C538.25 474.56 528.726 470.603 523.641 470.107C523.25 470.107 517.547 470.107 516.509 470.242C516.78 470.137 517.051 469.986 517.337 469.866C522.13 467.916 527.09 466.405 532.157 465.352C534.94 464.735 537.648 464.299 540.282 463.938C540.688 465.698 542.644 473.763 545.051 476.923C547.458 480.082 551.069 483.197 555.177 483.182C556.124 483.21 557.067 483.038 557.944 482.679C558.822 482.319 559.613 481.779 560.269 481.094C560.924 480.409 561.428 479.594 561.748 478.702C562.069 477.81 562.198 476.86 562.128 475.915C561.541 470.227 552.514 465.247 547.519 464.194C547.248 464.194 544.419 463.863 542.358 463.682C543.561 463.547 544.78 463.366 545.924 463.246C550.227 462.81 554.184 462.659 557.705 462.569C559.706 462.569 561.511 462.569 563.196 462.569C564.505 464.073 569.832 470.167 573.367 471.837C576.903 473.507 581.658 474.591 585.239 472.725C586.094 472.314 586.854 471.728 587.468 471.004C588.082 470.28 588.537 469.435 588.802 468.523C589.068 467.612 589.138 466.655 589.009 465.714C588.88 464.774 588.554 463.871 588.052 463.065C584.923 458.296 574.616 458.04 569.696 459.409C569.26 459.515 562.835 462.133 562.895 462.208L562.971 462.298C561.346 462.298 559.6 462.208 557.705 462.208C554.184 462.208 550.182 462.283 545.879 462.644C541.214 462.977 536.572 463.58 531.976 464.45C526.823 465.403 521.763 466.808 516.855 468.647L516.69 468.723C517.999 467.684 521.564 464.645 521.82 464.389C525.296 460.658 529.855 451.405 527.071 446.334C526.588 445.516 525.939 444.81 525.164 444.26C524.39 443.71 523.508 443.33 522.576 443.144C521.645 442.958 520.685 442.97 519.759 443.18C518.833 443.39 517.961 443.794 517.201 444.363C513.891 446.665 512.687 451.48 512.492 455.287C512.326 459.59 515.847 468.211 516.133 468.828C511.186 470.827 506.38 473.16 501.749 475.809C499.056 477.314 496.378 478.954 493.699 480.609C494.813 479.676 495.791 478.818 495.911 478.683C499.402 474.967 503.946 465.713 501.177 460.718C500.694 459.9 500.045 459.193 499.27 458.644C498.496 458.094 497.614 457.714 496.683 457.528C495.751 457.342 494.791 457.354 493.865 457.564C492.939 457.774 492.067 458.177 491.307 458.747C487.997 461.049 486.793 465.864 486.598 469.671C486.402 473.477 489.291 480.955 490.073 482.911L487.064 484.837C482.204 487.951 477.375 491.096 472.53 494.03C470.83 495.053 469.114 496.016 467.399 497.039C468.377 496.196 469.19 495.534 469.31 495.369C472.801 491.638 477.345 482.384 474.576 477.389C474.09 476.573 473.438 475.867 472.662 475.319C471.886 474.77 471.004 474.391 470.072 474.205C469.14 474.019 468.18 474.031 467.253 474.24C466.326 474.449 465.453 474.85 464.691 475.418C461.381 477.72 460.177 482.535 459.982 486.341C459.786 490.148 462.419 496.873 463.337 499.236C461.546 500.169 459.756 501.101 457.98 501.929C456.762 502.456 455.618 503.057 454.369 503.524L450.698 505.028C448.321 505.871 445.899 506.744 443.567 507.511C441.942 508.053 440.392 508.534 438.842 509.016C440.542 508.007 443.852 506.006 444.108 505.751C447.534 502.847 450.156 499.112 451.721 494.902C452.119 494.597 452.487 494.255 452.82 493.879C453.47 493.189 453.968 492.369 454.281 491.473C454.593 490.578 454.714 489.626 454.634 488.681C454.555 487.736 454.277 486.818 453.819 485.987C453.361 485.156 452.734 484.431 451.977 483.859C447.328 480.534 437.623 483.994 433.531 487.034C433.275 487.214 430.883 489.456 429.378 490.885C430.131 489.907 430.883 488.974 431.635 487.951C433.14 485.95 434.644 483.904 436.149 481.722L438.331 478.427C439.083 477.359 439.745 476.11 440.467 474.952C442.077 472.198 443.567 469.34 444.981 466.436C446.741 467.76 453.045 472.364 456.777 473.221C460.508 474.079 465.458 474.139 468.558 471.551C469.306 470.968 469.923 470.233 470.369 469.395C470.815 468.557 471.079 467.635 471.144 466.688C471.209 465.741 471.074 464.791 470.748 463.9C470.422 463.009 469.911 462.196 469.25 461.516C465.157 457.513 455.031 459.469 450.518 461.862C450.247 462.012 447.193 464.089 445.538 465.247C446.395 463.502 447.268 461.741 448.065 459.936C450.397 454.73 452.579 449.404 454.806 444.047C455.483 442.422 456.175 440.797 456.867 439.172C457.499 439.654 464.856 445.296 469.039 446.259C472.756 447.117 477.721 447.177 480.82 444.589C481.569 444.004 482.186 443.268 482.632 442.429C483.078 441.59 483.342 440.666 483.407 439.718C483.473 438.77 483.338 437.819 483.011 436.926C482.685 436.034 482.174 435.22 481.512 434.538C477.42 430.551 467.309 432.507 462.795 434.884C462.449 435.065 458.071 438.059 457.002 438.872C458.507 435.306 460.012 431.755 461.727 428.339C463.945 423.695 466.458 419.197 469.25 414.873C469.536 415.099 477.209 421.012 481.482 422.005C485.198 422.863 490.179 422.923 493.263 420.335C494.012 419.75 494.629 419.014 495.075 418.175C495.521 417.336 495.785 416.412 495.85 415.464C495.916 414.516 495.781 413.565 495.454 412.673C495.128 411.78 494.617 410.966 493.955 410.284C489.878 406.297 479.752 408.253 475.238 410.63C474.877 410.826 470.168 414.046 469.37 414.693C469.521 414.437 469.671 414.166 469.837 413.91C472.78 409.66 476.093 405.677 479.737 402.009C481.723 399.948 483.739 398.097 485.755 396.352C487.064 397.601 493.143 403.243 496.889 404.552C500.636 405.861 505.42 406.418 508.79 404.191C509.597 403.69 510.29 403.025 510.824 402.24C511.358 401.455 511.721 400.566 511.89 399.631C512.058 398.697 512.029 397.737 511.804 396.814C511.578 395.892 511.162 395.027 510.581 394.276C506.955 389.867 496.678 390.695 491.924 392.575C491.668 392.666 489.156 394.08 487.41 394.998C488.313 394.215 489.246 393.388 490.134 392.666C493.474 389.927 496.709 387.61 499.582 385.594C501.222 384.451 502.742 383.458 504.096 382.585C506.022 383.127 513.831 385.263 517.637 384.706C521.444 384.15 526.063 382.434 528.019 378.899C528.504 378.082 528.812 377.171 528.922 376.228C529.032 375.284 528.942 374.327 528.658 373.421C528.374 372.514 527.903 371.677 527.274 370.964C526.646 370.251 525.874 369.679 525.01 369.284C519.744 367.043 511.017 372.504 507.662 376.356C507.376 376.687 503.449 382.374 503.539 382.374H503.66C502.276 383.232 500.801 384.165 499.146 385.218C496.227 387.174 492.932 389.416 489.532 392.094C485.849 394.95 482.332 398.014 479 401.272C475.231 404.907 471.792 408.87 468.723 413.113L468.618 413.279C469.129 411.684 470.438 407.26 470.499 406.824C471.341 401.783 470.032 391.567 464.962 388.934C464.109 388.517 463.178 388.284 462.229 388.252C461.28 388.219 460.336 388.387 459.456 388.745C458.577 389.103 457.783 389.643 457.127 390.329C456.471 391.015 455.967 391.832 455.648 392.726C454.144 396.472 455.769 401.182 457.74 404.447C459.967 408.118 467.67 413.369 468.272 413.79C465.252 418.186 462.533 422.78 460.132 427.542C458.718 430.31 457.379 433.139 456.07 435.983C456.476 434.599 456.822 433.35 456.852 433.169C457.71 428.129 456.401 417.913 451.33 415.28C450.476 414.862 449.544 414.629 448.594 414.597C447.645 414.564 446.699 414.732 445.818 415.09C444.938 415.448 444.143 415.987 443.485 416.673C442.828 417.359 442.322 418.176 442.002 419.071C440.497 422.818 442.122 427.527 444.093 430.792C446.064 434.057 452.579 438.706 454.309 439.91C453.813 441.008 453.316 442.091 452.805 443.205C450.473 448.486 448.155 453.737 445.748 458.883C444.891 460.688 443.988 462.433 443.085 464.179C443.446 462.945 443.732 461.892 443.762 461.726C444.62 456.701 443.311 446.47 438.225 443.837C437.371 443.424 436.439 443.196 435.491 443.167C434.543 443.138 433.599 443.308 432.721 443.667C431.843 444.026 431.05 444.566 430.394 445.251C429.738 445.936 429.233 446.751 428.912 447.643C427.407 451.39 429.032 456.084 431.003 459.349C432.974 462.614 438.857 466.872 440.903 468.256C439.925 470.017 438.962 471.777 437.894 473.447C437.157 474.56 436.54 475.689 435.758 476.772L433.486 480.022C431.981 482.023 430.477 484.1 428.972 486.04C427.919 487.38 426.896 488.643 425.873 489.907C426.73 488.132 428.37 484.596 428.46 484.28C430.07 479.45 430.326 469.144 425.722 465.759C424.939 465.222 424.052 464.855 423.119 464.682C422.186 464.51 421.226 464.535 420.303 464.756C419.38 464.977 418.514 465.39 417.76 465.967C417.006 466.544 416.382 467.272 415.927 468.106C413.881 471.581 414.769 476.486 416.228 480.007C417.823 483.874 424.353 490.028 425.165 490.78C423.646 492.962 421.961 494.993 420.336 496.873Z" fill="#D9D9D9"/>
<path d="M540.973 463.067C540.973 463.172 547.277 460.238 547.654 460.057C552.002 457.394 558.833 449.661 557.479 444.109C557.23 443.188 556.79 442.331 556.186 441.593C555.583 440.855 554.83 440.253 553.977 439.826C553.125 439.4 552.192 439.159 551.239 439.119C550.287 439.079 549.336 439.241 548.451 439.595C544.644 440.934 542.162 445.252 541.018 448.878C539.694 453.106 540.973 463.067 540.973 463.067Z" fill="#D9D9D9"/>
</g>
<path d="M410.993 410.073L311.314 368.29L395.406 166.254L495.085 208.036L410.993 410.073Z" fill="#D9D9D9" stroke="#727272" stroke-width="1.50459" stroke-linecap="round" stroke-linejoin="round"/>
<path d="M475.073 228.665C473.363 227.956 471.823 226.89 470.558 225.538C469.293 224.186 468.332 222.579 467.739 220.825C467.147 219.071 466.936 217.21 467.121 215.368C467.307 213.526 467.884 211.744 468.814 210.143L411.64 186.16C411.493 186.671 411.317 187.174 411.113 187.665C410.455 189.254 409.489 190.697 408.27 191.911C407.051 193.125 405.604 194.085 404.013 194.737C402.421 195.389 400.716 195.719 398.996 195.709C397.276 195.698 395.575 195.347 393.991 194.676C393.735 194.571 393.495 194.435 393.254 194.315L329.82 347.091C330.076 347.181 330.332 347.257 330.573 347.362C332.292 348.06 333.841 349.12 335.112 350.471C336.384 351.822 337.35 353.432 337.942 355.191C338.535 356.949 338.742 358.814 338.547 360.66C338.353 362.505 337.763 364.287 336.817 365.883L394.066 389.866C394.204 389.354 394.375 388.852 394.578 388.362C395.241 386.782 396.208 385.348 397.425 384.143C398.642 382.937 400.085 381.982 401.67 381.334C403.256 380.686 404.954 380.356 406.667 380.364C408.38 380.372 410.075 380.718 411.655 381.381C412.151 381.591 412.633 381.847 413.159 382.103L476.653 229.206C476.113 229.067 475.585 228.886 475.073 228.665ZM393.991 308.017C390.095 306.383 386.77 303.63 384.438 300.107C382.106 296.583 380.871 292.448 380.889 288.223C380.907 283.998 382.178 279.873 384.54 276.37C386.902 272.867 390.25 270.142 394.16 268.542C398.07 266.941 402.367 266.536 406.508 267.377C410.649 268.218 414.447 270.268 417.422 273.268C420.398 276.267 422.417 280.082 423.225 284.229C424.033 288.376 423.593 292.67 421.961 296.567C420.879 299.157 419.296 301.508 417.304 303.486C415.312 305.464 412.949 307.029 410.351 308.093C407.753 309.156 404.971 309.697 402.163 309.684C399.356 309.671 396.579 309.104 393.991 308.017Z" fill="#D9D9D9" stroke="#727272" stroke-width="1.50459" stroke-linecap="round" stroke-linejoin="round"/>
<path d="M409.684 410.586L315.105 358.257L420.577 166.512L515.141 218.826L409.684 410.586Z" fill="#D9D9D9" stroke="#727272" stroke-width="1.50459" stroke-linecap="round" stroke-linejoin="round"/>
<path d="M493.023 237.162C491.523 236.334 490.201 235.219 489.133 233.88C488.065 232.541 487.271 231.004 486.797 229.358C486.324 227.712 486.179 225.988 486.372 224.286C486.565 222.584 487.092 220.936 487.923 219.438C488.196 218.972 488.492 218.52 488.81 218.084L434.495 187.992C434.298 188.506 434.072 189.009 433.818 189.497C432.14 192.52 429.331 194.754 426.008 195.708C422.685 196.661 419.119 196.257 416.093 194.582C415.854 194.456 415.623 194.316 415.401 194.161L335.809 339.173C336.055 339.276 336.296 339.392 336.531 339.519C339.557 341.194 341.794 344.002 342.751 347.325C343.707 350.649 343.304 354.216 341.631 357.243C341.365 357.714 341.069 358.166 340.744 358.598L395.044 388.689C395.246 388.175 395.477 387.672 395.736 387.185C396.564 385.685 397.679 384.363 399.019 383.295C400.358 382.226 401.894 381.433 403.541 380.959C405.187 380.485 406.91 380.341 408.613 380.534C410.315 380.727 411.962 381.254 413.46 382.084C413.929 382.354 414.381 382.65 414.815 382.972L494.558 237.839C494.031 237.651 493.518 237.424 493.023 237.162ZM403.861 307.291C400.161 305.244 397.151 302.145 395.211 298.387C393.272 294.629 392.491 290.38 392.966 286.178C393.442 281.976 395.153 278.009 397.884 274.78C400.614 271.55 404.241 269.203 408.305 268.035C412.37 266.866 416.689 266.93 420.718 268.217C424.746 269.504 428.302 271.957 430.936 275.265C433.571 278.573 435.165 282.588 435.517 286.803C435.869 291.017 434.964 295.241 432.915 298.941C430.169 303.9 425.565 307.565 420.117 309.131C414.669 310.697 408.822 310.035 403.861 307.291Z" fill="#D9D9D9" stroke="#727272" stroke-width="1.50459" stroke-linecap="round" stroke-linejoin="round"/>
<path d="M407.939 411.024L321.516 346.116L452.505 170.816L538.929 235.724L407.939 411.024Z" fill="#D9D9D9" stroke="#727272" stroke-width="1.50459" stroke-linecap="round" stroke-linejoin="round"/>
<path d="M514.478 250.813C513.1 249.786 511.938 248.496 511.06 247.018C510.183 245.539 509.606 243.902 509.364 242.2C509.122 240.498 509.22 238.765 509.651 237.1C510.082 235.436 510.838 233.873 511.875 232.502C512.203 232.072 512.56 231.665 512.943 231.284L463.292 194C463.021 194.472 462.725 194.929 462.404 195.369C460.326 198.13 457.236 199.953 453.814 200.439C450.392 200.924 446.918 200.031 444.154 197.957C443.928 197.792 443.732 197.611 443.522 197.445L344.625 330.03C344.851 330.18 345.076 330.316 345.287 330.481C348.051 332.56 349.878 335.651 350.366 339.076C350.854 342.5 349.963 345.978 347.89 348.747C347.562 349.177 347.205 349.584 346.822 349.966L396.473 387.234C396.73 386.762 397.022 386.309 397.346 385.88C398.375 384.511 399.664 383.358 401.139 382.487C402.614 381.616 404.247 381.044 405.943 380.803C407.639 380.563 409.366 380.659 411.025 381.086C412.684 381.513 414.242 382.263 415.612 383.292C416.042 383.615 416.449 383.967 416.83 384.346L515.862 251.701C515.383 251.434 514.92 251.138 514.478 250.813ZM416.469 307.988C413.089 305.448 410.537 301.963 409.137 297.973C407.737 293.983 407.552 289.668 408.604 285.573C409.657 281.478 411.9 277.787 415.05 274.966C418.2 272.146 422.115 270.322 426.301 269.727C430.488 269.132 434.756 269.791 438.568 271.622C442.379 273.452 445.562 276.372 447.715 280.011C449.867 283.65 450.892 287.846 450.66 292.068C450.428 296.29 448.949 300.348 446.41 303.73C444.721 305.973 442.606 307.861 440.187 309.286C437.767 310.711 435.091 311.645 432.31 312.035C429.529 312.425 426.699 312.263 423.981 311.558C421.263 310.853 418.71 309.62 416.469 307.927V307.988Z" fill="#D9D9D9" stroke="#727272" stroke-width="1.50459" stroke-linecap="round" stroke-linejoin="round"/>
<path d="M406.209 411.219L329.234 335.343L482.492 179.121L559.452 254.998L406.209 411.219Z" fill="#D9D9D9" stroke="#727272" stroke-width="1.50459" stroke-linecap="round" stroke-linejoin="round"/>
<path d="M533.211 266.698C530.747 264.27 529.349 260.963 529.323 257.503C529.298 254.044 530.648 250.716 533.076 248.252C533.46 247.872 533.867 247.515 534.294 247.184L490.105 203.551C489.774 203.974 489.423 204.381 489.051 204.77C486.623 207.233 483.316 208.632 479.856 208.657C476.397 208.683 473.069 207.333 470.605 204.905C470.413 204.715 470.232 204.514 470.063 204.303L354.315 322.489C354.511 322.669 354.722 322.835 354.917 323.03C357.381 325.458 358.78 328.766 358.805 332.225C358.83 335.685 357.481 339.012 355.053 341.476C354.662 341.853 354.255 342.214 353.834 342.545L398.024 386.178C398.351 385.742 398.708 385.33 399.092 384.944C400.293 383.725 401.723 382.754 403.299 382.087C404.876 381.42 406.568 381.07 408.28 381.058C409.991 381.045 411.689 381.37 413.275 382.013C414.861 382.657 416.304 383.607 417.523 384.809C417.903 385.193 418.26 385.6 418.592 386.027L534.445 267.752C534.013 267.425 533.601 267.073 533.211 266.698ZM428.462 310.181C425.455 307.213 423.395 303.421 422.543 299.282C421.692 295.144 422.086 290.847 423.676 286.933C425.267 283.018 427.982 279.664 431.479 277.292C434.975 274.921 439.096 273.64 443.321 273.61C447.546 273.581 451.684 274.805 455.214 277.127C458.743 279.449 461.505 282.766 463.15 286.657C464.794 290.549 465.248 294.841 464.454 298.99C463.66 303.14 461.654 306.961 458.689 309.97C456.718 311.97 454.373 313.562 451.788 314.655C449.202 315.748 446.426 316.32 443.619 316.34C440.812 316.359 438.028 315.825 435.427 314.769C432.827 313.712 430.46 312.153 428.462 310.181Z" fill="#D9D9D9" stroke="#727272" stroke-width="1.50459" stroke-linecap="round" stroke-linejoin="round"/>
<path d="M308.335 394.303L169.913 482.262L22.7188 249.773L161.141 161.814C163.562 160.277 166.493 159.764 169.292 160.388C172.091 161.011 174.527 162.72 176.066 165.139L311.72 379.378C312.479 380.58 312.992 381.92 313.233 383.321C313.473 384.721 313.435 386.156 313.12 387.542C312.806 388.928 312.222 390.239 311.4 391.399C310.579 392.559 309.538 393.546 308.335 394.303Z" fill="#D9D9D9" stroke="#727272" stroke-width="1.50459" stroke-linecap="round" stroke-linejoin="round"/>
<path d="M304.439 394.456L166.017 482.414L18.8379 249.925L157.26 161.967C159.681 160.43 162.612 159.917 165.411 160.54C168.21 161.164 170.646 162.873 172.186 165.292L307.824 379.53C308.583 380.732 309.096 382.072 309.337 383.473C309.577 384.874 309.539 386.308 309.224 387.694C308.91 389.081 308.326 390.391 307.504 391.551C306.683 392.711 305.642 393.698 304.439 394.456Z" fill="#D9D9D9" stroke="#727272" stroke-width="1.50459" stroke-linecap="round" stroke-linejoin="round"/>
<path d="M299.925 397.527L161.503 485.485L14.3086 252.996L152.731 165.038C155.154 163.5 158.088 162.987 160.889 163.61C163.69 164.234 166.129 165.943 167.671 168.363L303.31 382.602C304.068 383.804 304.582 385.144 304.823 386.544C305.063 387.945 305.025 389.38 304.71 390.766C304.396 392.152 303.811 393.463 302.99 394.623C302.169 395.783 301.127 396.77 299.925 397.527Z" fill="#D9D9D9" stroke="#727272" stroke-width="1.50459" stroke-linecap="round" stroke-linejoin="round"/>
<path d="M88.2742 281.896L77.6367 265.165L81.7894 262.592C82.6024 262.024 83.5537 261.687 84.5428 261.614C85.3784 261.593 86.1962 261.859 86.8599 262.367C87.6664 262.971 88.3463 263.727 88.861 264.594C89.3888 265.367 89.7288 266.253 89.854 267.181C89.9667 267.998 89.8193 268.83 89.4327 269.559C88.9753 270.374 88.311 271.054 87.5068 271.53L85.6562 272.688L90.6063 280.482L88.2742 281.896ZM84.603 270.943L85.6712 270.266C86.2429 269.949 86.7526 269.531 87.1758 269.032C87.3203 268.847 87.4244 268.633 87.4814 268.405C87.5384 268.177 87.547 267.94 87.5068 267.708C87.3689 267.074 87.1026 266.475 86.7244 265.948C86.3541 265.316 85.904 264.734 85.3854 264.217C85.2179 264.05 85.0135 263.925 84.7887 263.852C84.5639 263.779 84.325 263.76 84.0914 263.796C83.4104 263.958 82.7668 264.249 82.1956 264.654L81.0973 265.346L84.603 270.943Z" fill="#D9D9D9"/>
<path d="M96.5046 276.659L89.418 257.672L91.6749 256.242L105.878 270.701L103.666 272.101L100.221 268.384L96.8205 270.551L98.6862 275.275L96.5046 276.659ZM96.0833 268.61L98.8668 266.85L92.6679 260.199L96.0833 268.61Z" fill="#D9D9D9"/>
<path d="M111.64 267.299C110.816 267.87 109.843 268.189 108.841 268.217C107.929 268.206 107.041 267.928 106.284 267.42C105.426 266.837 104.681 266.103 104.087 265.253L105.802 263.388C106.216 263.926 106.674 264.43 107.171 264.892C107.596 265.305 108.111 265.614 108.676 265.795C108.971 265.857 109.276 265.858 109.572 265.796C109.867 265.733 110.146 265.61 110.391 265.434C110.655 265.291 110.886 265.094 111.067 264.855C111.249 264.617 111.377 264.342 111.444 264.05C111.515 263.43 111.348 262.806 110.978 262.304C110.597 261.636 110.012 261.109 109.308 260.8C108.595 260.543 107.86 260.357 107.111 260.243L102.733 259.551C101.942 259.439 101.183 259.162 100.506 258.738C99.8028 258.247 99.2128 257.611 98.7756 256.873C98.4128 256.37 98.1574 255.798 98.0254 255.192C97.8934 254.586 97.8876 253.96 98.0083 253.352C98.3476 252.148 99.1477 251.126 100.235 250.508C100.821 250.124 101.467 249.839 102.146 249.666C102.724 249.523 103.328 249.523 103.906 249.666C104.512 249.836 105.079 250.122 105.576 250.508C106.18 250.995 106.726 251.55 107.201 252.163L105.561 253.969C105.198 253.476 104.79 253.018 104.343 252.6C103.968 252.242 103.498 252.002 102.988 251.907C102.415 251.87 101.846 252.02 101.365 252.335C100.885 252.65 100.52 253.112 100.325 253.653C100.268 253.945 100.273 254.247 100.34 254.537C100.407 254.828 100.536 255.101 100.717 255.338C100.975 255.779 101.336 256.151 101.77 256.421C102.235 256.679 102.746 256.843 103.274 256.903L107.683 257.595C108.726 257.74 109.741 258.045 110.692 258.498C111.708 259 112.56 259.783 113.144 260.754C113.628 261.493 113.917 262.342 113.987 263.222C114.023 264.015 113.835 264.802 113.445 265.494C112.999 266.234 112.38 266.853 111.64 267.299Z" fill="#D9D9D9"/>
<path d="M121.404 261.086C120.58 261.657 119.608 261.976 118.606 262.004C117.698 261.994 116.814 261.717 116.063 261.207C115.199 260.632 114.453 259.897 113.867 259.04L115.642 257.174C116.051 257.717 116.51 258.221 117.011 258.679C117.435 259.093 117.95 259.403 118.516 259.582C118.811 259.645 119.116 259.646 119.412 259.584C119.707 259.522 119.986 259.398 120.231 259.221C120.496 259.084 120.728 258.89 120.91 258.654C121.092 258.417 121.22 258.143 121.284 257.852C121.363 257.229 121.202 256.599 120.833 256.091C120.442 255.426 119.853 254.899 119.148 254.587C118.44 254.33 117.71 254.144 116.966 254.03L112.573 253.338C111.782 253.226 111.023 252.949 110.346 252.525C109.643 252.034 109.053 251.398 108.615 250.66C108.253 250.157 107.997 249.585 107.865 248.979C107.733 248.373 107.727 247.747 107.848 247.139C108.195 245.938 109 244.922 110.09 244.31C110.672 243.925 111.312 243.635 111.986 243.453C112.568 243.302 113.179 243.302 113.761 243.453C114.367 243.617 114.934 243.898 115.431 244.28C116.034 244.764 116.575 245.319 117.041 245.935L115.401 247.741C115.038 247.248 114.63 246.789 114.182 246.372C113.812 246.009 113.339 245.767 112.828 245.679C112.257 245.649 111.69 245.803 111.211 246.116C110.732 246.43 110.366 246.888 110.165 247.425C110.111 247.717 110.118 248.018 110.185 248.308C110.253 248.598 110.379 248.871 110.556 249.11C110.819 249.551 111.179 249.927 111.61 250.208C112.082 250.448 112.59 250.611 113.114 250.69L117.523 251.367C118.534 251.527 119.517 251.831 120.442 252.269C121.455 252.776 122.305 253.558 122.894 254.526C123.384 255.262 123.674 256.112 123.737 256.994C123.772 257.787 123.584 258.574 123.195 259.266C122.76 260.013 122.144 260.639 121.404 261.086Z" fill="#D9D9D9"/>
<path d="M127.108 257.201L116.471 240.47L120.623 237.837C121.432 237.259 122.385 236.916 123.377 236.844C124.211 236.83 125.027 237.095 125.694 237.597C126.5 238.206 127.18 238.968 127.695 239.838C128.229 240.609 128.57 241.496 128.688 242.426C128.801 243.238 128.653 244.065 128.267 244.789C127.813 245.607 127.148 246.287 126.341 246.76L124.49 247.933L129.44 255.712L127.108 257.201ZM123.437 246.263L124.505 245.571C125.08 245.259 125.591 244.84 126.01 244.337C126.152 244.151 126.254 243.937 126.309 243.709C126.363 243.481 126.369 243.244 126.326 243.013C126.188 242.382 125.927 241.784 125.558 241.253C125.193 240.623 124.742 240.045 124.219 239.538C124.052 239.371 123.848 239.245 123.623 239.172C123.398 239.099 123.159 239.08 122.925 239.116C122.242 239.264 121.597 239.551 121.03 239.959L119.931 240.666L123.437 246.263Z" fill="#D9D9D9"/>
<path d="M141.416 248.376C140.5 249.019 139.419 249.385 138.301 249.43C137.335 249.417 136.402 249.078 135.653 248.467C134.755 247.727 133.987 246.842 133.381 245.849L129.349 239.514C128.711 238.562 128.252 237.502 127.995 236.385C127.775 235.471 127.876 234.51 128.281 233.662C128.807 232.679 129.599 231.866 130.568 231.314C131.478 230.67 132.553 230.3 133.667 230.246C134.606 230.249 135.518 230.567 136.255 231.149C137.15 231.854 137.909 232.716 138.497 233.692L142.544 240.056C143.174 241.014 143.637 242.072 143.913 243.186C144.136 244.125 144.052 245.111 143.673 245.999C143.171 246.996 142.386 247.823 141.416 248.376ZM140.257 246.541C140.774 246.254 141.181 245.804 141.416 245.262C141.583 244.774 141.583 244.245 141.416 243.757C141.198 243.151 140.905 242.575 140.543 242.042L135.894 234.7C135.554 234.156 135.156 233.651 134.705 233.195C134.359 232.842 133.902 232.619 133.411 232.563C132.821 232.562 132.245 232.752 131.771 233.105C131.257 233.39 130.843 233.826 130.583 234.354C130.399 234.838 130.399 235.374 130.583 235.858C130.792 236.457 131.075 237.029 131.425 237.558L136.089 244.886C136.427 245.435 136.831 245.941 137.293 246.39C137.644 246.759 138.112 246.993 138.617 247.052C139.205 247.062 139.78 246.883 140.257 246.541Z" fill="#D9D9D9"/>
<path d="M148.157 243.834L137.52 227.103L140.89 224.951C141.801 224.329 142.822 223.885 143.899 223.642C144.761 223.47 145.657 223.609 146.427 224.033C147.32 224.589 148.059 225.36 148.578 226.275C148.968 226.863 149.277 227.5 149.496 228.171C149.698 228.734 149.765 229.337 149.692 229.931C149.601 230.486 149.362 231.006 149 231.436L156.703 238.312L154.461 239.741L147.284 233.286L145.464 234.43L150.444 242.284L148.157 243.834ZM144.441 232.82L145.328 232.263C145.906 231.936 146.417 231.502 146.833 230.984C147.13 230.577 147.259 230.07 147.194 229.57C147.076 228.9 146.814 228.264 146.427 227.704C146.013 226.921 145.351 226.297 144.546 225.929C144.096 225.857 143.636 225.882 143.197 226.004C142.758 226.126 142.351 226.342 142.003 226.636L140.965 227.283L144.441 232.82Z" fill="#D9D9D9"/>
<path d="M160.78 235.841L151.24 220.795L148.412 222.601L147.238 220.915L155.152 215.875L156.251 217.62L153.497 219.366L163.036 234.412L160.78 235.841Z" fill="#D9D9D9"/>
<path d="M220.7 339.926C227.278 311.724 209.749 283.529 181.547 276.951C153.345 270.373 125.15 287.902 118.571 316.104C111.993 344.306 129.522 372.501 157.724 379.079C185.926 385.658 214.121 368.128 220.7 339.926Z" stroke="#D9D9D9" stroke-width="1.50459" stroke-miterlimit="10"/>
<path d="M197.731 372.295C208.208 365.636 204.109 340.425 188.575 315.985C173.04 291.545 151.954 277.13 141.477 283.79C130.999 290.449 135.099 315.66 150.633 340.1C166.167 364.54 187.253 378.954 197.731 372.295Z" stroke="#D9D9D9" stroke-width="1.50459" stroke-miterlimit="10"/>
<path d="M122.744 305.215L169.161 275.695" stroke="#D9D9D9" stroke-width="1.50459" stroke-miterlimit="10"/>
<path d="M117.508 335.11L198.455 283.668" stroke="#D9D9D9" stroke-width="1.50459" stroke-miterlimit="10"/>
<path d="M141.055 372.152L222.002 320.695" stroke="#D9D9D9" stroke-width="1.50459" stroke-miterlimit="10"/>
<path d="M125.271 356.205L214.253 299.633" stroke="#D9D9D9" stroke-width="1.50459" stroke-miterlimit="10"/>
<path d="M170.785 380.794L217.202 351.289" stroke="#D9D9D9" stroke-width="1.50459" stroke-miterlimit="10"/>
<path d="M413.99 616.493C479.611 550.872 479.611 444.48 413.99 378.859C348.369 313.238 241.977 313.238 176.356 378.859C110.735 444.48 110.735 550.872 176.356 616.493C241.977 682.113 348.369 682.113 413.99 616.493Z" fill="#D9D9D9" stroke="#727272" stroke-width="1.50459" stroke-linecap="round" stroke-linejoin="round"/>
<path d="M261.424 653.145C270.432 655.105 279.595 656.273 288.807 656.635" stroke="#D9D9D9" stroke-width="1.50459" stroke-linecap="round" stroke-linejoin="round"/>
<path d="M240.826 647.164C245.39 648.819 250.024 650.274 254.729 651.527" stroke="#D9D9D9" stroke-width="1.50459" stroke-linecap="round" stroke-linejoin="round"/>
<path d="M142.171 454.16C131.479 491.82 135.045 532.1 152.185 567.297C169.326 602.493 198.838 630.137 235.079 644.942" stroke="#D9D9D9" stroke-width="1.50459" stroke-linecap="round" stroke-linejoin="round"/>
<path d="M163.55 408.406C157.804 416.877 152.886 425.88 148.865 435.293" stroke="#D9D9D9" stroke-width="1.50459" stroke-linecap="round" stroke-linejoin="round"/>
<path d="M272.393 423.047L289.53 426.598L295.368 432.646L302.981 433.82L305.403 441.042L303.628 445.932L298.437 448.309L285.723 446.233L285.377 444.683L291.38 440.485L287.228 432.827L275.853 431.262L269.805 426.071L272.393 423.047Z" fill="#D9D9D9"/>
<path d="M410.452 581.114L396.911 578.827L380.451 576.751L368.414 579.429L356.603 579.594L344.762 585.086L337.841 587.042L333.552 587.99L326.421 594.475L319.319 599.319L307.282 595.031L307.583 583.521L300.361 582.272L292.583 584.003L290.627 580.753L289.859 573.576L286.263 570.296L280.982 572.282L280.29 576.525L273.76 578.376L266.358 572.673L261.949 563.841L265.38 551.639L276.83 549.909L280.561 551.955L285.225 550.917L290.296 546.117L295.697 546.538L305.387 557.071L308.02 556.077L305.251 547.291L301.881 543.138L301.023 535.615L314.038 526.196L312.789 511.361L317.89 504.906L320.899 494.826L324.63 493.186L332.274 485.362L331.973 482.157L325.834 483.932L323.983 481.074L319.695 482.022L313.421 485.031L315.407 479.268L328.166 472.347L330.513 468.164L337.856 475.507L342.144 478.245L347.244 475.477L343.784 470.963L334.32 466.931L322.644 458.505L311.435 453.991L301.746 454.518L296.194 450.862L289.573 450.666L289.137 452.396L290.867 463.861L293.29 467.397L292.552 480.637L283.374 476.124V470.406L274.347 468.33L269.833 464.824L269.607 454.668L279.086 443.986L277.792 434.462L273.595 435.801L270.089 432.912L267.606 427.375L264.793 427.586L264.597 434.116L260.49 435.846L255.57 422.696L252.034 421.447L246.016 420.318L240.479 424.832L249.912 430.505L252.922 436.779L236.567 429.376L224.53 421.026L221.416 410.689L210.598 409.816L203.947 416.602C202.31 418.165 200.593 419.642 198.802 421.026C195.883 422.45 192.866 423.662 189.774 424.652L189.684 431.618L180.807 433.995L182.537 438.103L197.462 437.245L206.671 443.775L209.68 457.407L208.07 470.421L211.696 483.09L205.031 504.59L209.018 533.524L216.149 549.096L223.973 560.441L229.992 559.914L226.651 554.122L222.514 550.134L218.662 542.01L221.987 540.505L230.548 553.309L237.214 564.909L239.456 575.035L248.844 582.348L264.326 589.088L285.782 590.036L293.305 594.55L299.323 599.741L307.282 602.464L316.31 602.9L324.781 600.598C324.781 600.598 325.262 604.585 325.684 606.526C326.105 608.467 322.133 616.306 322.133 616.306L319.59 625.048L324.6 632.917L333.944 634.512L348.779 644.292L354.797 645.42L356.091 651.258L357.37 653.831C386.575 642.216 411.917 622.61 430.493 597.258L430.072 594.384L436.346 572.974L430.508 570.597L410.452 581.114Z" fill="#D9D9D9"/>
<path d="M416.786 418.349L410.858 411.909L403.501 404.552L399.363 393.223L406.63 392.831L406.149 388.859L401.003 389.596L404.855 386.693L408.917 382.931L408.06 379.034L402.041 373.843L399.183 365.689C370.409 343.029 335.023 330.387 298.405 329.683C261.787 328.98 225.942 340.254 196.319 361.792L206.701 366.155L202.819 374.385L195.762 377.575L197.267 388.257L194.423 390.123L191.414 395.269L193.355 402.19L200.156 401.498L198.892 408.72L205.512 407.215L213.607 390.304L213.396 383.804L224.124 380.614L225.809 375.333L236.838 371.662L236.537 364.786L244.616 362.574C244.616 362.574 249.777 358.166 250.936 357.91C253.296 357.889 255.655 358.045 257.992 358.376L264.868 361.762L273.038 359.941L279.056 354.103L288.174 352.9C289.648 353.469 291.238 353.675 292.808 353.501C294.749 353.065 299.985 348.988 299.985 348.988L312.834 353.501L318.281 355.969L319.575 361.807L325.593 361.28L326.767 357.353L332.349 358.557L332.65 361.762L321.651 367.479L330.182 374.566L345.92 379.245L353.443 385.73L362.185 384.601L363.268 380.283L366.202 378.778L354.361 373.242L347.951 373.843L352.661 371.165L346.522 365.583L353.052 363.733L362.666 366.501L366.684 375.408L372.085 379.516L378.103 390.048L388.049 394.366L390.892 407.215L401.154 411.067L401.71 415.43V420.756L405.607 427.241L407.112 430.581L413.988 430.281L415.643 422.968L416.786 418.349Z" fill="#D9D9D9"/>
<path d="M413.131 378.008L413.627 380.25L413.07 386.9L415.448 392.091L420.082 392.708L421.722 400.095L416.621 399.192L420.112 420.467L417.343 430.082L422.88 440.283L428.974 443.834L433.653 464.898L442.335 480.124L450.55 491.379L460.029 491.725L461.413 483.239L462.466 481.975C461.806 474.988 460.715 468.049 459.201 461.197C452.216 429.594 436.212 400.696 413.131 378.008Z" fill="#D9D9D9"/>
<path d="M322.66 395.539L294.464 389.957L283.255 392.861L282.171 400.85L276.379 396.833L268.254 400.685L270.315 413.699L278.455 417.205L281.87 408.689L289.017 413.233L303.416 421.057L308.261 431.83L321.23 442.422L336.969 436.073L335.283 430.325L330.318 424.472L326.075 409.08L328.498 401.603L322.66 395.539Z" fill="#D9D9D9"/>
<path d="M345.59 399.435L339.406 399.18L335.299 404.581L340.52 415.264L345.59 414.135V399.435Z" fill="#D9D9D9"/>
<path d="M383.43 398.789L368.64 394.726L364.878 390.664L362.02 392.515L366.473 399.692L371.062 409.306L377.427 410.344L378.239 408.524L373.439 403.468L384.423 405.108L383.43 398.789Z" fill="#D9D9D9"/>
<path d="M300.963 564.578L299.76 566.474L312.218 567.392L318.101 571.8L325.669 570.943L327.444 566.053L318.146 566.474L300.963 564.578Z" fill="#D9D9D9"/>
<path d="M337.254 564.277L329.596 568.43L331.461 571.289L341.587 569.032L342.836 565.496L339.421 566.655L337.254 564.277Z" fill="#D9D9D9"/>
<path d="M272.393 423.047L289.53 426.598L295.368 432.646L302.981 433.82L305.403 441.042L303.628 445.932L298.437 448.309L285.723 446.233L285.377 444.683L291.38 440.485L287.228 432.827L275.853 431.262L269.805 426.071L272.393 423.047Z" stroke="#D9D9D9" stroke-width="1.50459" stroke-linecap="round" stroke-linejoin="round"/>
<path d="M410.452 581.114L396.911 578.827L380.451 576.751L368.414 579.429L356.603 579.594L344.762 585.086L337.841 587.042L333.552 587.99L326.421 594.475L319.319 599.319L307.282 595.031L307.583 583.521L300.361 582.272L292.583 584.003L290.627 580.753L289.859 573.576L286.263 570.296L280.982 572.282L280.29 576.525L273.76 578.376L266.358 572.673L261.949 563.841L265.38 551.639L276.83 549.909L280.561 551.955L285.225 550.917L290.296 546.117L295.697 546.538L305.387 557.071L308.02 556.077L305.251 547.291L301.881 543.138L301.023 535.615L314.038 526.196L312.789 511.361L317.89 504.906L320.899 494.826L324.63 493.186L332.274 485.362L331.973 482.157L325.834 483.932L323.983 481.074L319.695 482.022L313.421 485.031L315.407 479.268L328.166 472.347L330.513 468.164L337.856 475.507L342.144 478.245L347.244 475.477L343.784 470.963L334.32 466.931L322.644 458.505L311.435 453.991L301.746 454.518L296.194 450.862L289.573 450.666L289.137 452.396L290.867 463.861L293.29 467.397L292.552 480.637L283.374 476.124V470.406L274.347 468.33L269.833 464.824L269.607 454.668L279.086 443.986L277.792 434.462L273.595 435.801L270.089 432.912L267.606 427.375L264.793 427.586L264.597 434.116L260.49 435.846L255.57 422.696L252.034 421.447L246.016 420.318L240.479 424.832L249.912 430.505L252.922 436.779L236.567 429.376L224.53 421.026L221.416 410.689L210.598 409.816L203.947 416.602C202.31 418.165 200.593 419.642 198.802 421.026C195.883 422.45 192.866 423.662 189.774 424.652L189.684 431.618L180.807 433.995L182.537 438.103L197.462 437.245L206.671 443.775L209.68 457.407L208.07 470.421L211.696 483.09L205.031 504.59L209.018 533.524L216.149 549.096L223.973 560.441L229.992 559.914L226.651 554.122L222.514 550.134L218.662 542.01L221.987 540.505L230.548 553.309L237.214 564.909L239.456 575.035L248.844 582.348L264.326 589.088L285.782 590.036L293.305 594.55L299.323 599.741L307.282 602.464L316.31 602.9L324.781 600.598C324.781 600.598 325.262 604.585 325.684 606.526C326.105 608.467 322.133 616.306 322.133 616.306L319.59 625.048L324.6 632.917L333.944 634.512L348.779 644.292L354.797 645.42L356.091 651.258L357.37 653.831C386.575 642.216 411.917 622.61 430.493 597.258L430.072 594.384L436.346 572.974L430.508 570.597L410.452 581.114Z" stroke="#D9D9D9" stroke-width="1.50459" stroke-linecap="round" stroke-linejoin="round"/>
<path d="M416.786 418.349L410.858 411.909L403.501 404.552L399.363 393.223L406.63 392.831L406.149 388.859L401.003 389.596L404.855 386.693L408.917 382.931L408.06 379.034L402.041 373.843L399.183 365.689C370.409 343.029 335.023 330.387 298.405 329.683C261.787 328.98 225.942 340.254 196.319 361.792L206.701 366.155L202.819 374.385L195.762 377.575L197.267 388.257L194.423 390.123L191.414 395.269L193.355 402.19L200.156 401.498L198.892 408.72L205.512 407.215L213.607 390.304L213.396 383.804L224.124 380.614L225.809 375.333L236.838 371.662L236.537 364.786L244.616 362.574C244.616 362.574 249.777 358.166 250.936 357.91C253.296 357.889 255.655 358.045 257.992 358.376L264.868 361.762L273.038 359.941L279.056 354.103L288.174 352.9C289.648 353.469 291.238 353.675 292.808 353.501C294.749 353.065 299.985 348.988 299.985 348.988L312.834 353.501L318.281 355.969L319.575 361.807L325.593 361.28L326.767 357.353L332.349 358.557L332.65 361.762L321.651 367.479L330.182 374.566L345.92 379.245L353.443 385.73L362.185 384.601L363.268 380.283L366.202 378.778L354.361 373.242L347.951 373.843L352.661 371.165L346.522 365.583L353.052 363.733L362.666 366.501L366.684 375.408L372.085 379.516L378.103 390.048L388.049 394.366L390.892 407.215L401.154 411.067L401.71 415.43V420.756L405.607 427.241L407.112 430.581L413.988 430.281L415.643 422.968L416.786 418.349Z" stroke="#D9D9D9" stroke-width="1.50459" stroke-linecap="round" stroke-linejoin="round"/>
<path d="M413.131 378.008L413.627 380.25L413.07 386.9L415.448 392.091L420.082 392.708L421.722 400.095L416.621 399.192L420.112 420.467L417.343 430.082L422.88 440.283L428.974 443.834L433.653 464.898L442.335 480.124L450.55 491.379L460.029 491.725L461.413 483.239L462.466 481.975C461.806 474.988 460.715 468.049 459.201 461.197C452.216 429.594 436.212 400.696 413.131 378.008Z" stroke="#D9D9D9" stroke-width="1.50459" stroke-linecap="round" stroke-linejoin="round"/>
<path d="M322.66 395.539L294.464 389.957L283.255 392.861L282.171 400.85L276.379 396.833L268.254 400.685L270.315 413.699L278.455 417.205L281.87 408.689L289.017 413.233L303.416 421.057L308.261 431.83L321.23 442.422L336.969 436.073L335.283 430.325L330.318 424.472L326.075 409.08L328.498 401.603L322.66 395.539Z" stroke="#D9D9D9" stroke-width="1.50459" stroke-linecap="round" stroke-linejoin="round"/>
<path d="M345.59 399.435L339.406 399.18L335.299 404.581L340.52 415.264L345.59 414.135V399.435Z" stroke="#D9D9D9" stroke-width="1.50459" stroke-linecap="round" stroke-linejoin="round"/>
<path d="M383.43 398.789L368.64 394.726L364.878 390.664L362.02 392.515L366.473 399.692L371.062 409.306L377.427 410.344L378.239 408.524L373.439 403.468L384.423 405.108L383.43 398.789Z" stroke="#D9D9D9" stroke-width="1.50459" stroke-linecap="round" stroke-linejoin="round"/>
<path d="M300.963 564.578L299.76 566.474L312.218 567.392L318.101 571.8L325.669 570.943L327.444 566.053L318.146 566.474L300.963 564.578Z" stroke="#D9D9D9" stroke-width="1.50459" stroke-linecap="round" stroke-linejoin="round"/>
<path d="M337.254 564.277L329.596 568.43L331.461 571.289L341.587 569.032L342.836 565.496L339.421 566.655L337.254 564.277Z" stroke="#D9D9D9" stroke-width="1.50459" stroke-linecap="round" stroke-linejoin="round"/>
<path d="M451.497 383.734C448.439 383.734 445.41 384.338 442.585 385.509C439.76 386.681 437.194 388.399 435.033 390.563C432.873 392.728 431.16 395.298 429.994 398.125C428.828 400.952 428.23 403.982 428.236 407.04C428.236 419.89 451.497 445.814 451.497 445.814C451.497 445.814 474.773 419.89 474.773 407.04C474.777 403.981 474.178 400.951 473.01 398.124C471.842 395.296 470.128 392.727 467.967 390.562C465.805 388.398 463.238 386.681 460.412 385.509C457.586 384.337 454.556 383.734 451.497 383.734ZM451.497 417.242C449.467 417.25 447.48 416.656 445.788 415.534C444.096 414.411 442.776 412.811 441.995 410.937C441.213 409.063 441.007 406.999 441.401 405.007C441.795 403.016 442.771 401.186 444.207 399.75C445.643 398.315 447.473 397.338 449.464 396.944C451.456 396.55 453.52 396.757 455.394 397.538C457.268 398.319 458.868 399.639 459.99 401.331C461.113 403.023 461.707 405.01 461.698 407.04C461.69 409.744 460.613 412.334 458.702 414.245C456.79 416.156 454.2 417.234 451.497 417.242Z" fill="#D9D9D9" stroke="#727272" stroke-width="1.50459" stroke-miterlimit="10"/>
<path d="M270.992 443.449C265.609 443.449 260.447 445.588 256.64 449.394C252.834 453.2 250.695 458.363 250.695 463.746C250.695 474.955 270.992 497.569 270.992 497.569C270.992 497.569 291.289 475 291.289 463.746C291.289 458.363 289.151 453.2 285.344 449.394C281.538 445.588 276.375 443.449 270.992 443.449ZM270.992 472.683C269.225 472.683 267.497 472.159 266.027 471.177C264.557 470.195 263.412 468.799 262.735 467.166C262.059 465.533 261.882 463.736 262.227 462.003C262.572 460.269 263.423 458.676 264.673 457.426C265.923 456.177 267.515 455.325 269.249 454.981C270.982 454.636 272.779 454.813 274.412 455.489C276.045 456.166 277.441 457.311 278.423 458.781C279.405 460.251 279.929 461.978 279.929 463.746C279.929 466.116 278.988 468.39 277.312 470.066C275.636 471.742 273.363 472.683 270.992 472.683Z" fill="#D9D9D9" stroke="#727272" stroke-width="1.50459" stroke-miterlimit="10"/>
<path d="M347.742 601.73C345.035 601.73 342.438 602.805 340.523 604.717C338.607 606.63 337.529 609.225 337.525 611.932C337.525 617.574 347.742 628.948 347.742 628.948C347.742 628.948 357.943 617.574 357.943 611.932C357.939 609.227 356.863 606.635 354.95 604.723C353.038 602.81 350.446 601.734 347.742 601.73ZM347.742 616.43C346.849 616.43 345.976 616.166 345.234 615.67C344.492 615.174 343.913 614.469 343.571 613.644C343.23 612.819 343.14 611.912 343.315 611.036C343.489 610.16 343.919 609.356 344.55 608.725C345.181 608.094 345.985 607.664 346.861 607.489C347.737 607.315 348.644 607.405 349.469 607.746C350.294 608.088 350.999 608.667 351.495 609.409C351.991 610.151 352.255 611.024 352.255 611.917C352.255 612.509 352.139 613.096 351.912 613.644C351.685 614.192 351.352 614.689 350.933 615.108C350.514 615.527 350.017 615.86 349.469 616.087C348.921 616.314 348.334 616.43 347.742 616.43Z" fill="#D9D9D9" stroke="#727272" stroke-width="1.50459" stroke-miterlimit="10"/>
<path d="M220.783 507.469C218.076 507.473 215.482 508.551 213.569 510.466C211.656 512.382 210.582 514.978 210.582 517.685C210.582 523.327 220.783 534.702 220.783 534.702C220.783 534.702 230.999 523.327 230.999 517.685C230.999 514.975 229.923 512.377 228.007 510.461C226.091 508.545 223.493 507.469 220.783 507.469ZM220.783 522.184C219.89 522.184 219.018 521.919 218.275 521.423C217.533 520.927 216.955 520.222 216.613 519.397C216.271 518.572 216.182 517.665 216.356 516.789C216.53 515.914 216.96 515.109 217.591 514.478C218.223 513.847 219.027 513.417 219.903 513.243C220.778 513.069 221.686 513.158 222.51 513.5C223.335 513.841 224.04 514.42 224.536 515.162C225.032 515.904 225.297 516.777 225.297 517.67C225.297 518.867 224.821 520.015 223.975 520.862C223.128 521.708 221.98 522.184 220.783 522.184Z" fill="#D9D9D9" stroke="#727272" stroke-width="1.50459" stroke-miterlimit="10"/>
<path d="M256.894 550.438C255.554 550.437 254.226 550.702 252.987 551.215C251.749 551.729 250.623 552.482 249.676 553.431C248.728 554.38 247.977 555.506 247.466 556.745C246.954 557.985 246.691 559.313 246.693 560.654C246.693 566.296 256.894 577.671 256.894 577.671C256.894 577.671 267.111 566.296 267.111 560.654C267.111 557.944 266.034 555.346 264.118 553.43C262.202 551.514 259.604 550.438 256.894 550.438ZM256.894 565.152C256.002 565.152 255.129 564.888 254.387 564.392C253.644 563.896 253.066 563.191 252.724 562.366C252.383 561.541 252.293 560.634 252.467 559.758C252.642 558.882 253.072 558.078 253.703 557.447C254.334 556.816 255.138 556.386 256.014 556.212C256.889 556.037 257.797 556.127 258.622 556.468C259.447 556.81 260.152 557.389 260.648 558.131C261.144 558.873 261.408 559.746 261.408 560.639C261.408 561.836 260.933 562.984 260.086 563.83C259.24 564.677 258.092 565.152 256.894 565.152Z" fill="#D9D9D9" stroke="#727272" stroke-width="1.50459" stroke-miterlimit="10"/>
<path d="M383.715 569.727C382.125 569.727 380.55 570.04 379.08 570.649C377.611 571.257 376.276 572.149 375.151 573.274C374.026 574.399 373.134 575.734 372.525 577.203C371.917 578.673 371.604 580.248 371.604 581.838C371.604 588.519 383.715 602 383.715 602C383.715 602 395.752 588.459 395.752 581.838C395.762 580.251 395.458 578.678 394.858 577.209C394.257 575.74 393.372 574.404 392.253 573.279C391.135 572.153 389.804 571.26 388.339 570.65C386.874 570.04 385.303 569.727 383.715 569.727ZM383.715 587.165C382.658 587.168 381.623 586.857 380.742 586.271C379.862 585.685 379.175 584.851 378.769 583.874C378.362 582.898 378.255 581.823 378.461 580.785C378.667 579.748 379.176 578.795 379.924 578.047C380.671 577.299 381.625 576.79 382.662 576.584C383.7 576.378 384.775 576.486 385.751 576.892C386.728 577.298 387.562 577.985 388.148 578.865C388.734 579.746 389.045 580.781 389.042 581.838C389.042 582.538 388.904 583.231 388.636 583.877C388.369 584.523 387.976 585.11 387.482 585.605C386.987 586.099 386.4 586.492 385.754 586.759C385.108 587.027 384.415 587.165 383.715 587.165Z" fill="#D9D9D9" stroke="#727272" stroke-width="1.50459" stroke-miterlimit="10"/>
<path d="M382.829 338.309C379.98 338.309 377.247 339.44 375.232 341.455C373.218 343.47 372.086 346.202 372.086 349.051C372.086 355.07 382.829 366.971 382.829 366.971C382.829 366.971 393.587 354.934 393.587 349.051C393.583 346.201 392.447 343.468 390.43 341.454C388.413 339.44 385.679 338.309 382.829 338.309ZM382.829 353.791C381.891 353.791 380.975 353.513 380.196 352.992C379.416 352.471 378.809 351.731 378.45 350.865C378.091 349.999 377.997 349.046 378.18 348.127C378.363 347.207 378.815 346.363 379.477 345.7C380.14 345.037 380.985 344.586 381.904 344.403C382.823 344.22 383.776 344.314 384.642 344.673C385.508 345.031 386.249 345.639 386.769 346.418C387.29 347.198 387.568 348.114 387.568 349.051C387.568 350.308 387.069 351.514 386.18 352.403C385.291 353.291 384.086 353.791 382.829 353.791Z" fill="#D9D9D9" stroke="#727272" stroke-width="1.50459" stroke-miterlimit="10"/>
<path d="M198.832 405.531C197.42 405.529 196.021 405.806 194.716 406.345C193.411 406.884 192.225 407.675 191.226 408.672C190.227 409.67 189.434 410.855 188.893 412.159C188.353 413.464 188.074 414.862 188.074 416.274C188.074 422.217 198.832 434.194 198.832 434.194C198.832 434.194 209.575 422.157 209.575 416.274C209.575 413.425 208.443 410.692 206.428 408.678C204.414 406.663 201.681 405.531 198.832 405.531ZM198.832 421.013C197.894 421.016 196.976 420.741 196.195 420.222C195.413 419.703 194.804 418.964 194.443 418.098C194.082 417.232 193.986 416.279 194.167 415.359C194.348 414.438 194.798 413.592 195.46 412.928C196.123 412.264 196.967 411.811 197.887 411.627C198.807 411.443 199.76 411.536 200.627 411.894C201.494 412.252 202.235 412.86 202.757 413.639C203.278 414.419 203.556 415.336 203.556 416.274C203.556 417.528 203.059 418.732 202.174 419.62C201.288 420.508 200.086 421.01 198.832 421.013Z" fill="#D9D9D9" stroke="#727272" stroke-width="1.50459" stroke-miterlimit="10"/>
<path d="M326.377 174.02C326.377 174.02 325.444 258.728 325.444 272.721C325.444 286.713 324.285 300.255 324.285 300.255C324.285 300.255 328.483 303.264 327.776 306.785C326.992 309.77 325.898 312.664 324.511 315.421C322.907 315.059 321.252 314.983 319.621 315.195C317.981 315.662 308.186 320.085 306.546 320.085C304.906 320.085 304.214 321.484 303.748 317.076C303.24 313.131 303.084 309.148 303.281 305.175C303.573 301.629 304.121 298.109 304.921 294.643L295.111 187.546L292.779 291.844C292.779 291.844 293.246 298.148 293.953 299.367C294.88 301.036 295.511 302.854 295.819 304.738C295.819 305.897 293.712 316.865 292.809 317.332C291.907 317.798 289.078 319.438 289.078 319.438C289.078 319.438 287.212 318.972 284.64 315.707C282.067 312.442 276.018 312.698 274.845 313.134L273.671 313.6C273.671 313.6 270.18 309.403 269.473 306.363C268.766 303.324 273.445 303.098 273.205 294.928C272.964 286.759 265.952 217.457 265.952 217.457L264.312 170.815L326.843 168.949L326.377 174.02Z" fill="#D9D9D9" stroke="#727272" stroke-width="1.50459" stroke-miterlimit="10"/>
<path d="M301.882 65.75L276.921 67.39L275.988 174.02C275.988 174.02 277.854 175.66 293.246 175.886C308.638 176.112 311.918 174.261 311.918 174.261L301.882 65.75Z" fill="#D9D9D9" stroke="#727272" stroke-width="1.50459" stroke-miterlimit="10"/>
<path d="M300.347 13.2382C300.347 13.2382 306.456 21.8595 306.366 23.1685C306.193 24.4565 305.942 25.7328 305.613 26.9901C305.613 26.9901 312.264 33.851 311.632 34.4077L307.93 37.5674C307.93 37.5674 308.036 43.992 308.036 44.985C308.036 45.978 309.45 48.4756 309.014 49.4988C308.509 50.6155 307.812 51.6342 306.952 52.5079C306.185 53.1549 300.618 53.0496 300.618 53.0496L300.513 61.8815C300.513 61.8815 301.491 67.4485 300.618 69.4045C299.745 71.3604 297.233 72.8951 290.914 73.2261C284.594 73.5571 281.51 71.4056 279.659 69.8709C277.809 68.3362 278.049 54.2533 277.929 52.0716C277.809 49.89 277.718 45.7373 276.515 43.8866C275.311 42.036 267.487 28.8408 266.163 25.5608C264.839 22.2807 264.734 18.9105 267.246 15.9765C269.759 13.0426 272.919 11.7185 273.265 10.0785C273.611 8.43853 273.265 6.81358 275.657 6.04624C277.399 5.58836 279.213 5.4759 280.998 5.71522C280.998 5.71522 285.587 0.16329 287.98 0.810263L290.387 1.45724C290.387 1.45724 297.037 -0.393409 300.528 2.55559C304.019 5.50458 304.711 10.1839 300.347 13.2382Z" fill="#D9D9D9" stroke="#727272" stroke-width="1.50459" stroke-miterlimit="10"/>
<path d="M301.596 28.6566C301.596 30.0408 302.017 31.1693 302.559 31.1693C303.1 31.1693 303.522 30.0408 303.522 28.6566C303.522 27.2724 303.085 26.1289 302.559 26.1289C302.032 26.1289 301.596 27.2573 301.596 28.6566Z" fill="#D9D9D9" stroke="#727272" stroke-width="1.50459" stroke-miterlimit="10"/>
<path d="M273.189 10.0785C273.505 8.43853 273.189 6.81358 275.581 6.04623C277.323 5.58835 279.138 5.4759 280.923 5.71522C280.923 5.71522 285.512 0.16329 287.904 0.810263L290.311 1.45724C290.311 1.45724 296.962 -0.393408 300.452 2.55559C303.943 5.50458 304.71 10.1839 300.347 13.2382C300.347 13.2382 288.31 14.5472 289.815 16.7288C291.319 18.9105 291.996 20.6558 290.808 21.2426C289.619 21.8294 284.158 24.6129 284.699 25.9219C285.241 27.2308 285.783 30.7215 285.03 30.9472C284.278 31.1729 284.368 30.7215 282.021 28.9762C279.674 27.2308 276.996 28.5398 276.68 31.9853C276.559 33.2392 276.856 34.4979 277.526 35.5649C278.195 36.6319 279.199 37.4471 280.381 37.8833C281.585 38.094 280.923 42.3971 278.636 43.992C278.111 44.3412 277.545 44.6242 276.951 44.8345C276.821 44.4627 276.655 44.1048 276.454 43.7663C275.25 41.9156 267.427 28.7204 266.102 25.4404C264.778 22.1604 264.673 18.7901 267.186 15.8561C269.698 12.9222 272.858 11.7185 273.189 10.0785Z" fill="#D9D9D9" stroke="#727272" stroke-width="1.50459" stroke-miterlimit="10"/>
<path d="M306.726 40.9389C306.726 40.9389 301.821 41.8115 298.992 38.3359" stroke="#D9D9D9" stroke-width="1.50459" stroke-miterlimit="10"/>
<path d="M300.557 53.0497L290.521 49.875L300.331 59.8053L300.557 53.0497Z" fill="#D9D9D9" stroke="#727272" stroke-width="1.50459" stroke-miterlimit="10"/>
<path d="M303.944 23.105C303.944 23.105 300.393 21.1641 298.332 24.083" stroke="#D9D9D9" stroke-width="1.50459" stroke-miterlimit="10"/>
<path d="M327.204 106.369C327.204 106.369 340.82 129.179 341.196 133.587C341.573 137.996 334.02 153.147 331.808 153.643C329.596 154.14 323.337 147.023 322.615 144.074C321.893 141.125 320.764 107.844 322.058 104.955C323.352 102.066 327.204 106.369 327.204 106.369Z" fill="#D9D9D9" stroke="#727272" stroke-width="1.50459" stroke-miterlimit="10"/>
<path d="M304.62 65.4936L317.68 66.4866C317.68 66.4866 324.872 64.8165 327.038 65.4936C329.205 66.1706 360.004 78.0419 363.359 80.389C366.714 82.7362 366.203 91.2521 365.36 94.7729C365.071 96.0011 364.394 97.1036 363.429 97.9167C362.464 98.7297 361.263 99.2102 360.004 99.2867C358.499 99.4522 327.384 97.451 327.384 97.451L335.404 178.94L318.673 184.356L306.801 185.861L300.934 84.2859L304.62 65.4936Z" fill="#D9D9D9" stroke="#727272" stroke-width="1.50459" stroke-miterlimit="10"/>
<path d="M300.346 59.8203L304.619 65.4926C304.619 65.4926 305.116 74.0236 303.957 77.5293C303.139 79.893 302.133 82.1873 300.948 84.3902L295.592 72.0075C297.889 68.2605 299.499 64.1333 300.346 59.8203Z" fill="#D9D9D9" stroke="#727272" stroke-width="1.50459" stroke-miterlimit="10"/>
<path d="M279.644 87.5347L281.148 186.221C281.148 186.221 266.434 184.566 261.589 182.534C258.828 181.381 256.126 180.091 253.494 178.668C253.494 178.668 258.279 142.558 258.459 139.669C258.64 136.78 258.64 134.327 258.64 134.327C258.64 134.327 247.792 138.194 243.744 136.915C239.697 135.636 239.14 131.393 239.516 126.052C239.73 123.098 239.76 120.133 239.607 117.175C239.607 116.257 240.705 101.016 245.129 89.611C249.552 78.2063 246.874 77.8452 250.003 75.829C253.133 73.8129 275.943 65.7031 275.943 65.7031L278.515 71.0444L279.644 87.5347Z" fill="#D9D9D9" stroke="#727272" stroke-width="1.50459" stroke-miterlimit="10"/>
<path d="M262.267 71.2266C262.267 71.2266 265.577 110.226 261.71 123.105L255.691 123.3C256.068 127.814 258.806 119.795 259.543 95.3301C259.859 84.798 255.135 73.6189 255.135 73.6189C257.45 72.6462 259.833 71.8465 262.267 71.2266Z" fill="#D9D9D9" stroke="#727272" stroke-width="1.50459" stroke-miterlimit="10"/>
<path d="M278.349 60.4239C278.349 60.4239 280.531 65.9457 281.855 68.7894C283.179 71.633 284.157 73.4837 284.157 73.4837L279.643 87.5366C277.763 82.3373 276.378 76.9722 275.505 71.5127C274.828 65.1483 274.227 66.1262 274.227 66.1262C274.227 66.1262 277.176 59.2503 278.349 60.4239Z" fill="#D9D9D9" stroke="#727272" stroke-width="1.50459" stroke-miterlimit="10"/>
<path d="M323.698 42.0233C322.346 41.5611 321.053 40.9399 319.847 40.1727C318.839 39.3452 316.838 36.1554 316.16 35.4934C315.483 34.8314 312.173 35.9899 311.647 34.4101C311.12 32.8303 310.744 31.2053 312.73 31.6718C314.693 32.0243 316.68 32.2355 318.673 32.3037L315.529 22.0273H329.958C329.958 22.0273 334.14 36.2608 334.14 37.4193C334.023 38.7188 333.802 40.0069 333.478 41.271C333.478 41.271 353.218 63.3584 357.401 68.8802C361.584 74.4021 366.775 81.9401 367.286 84.7837C367.798 87.6274 366.278 96.655 362.773 97.8285C359.267 99.0021 356.077 97.663 352.406 94.1573C348.735 90.6516 337.676 68.0527 337.18 67.2101C336.683 66.3676 328.152 45.2883 327.64 44.6413C326.404 43.6566 325.085 42.7807 323.698 42.0233Z" fill="#D9D9D9" stroke="#727272" stroke-width="1.50459" stroke-miterlimit="10"/>
<path d="M316.355 66.6227C316.355 66.6227 320.583 94.2319 325.187 107.848C329.791 121.465 333.643 130.101 333.643 130.101L331.627 142.138C326.187 132.296 321.572 122.019 317.83 111.414C311.571 93.7504 308.08 66.1562 308.08 66.1562L316.355 66.6227Z" fill="#D9D9D9" stroke="#727272" stroke-width="1.50459" stroke-miterlimit="10"/>
<path d="M279.523 93.0714L284.488 137.141L256.157 133.771L248.77 89.8516L279.523 93.0714Z" fill="#D9D9D9" stroke="#727272" stroke-width="1.50459" stroke-miterlimit="10"/>
<path d="M275.867 93.2986L284.895 136.721L256.368 135.984L244.963 92.9375L275.867 93.2986Z" fill="#D9D9D9" stroke="#727272" stroke-width="1.50459" stroke-miterlimit="10"/>
<path d="M248.274 118.335C251.38 120.01 254.575 121.517 257.843 122.848C259.318 123.436 260.899 123.707 262.485 123.645C264.072 123.583 265.627 123.188 267.051 122.487C268.662 121.748 270.102 120.683 271.279 119.358C271.279 119.358 272.197 114.393 273.295 113.655C274.394 112.918 276.981 112.361 278.08 110.646C279.178 108.931 279.735 109.142 280.111 110.827C280.487 112.512 280.848 114.332 279.735 115.07C279.089 115.494 278.631 116.152 278.456 116.905C278.456 116.905 278.637 118.199 280.111 117.642C281.586 117.086 282.503 115.25 283.978 115.807C284.302 115.86 284.609 115.989 284.873 116.184C285.137 116.379 285.352 116.633 285.499 116.927C285.645 117.221 285.721 117.545 285.718 117.874C285.715 118.202 285.634 118.525 285.482 118.816C285.062 119.719 284.558 120.58 283.978 121.389C283.978 121.389 285.813 125.632 284.896 128.385C283.978 131.139 279.374 132.809 277.162 132.989C274.95 133.17 268.706 133.35 268.706 133.35C268.706 133.35 259.679 136.36 254.172 137.954C248.665 139.549 246.995 139.248 243.865 136.856C242.255 135.612 241.072 133.898 240.479 131.952C239.886 130.006 239.912 127.923 240.555 125.993C241.834 121.645 243.309 119.252 248.274 118.335Z" fill="#D9D9D9" stroke="#727272" stroke-width="1.50459" stroke-miterlimit="10"/>
<path d="M323.112 311.925C323.112 311.925 326.121 319.147 326.843 320.546C328.396 323.058 330.567 325.129 333.147 326.565C336.653 328.656 340.851 330.055 339.918 331.921C338.985 333.787 334.787 334.253 331.282 334.72C327.776 335.186 319.621 333.787 316.341 333.787C313.061 333.787 305.809 332.628 305.147 330.988C304.485 329.348 305.388 317.688 305.388 317.688C305.388 317.688 310.744 311.684 323.112 311.925Z" fill="#D9D9D9" stroke="#727272" stroke-width="1.50459" stroke-miterlimit="10"/>
<path d="M305.222 331.052C304.962 329.796 304.876 328.51 304.966 327.23L313.377 329.728C318.522 331.017 323.766 331.873 329.055 332.286C332.707 332.472 336.359 331.903 339.782 330.616C339.954 330.795 340.067 331.022 340.104 331.267C340.142 331.512 340.103 331.763 339.993 331.985C339.06 333.851 334.862 334.317 331.357 334.783C327.851 335.25 319.696 333.851 316.416 333.851C313.136 333.851 305.854 332.692 305.222 331.052Z" fill="#D9D9D9" stroke="#727272" stroke-width="1.50459" stroke-miterlimit="10"/>
<path d="M289.77 318.266C289.77 318.266 289.078 330.303 288.913 331.176C288.747 332.048 287.889 332.68 285.512 332.966C283.135 333.252 282.097 333.132 280.743 333.794C279.388 334.456 276.485 335.915 268.315 335.915C260.145 335.915 257.587 334.41 258.61 331.507C259.633 328.603 267.457 322.84 269.338 320.553C270.904 318.3 272.23 315.89 273.295 313.361C273.295 313.361 275.627 311.405 280.231 312.383C284.835 313.361 286.024 315.167 286.535 315.979C287.495 316.897 288.585 317.668 289.77 318.266Z" fill="#D9D9D9" stroke="#727272" stroke-width="1.50459" stroke-miterlimit="10"/>
<path d="M258.58 331.561C258.649 331.369 258.735 331.183 258.836 331.005C259.63 331.85 260.58 332.535 261.634 333.021C264.643 334.525 276.8 333.683 279.524 332.208C282.636 330.838 285.844 329.696 289.123 328.793C289.033 330.087 288.958 331.05 288.912 331.26C288.747 332.073 287.889 332.765 285.512 333.051C283.135 333.337 282.097 333.216 280.743 333.878C279.388 334.541 276.485 336 268.315 336C260.145 336 257.587 334.495 258.58 331.561Z" fill="#D9D9D9" stroke="#727272" stroke-width="1.50459" stroke-miterlimit="10"/>
<path d="M311.691 24.3271L322.825 23.5898V32.3014L311.691 31.5642C311.165 31.5642 310.729 29.9543 310.729 27.9531C310.729 25.952 311.24 24.3271 311.691 24.3271Z" fill="#D9D9D9" stroke="#727272" stroke-width="1.50459" stroke-miterlimit="10"/>
<path d="M308.637 23.457H312.143C312.234 23.4576 312.323 23.4806 312.404 23.5238C312.484 23.567 312.552 23.6292 312.602 23.7049C312.653 23.7806 312.684 23.8676 312.693 23.9582C312.702 24.0487 312.689 24.1401 312.655 24.2244C312.271 25.4297 312.092 26.6912 312.128 27.9557C312.091 29.2155 312.269 30.4722 312.655 31.6721C312.689 31.7563 312.702 31.8477 312.693 31.9383C312.684 32.0289 312.653 32.1158 312.602 32.1915C312.552 32.2673 312.484 32.3295 312.404 32.3727C312.323 32.4159 312.234 32.4388 312.143 32.4394H308.637C307.975 32.4394 307.434 30.4233 307.434 27.9257C307.434 25.428 307.975 23.457 308.637 23.457Z" fill="#D9D9D9" stroke="#727272" stroke-width="1.50459" stroke-miterlimit="10"/>
<path d="M319.68 22.0279L343.859 20.8242V35.0877L319.68 33.8991C318.808 33.8991 318.176 31.236 318.176 27.971C318.176 24.7061 318.763 22.0279 319.68 22.0279Z" fill="#D9D9D9" stroke="#727272" stroke-width="1.50459" stroke-miterlimit="10"/>
<path d="M341.965 27.956C341.965 31.8829 342.822 35.0877 343.861 35.0877C344.899 35.0877 345.756 31.8829 345.756 27.956C345.756 24.029 344.914 20.8242 343.861 20.8242C342.807 20.8242 341.965 24.0139 341.965 27.956Z" fill="#D9D9D9" stroke="#727272" stroke-width="1.50459" stroke-miterlimit="10"/>
<path d="M307.463 24.3271L318.597 23.5898V32.3014L307.463 31.5642C306.936 31.5642 306.5 29.9543 306.5 27.9531C306.5 25.952 306.936 24.3271 307.463 24.3271Z" fill="#D9D9D9" stroke="#727272" stroke-width="1.50459" stroke-miterlimit="10"/>
<path d="M304.409 23.457H307.914C308.005 23.4576 308.095 23.4806 308.175 23.5238C308.255 23.567 308.323 23.6292 308.374 23.7049C308.424 23.7806 308.456 23.8676 308.465 23.9582C308.474 24.0487 308.46 24.1401 308.426 24.2244C308.048 25.4308 307.875 26.6921 307.914 27.9557C307.874 29.2145 308.047 30.4711 308.426 31.6721C308.46 31.7563 308.474 31.8477 308.465 31.9383C308.456 32.0289 308.424 32.1158 308.374 32.1915C308.323 32.2673 308.255 32.3295 308.175 32.3727C308.095 32.4159 308.005 32.4388 307.914 32.4394H304.409C303.747 32.4394 303.205 30.4233 303.205 27.9257C303.205 25.428 303.717 23.457 304.409 23.457Z" fill="#D9D9D9" stroke="#727272" stroke-width="1.50459" stroke-miterlimit="10"/>
<path d="M315.454 22.0279L339.633 20.8242V35.0877L315.454 33.8991C314.596 33.8991 313.949 31.236 313.949 27.971C313.949 24.7061 314.596 22.0279 315.454 22.0279Z" fill="#D9D9D9" stroke="#727272" stroke-width="1.50459" stroke-miterlimit="10"/>
<path d="M337.736 27.956C337.736 31.8829 338.594 35.0877 339.632 35.0877C340.67 35.0877 341.528 31.8829 341.528 27.956C341.528 24.029 340.685 20.8242 339.632 20.8242C338.579 20.8242 337.736 24.0139 337.736 27.956Z" fill="#D9D9D9" stroke="#727272" stroke-width="1.50459" stroke-miterlimit="10"/>
<path d="M329.475 21.1677C329.475 21.1677 326.361 17.8125 325.202 17.8125C324.044 17.8125 322.193 20.8217 321.862 21.1677C321.531 21.5138 321.742 22.0855 323.006 22.2059C323.968 22.1745 324.897 21.8489 325.669 21.2731L329.475 21.1677Z" fill="#D9D9D9" stroke="#727272" stroke-width="1.50459" stroke-miterlimit="10"/>
<path d="M325.203 17.8132C323.618 17.4052 321.994 17.1731 320.358 17.1211C319.425 17.3468 317.695 21.2738 318.041 21.8606C318.387 22.4473 321.863 21.1684 321.863 21.1684C321.863 21.1684 324.165 17.6928 325.203 17.8132Z" fill="#D9D9D9" stroke="#727272" stroke-width="1.50459" stroke-miterlimit="10"/>
<path d="M319.546 17.4671C319.546 17.4671 317.696 16.3086 316.778 17.121C315.86 17.9335 313.889 20.702 314.356 21.7401C314.822 22.7783 318.042 21.8605 318.042 21.8605C318.042 21.8605 318.764 17.8132 319.546 17.4671Z" fill="#D9D9D9" stroke="#727272" stroke-width="1.50459" stroke-miterlimit="10"/>
<path d="M315.859 17.8103C315.859 17.8103 313.542 16.8925 312.73 17.8103C311.917 18.7281 309.856 21.6169 311.225 22.324C312.594 23.0312 313.994 20.9398 313.994 20.9398L315.859 17.8103Z" fill="#D9D9D9" stroke="#727272" stroke-width="1.50459" stroke-miterlimit="10"/>
</g>
<defs>
<clipPath id="clip0_3843_1050">
<rect width="600" height="671.287" fill="white"/>
</clipPath>
</defs>
</svg>
