<svg width="45" height="45" viewBox="0 0 45 45" fill="none" xmlns="http://www.w3.org/2000/svg">
<path d="M6.67969 20.0391C6.67969 24.293 10.125 27.8086 14.4492 27.8086C18.7383 27.8086 22.2187 24.3281 22.2187 20.0391C22.2187 15.8203 18.8086 12.2695 14.4492 12.2695C10.1953 12.2695 6.67969 15.75 6.67969 20.0391ZM20.3555 22.8164H18.3867C18.5273 22.1133 18.6328 21.375 18.6328 20.6367H20.9531C20.918 21.4102 20.707 22.1484 20.3555 22.8164ZM7.94531 20.6367H10.2656C10.3008 21.375 10.3711 22.0781 10.5117 22.8164H8.54297C8.19141 22.1484 8.01562 21.4102 7.94531 20.6367ZM11.4961 20.6367H13.8516V22.8164H11.7773C11.6016 22.1133 11.4961 21.375 11.4961 20.6367ZM13.8516 24.0469V26.4023C13.2187 26.0859 12.5859 25.2422 12.1289 24.0469H13.8516ZM15.082 26.4375V24.082H16.8047C16.3125 25.2422 15.7148 26.0859 15.082 26.4375ZM15.082 22.8164V20.6367H17.4375C17.4023 21.375 17.2969 22.1133 17.1562 22.8164H15.082ZM20.9883 19.4414H18.668C18.6328 18.7031 18.5625 18 18.4219 17.2617H20.3906C20.707 17.9297 20.918 18.668 20.9883 19.4414ZM17.4375 19.4414H15.082V17.2617H17.1562C17.2969 17.9648 17.4023 18.7031 17.4375 19.4414ZM15.082 16.0312V13.6758C15.7148 13.9922 16.3477 14.8359 16.8047 16.0312H15.082ZM13.8516 13.6406V15.9961H12.1289C12.5859 14.8359 13.1836 13.9922 13.8516 13.6406ZM13.8516 17.2617V19.4414H11.4961C11.5312 18.7031 11.6367 17.9648 11.7773 17.2617H13.8516ZM10.2656 19.4414H7.94531C8.01562 18.7031 8.22656 17.9648 8.54297 17.2617H10.5117C10.3711 17.9648 10.2656 18.7031 10.2656 19.4414ZM9.28125 24.0469H10.8281C11.0391 24.7148 11.3203 25.3828 11.707 25.9805C10.7578 25.5234 9.94922 24.8906 9.28125 24.0469ZM17.1914 25.9805C17.5781 25.3828 17.8594 24.75 18.0703 24.0469H19.6172C18.9844 24.8906 18.1406 25.5234 17.1914 25.9805ZM19.6172 16.0312H18.0703C17.8594 15.3633 17.5781 14.7305 17.1914 14.0977C18.1406 14.5547 18.9844 15.1875 19.6172 16.0312ZM11.707 14.0977C11.3203 14.6953 11.0391 15.3281 10.8281 16.0312H9.28125C9.94922 15.1875 10.7578 14.5547 11.707 14.0977Z" fill="white"/>
<path d="M25.875 29.6016H3.05859C2.70703 29.6016 2.46094 29.8828 2.46094 30.1992V32.5898C2.46094 32.9414 2.74219 33.1875 3.05859 33.1875H25.875C26.2266 33.1875 26.4727 32.9063 26.4727 32.5898V30.1992C26.4727 29.8828 26.1914 29.6016 25.875 29.6016ZM25.2422 31.9922H3.65625V30.832H25.2422V31.9922Z" fill="white"/>
<path d="M21.0586 34.3828H7.875C7.52344 34.3828 7.27734 34.6641 7.27734 34.9805V37.3711C7.27734 37.7227 7.55859 37.9687 7.875 37.9687H21.0586C21.4102 37.9687 21.6562 37.6875 21.6562 37.3711V34.9805C21.6562 34.6641 21.375 34.3828 21.0586 34.3828ZM20.4258 36.8086H8.47266V35.6484H20.4258V36.8086Z" fill="white"/>
<path d="M30.4805 14.2734L32.625 13.4297V14.4844L31.2891 16.1016C31.1836 16.207 31.1484 16.3477 31.1484 16.4883V18C31.1484 18.457 31.6406 18.7734 32.0625 18.5273L34.418 17.2266C35.3672 16.6992 35.9648 15.6797 35.9648 14.5898V6.85547C35.9648 6.50391 35.6836 6.25781 35.3672 6.25781H34.418C33.4336 6.25781 32.5898 7.06641 32.5898 8.08594V9.98437L30.5859 11.2148C29.9883 11.5664 29.6367 12.2344 29.6367 12.9375V13.7109C29.6367 14.1328 30.0937 14.4492 30.4805 14.2734ZM31.2539 12.2695L33.5742 10.8281C33.75 10.7227 33.8555 10.5117 33.8555 10.3008V8.05078C33.8555 7.73438 34.1016 7.45313 34.4531 7.45313H34.7695V14.5547C34.7695 15.1875 34.418 15.7852 33.8555 16.1016L32.4141 16.9102V16.6641L33.7148 15.082C33.8203 14.9766 33.8555 14.8359 33.8555 14.6953V12.5156C33.8555 12.0937 33.4336 11.7773 33.0117 11.9531L30.9023 12.7969C30.9023 12.5859 31.043 12.375 31.2539 12.2695Z" fill="white"/>
<path d="M44.7891 13.1494C31.3945 -0.245117 36.0351 4.39551 35.0156 3.37598C34.7695 3.12988 34.3828 3.12988 34.1367 3.37598L28.1602 9.3877C27.4219 8.33301 26.2266 7.73535 24.9609 7.73535H24.3984V3.83301C24.3984 3.44629 24.0469 3.16504 23.6602 3.23535L0.527344 7.73535C0.246094 7.80566 0.0351562 8.05176 0.0351562 8.33301V41.2041C0.0351562 41.5557 0.316406 41.8018 0.632812 41.8018H28.2305C28.582 41.8018 28.8281 41.5205 28.8281 41.2041V29.9541L44.7539 14.0283C45.0351 13.7822 45.0351 13.3955 44.7891 13.1494ZM28.7227 10.5479L34.5937 4.67676L41.7656 11.8486C41.0977 12.5166 30.3047 23.3096 28.8633 24.751V11.6377C28.8633 11.251 28.8281 10.8994 28.7227 10.5479ZM23.168 4.57129V7.7002H7.03125L23.168 4.57129ZM1.26562 40.5713V8.93066H24.9609C26.4375 8.93066 27.6328 10.126 27.6328 11.6025V40.5361H1.26562V40.5713ZM28.8633 28.1963V26.5088L42.6445 12.7275L43.4883 13.5713L28.8633 28.1963Z" fill="white"/>
</svg>
