<svg width="1802" height="900" viewBox="0 0 1802 900" fill="none" xmlns="http://www.w3.org/2000/svg">
<rect width="1800" height="900" rx="50" fill="white"/>
<g opacity="0.1">
<g clip-path="url(#clip0_3756_121)">
<path d="M199.362 950.897C197.23 949.978 195.098 949.059 192.966 948.14C195.346 949.551 197.713 951.026 200.097 952.413C202.638 953.705 205.152 955.037 207.711 956.301C204.927 954.504 202.138 952.721 199.362 950.897ZM862.169 506.784C863.12 502.189 864.007 497.401 864.926 492.755C865.307 487.462 865.592 481.916 865.909 476.452C865.16 481.902 864.453 487.48 863.658 492.797C863.157 497.438 862.693 502.193 862.169 506.784ZM858.851 522.361C859.191 520.835 859.559 519.392 859.89 517.853C860.106 516.084 860.276 514.177 860.478 512.371C859.94 515.693 859.403 519.057 858.851 522.361ZM168.061 934.295C165.516 933.303 163.007 932.251 160.466 931.235C163.457 932.917 166.476 934.534 169.481 936.189C171.448 937.108 173.428 938.027 175.399 938.946C172.941 937.415 170.51 935.83 168.061 934.295ZM183.036 939.956C179.82 938.753 176.603 937.549 173.414 936.322C177.343 938.753 181.295 941.128 185.242 943.508C188.036 944.772 190.843 945.976 193.655 947.184C190.099 944.813 186.579 942.355 183.036 939.952V939.956ZM858.01 540.456C859.504 535.401 860.891 530.066 862.339 524.883C863.033 516.833 863.814 509.017 864.448 500.806C863.295 506.554 862.178 512.413 860.969 518.005C860.046 525.66 859.003 532.975 858.01 540.451V540.456ZM852.634 557.54C853.769 553.901 854.932 550.372 856.053 546.682C856.885 540.598 857.744 534.593 858.562 528.458C857.785 531.923 856.977 535.291 856.195 538.723C855.065 545.152 853.82 551.258 852.634 557.535V557.54ZM848.816 569.661C849.11 568.742 849.395 567.823 849.684 566.904L850.052 565.066C849.652 566.619 849.216 568.076 848.816 569.657V569.661ZM120.995 913.053L119.699 912.566C120.65 912.998 121.588 913.439 122.539 913.866C122.029 913.59 121.505 913.329 120.995 913.053ZM135.965 918.392C133.59 917.565 131.205 916.752 128.848 915.906C131.605 917.358 134.362 918.838 137.146 920.272C139.857 921.439 142.541 922.647 145.266 923.796C142.164 921.99 139.049 920.226 135.965 918.392ZM151.129 923.575C147.958 922.537 144.815 921.466 141.668 920.391C145.413 922.587 149.167 924.779 152.935 926.934C156.209 928.285 159.493 929.628 162.786 930.964C158.908 928.501 154.998 926.084 151.138 923.575H151.129ZM166.21 928.418C162.616 927.282 159.034 926.132 155.462 924.968C159.832 927.78 164.234 930.546 168.631 933.298C172.077 934.649 175.546 935.931 179.016 937.222C174.752 934.295 170.474 931.396 166.219 928.418H166.21ZM854.031 569.317C855.943 564.602 857.804 559.727 859.674 554.884C860.464 547.073 861.121 538.912 861.801 530.811C860.262 536.219 858.709 541.6 857.119 546.87C856.126 554.424 855.125 562.011 854.04 569.317H854.031ZM847.097 585.721C848.862 581.544 850.654 577.45 852.4 573.181C853.392 566.688 854.265 559.856 855.157 553.083C853.705 557.811 852.225 562.447 850.746 567.093C849.556 573.351 848.375 579.66 847.107 585.721H847.097ZM840.072 602.336C841.753 598.545 843.362 594.525 845.02 590.633C845.999 586.061 846.891 581.227 847.777 576.453C846.399 580.588 845.048 584.724 843.665 588.809C842.484 593.302 841.34 597.943 840.081 602.336H840.072ZM834.976 613.3C835.743 611.636 836.529 610.047 837.273 608.369C837.912 606.155 838.523 603.853 839.111 601.569C837.774 605.488 836.396 609.431 834.985 613.3H834.976ZM89.8227 899.594C89.2345 899.41 88.6418 899.236 88.0536 899.047C89.2391 899.53 90.4384 900.003 91.6239 900.486L89.8227 899.594ZM105.023 904.322C102.197 903.468 99.4078 902.572 96.5956 901.703C99.8811 903.289 103.194 904.842 106.502 906.404C108.864 907.323 111.258 908.196 113.634 909.092C110.739 907.525 107.895 905.912 105.023 904.322ZM119.786 908.564C116.478 907.645 113.17 906.698 109.889 905.733C113.782 907.877 117.69 909.999 121.611 912.097C124.809 913.273 128.025 914.428 131.26 915.562C127.405 913.26 123.605 910.907 119.786 908.564ZM134.605 912.616C131.018 911.679 127.442 910.719 123.876 909.735C128.103 912.313 132.322 914.9 136.577 917.427C140.285 918.718 143.974 920.042 147.701 921.296C143.317 918.438 138.961 915.53 134.605 912.616ZM149.424 916.458C145.596 915.507 141.815 914.487 138.01 913.503C142.568 916.531 147.113 919.61 151.703 922.583C155.526 923.846 159.372 925.069 163.218 926.259C158.605 923.039 154.007 919.772 149.424 916.458ZM849.445 597.567C851.743 593.431 853.999 589.236 856.255 584.981C857.284 576.278 858.383 567.754 859.329 558.831C857.399 563.766 855.442 568.618 853.475 573.429C852.198 581.677 850.792 589.548 849.445 597.58V597.567ZM841.174 612.202C843.403 608.296 845.632 604.39 847.837 600.402C849.151 592.746 850.525 585.238 851.775 577.427C849.896 581.967 847.993 586.428 846.086 590.881C844.506 598.187 842.806 605.107 841.174 612.215V612.202ZM832.784 626.745C834.957 623.096 837.099 619.338 839.249 615.602C840.729 609.284 842.222 603.007 843.674 596.606C841.905 600.668 840.131 604.716 838.335 608.696C836.533 614.862 834.627 620.721 832.784 626.758V626.745ZM824.972 639.404C826.81 636.422 828.648 633.49 830.486 630.457C831.989 625.601 833.487 620.712 834.985 615.832C833.652 618.722 832.306 621.562 830.964 624.41C829.021 629.557 826.971 634.391 824.982 639.418L824.972 639.404ZM818.415 650.037C819.495 648.341 820.543 646.558 821.632 644.849C822.216 643.406 822.79 641.931 823.373 640.497C821.747 643.787 820.06 646.829 818.425 650.05L818.415 650.037ZM58.563 887.702L55.9761 887.032C57.7543 887.661 59.5142 888.314 61.3063 888.934C60.3827 888.529 59.482 888.111 58.563 887.702ZM73.5794 891.475C70.8224 890.818 68.0655 890.161 65.3682 889.476C68.5387 890.854 71.7368 892.233 74.9349 893.575C77.7241 894.494 80.4903 895.459 83.2978 896.373C80.0446 894.753 76.8051 893.12 73.5794 891.475ZM88.5223 895.018C85.0117 894.218 81.5425 893.377 78.0595 892.545C82.1123 894.599 86.2294 896.594 90.3235 898.606C93.6411 899.654 96.977 900.679 100.313 901.708C96.3674 899.496 92.4372 897.266 88.5223 895.018ZM103.189 898.234C99.4736 897.441 95.767 896.633 92.0696 895.812C96.5451 898.367 101.067 900.867 105.583 903.367C109.117 904.419 112.692 905.425 116.267 906.436C111.889 903.713 107.53 900.973 103.189 898.216V898.234ZM117.76 901.179C113.946 900.444 110.132 899.714 106.365 898.928C111.002 901.85 115.668 904.744 120.361 907.608C124.156 908.669 127.956 909.735 131.779 910.76C127.083 907.586 122.41 904.387 117.76 901.161V901.179ZM132.303 903.936C128.361 903.223 124.438 902.486 120.535 901.726C125.397 905.062 130.281 908.371 135.189 911.651C139.099 912.681 143 913.719 146.943 914.712C142.035 911.141 137.174 907.525 132.303 903.913V903.936ZM844.901 624.103C847.552 620.56 850.213 617.058 852.846 613.433C853.958 605.249 854.895 596.592 855.888 588.073C853.59 592.388 851.233 596.542 848.903 600.756C847.594 608.595 846.316 616.53 844.901 624.084V624.103ZM835.55 636.38C838.194 632.959 840.83 629.499 843.458 626C844.837 618.782 846.036 611.117 847.299 603.595C844.974 607.767 842.642 611.903 840.301 616.002C838.739 622.825 837.204 629.768 835.55 636.362V636.38ZM826.144 648.369C828.736 645.128 831.32 641.854 833.896 638.549C835.463 632.374 836.901 625.826 838.376 619.384C836.106 623.285 833.809 627.089 831.516 630.908C829.747 636.766 828.014 642.708 826.144 648.35V648.369ZM816.904 659.622C819.339 656.676 821.779 653.74 824.201 650.74C825.928 645.524 827.569 640.047 829.227 634.616C827.034 638.221 824.833 641.793 822.624 645.331C820.731 650.124 818.857 654.981 816.904 659.603V659.622ZM807.778 670.65C809.988 668.072 812.166 665.375 814.363 662.742C816.021 658.854 817.648 654.838 819.266 650.795C817.303 653.878 815.323 656.878 813.343 659.897C811.495 663.463 809.667 667.13 807.797 670.608L807.778 670.65ZM800.854 678.461C802.03 677.119 803.211 675.828 804.382 674.477C805.591 672.276 806.809 670.098 807.999 667.842C805.618 671.357 803.257 674.96 800.854 678.429V678.461ZM28.227 877.906C26.9588 877.667 25.7228 877.41 24.4592 877.166C26.9956 877.911 29.5458 878.649 32.1098 879.381C30.8186 878.889 29.509 878.402 28.227 877.906ZM42.7609 880.534C39.8983 880.024 37.0264 879.519 34.1913 878.99C37.4078 880.222 40.6243 881.472 43.8867 882.666C46.8183 883.472 49.7652 884.262 52.7274 885.037C49.3961 883.567 46.0555 882.069 42.7609 880.534ZM57.3132 883.002C53.9221 882.46 50.531 881.913 47.2043 881.334C51.1284 883.126 55.0525 884.927 59.018 886.687C62.5377 887.606 66.0529 888.525 69.6094 889.389C65.4923 887.284 61.3706 885.171 57.3132 883.016V883.002ZM71.8379 885.299C68.1344 884.748 64.486 884.164 60.81 883.581C65.1967 885.893 69.6094 888.191 74.0481 890.473C77.8114 891.392 81.5701 892.311 85.3655 893.184C80.8717 890.565 76.3042 887.969 71.8379 885.308V885.299ZM86.3397 887.427C82.4661 886.889 78.6247 886.324 74.7925 885.759C79.4977 888.548 84.2535 891.273 89.0139 894.03C92.8324 894.894 96.6921 895.721 100.552 896.543C95.8007 893.501 91.0403 890.487 86.3397 887.427ZM100.662 889.265C96.7335 888.805 92.8048 888.309 88.9266 887.785C93.8203 890.974 98.7783 894.108 103.722 897.242C107.637 898.069 111.575 898.859 115.532 899.64C110.56 896.157 105.588 892.738 100.662 889.265ZM114.948 890.933C110.946 890.473 106.953 890.041 103.001 889.554C108.056 893.134 113.193 896.653 118.312 900.178C122.318 900.959 126.325 901.749 130.369 902.475C125.21 898.643 120.07 894.788 114.948 890.91V890.933ZM839.575 650.239C842.571 647.358 845.59 644.582 848.577 641.637C849.914 633.003 851.334 624.59 852.579 615.694C849.909 619.37 847.198 622.834 844.51 626.418C842.939 634.556 841.22 642.285 839.571 650.216L839.575 650.239ZM829.135 660.169C832.15 657.352 835.155 654.471 838.155 651.59C839.777 643.875 841.455 636.321 843.003 628.394C840.32 631.955 837.636 635.507 834.93 638.963C833.069 646.214 831.061 653.083 829.131 660.146L829.135 660.169ZM818.687 669.731C821.655 667.047 824.623 664.396 827.578 661.648C829.416 654.907 831.327 648.245 833.138 641.347C830.505 644.706 827.849 647.951 825.198 651.24C823.07 657.517 820.855 663.546 818.682 669.708L818.687 669.731ZM808.256 679.031C811.172 676.464 814.082 673.86 816.986 671.219C819.05 665.407 821.122 659.631 823.153 653.699C820.555 656.9 817.951 660.072 815.341 663.215C812.993 668.587 810.599 673.76 808.256 679.031ZM797.871 688.069C800.665 685.683 803.454 683.271 806.239 680.832C808.398 676.076 810.553 671.311 812.672 666.477C810.232 669.377 807.773 672.198 805.32 675.038C802.834 679.435 800.334 683.727 797.848 688.069H797.871ZM788.029 696.294C790.501 694.236 792.978 692.191 795.441 690.1C797.554 686.452 799.657 682.776 801.75 679.072C799.648 681.477 797.542 683.857 795.431 686.213C792.955 689.627 790.469 692.931 788.006 696.276L788.029 696.294ZM779.62 703.32C781.261 701.992 782.883 700.563 784.518 699.226C785.607 697.76 786.692 696.257 787.781 694.787C785.056 697.719 782.313 700.457 779.597 703.32H779.62ZM12.572 871.703C9.50252 871.395 6.49281 871.064 3.46013 870.742C6.89104 871.827 10.348 872.899 13.831 873.959C16.6845 874.538 19.5839 875.098 22.4603 875.659C19.1382 874.363 15.862 873.031 12.572 871.703ZM26.8164 873.021C23.315 872.709 19.8182 872.387 16.3582 872.057C20.411 873.674 24.4729 875.273 28.5854 876.881C31.9673 877.525 35.409 878.14 38.8506 878.751C34.8208 876.858 30.8324 874.942 26.8348 873.021H26.8164ZM41.0608 874.198C37.3527 873.913 33.6399 873.633 29.9961 873.316C34.3613 875.397 38.7266 877.483 43.1607 879.528C46.8734 880.184 50.6091 880.824 54.3678 881.449C49.9015 879.059 45.4903 876.628 41.07 874.198H41.0608ZM55.2639 875.241C51.4041 874.977 47.5749 874.702 43.7764 874.414C48.4173 876.955 53.0537 879.5 57.7543 881.995C61.6509 882.634 65.5658 883.277 69.4899 883.879C64.7111 881.026 59.9875 878.136 55.2731 875.241H55.2639ZM69.4348 876.16C65.4785 875.925 61.5728 875.664 57.6624 875.406C62.5193 878.384 67.367 881.38 72.2882 884.297C76.2445 884.89 80.2375 885.465 84.2352 886.025C79.2818 882.757 74.3514 879.465 69.444 876.151L69.4348 876.16ZM83.4954 876.886C79.5161 876.693 75.5507 876.491 71.6266 876.27C76.681 879.661 81.7125 883.057 86.8175 886.379C90.783 886.926 94.8036 887.418 98.8242 887.914C93.6932 884.262 88.5866 880.577 83.5046 876.858L83.4954 876.886ZM97.4871 877.465C93.494 877.322 89.5056 877.171 85.5677 877.005C90.7371 880.769 95.9248 884.532 101.154 888.24C105.188 888.736 109.239 889.214 113.308 889.674C108.017 885.615 102.747 881.542 97.4963 877.456L97.4871 877.465ZM834.388 674.987C837.724 672.782 841.06 670.654 844.391 668.407C845.797 660.375 847.005 651.796 848.287 643.424C845.259 646.388 842.208 649.182 839.171 652.091C837.604 659.76 836.088 667.612 834.397 674.978L834.388 674.987ZM822.992 682.482C826.333 680.327 829.669 678.103 833.005 675.897C834.677 668.669 836.184 660.977 837.751 653.442C834.695 656.368 831.64 659.318 828.561 662.172C826.737 668.982 824.94 675.934 823.001 682.491L822.992 682.482ZM811.61 689.682C814.905 687.605 818.204 685.583 821.499 683.465C823.41 677.073 825.175 670.31 827.013 663.656C823.994 666.445 820.957 669.101 817.928 671.835C815.847 677.822 813.77 683.915 811.62 689.673L811.61 689.682ZM800.192 696.8C803.463 694.792 806.73 692.738 810.002 690.684C812.134 685.078 814.165 679.196 816.219 673.356C813.196 676.076 810.172 678.806 807.135 681.462C804.847 686.626 802.563 691.837 800.201 696.79L800.192 696.8ZM788.842 703.692C792.022 701.79 795.202 699.892 798.377 697.944C800.674 693.183 802.889 688.221 805.118 683.277C802.181 685.831 799.231 688.299 796.286 690.803C793.828 695.118 791.369 699.492 788.851 703.669L788.842 703.692ZM777.699 710.277C780.72 708.506 783.739 706.723 786.756 704.928C789.15 700.99 791.507 696.915 793.86 692.83C791.016 695.228 788.167 697.622 785.313 699.97C782.795 703.426 780.273 706.918 777.709 710.254L777.699 710.277ZM766.989 716.494C769.672 714.959 772.355 713.378 775.039 711.816C777.309 708.884 779.566 705.902 781.812 702.87C779.271 704.942 776.721 706.95 774.17 708.986C771.781 711.522 769.396 714.081 766.989 716.494ZM758.525 721.222C760.11 720.335 761.695 719.462 763.28 718.566C764.916 716.935 766.566 715.35 768.197 713.659C764.976 716.2 761.755 718.791 758.525 721.236V721.222ZM24.5878 864.966C20.7326 865.022 16.882 865.068 13.1004 865.095C17.7597 867.408 22.4573 869.705 27.1932 871.988C31.0116 872.328 34.876 872.645 38.7587 872.953C34.0029 870.301 29.2839 867.636 24.5878 864.966ZM38.4784 864.737C34.5451 864.815 30.6348 864.888 26.7704 864.943C31.6319 867.7 36.5332 870.436 41.4743 873.15C45.3939 873.458 49.3272 873.752 53.3018 874.032C48.3025 870.958 43.3859 867.848 38.4784 864.737ZM52.3461 864.424C48.353 864.53 44.4151 864.617 40.4818 864.695C45.5179 867.881 50.5846 871.046 55.682 874.189C59.6704 874.46 63.6497 874.735 67.6841 874.974C62.5285 871.487 57.4373 867.958 52.3461 864.424ZM66.1815 864.029C62.1609 864.158 58.1955 864.263 54.2346 864.374C59.4238 867.964 64.6422 871.537 69.8897 875.094C73.8551 875.324 77.8757 875.521 81.9009 875.714C76.6121 871.85 71.3968 867.939 66.1677 864.029H66.1815ZM79.9664 863.519C75.9458 863.684 71.939 863.836 67.9873 863.979C73.2899 867.942 78.6216 871.894 83.9824 875.834C87.9709 876.017 92.0007 876.178 96.0443 876.33C90.6268 872.089 85.292 867.802 79.9527 863.533L79.9664 863.519ZM828.336 699.244C832.012 697.723 835.665 696.225 839.332 694.681C840.949 686.466 842.613 678.378 844.129 669.869C840.765 672.129 837.397 674.289 834.02 676.513C832.196 684.329 830.229 691.681 828.322 699.244H828.336ZM816.04 704.349C819.716 702.86 823.369 701.307 827.036 699.786C828.92 692.384 830.836 685.082 832.637 677.441C829.255 679.674 825.878 681.935 822.491 684.113C820.387 691.033 818.186 697.654 816.026 704.349H816.04ZM803.771 709.257C807.406 707.8 811.036 706.385 814.68 704.905C816.803 698.348 818.944 691.855 820.998 685.096C817.648 687.242 814.298 689.268 810.949 691.373C808.587 697.475 806.156 703.32 803.758 709.257H803.771ZM791.466 714.159C795.082 712.735 798.712 711.274 802.333 709.826C804.686 704.051 807.047 698.339 809.34 692.365C805.986 694.465 802.636 696.584 799.277 698.642C796.695 703.926 794.062 709.008 791.452 714.159H791.466ZM779.225 718.901C782.786 717.523 786.343 716.177 789.908 714.766C792.44 709.803 794.963 704.864 797.462 699.768C794.177 701.771 790.887 703.701 787.597 705.663C784.822 710.166 782.005 714.509 779.211 718.901H779.225ZM767.044 723.561C770.527 722.24 774.013 720.908 777.502 719.563C780.176 715.377 782.86 711.196 785.506 706.913C782.29 708.839 779.041 710.759 775.806 712.643C772.875 716.328 769.952 719.931 767.03 723.561H767.044ZM755.055 728.064C758.373 726.839 761.692 725.596 765.013 724.337C767.73 720.992 770.436 717.622 773.132 714.228C770.076 715.997 767.021 717.716 763.97 719.453C760.987 722.334 758.015 725.197 755.042 728.064H755.055ZM743.678 732.241C746.628 731.161 749.574 730.086 752.528 728.992C755.111 726.52 757.687 724.028 760.257 721.516C757.561 723.048 754.864 724.555 752.165 726.037C749.326 728.128 746.495 730.173 743.664 732.241H743.678ZM734.447 735.627C736.285 734.961 738.146 734.249 739.988 733.592C741.459 732.53 742.92 731.441 744.386 730.375C741.059 732.176 737.746 733.863 734.433 735.627H734.447ZM21.4816 853.805C17.5345 854.265 13.5966 854.697 9.72767 855.124C14.7393 858.065 19.7937 860.984 24.8911 863.882C28.8274 863.827 32.799 863.763 36.8059 863.689C31.6625 860.414 26.5545 857.12 21.4816 853.805ZM35.0506 852.257L23.1955 853.635C28.3603 857.005 33.5679 860.35 38.8185 863.671C42.8023 863.593 46.7907 863.514 50.8389 863.409C45.5394 859.699 40.2766 855.982 35.0506 852.257ZM48.6149 850.69L36.668 852.068C41.9706 855.845 47.3176 859.601 52.7091 863.335C56.7067 863.23 60.7181 863.115 64.7709 862.991C59.3519 858.907 53.9665 854.807 48.6149 850.69ZM62.1609 849.095L50.214 850.506C55.6422 854.669 61.1087 858.805 66.6134 862.913C70.5927 862.784 74.6317 862.628 78.6798 862.453C73.1261 858.036 67.6197 853.583 62.1609 849.095ZM822.363 722.467L834.25 719.958C835.945 712.211 837.494 704.037 839.074 695.963C835.398 697.512 831.69 699.024 827.996 700.558C826.144 707.929 824.338 715.391 822.363 722.467ZM809.23 725.224C813.163 724.402 817.129 723.561 821.085 722.729C823.033 715.74 824.848 708.374 826.696 701.091C822.997 702.626 819.289 704.193 815.599 705.686C813.494 712.271 811.417 718.92 809.23 725.224ZM796.111 727.944C800.045 727.126 803.964 726.322 807.907 725.495C810.085 719.269 812.153 712.721 814.243 706.238C810.567 707.736 806.891 709.169 803.215 710.64C800.854 716.466 798.528 722.357 796.111 727.949V727.944ZM783.007 730.665C786.903 729.86 790.818 729.038 794.738 728.229C797.132 722.715 799.443 716.944 801.763 711.228C798.087 712.698 794.411 714.192 790.735 715.63C788.162 720.684 785.621 725.799 783.007 730.669V730.665ZM769.952 733.33C773.821 732.539 777.667 731.763 781.55 730.963C784.128 726.189 786.641 721.199 789.159 716.259C785.515 717.684 781.881 719.049 778.242 720.45C775.489 724.765 772.751 729.157 769.952 733.334V733.33ZM756.953 735.981L768.367 733.656C771.124 729.571 773.812 725.325 776.519 721.089C772.902 722.467 769.291 723.846 765.688 725.224C762.766 728.854 759.889 732.503 756.953 735.986V735.981ZM744.087 738.577L755.17 736.344C758.019 732.98 760.836 729.493 763.657 726.005C760.137 727.333 756.631 728.62 753.121 729.92C750.116 732.843 747.115 735.793 744.087 738.582V738.577ZM731.497 741.1L741.974 739C744.859 736.339 747.726 733.601 750.594 730.848C747.224 732.089 743.854 733.324 740.485 734.552C737.493 736.762 734.502 738.982 731.52 741.104L731.497 741.1ZM719.522 743.489C722.596 742.883 725.689 742.258 728.768 741.651C731.451 739.767 734.131 737.853 736.809 735.907C733.794 736.996 730.789 738.062 727.784 739.124C725.032 740.599 722.275 742.078 719.522 743.494V743.489ZM710.098 745.327L715.552 744.252C717.317 743.333 719.081 742.469 720.846 741.55C717.276 742.837 713.673 744.114 710.098 745.35V745.327ZM17.5713 839.639C13.6104 840.466 9.67253 841.293 5.79437 842.116C11.0602 845.654 16.4134 849.169 21.7803 852.684L33.7272 851.306C28.3143 847.45 22.9061 843.549 17.5713 839.639ZM30.8554 836.882C26.8731 837.7 22.9275 838.516 19.0187 839.331C24.4132 843.283 29.8904 847.207 35.3814 851.126C39.3653 850.667 43.3399 850.207 47.3881 849.748C41.8419 845.47 36.3004 841.192 30.8554 836.882ZM44.1532 834.171C40.1418 834.98 36.2085 835.788 32.2706 836.597C37.7846 840.93 43.3675 845.249 48.9687 849.555L61.003 848.14C55.3558 843.499 49.7131 838.849 44.1532 834.176V834.171ZM815.681 744.941L828.446 744.482C830.321 736.794 832.2 729.112 833.96 721.13L822.013 723.653C819.969 730.936 817.814 737.911 815.681 744.946V744.941ZM801.75 745.479C805.968 745.304 810.223 745.148 814.464 744.983C816.582 738.044 818.705 731.11 820.731 723.91C816.747 724.751 812.75 725.596 808.784 726.423C806.496 732.948 804.12 739.184 801.75 745.483V745.479ZM787.836 746.072C792.059 745.892 796.268 745.704 800.509 745.529C802.852 739.326 805.196 733.123 807.466 726.69C803.482 727.522 799.526 728.335 795.555 729.157C793.024 734.947 790.423 740.489 787.836 746.076V746.072ZM773.977 746.664C778.145 746.476 782.372 746.31 786.563 746.127C789.118 740.613 791.682 735.14 794.177 729.451C790.221 730.274 786.241 731.106 782.299 731.914C779.56 736.955 776.762 741.789 773.977 746.669V746.664ZM760.147 747.335C764.319 747.133 768.459 746.922 772.654 746.729C775.411 741.936 778.141 737.162 780.838 732.218C776.891 733.031 772.98 733.821 769.047 734.621C766.106 738.958 763.12 743.145 760.147 747.34V747.335ZM746.398 748.006C750.493 747.799 754.623 747.606 758.736 747.404C761.654 743.269 764.576 739.184 767.466 734.947C763.567 735.744 759.669 736.537 755.772 737.327C752.657 740.962 749.528 744.468 746.398 748.011V748.006ZM732.738 748.723C736.777 748.507 740.806 748.263 744.868 748.08C747.915 744.643 750.961 741.219 753.985 737.695L742.497 739.992C739.249 742.961 735.991 745.833 732.738 748.727V748.723ZM719.247 749.458C723.149 749.237 727.064 749.025 730.992 748.819C734.125 746.062 737.259 743.264 740.379 740.424C736.648 741.178 732.921 741.925 729.199 742.667C725.886 744.983 722.564 747.202 719.247 749.463V749.458ZM706.082 750.198C709.758 749.982 713.434 749.775 717.151 749.568C720.258 747.464 723.368 745.355 726.47 743.214L715.902 745.309C712.625 746.954 709.354 748.571 706.082 750.202V750.198ZM693.625 750.947C696.842 750.754 700.058 750.552 703.316 750.363C706.174 748.948 709.029 747.527 711.881 746.099L702.618 747.937C699.617 748.948 696.621 749.94 693.625 750.956V750.947ZM684.219 751.512C685.965 751.402 687.734 751.305 689.49 751.195L694.429 749.532C691.011 750.207 687.624 750.855 684.219 751.517V751.512ZM12.9487 822.61C9.00626 823.786 5.09134 824.967 1.23616 826.153C6.71337 830.27 12.2534 834.378 17.8562 838.476C21.7895 837.654 25.7458 836.831 29.7526 836.009C24.1099 831.552 18.4857 827.085 12.9487 822.61ZM26.0077 818.773C22.0437 819.916 18.1227 821.066 14.2445 822.224C19.8259 826.733 25.467 831.232 31.1678 835.719C35.1241 834.911 39.0758 834.097 43.1147 833.289C37.3649 828.461 31.6625 823.622 26.0077 818.773ZM808.922 766.579C813.407 767.071 817.942 767.604 822.459 768.114C824.44 760.789 826.319 753.189 828.184 745.548C823.896 745.698 819.619 745.851 815.355 746.007C813.246 752.996 811.128 759.935 808.922 766.579ZM794.218 765.003C798.689 765.462 803.197 765.959 807.7 766.446C809.901 759.838 812.015 752.964 814.133 746.067C809.86 746.228 805.577 746.389 801.331 746.563C799.002 752.794 796.663 759.043 794.241 765.021L794.218 765.003ZM779.574 763.537C784.04 763.972 788.518 764.419 793.005 764.879C795.413 758.96 797.747 752.789 800.077 746.618C795.804 746.793 791.562 746.981 787.307 747.165C784.776 752.711 782.221 758.248 779.597 763.555L779.574 763.537ZM765.026 762.094C769.428 762.499 773.909 762.976 778.352 763.413C780.957 758.156 783.503 752.688 786.039 747.22C781.812 747.404 777.539 747.57 773.334 747.763C770.6 752.615 767.852 757.467 765.063 762.113L765.026 762.094ZM750.483 760.821C754.908 761.212 759.301 761.57 763.754 761.979C766.538 757.384 769.268 752.606 772.025 747.827C767.779 748.024 763.584 748.24 759.361 748.443C756.42 752.633 753.488 756.833 750.506 760.84L750.483 760.821ZM736.074 759.562C740.402 759.916 744.804 760.325 749.155 760.707C752.11 756.746 755.019 752.629 757.927 748.511C753.746 748.714 749.541 748.911 745.383 749.123C742.314 752.656 739.226 756.199 736.115 759.581L736.074 759.562ZM721.71 758.45C726.024 758.777 730.316 759.084 734.658 759.438C737.742 756.112 740.797 752.652 743.848 749.196C739.681 749.412 735.577 749.656 731.419 749.862C728.216 752.794 724.986 755.689 721.733 758.469L721.71 758.45ZM707.507 757.394C711.697 757.688 715.915 758.009 720.129 758.313C723.345 755.592 726.502 752.762 729.677 749.936C725.611 750.156 721.54 750.395 717.496 750.602C714.192 752.913 710.866 755.22 707.53 757.412L707.507 757.394ZM693.51 756.429C697.56 756.689 701.622 756.965 705.696 757.256C708.936 755.133 712.171 752.932 715.401 750.731L703.582 751.415C700.247 753.12 696.888 754.825 693.533 756.47L693.51 756.429ZM679.781 755.583C683.599 755.813 687.417 756.043 691.268 756.286C694.452 754.756 697.641 753.166 700.83 751.581L689.687 752.252C686.402 753.391 683.094 754.517 679.803 755.602L679.781 755.583ZM667.103 754.802C670.32 754.981 673.609 755.211 676.84 755.404C679.735 754.454 682.635 753.486 685.543 752.5L675.893 753.102L667.103 754.802ZM657.334 754.342C659.071 754.43 660.785 754.499 662.526 754.591L667.222 753.672C663.946 753.911 660.642 754.122 657.357 754.347L657.334 754.342ZM801.616 787.426C806.349 788.543 811.165 789.756 815.934 790.918C818.057 783.821 820.128 776.57 822.147 769.166C817.611 768.651 813.053 768.118 808.545 767.627C806.299 774.39 803.973 780.957 801.625 787.445L801.616 787.426ZM786.2 783.856C790.936 784.94 795.684 786.043 800.445 787.164C802.783 780.731 805.081 774.207 807.337 767.512C802.806 767.02 798.276 766.528 793.777 766.064C791.314 772.134 788.769 778.016 786.2 783.856ZM770.853 780.391C775.564 781.433 780.294 782.505 785.042 783.608C787.583 777.827 790.097 771.969 792.569 765.954C788.047 765.488 783.541 765.036 779.05 764.598C776.371 769.979 773.619 775.19 770.867 780.391H770.853ZM755.616 777.014C760.271 778.011 764.999 779.086 769.695 780.129C772.424 774.988 775.145 769.8 777.819 764.461C773.343 764.001 768.827 763.542 764.383 763.142C761.507 767.875 758.566 772.442 755.63 777.014H755.616ZM740.402 773.857C745.07 774.822 749.721 775.76 754.426 776.766C757.339 772.245 760.248 767.709 763.11 763.027C758.617 762.613 754.173 762.246 749.707 761.86C746.642 765.949 743.527 769.892 740.416 773.857H740.402ZM725.358 770.737C729.921 771.656 734.58 772.653 739.175 773.6C742.254 769.69 745.332 765.789 748.365 761.74C743.949 761.359 739.497 760.941 735.113 760.582C731.897 764.042 728.634 767.374 725.372 770.737H725.358ZM710.323 767.856C714.918 768.734 719.454 769.552 724.081 770.471C727.297 767.162 730.514 763.868 733.73 760.458C729.301 760.1 724.935 759.797 720.533 759.461C717.138 762.319 713.733 765.072 710.337 767.856H710.323ZM695.491 765.053C699.934 765.867 704.437 766.74 708.922 767.59C712.262 764.86 715.603 762.145 718.934 759.346C714.615 759.02 710.277 758.685 705.99 758.381C702.507 760.642 699.001 762.834 695.505 765.053H695.491ZM680.787 762.416C685.143 763.179 689.519 763.958 693.915 764.755C697.329 762.6 700.752 760.449 704.161 758.248C699.911 757.95 695.688 757.674 691.466 757.403C687.932 759.098 684.371 760.743 680.814 762.416H680.787ZM666.303 759.948C670.494 760.647 674.698 761.362 678.917 762.094C682.349 760.491 685.782 758.878 689.214 757.265C685.125 757.001 681.047 756.75 676.982 756.511C673.444 757.669 669.892 758.8 666.331 759.948H666.303ZM652.454 757.614C656.263 758.221 660.155 758.914 663.992 759.553C667.333 758.478 670.669 757.412 674.014 756.337C670.209 756.121 666.395 755.877 662.618 755.693L652.454 757.614ZM639.17 755.597C642.524 756.112 645.847 756.589 649.219 757.122L657.982 755.459C654.628 755.284 651.287 755.128 647.951 754.972C645.033 755.174 642.129 755.39 639.198 755.597H639.17ZM629.613 754.149C631.17 754.379 632.746 754.609 634.309 754.862L638.904 754.531C635.819 754.399 632.731 754.28 629.64 754.172L629.613 754.149ZM794.035 807.516C798.97 809.239 804.01 811.1 809 812.892C811.257 806.064 813.471 799.107 815.617 791.98C810.829 790.813 805.991 789.595 801.239 788.474C798.905 794.959 796.513 801.306 794.062 807.516H794.035ZM777.952 802.029C782.933 803.725 787.877 805.36 792.895 807.084C795.346 800.917 797.743 794.611 800.086 788.166C795.284 787.036 790.515 785.938 785.745 784.849C783.218 790.703 780.626 796.446 777.984 802.029H777.952ZM761.998 796.653C766.906 798.28 771.864 799.966 776.822 801.648C779.45 796.097 782.037 790.404 784.592 784.61C779.822 783.519 775.065 782.447 770.32 781.393C767.604 786.562 764.843 791.686 762.031 796.653H761.998ZM746.141 791.442C751.016 793.014 755.942 794.659 760.845 796.272C763.643 791.341 766.4 786.264 769.116 781.108C764.383 780.061 759.623 778.981 754.931 777.979C752.082 782.546 749.151 787.072 746.173 791.442H746.141ZM730.334 786.471C735.21 787.996 740.071 789.499 744.988 791.066C747.952 786.728 750.874 782.248 753.787 777.74C749.045 776.729 744.354 775.778 739.644 774.804C736.574 778.751 733.496 782.689 730.367 786.471H730.334ZM714.712 781.568C719.463 783.006 724.361 784.605 729.14 786.103C732.25 782.349 735.325 778.461 738.399 774.556C733.753 773.6 729.039 772.571 724.43 771.656C721.255 775.002 718.029 778.356 714.767 781.568H714.712ZM699.089 776.973C703.904 778.388 708.646 779.73 713.508 781.182C716.724 777.997 719.941 774.689 723.157 771.376C718.461 770.457 713.861 769.625 709.202 768.739C705.88 771.528 702.512 774.326 699.125 776.987L699.089 776.973ZM683.686 772.483C688.346 773.807 693.074 775.217 697.774 776.591C701.133 773.958 704.469 771.211 707.81 768.477C703.247 767.608 698.657 766.712 694.126 765.885C690.689 768.118 687.211 770.365 683.732 772.497L683.686 772.483ZM668.376 768.219C672.971 769.483 677.598 770.747 682.257 772.065C685.699 769.965 689.15 767.769 692.568 765.591C688.038 764.768 683.548 763.992 679.059 763.206C675.53 764.902 671.969 766.611 668.413 768.233L668.376 768.219ZM653.212 764.144C657.697 765.334 662.196 766.533 666.722 767.774C670.209 766.188 673.706 764.53 677.198 762.889C672.808 762.126 668.434 761.38 664.075 760.651C660.477 761.837 656.852 763.022 653.24 764.157L653.212 764.144ZM638.508 760.252C642.727 761.327 647.028 762.503 651.282 763.624C654.77 762.526 658.271 761.387 661.773 760.256C657.591 759.567 653.401 758.878 649.256 758.207L638.508 760.252ZM623.929 756.677C627.945 757.66 631.924 758.602 635.972 759.627L646.021 757.72C642.088 757.099 638.182 756.521 634.276 755.937C630.839 756.194 627.379 756.438 623.947 756.69L623.929 756.677ZM610.847 753.46C614.036 754.214 617.28 755.046 620.496 755.827C623.446 755.606 626.428 755.399 629.406 755.188C626.35 754.728 623.23 754.223 620.216 753.809C617.105 753.713 613.967 753.58 610.865 753.483L610.847 753.46ZM601.974 751.37C603.224 751.659 604.437 751.903 605.691 752.197C606.817 752.229 607.961 752.279 609.091 752.316C606.724 752.022 604.357 751.722 601.992 751.415L601.974 751.37ZM786.136 826.791C791.291 829.089 796.571 831.598 801.795 834.01C804.157 827.522 806.39 820.685 808.66 813.893C803.652 812.092 798.588 810.217 793.63 808.494C791.19 814.734 788.709 820.882 786.154 826.814L786.136 826.791ZM769.392 819.485C774.616 821.783 779.763 823.947 785.015 826.304C787.56 820.409 790.023 814.27 792.477 808.09C787.422 806.335 782.469 804.69 777.465 802.985C774.841 808.623 772.149 814.137 769.41 819.508L769.392 819.485ZM752.813 812.258C757.932 814.449 763.124 816.742 768.298 819.008C771.028 813.677 773.702 808.177 776.353 802.604C771.372 800.917 766.387 799.217 761.447 797.581C758.617 802.596 755.745 807.496 752.831 812.28L752.813 812.258ZM736.322 805.292C741.44 807.428 746.564 809.579 751.733 811.789C754.622 807.028 757.483 802.165 760.317 797.2C755.363 795.564 750.405 793.928 745.498 792.347C742.484 796.782 739.419 801.069 736.34 805.315L736.322 805.292ZM719.931 798.565C725.018 800.637 730.095 802.7 735.233 804.841C738.288 800.632 741.33 796.364 744.345 791.975C739.391 790.385 734.493 788.869 729.581 787.334C726.401 791.194 723.175 794.893 719.95 798.588L719.931 798.565ZM703.753 791.957C708.72 793.928 713.811 796.092 718.824 798.11C722.04 794.434 725.234 790.758 728.405 786.971C723.566 785.464 718.645 783.847 713.848 782.376C710.516 785.68 707.167 788.823 703.771 791.98L703.753 791.957ZM687.541 785.731C692.596 787.67 697.522 789.508 702.604 791.516C705.944 788.387 709.294 785.267 712.612 782.036C707.7 780.552 702.898 779.206 698.032 777.781C694.563 780.511 691.057 783.121 687.56 785.754L687.541 785.731ZM671.615 779.615C676.477 781.453 681.426 783.378 686.319 785.267C689.784 782.666 693.248 780.079 696.699 777.4C691.934 776.022 687.133 774.565 682.409 773.228C678.848 775.424 675.241 777.515 671.634 779.638L671.615 779.615ZM655.749 773.788C660.596 775.553 665.398 777.285 670.32 779.119C673.881 777.023 677.442 774.956 680.998 772.81C676.233 771.468 671.533 770.2 666.814 768.909C663.142 770.586 659.457 772.185 655.767 773.811L655.749 773.788ZM640.08 768.192C644.785 769.852 649.515 771.537 654.269 773.246C657.895 771.647 661.52 770.071 665.146 768.445C660.514 767.182 655.9 765.943 651.305 764.727C647.57 765.931 643.843 767.061 640.08 768.215V768.192ZM624.788 762.811C629.273 764.341 633.845 765.986 638.375 767.581C642.051 766.459 645.677 765.347 649.339 764.212C644.863 763.036 640.379 761.851 635.944 760.729L624.788 762.811ZM609.487 757.757C613.875 759.204 618.217 760.596 622.651 762.103L633.39 760.1C629.029 759.002 624.724 757.968 620.409 756.916C616.765 757.214 613.149 757.499 609.505 757.78L609.487 757.757ZM595.114 753.01C598.973 754.241 602.925 755.597 606.826 756.879L617.032 756.089C613.213 755.17 609.317 754.154 605.544 753.272C602.052 753.189 598.606 753.12 595.132 753.033L595.114 753.01ZM581.434 748.755C584.839 749.807 588.171 750.763 591.603 751.852L599.966 752.036C596.432 751.227 592.958 750.487 589.448 749.706C586.778 749.389 584.127 749.118 581.453 748.778L581.434 748.755ZM571.284 745.686L575.672 747.014L578.971 747.386C576.44 746.862 573.83 746.237 571.302 745.708L571.284 745.686ZM777.722 845.323C783.076 848.195 788.516 851.205 793.947 854.191C796.474 847.892 799.002 841.642 801.446 835.044C796.199 832.618 790.878 830.114 785.727 827.798C783.135 833.84 780.438 839.593 777.741 845.346L777.722 845.323ZM760.468 836.28C765.877 839.124 771.202 841.854 776.661 844.776C779.349 839.051 782.046 833.326 784.652 827.315C779.354 824.949 774.189 822.766 768.941 820.464C766.152 825.895 763.313 831.106 760.468 836.28ZM743.389 827.32C748.668 830.035 754.054 832.907 759.393 835.715C762.237 830.568 765.077 825.39 767.848 820.009C762.651 817.712 757.431 815.414 752.285 813.222C749.344 818.043 746.371 822.711 743.38 827.32H743.389ZM726.387 818.709C731.704 821.383 736.956 824.002 742.355 826.764C745.337 822.169 748.301 817.537 751.228 812.754C746.026 810.53 740.875 808.37 735.729 806.224C732.617 810.47 729.492 814.632 726.355 818.709H726.387ZM709.464 810.323C714.716 812.91 719.977 815.511 725.28 818.176C728.408 814.132 731.512 809.997 734.594 805.769C729.429 803.619 724.31 801.533 719.192 799.451C715.975 803.141 712.74 806.789 709.464 810.323ZM692.789 802.126C697.935 804.598 703.192 807.235 708.412 809.79C711.665 806.279 714.891 802.663 718.107 799.001C713.053 796.943 707.916 794.797 702.907 792.812C699.539 795.959 696.18 799.107 692.798 802.126H692.789ZM676.091 794.314C681.292 796.75 686.42 799.084 691.677 801.606C695.05 798.606 698.395 795.495 701.74 792.366C696.612 790.344 691.603 788.479 686.531 786.526C683.066 789.149 679.597 791.792 676.1 794.314H676.091ZM659.696 786.645C664.723 788.943 669.855 791.396 674.937 793.777C678.411 791.277 681.867 788.667 685.327 786.062C680.359 784.155 675.346 782.179 670.43 780.341C666.864 782.459 663.289 784.61 659.705 786.645H659.696ZM643.296 779.293C648.351 781.54 653.359 783.723 658.46 786.052C662.016 784.04 665.568 781.917 669.125 779.826C664.135 777.961 659.236 776.224 654.297 774.432C650.648 776.081 646.972 777.74 643.296 779.312V779.293ZM627.09 772.189C632.013 774.318 636.96 776.486 641.932 778.691C645.562 777.143 649.196 775.511 652.831 773.903C647.985 772.148 643.16 770.423 638.357 768.729C634.607 769.906 630.844 771.077 627.099 772.208L627.09 772.189ZM611.224 765.347C615.961 767.337 620.781 769.455 625.574 771.523C629.25 770.416 632.958 769.258 636.652 768.118C631.942 766.469 627.237 764.814 622.578 763.229L611.224 765.347ZM595.316 758.855C600.003 760.766 604.634 762.604 609.367 764.589C613.043 763.909 616.747 763.211 620.441 762.522C615.818 760.955 611.251 759.48 606.688 757.977C602.897 758.308 599.097 758.574 595.325 758.873L595.316 758.855ZM580.185 752.679C584.43 754.361 588.791 756.199 593.083 757.94C596.708 757.655 600.37 757.375 604.023 757.099C599.833 755.721 595.559 754.246 591.405 752.927C587.665 752.858 583.916 752.766 580.194 752.698L580.185 752.679ZM565.223 746.917C569.294 748.479 573.274 749.918 577.382 751.512C580.768 751.572 584.191 751.659 587.605 751.742C583.497 750.451 579.491 749.293 575.419 748.066C572.028 747.707 568.619 747.308 565.232 746.935L565.223 746.917ZM551.723 741.826C554.834 742.984 557.963 744.169 561.097 745.359C563.932 745.667 566.804 746.007 569.667 746.333C566.606 745.414 563.505 744.44 560.477 743.549C557.573 743.002 554.641 742.409 551.732 741.844L551.723 741.826ZM543.659 738.779C544.298 739.018 544.955 739.28 545.594 739.515C546.448 739.675 547.317 739.854 548.171 740.02C546.664 739.611 545.18 739.225 543.668 738.798L543.659 738.779ZM769.199 863.243C774.786 866.68 780.409 870.176 786.067 873.729C788.663 867.847 791.085 861.447 793.566 855.225C788.116 852.229 782.657 849.21 777.281 846.329C774.602 852.045 771.956 857.826 769.199 863.243ZM751.343 852.445C756.944 855.836 762.485 859.131 768.137 862.6C770.894 857.215 773.527 851.434 776.192 845.755C770.715 842.823 765.362 840.08 759.935 837.227C757.086 842.396 754.256 847.547 751.333 852.445H751.343ZM733.716 841.785C739.175 845.001 744.772 848.471 750.304 851.816C753.213 846.945 756.03 841.785 758.86 836.652C753.493 833.831 748.085 830.945 742.778 828.216C739.791 832.829 736.767 837.397 733.707 841.785H733.716ZM716.122 831.579C721.636 834.796 727.1 837.856 732.696 841.169C735.747 836.804 738.739 832.246 741.725 827.669C736.322 824.912 731.019 822.265 725.675 819.577C722.505 823.658 719.32 827.692 716.113 831.579H716.122ZM698.726 821.581C704.154 824.669 709.611 827.805 715.097 830.991C718.314 827.109 721.457 823.106 724.609 819.044C719.273 816.361 713.969 813.726 708.697 811.141C705.384 814.702 702.057 818.167 698.716 821.581H698.726ZM681.517 811.839C686.866 814.817 692.297 817.923 697.706 820.993C701.032 817.602 704.341 814.141 707.631 810.612C702.383 808.035 697.09 805.393 691.902 802.902C688.447 805.953 684.977 808.899 681.508 811.839H681.517ZM664.341 802.498C669.718 805.425 675.029 808.251 680.47 811.27C683.921 808.352 687.362 805.411 690.795 802.383C685.497 799.842 680.318 797.485 675.075 795.031C671.496 797.577 667.912 800.03 664.332 802.498H664.341ZM647.492 793.335C652.684 796.092 658.005 799.056 663.262 801.91C666.818 799.461 670.379 797.021 673.927 794.493C668.794 792.09 663.606 789.604 658.533 787.288C654.844 789.352 651.163 791.327 647.482 793.335H647.492ZM630.628 784.573C635.876 787.293 641.045 789.898 646.357 792.715C650.01 790.725 653.663 788.763 657.311 786.719C652.123 784.357 647.06 782.17 641.927 779.891C638.15 781.485 634.387 783.011 630.619 784.573H630.628ZM614.026 776.068C619.109 778.635 624.221 781.254 629.365 783.925C633.096 782.381 636.822 780.865 640.558 779.289C635.503 777.06 630.499 774.845 625.518 772.695C621.668 773.844 617.849 774.937 614.017 776.068H614.026ZM597.719 767.852C602.64 770.278 607.649 772.837 612.625 775.351C616.411 774.239 620.184 773.15 623.979 772.019C619.053 769.901 614.128 767.774 609.275 765.733L597.719 767.852ZM581.347 760.003C586.25 762.352 591.098 764.599 596.051 767.057C599.837 766.363 603.6 765.678 607.401 764.975C602.521 762.94 597.751 761.019 592.903 759.062C589.03 759.369 585.193 759.686 581.338 760.003H581.347ZM565.623 752.459C570.163 754.577 574.813 756.884 579.408 759.075C583.167 758.767 586.893 758.45 590.666 758.156C586.176 756.318 581.586 754.388 577.143 752.642C573.278 752.555 569.446 752.509 565.614 752.459H565.623ZM549.835 745.286C554.342 747.331 558.767 749.237 563.326 751.356C566.951 751.402 570.544 751.425 574.188 751.48C569.667 749.711 565.278 748.13 560.807 746.425C557.122 746.027 553.462 745.647 549.825 745.286H549.835ZM534.745 738.55C538.727 740.299 542.723 742.082 546.733 743.898C550.055 744.229 553.336 744.518 556.677 744.868C552.867 743.429 549.017 741.941 545.244 740.553C541.747 739.873 538.219 739.197 534.745 738.55ZM521.649 732.751C524.636 734.028 527.714 735.443 530.72 736.758C533.532 737.263 536.298 737.718 539.124 738.246C535.848 737.061 532.691 736.036 529.438 734.887C526.846 734.189 524.213 733.431 521.649 732.76V732.751ZM513.227 729.286C513.686 729.479 514.146 729.654 514.605 729.847L515.524 730.067C514.743 729.819 513.98 729.548 513.227 729.295V729.286ZM759.926 880.148C765.693 884.109 771.414 887.996 777.268 892.095C780.057 886.356 782.892 880.746 785.584 874.726C779.923 871.167 774.302 867.67 768.721 864.236C765.858 869.754 762.871 874.887 759.926 880.157V880.148ZM741.656 867.779C747.391 871.657 753.089 875.471 758.874 879.436C761.81 874.184 764.797 869.079 767.655 863.574C761.985 860.091 756.42 856.787 750.8 853.383C747.809 858.368 744.721 863.037 741.656 867.788V867.779ZM723.64 855.574C729.218 859.25 734.971 863.257 740.641 867.062C743.697 862.334 746.78 857.688 749.771 852.735C744.216 849.376 738.596 845.911 733.11 842.662C729.99 847.124 726.81 851.342 723.64 855.583V855.574ZM705.595 843.912C711.293 847.62 716.853 851.094 722.624 854.913C725.79 850.685 728.97 846.481 732.081 842.047C726.456 838.715 720.988 835.641 715.424 832.397C712.175 836.372 708.89 840.163 705.595 843.921V843.912ZM687.808 832.425C693.359 835.968 698.974 839.616 704.589 843.264C707.879 839.52 711.16 835.756 714.404 831.841C708.89 828.649 703.403 825.496 697.944 822.38C694.596 825.811 691.217 829.162 687.808 832.434V832.425ZM670.177 821.259C675.691 824.705 681.237 828.23 686.811 831.782C690.196 828.519 693.565 825.191 696.92 821.797C691.466 818.7 686.007 815.589 680.621 812.607C677.152 815.543 673.674 818.456 670.177 821.259ZM652.601 810.479C658.115 813.857 663.574 817.151 669.143 820.634C672.631 817.831 676.105 814.95 679.565 812.023C674.092 808.981 668.734 806.128 663.321 803.187C659.76 805.659 656.185 808.127 652.601 810.488V810.479ZM635.365 799.911C640.691 803.127 646.168 806.546 651.558 809.845C655.133 807.497 658.69 805.053 662.251 802.604C656.953 799.727 651.581 796.731 646.347 793.951C642.685 795.959 639.028 797.995 635.365 799.915V799.911ZM618.056 789.77C623.474 792.949 628.79 795.959 634.276 799.245C637.925 797.333 641.569 795.325 645.208 793.335C639.832 790.482 634.607 787.867 629.291 785.115C625.546 786.682 621.797 788.272 618.056 789.774V789.77ZM601.023 779.904C606.275 782.914 611.591 785.997 616.885 789.094C620.602 787.605 624.328 786.029 628.05 784.499C622.849 781.811 617.656 779.137 612.515 776.541C608.66 777.644 604.823 778.788 601.023 779.904ZM584.26 770.347C589.365 773.205 594.562 776.201 599.731 779.155C603.513 778.071 607.318 776.936 611.113 775.819C606.022 773.251 600.931 770.687 595.895 768.215L584.26 770.347ZM567.447 761.157C572.548 763.914 577.584 766.62 582.744 769.501C586.558 768.807 590.399 768.123 594.231 767.397C589.177 764.916 584.201 762.577 579.201 760.183L567.447 761.157ZM551.236 752.334C555.992 754.862 560.886 757.6 565.697 760.219C569.524 759.893 573.388 759.581 577.248 759.264C572.525 757.012 567.7 754.614 563.004 752.445C559.077 752.393 555.154 752.356 551.236 752.334ZM534.97 743.894C539.735 746.356 544.408 748.681 549.214 751.245C553.01 751.245 556.833 751.31 560.66 751.351C555.827 749.118 551.158 747.133 546.379 744.978C542.572 744.598 538.768 744.234 534.97 743.884V743.894ZM519.287 735.898C523.619 738.082 527.976 740.303 532.36 742.561C535.99 742.887 539.648 743.241 543.305 743.595C538.977 741.656 534.616 739.675 530.334 737.81C526.645 737.157 522.963 736.517 519.287 735.889V735.898ZM504.822 728.592C508.498 730.398 512.308 732.374 516.029 734.235C519.444 734.814 522.881 735.416 526.313 736.013C522.219 734.244 518.203 732.59 514.15 730.881L504.822 728.592ZM490.628 721.879C493.725 723.354 496.763 724.742 499.883 726.253C502.378 726.86 504.887 727.489 507.386 728.091C504.092 726.713 500.802 725.362 497.539 724.039C495.214 723.281 492.944 722.61 490.628 721.87V721.879ZM481.535 717.578L483.414 718.47L485.84 719.228C484.393 718.644 482.982 718.134 481.553 717.569L481.535 717.578ZM270.134 991.085C273.392 993.355 276.65 995.68 279.912 997.894C470.369 1101.14 665.15 1121.6 776.794 893.079C770.931 888.984 765.183 885.079 759.398 881.109C641.858 1090.69 453.115 1079.12 270.134 991.085ZM251.754 978.058C255.692 980.907 259.63 983.742 263.577 986.526C448.189 1077.3 639.57 1091.64 758.327 880.383C752.524 876.408 746.807 872.571 741.055 868.684C616.062 1061.65 429.63 1054.84 251.768 978.058H251.754ZM233.962 965.013C238.383 968.312 242.822 971.533 247.251 974.759C426.097 1053.27 614.173 1061.83 740.025 867.999C734.346 864.162 728.565 860.156 722.969 856.447C590.61 1032.5 406.655 1030.48 233.976 965.013H233.962ZM216.331 951.573C220.991 955.157 225.641 958.8 230.314 962.316C403.678 1029.06 588.878 1032.41 721.949 855.786C716.159 851.958 710.571 848.461 704.841 844.758C565.182 1003.4 383.754 1005.82 216.345 951.573H216.331ZM198.549 937.728C203.585 941.71 208.639 945.648 213.712 949.542C381.507 1004.62 563.693 1003.02 703.858 844.091C698.22 840.415 692.573 836.74 686.999 833.201C539.937 974.497 360.876 981.035 198.563 937.728H198.549ZM180.822 923.52C185.992 927.723 191.183 931.883 196.394 936C358.95 979.919 538.554 973.978 685.984 832.558C680.369 828.983 674.787 825.46 669.24 821.99C514.872 945.741 338.107 956.112 180.835 923.52H180.822ZM163.135 908.913C168.388 913.287 173.635 917.694 178.919 921.999C336.343 955.083 513.521 945.153 668.22 821.369C662.609 817.868 657.109 814.546 651.567 811.15C489.939 917.165 315.431 931.038 163.149 908.913H163.135ZM145.215 893.827C150.628 898.441 156.065 903.022 161.527 907.571C313.869 930.031 488.639 916.494 650.52 810.502C645.093 807.185 639.57 803.706 634.212 800.494C465.246 888.837 292.728 905.834 145.229 893.827H145.215ZM127.171 878.273C132.685 883.083 138.232 887.865 143.814 892.619C291.312 904.855 463.968 888.098 633.123 799.828C627.577 796.511 622.219 793.496 616.742 790.284C440.52 860.776 269.95 880.474 127.184 878.273H127.171ZM109.03 862.191C114.631 867.19 120.228 872.213 125.884 877.162C268.581 879.519 439.206 859.967 615.543 789.586C610.185 786.457 604.832 783.332 599.543 780.304C416.057 832.917 247.251 854.945 109.043 862.196L109.03 862.191ZM90.6911 845.649C96.3889 850.857 102.12 856.031 107.885 861.171C245.969 853.998 414.738 832.062 598.243 779.546C592.972 776.536 587.706 773.536 582.5 770.632C391.74 805.342 224.506 829.296 90.7049 845.658L90.6911 845.649ZM72.1734 828.648C77.9447 834.015 83.7941 839.359 89.6343 844.693C223.256 828.377 390.329 804.469 580.979 769.795C575.732 766.873 570.59 764.121 565.407 761.299C367.465 778.094 201.683 803.541 72.1871 828.648H72.1734ZM53.5867 811.15C59.407 816.686 65.284 822.219 71.2176 827.752C200.502 802.659 366.027 777.207 563.702 760.394C558.786 757.724 553.763 754.88 548.902 752.321C343.626 751.131 178.997 777.639 53.5867 811.15ZM34.8116 793.133C40.7254 798.849 46.6529 804.575 52.6677 810.286C177.826 776.78 342.101 750.216 546.885 751.204C541.83 748.534 536.973 746.15 531.979 743.604C319.672 724.53 156.197 751.659 34.8116 793.115V793.133ZM15.8895 774.657C21.8538 780.532 27.8748 786.414 33.9524 792.302C155.016 750.873 317.922 723.653 529.369 742.29C524.774 739.933 520.151 737.543 515.584 735.269C296.105 698.233 133.507 725.587 15.8895 774.638V774.657ZM38.1797 814.229C32.266 808.857 26.4396 803.481 20.6315 798.11C16.6661 799.539 12.7833 800.991 8.91896 802.452C14.6765 807.506 20.4477 812.561 26.3201 817.615C30.2167 816.457 34.1699 815.322 38.1797 814.21V814.229ZM56.4815 830.642C50.6612 825.462 44.8746 820.273 39.1217 815.074C35.1287 816.182 31.2 817.303 27.2989 818.424C32.9782 823.301 38.7097 828.168 44.4932 833.027C48.4403 832.214 52.4609 831.419 56.4815 830.624V830.642ZM74.5995 846.531C68.865 841.546 63.1396 836.556 57.4878 831.538C53.4764 832.328 49.4788 833.123 45.5409 833.914C51.1514 838.623 56.8445 843.297 62.5423 847.974L74.5995 846.531ZM92.4923 861.929C86.8589 857.138 81.2622 852.326 75.7023 847.492C71.6817 847.951 67.6611 848.461 63.7002 848.93C69.2142 853.455 74.7757 857.958 80.3846 862.439C84.4006 862.265 88.4258 862.095 92.4923 861.915V861.929ZM110.119 876.822C104.605 872.227 99.155 867.586 93.7008 862.954C89.6726 863.138 85.6642 863.311 81.6758 863.473C87.0886 867.802 92.5061 872.125 97.9833 876.408C102.009 876.546 106.038 876.693 110.119 876.808V876.822ZM127.699 891.204C122.277 886.797 116.841 882.386 111.47 877.929C107.435 877.819 103.442 877.681 99.4491 877.543C104.761 881.681 110.102 885.799 115.472 889.894C119.529 890.335 123.605 890.786 127.699 891.19V891.204ZM144.921 904.989C139.664 900.823 134.426 896.634 129.206 892.421C125.14 892.026 121.128 891.581 117.108 891.139C122.323 895.105 127.598 899.001 132.864 902.907C136.861 903.615 140.88 904.309 144.921 904.989ZM161.716 918.213C156.689 914.33 151.708 910.356 146.718 906.413C142.725 905.761 138.759 905.067 134.803 904.359C139.857 908.093 144.927 911.798 150.012 915.474C153.89 916.412 157.81 917.294 161.716 918.213ZM178.492 930.932C173.612 927.256 168.728 923.58 163.875 919.849C160.038 918.976 156.197 918.094 152.388 917.165C157.194 920.616 162.005 924.058 166.844 927.458C170.708 928.639 174.609 929.774 178.492 930.918V930.932ZM194.827 943.026C190.204 939.639 185.587 936.244 180.987 932.797C177.265 931.718 173.529 930.679 169.83 929.549C174.425 932.765 179.052 935.835 183.67 938.968C187.392 940.35 191.111 941.703 194.827 943.026ZM210.592 954.467C206.388 951.471 202.202 948.384 198.011 945.333C194.565 944.124 191.119 942.943 187.677 941.693C191.788 944.469 195.91 947.212 200.042 949.923C203.557 951.453 207.077 953.02 210.606 954.486L210.592 954.467ZM225.613 964.925C221.937 962.394 218.261 959.908 214.627 957.33C211.71 956.138 208.8 954.931 205.896 953.709C209.343 955.947 212.789 958.194 216.235 960.395C219.341 961.916 222.466 963.446 225.613 964.925ZM237.762 973.325C235.722 971.947 233.691 970.495 231.656 969.102C229.496 968.105 227.346 967.058 225.195 966.024C227.81 967.66 230.438 969.217 233.053 970.83C234.615 971.676 236.182 972.493 237.753 973.325H237.762ZM796.433 906.969C695.454 1144.68 507.005 1128.12 317.177 1022.38C517.918 1148.7 717.469 1180.04 814.078 919.454C808.127 915.199 802.305 911.137 796.424 906.969H796.433ZM804.704 886.839C802.163 893.441 799.493 899.663 796.842 905.94C802.705 910.075 808.513 914.151 814.432 918.388C816.922 911.624 819.399 904.796 821.784 897.651C816.017 893.942 810.411 890.473 804.709 886.839H804.704ZM812.189 865.518C809.86 872.369 807.594 879.344 805.122 885.818C810.811 889.444 816.398 892.904 822.124 896.598C824.421 889.591 826.549 882.152 828.694 874.735C823.162 871.602 817.694 868.587 812.194 865.518H812.189ZM819.541 843.411C817.294 850.685 814.9 857.536 812.534 864.475C818.048 867.535 823.475 870.536 829.007 873.665C831.18 866.157 833.423 858.832 835.44 850.952C830.156 848.411 824.835 845.884 819.555 843.411H819.541ZM826.103 820.179C824.058 827.683 822.018 835.219 819.84 842.355C825.106 844.821 830.398 847.323 835.716 849.863C837.678 842.166 839.465 833.973 841.28 825.872C836.235 823.975 831.139 822.026 826.117 820.179H826.103ZM832.403 796.074C830.473 803.954 828.456 811.605 826.402 819.132C831.405 820.97 836.51 822.918 841.528 824.806C843.366 816.632 845.204 808.421 846.881 799.86C842.08 798.61 837.204 797.282 832.416 796.074H832.403ZM838.174 771.036C836.394 779.206 834.556 787.2 832.66 795.017C837.425 796.221 842.309 797.544 847.093 798.79C848.756 790.313 850.344 781.635 851.858 772.755C847.313 772.189 842.718 771.578 838.188 771.036H838.174ZM843.417 745.033C841.799 753.479 840.168 761.892 838.417 769.975C842.93 770.517 847.506 771.128 852.042 771.693C853.539 762.894 854.941 753.828 856.292 744.629C852.014 744.767 847.704 744.891 843.431 745.033H843.417ZM848.407 718.042C846.9 726.915 845.25 735.411 843.619 743.944C847.874 743.802 852.17 743.678 856.443 743.544C857.794 734.295 859.173 725.1 860.386 715.474L848.407 718.042ZM852.625 690.169C851.32 699.152 850.066 708.282 848.623 716.889L860.542 714.329C861.705 704.979 862.683 695.145 863.69 685.381C860.014 686.985 856.324 688.593 852.639 690.169H852.625ZM856.811 661.143C855.584 670.696 854.155 679.693 852.804 688.91C856.48 687.339 860.156 685.74 863.832 684.154C864.866 674.179 866.01 664.497 866.906 654.158C863.546 656.505 860.185 658.833 856.825 661.143H856.811ZM860.028 631.546C859.03 640.998 858.111 650.657 856.972 659.718C860.317 657.418 863.661 655.1 867.003 652.766C867.83 642.974 868.427 632.576 869.093 622.366C866.076 625.46 863.056 628.52 860.032 631.546H860.028ZM863.244 600.604C862.325 610.589 861.268 620.156 860.234 629.819C863.235 626.795 866.235 623.79 869.227 620.711C869.916 610.286 870.692 600.085 871.244 589.296C868.583 593.155 865.9 596.85 863.23 600.604H863.244ZM865.629 569.271C864.926 579.113 864.25 589.029 863.405 598.499C865.799 595.136 868.211 591.832 870.578 588.354L870.605 588.317L870.647 588.276L871.308 587.619C871.809 577.51 872.144 566.982 872.503 556.51L871.497 557.944C869.558 561.822 867.577 565.512 865.615 569.271H865.629ZM867.857 536.509C867.26 546.709 866.552 556.616 865.84 566.509C867.412 563.499 868.997 560.536 870.541 557.43V557.397L870.573 557.356C871.241 556.413 871.904 555.469 872.563 554.526C872.93 543.985 873.353 533.595 873.596 522.751L871.51 526.887C870.316 530.191 869.07 533.329 867.844 536.509H867.857ZM869.406 503.544C868.983 513.483 868.565 523.427 868.027 533.044C868.868 530.88 869.714 528.739 870.527 526.492V526.459V526.432C871.566 524.383 872.598 522.335 873.624 520.288C873.835 510.115 873.9 499.574 873.973 489.043L871.529 495.839C870.839 498.481 870.114 500.99 869.392 503.544H869.406ZM870.688 469.197C870.398 479.182 870.035 488.987 869.631 498.678C869.925 497.644 870.224 496.62 870.504 495.544V495.521C871.68 492.259 872.849 489.006 874.01 485.762C874.079 475.271 874.221 464.96 874.194 454.222C873.312 457.751 872.426 461.29 871.538 464.841C871.262 466.32 870.968 467.754 870.674 469.197H870.688ZM871.386 435.111C871.221 444.591 871.065 454.093 870.812 463.324C871.93 458.852 873.044 454.395 874.153 449.953C874.097 440.345 873.923 430.415 873.748 420.495L871.566 433.756C871.497 434.22 871.428 434.652 871.373 435.111H871.386ZM871.786 400.465C871.786 409.545 871.68 418.436 871.547 427.208L873.665 414.342C873.491 404.665 873.449 395.323 873.206 385.518L871.786 400.465ZM871.671 369.137C871.671 375.923 871.763 382.876 871.745 389.589L872.926 377.284C872.737 370.515 872.466 363.499 872.177 356.514L871.671 369.137ZM871.57 340.703C871.57 341.948 871.57 343.092 871.57 344.328L871.653 342.284C871.616 341.319 871.584 340.372 871.547 339.403L871.57 340.703ZM870.706 400.41C870.706 399.404 870.706 398.329 870.706 397.309C870.651 398.986 870.591 400.626 870.536 402.294L870.706 400.41ZM870.302 435.038C870.431 427.686 870.67 420.596 870.761 413.106C870.44 417.66 870.04 421.993 869.705 426.505C869.45 433.149 869.162 439.705 868.841 446.171C869.314 442.486 869.829 438.856 870.288 435.038H870.302ZM869.608 469.105C869.842 461.206 869.962 452.99 870.1 444.83C869.41 450.436 868.652 455.858 867.917 461.372C867.458 469.183 866.998 477.119 866.511 484.838C867.531 479.627 868.602 474.472 869.594 469.105H869.608ZM868.317 503.411C868.726 494.106 869.162 484.884 869.475 475.345C868.363 481.286 867.177 487.062 866.024 492.866C865.399 501.78 864.646 510.409 863.961 519.098C865.408 513.901 866.883 508.737 868.303 503.411H868.317ZM866.773 536.311C867.301 527.208 867.692 517.711 868.087 508.282C866.562 513.938 864.999 519.489 863.432 525.035C862.697 533.839 861.957 542.625 861.135 551.148C863 546.227 864.898 541.324 866.759 536.311H866.773ZM864.544 569.009C865.257 559.332 866.006 549.742 866.612 539.78C864.682 544.936 862.736 550.042 860.772 555.1C859.825 564.34 858.746 573.213 857.707 582.21C859.986 577.842 862.261 573.437 864.531 568.995L864.544 569.009ZM862.164 600.255C862.996 591.065 863.639 581.346 864.333 571.766C862.008 576.292 859.683 580.809 857.344 585.266C856.329 594.111 855.327 603.003 854.192 611.517C856.848 607.804 859.499 604.027 862.15 600.241L862.164 600.255ZM858.948 631.096C859.977 621.562 861.066 612.197 861.98 602.355C859.288 606.168 856.604 610.019 853.898 613.782C852.657 622.853 851.242 631.459 849.9 640.263C852.933 637.244 855.943 634.147 858.957 631.096H858.948ZM855.754 660.564C856.88 651.654 857.776 642.12 858.759 632.828C855.713 635.907 852.676 639.05 849.62 642.087C848.329 650.634 847.097 659.341 845.682 667.539C849.05 665.255 852.404 662.88 855.763 660.564H855.754ZM851.587 689.438C852.924 680.35 854.344 671.431 855.547 662.02C852.175 664.345 848.802 666.726 845.439 669.014C843.918 677.662 842.222 685.795 840.582 694.162C844.244 692.6 847.92 691.015 851.596 689.438H851.587ZM847.396 717.151C848.834 708.618 850.098 699.603 851.403 690.702C847.727 692.283 844.009 693.877 840.32 695.435C838.739 703.605 837.191 711.857 835.486 719.692L847.396 717.151ZM842.433 743.981C844.06 735.535 845.682 727.09 847.185 718.309L835.21 720.859C833.432 728.937 831.534 736.643 829.636 744.427C833.897 744.276 838.166 744.128 842.443 743.981H842.433ZM837.236 769.823C838.983 761.791 840.618 753.46 842.231 745.07C837.943 745.211 833.654 745.364 829.365 745.529C827.5 753.235 825.611 760.89 823.631 768.274C828.171 768.775 832.683 769.276 837.246 769.823H837.236ZM831.493 794.732C833.392 786.967 835.23 779.018 837.007 770.884C832.412 770.333 827.89 769.832 823.35 769.322C821.329 776.794 819.215 784.054 817.101 791.217C821.889 792.38 826.636 793.51 831.502 794.732H831.493ZM825.248 818.718C827.302 811.224 829.319 803.633 831.249 795.789C826.383 794.562 821.6 793.427 816.789 792.26C814.638 799.447 812.419 806.431 810.163 813.301C815.194 815.102 820.203 816.857 825.257 818.718H825.248ZM818.714 841.831C820.888 834.736 822.909 827.223 824.954 819.775C819.863 817.905 814.845 816.14 809.814 814.334C807.558 821.195 805.283 828.018 802.921 834.552C808.192 836.974 813.421 839.349 818.723 841.831H818.714ZM811.413 863.854C813.775 856.962 816.173 850.134 818.415 842.888C813.094 840.397 807.847 838.017 802.563 835.577C800.137 842.212 797.586 848.489 795.059 854.825C800.509 857.817 805.958 860.803 811.422 863.854H811.413ZM804.006 885.129C806.455 878.696 808.738 871.744 811.068 864.911C805.554 861.851 800.118 858.855 794.659 855.855C792.174 862.113 789.738 868.518 787.138 874.437C792.734 877.947 798.357 881.511 804.006 885.129ZM795.735 905.186C798.381 898.937 801.042 892.725 803.574 886.149C797.928 882.55 792.295 878.978 786.673 875.434C783.972 881.485 781.123 887.096 778.324 892.867C784.096 896.879 789.945 901.06 795.744 905.163L795.735 905.186ZM297.051 1009.36C493.11 1124.84 690.937 1151.35 795.321 906.193C789.504 902.057 783.641 897.88 777.86 893.832C667.967 1119.45 477.349 1103.3 289.571 1004.45C292.061 1006.11 294.538 1007.72 297.051 1009.36ZM257.585 984.923C259.556 986.2 261.523 987.537 263.494 988.796C265.792 990.106 268.089 991.489 270.424 992.776C267.91 991.03 265.397 989.288 262.888 987.528C261.119 986.678 259.354 985.81 257.585 984.923ZM237.51 971.712C241.282 974.258 245.068 976.716 248.85 979.197C251.428 980.525 254.01 981.817 256.597 983.094C253.261 980.7 249.93 978.191 246.594 975.742C243.566 974.414 240.533 973.086 237.51 971.712ZM219.53 959.278C223.757 962.234 227.992 965.163 232.235 968.064C235.511 969.576 238.801 971.005 242.086 972.452C237.951 969.415 233.815 966.41 229.68 963.303C226.292 961.971 222.908 960.629 219.53 959.278ZM201.839 946.67C206.319 949.886 210.785 953.172 215.279 956.319C218.955 957.817 222.631 959.255 226.307 960.698C221.887 957.358 217.476 953.939 213.074 950.534C209.315 949.303 205.584 947.961 201.839 946.67ZM184.116 933.726C188.945 937.323 193.807 940.839 198.659 944.363C202.51 945.709 206.365 947.056 210.225 948.365C205.4 944.616 200.589 940.829 195.792 937.006C191.891 935.95 188.003 934.838 184.116 933.726ZM166.655 920.487C171.627 924.295 176.613 928.075 181.612 931.828C185.619 932.99 189.612 934.171 193.637 935.279C188.523 931.208 183.395 927.146 178.313 923.001C174.416 922.189 170.53 921.359 166.655 920.51V920.487ZM149.089 906.813C154.212 910.843 159.335 914.882 164.496 918.847C168.478 919.766 172.46 920.647 176.443 921.489C171.246 917.243 166.099 912.892 160.939 908.582C156.983 908.008 153.013 907.442 149.089 906.813ZM131.219 892.601C136.549 896.902 141.925 901.156 147.301 905.398C151.29 906.05 155.315 906.648 159.34 907.236C153.97 902.742 148.617 898.213 143.281 893.648C139.228 893.322 135.212 892.977 131.219 892.601ZM113.321 877.956C118.762 882.46 124.233 886.935 129.735 891.383C133.751 891.769 137.813 892.109 141.875 892.449C136.361 887.73 130.847 883.006 125.379 878.228C121.335 878.159 117.324 878.058 113.321 877.956ZM95.3596 862.862C100.874 867.54 106.388 872.222 111.97 876.849C115.996 876.959 120.042 877.051 124.11 877.125C118.514 872.217 112.977 867.241 107.431 862.288C103.387 862.494 99.371 862.678 95.3596 862.862ZM77.1957 847.299C82.8107 852.163 88.461 857.01 94.1465 861.837C98.1809 861.654 102.202 861.474 106.286 861.267C100.567 856.149 94.8817 851.005 89.2299 845.838C85.1894 846.334 81.178 846.821 77.1957 847.299ZM58.8479 831.253C64.5411 836.308 70.3354 841.325 76.0975 846.338L88.1777 844.877C82.3696 839.565 76.5616 834.249 70.827 828.91C66.8064 829.691 62.8042 830.472 58.8525 831.253H58.8479ZM40.3899 814.711C46.1612 819.934 51.9815 825.153 57.8508 830.366C61.8178 829.585 65.8231 828.801 69.8667 828.014C63.9759 822.524 58.1265 817.01 52.3185 811.472C48.3117 812.529 44.3094 813.608 40.3945 814.693L40.3899 814.711ZM21.817 797.71C27.6481 803.1 33.5021 808.499 39.448 813.884C43.3721 812.795 47.3789 811.724 51.3949 810.668C45.4214 804.979 39.5123 799.277 33.6307 793.584C29.6515 794.91 25.7151 796.273 21.8216 797.673L21.817 797.71ZM3.08334 780.18C8.9741 785.737 14.9246 791.295 20.9348 796.855C24.8344 795.452 28.7815 794.066 32.7761 792.697C26.7168 786.824 20.7143 780.955 14.7684 775.089C10.8075 776.757 6.95231 778.471 3.08334 780.18ZM0.000113046 659.723C106.075 613.773 256.322 614.72 469.248 711.761C478.698 715.336 488.27 719.085 497.962 723.009C508.448 726.419 519.099 730.081 529.897 733.895C540.075 736.62 550.34 739.469 560.771 742.524C570.301 744.445 579.938 746.493 589.682 748.668C599.791 749.927 610.007 751.284 620.331 752.739C629.463 753.064 638.669 753.446 647.951 753.888C657.141 753.253 666.406 752.641 675.746 752.05C684.575 750.343 693.443 748.619 702.351 746.876C710.662 744.033 718.996 741.123 727.352 738.145C735.418 733.927 743.484 729.592 751.549 725.141C758.862 719.664 766.151 714.023 773.417 708.218C780.496 700.897 787.531 693.353 794.522 685.588C800.547 677.106 806.502 668.357 812.387 659.341C818.351 647.977 824.202 636.227 829.94 624.093C834.296 612.606 838.518 600.659 842.654 588.501C847.001 572.418 851.136 555.725 855.116 538.572C857.767 523.721 860.244 508.378 862.582 492.663C864.88 471.357 866.833 449.131 868.602 426.413C869.406 408.649 870.058 390.49 870.472 371.705L870.578 369.123C870.578 359.717 870.619 350.486 870.472 340.74L870.219 304.343C868.156 260.107 866.12 216.942 864.149 175.119C861.006 108.363 858.049 44.9997 855.276 -14.9708H856.361C859.118 45.0702 862.075 108.416 865.234 175.068C866.793 208.152 868.39 242.133 870.026 277.012L869.677 228.604C869.043 141.606 868.528 60.4143 868.133 -14.9708H869.213C869.538 60.5154 870.052 141.706 870.757 228.6C870.938 253.351 871.118 278.584 871.299 304.297L871.556 309.724C871.846 316.019 871.974 321.891 872.218 328.058C873.26 301.698 874.281 275.862 875.283 250.55C879.069 154.722 882.561 66.3878 886.168 -14.9708H887.248C883.641 66.3924 880.149 154.74 876.363 250.619C875.186 280.464 873.976 311.036 872.733 342.334C873.077 351.331 873.454 360.397 873.702 369.137C877.893 325.386 881.916 283.096 885.773 242.265C894.596 149.203 902.715 63.5986 910.687 -14.9479H911.772C903.799 63.6262 895.689 149.258 886.848 242.371C882.741 285.744 878.452 330.744 873.982 377.371C874.272 387.852 874.442 398.09 874.64 408.286C886.145 338.176 896.867 271.832 906.804 209.255C919.748 128.558 931.727 53.9032 943.321 -14.9433H944.419C932.812 53.94 920.828 128.654 907.87 209.425C897.529 273.904 886.472 342.247 874.699 414.452C874.883 425.021 875.076 435.631 875.131 445.877C900.675 343.423 923.13 248.725 943.808 161.651C958.714 98.8099 972.678 39.9713 986.173 -14.9984H987.294C973.776 40.0356 959.794 98.9569 944.865 161.908C923.948 250.081 901.18 346.065 875.242 450.077C875.287 461.105 875.242 471.88 875.154 482.596C923.824 346.658 963.791 223.191 999.549 112.737C1014.03 68.0144 1027.82 25.4328 1041.21 -15.003H1042.35C1028.92 25.5155 1015.1 68.2166 1000.58 113.059C964.568 224.312 924.274 348.781 875.14 485.895C875.067 496.73 875.003 507.597 874.787 518.06C956.834 354.732 1018.65 205.533 1072.83 74.7552C1085.66 43.7851 1098.12 13.8672 1110.21 -14.9984H1111.39C1099.19 13.9775 1086.67 44.0347 1073.85 75.1733C1019.44 206.493 957.34 356.386 874.732 520.532C874.488 531.528 874.12 542.206 873.748 552.867C999.012 374.991 1084.35 203.874 1158.57 55.0382C1170.52 31.0953 1182.21 7.74978 1193.65 -14.9984H1194.86C1183.3 7.87537 1171.52 31.3817 1159.54 55.5206C1085.1 204.756 999.526 376.397 873.67 554.852C873.302 565.489 872.972 576.218 872.457 586.465C1048.28 411.47 1156.02 220.99 1250.16 54.5419C1263.58 30.8257 1276.76 7.64563 1289.72 -14.9984H1290.97C1277.85 7.79267 1264.56 31.1504 1251.11 55.0749C1156.79 221.845 1048.84 412.734 872.416 588.06C871.86 598.798 871.138 609.105 870.449 619.489L870.656 619.282L870.697 619.237L870.748 619.204C1101.97 465.185 1229.5 255.439 1342.24 69.981C1359.89 40.9454 1377.16 12.5439 1394.46 -14.9984H1395.73C1378.35 12.7139 1360.94 41.313 1343.17 70.5462C1230.37 256.077 1102.79 465.93 871.359 620.077C871.01 620.44 870.656 620.79 870.302 621.143C869.626 631.487 869.025 642.028 868.188 651.93C869.025 651.355 869.865 650.786 870.697 650.188L870.752 650.151L870.807 650.128C1158.88 533.108 1302.86 302.974 1431.85 96.8203C1455.88 58.4155 1479.39 20.8424 1503.21 -15.0168H1504.51C1480.56 21.0078 1456.93 58.7785 1432.77 97.39C1303.71 303.677 1159.64 533.954 871.267 651.112C870.21 651.865 869.149 652.587 868.087 653.313C867.168 663.734 866.065 673.572 865.027 683.64C866.948 682.813 868.864 681.995 870.794 681.145H870.844H870.908C1217.08 613.833 1374.94 360.383 1517.72 131.094C1549.26 80.4622 1580.06 31.0019 1612 -15.026H1613.32C1581.26 31.1765 1550.34 80.8344 1518.64 131.687C1375.74 361.137 1217.76 614.775 871.161 682.165C869.061 683.084 866.975 684.003 864.884 684.876C863.874 694.695 862.922 704.671 861.751 714.072C864.793 713.42 867.825 712.772 870.881 712.11H870.987C1276.02 704.712 1445.6 424.529 1599.75 169.88C1639.05 104.958 1677.34 41.6806 1718.28 -14.9846H1719.61C1678.53 41.8184 1640.12 105.293 1600.67 170.441C1446.41 425.315 1276.67 705.755 871.092 713.19L861.617 715.225C860.391 724.925 859.012 734.203 857.647 743.521C862.091 743.379 866.525 743.232 871 743.103H871.088C1335.54 803.66 1515.11 493.063 1678.14 211.047C1724.87 130.221 1770.24 51.7436 1820.58 -15.003H1821.96C1771.46 51.8355 1725.96 130.529 1679.1 211.593C1515.9 493.886 1336.16 804.804 871.019 744.151C866.488 744.279 862.008 744.427 857.514 744.569C856.136 753.809 854.757 762.986 853.273 771.817C859.205 772.557 865.114 773.274 871.111 774.064H871.143H871.175C1395.61 909.156 1583.68 564.35 1753.36 253.242C1806.89 155.108 1858.59 60.3224 1918.44 -15.0352H1919.82C1859.8 60.3592 1807.97 155.374 1754.31 253.771C1584.43 565.223 1396.16 910.392 870.936 775.13C864.93 774.335 859.012 773.618 853.071 772.879C851.541 781.797 849.951 790.546 848.274 799.07C855.883 801.041 863.437 802.985 871.17 805.071H871.198C1456.23 1020.19 1651.5 637.29 1825.75 295.594C1885.33 178.753 1942.46 66.737 2011.88 -14.9938H2013.3C1943.7 66.6956 1886.44 178.969 1826.71 296.086C1652.26 638.186 1456.77 1021.53 870.853 806.128C863.18 804.046 855.635 802.116 848.058 800.154C846.357 808.742 844.552 817.041 842.709 825.243C852.152 828.781 861.604 832.333 871.198 836.096H871.226C1517.58 1135.89 1718.84 710.879 1895.74 337.303C1960.68 200.184 2022.33 69.981 2101.51 -14.9984H2102.99C2023.59 69.857 1961.8 200.327 1896.72 337.762C1719.6 711.793 1518.1 1137.32 870.807 837.116C861.254 833.371 851.853 829.838 842.461 826.314C840.623 834.456 838.845 842.69 836.873 850.419C848.223 855.822 859.651 861.341 871.253 867.122H871.276C1422.6 1169.56 1669.68 951.265 1835.92 647.996C1883.32 561.51 1924.16 468.122 1963.61 377.913C2033.35 218.435 2098.74 68.915 2188.4 -14.9984H2189.96C2100.04 68.6301 2034.5 218.477 1964.59 378.331C1925.13 468.563 1884.28 561.983 1836.85 648.516C1670.34 952.285 1422.89 1170.96 870.757 868.091C859.233 862.352 847.883 856.87 836.607 851.499C834.558 859.407 832.324 866.795 830.146 874.322C843.674 881.98 857.384 889.917 871.276 898.133C1411.49 1235.1 1676.25 1080.34 1847.2 806.096C1920.45 688.593 1976.5 549.149 2029.6 417.035C2102.97 234.472 2170.73 65.8915 2270.54 -11.6762C2272.01 -12.8204 2273.5 -13.9094 2274.98 -15.0122H2276.81C2274.94 -13.6337 2273.07 -12.2552 2271.23 -10.8216C2171.64 66.5624 2103.94 235.009 2030.62 417.43C1977.51 549.591 1921.44 689.08 1848.15 806.661C1676.89 1081.4 1411.7 1236.47 870.748 899.047C856.938 890.868 843.306 882.98 829.852 875.383C827.706 882.813 825.579 890.303 823.286 897.324C839.024 907.484 855.074 918.149 871.317 929.131C1415.93 1305.46 1695.71 1191.46 1872.87 934.916C1967.58 797.765 2033 619.857 2093.89 454.337C2157.34 281.809 2215.85 122.722 2297.49 37.1224V38.6801C2216.42 124.303 2158.12 282.834 2094.9 454.727C2034.01 620.307 1968.56 798.275 1873.76 935.55C1696.27 1192.58 1416.04 1306.88 870.711 930.036C854.546 919.104 838.578 908.499 822.923 898.381C820.557 905.549 818.075 912.391 815.571 919.183C833.816 932.26 852.406 945.915 871.34 960.147C1427.66 1378.23 1721.8 1295.21 1905.64 1050.41C2019.57 898.698 2091.2 684.848 2156.61 489.585C2202.48 352.655 2245.3 224.914 2297.49 134.012V136.195C2245.77 226.867 2203.22 353.881 2157.64 489.929C2092.21 685.271 2020.54 899.208 1906.51 1051.06C1722.3 1296.34 1427.71 1379.6 870.688 960.997C851.855 946.844 833.355 933.254 815.19 920.226C715.07 1190.64 504.57 1147.93 296.477 1010.45C285.278 1003.84 274.096 996.975 262.934 989.844C252.742 984.054 242.573 978.049 232.428 971.827C221.4 965.906 210.427 959.761 199.509 953.392C189.244 948.185 179.037 942.77 168.888 937.149C158.038 932.015 147.272 926.708 136.59 921.227C126.288 916.764 116.086 912.145 105.983 907.369C95.3351 903.264 84.8203 898.997 74.4387 894.567C63.9713 891.066 53.6189 887.454 43.4732 883.705C33.2999 880.914 23.3119 878.015 13.5093 875.006C8.95725 874.087 4.45111 873.141 -0.0090769 872.167V871.059L2.62844 871.615L0.000113046 870.775V869.3C2.95928 869.621 5.94141 869.929 8.92815 870.219C5.92763 868.992 2.95468 867.756 0.000113046 866.515V865.371C4.25506 867.148 8.5437 868.91 12.866 870.66C16.542 871.023 20.2685 871.358 24.0043 871.689C19.515 869.52 15.0808 867.324 10.6788 865.123C7.08556 865.123 3.53824 865.15 0.000113046 865.155V864.08C2.82143 864.08 5.67031 864.08 8.52379 864.047C5.66572 862.62 2.82449 861.185 0.000113046 859.742V858.52C3.63014 860.358 7.28315 862.196 10.9591 864.034C14.8327 864.034 18.7706 863.965 22.7269 863.914C17.7459 861.071 12.8078 858.21 7.91266 855.331L0.000113046 856.181V855.096L6.36415 854.389C4.23821 853.133 2.11686 851.883 0.000113046 850.639V849.376C2.71727 850.987 5.44209 852.598 8.17457 854.21C12.0941 853.75 16.0687 853.327 20.0664 852.872C14.773 849.403 9.49792 845.929 4.3056 842.433L0.000113046 843.352V842.249L3.06956 841.592L0.000113046 839.519V838.201L4.55833 841.275C8.46405 840.448 12.4142 839.616 16.4088 838.78C10.8948 834.732 5.38083 830.679 0.000113046 826.612V825.234L0.170127 825.362C4.03909 824.159 7.96473 822.97 11.947 821.797C7.93104 818.547 3.94873 815.293 0.000113046 812.037V810.599C4.37453 814.206 8.76732 817.813 13.2244 821.411C17.121 820.248 21.0359 819.113 25.0243 817.942C19.1933 812.924 13.4634 807.892 7.73805 802.875C5.14036 803.858 2.56104 804.846 0.000113046 805.838V804.717C2.26084 803.838 4.53688 802.965 6.82824 802.098C4.53995 800.073 2.2639 798.056 0.000113046 796.046V794.562C2.65601 796.918 5.32569 799.275 8.00915 801.634C11.8827 800.173 15.7701 798.707 19.7447 797.273C13.759 791.732 7.83914 786.195 1.98514 780.663L0.000113046 781.549V780.364L1.13507 779.854L0.000113046 778.792V777.271L2.23787 779.38C6.10683 777.667 9.97121 775.943 13.9413 774.271C9.25745 769.654 4.6104 765.043 0.000113046 760.435V758.873C4.97187 763.845 9.99265 768.827 15.0624 773.821C132.257 724.829 294.078 697.351 512.34 733.592C507.988 731.427 503.683 729.332 499.377 727.246C274.803 672.8 113.841 698.991 0.000113046 754.172V752.946C113.115 698.206 272.574 672.074 494.461 724.916C490.587 723.078 486.75 721.24 482.918 719.457C264.657 651.512 109.576 670.291 -0.0136719 724.466V723.17C108.474 669.676 261.348 650.786 475.718 716.034C473.448 714.982 471.091 713.806 468.825 712.776C256.616 632.544 106.309 642.459 0.000113046 693.16V691.782C103.148 642.698 247.522 631.882 449.517 704.345C246.911 616.043 102.675 616.581 0.000113046 661.184V659.723Z" fill="#034833"/>
</g>
</g>
<defs>
<clipPath id="clip0_3756_121">
<rect width="1802" height="900" rx="50" fill="white"/>
</clipPath>
</defs>
</svg>
