<svg width="45" height="45" viewBox="0 0 45 45" fill="none" xmlns="http://www.w3.org/2000/svg">
<path d="M44.3848 9.75391H11.7348C11.644 9.75385 11.5543 9.77391 11.4722 9.81263C11.3901 9.85135 11.3176 9.90777 11.2598 9.97785L9.88875 11.6429L8.51766 9.97785C8.45993 9.90777 8.3874 9.85135 8.30528 9.81263C8.22316 9.77391 8.13349 9.75385 8.0427 9.75391H0.615234C0.534411 9.75391 0.45438 9.76983 0.379713 9.80077C0.305047 9.83171 0.237208 9.87706 0.180074 9.93423C0.122939 9.9914 0.0776288 10.0593 0.0467311 10.1339C0.0158333 10.2086 -4.60843e-05 10.2887 1.00456e-07 10.3695V34.6273C1.00456e-07 34.7905 0.0648192 34.947 0.180198 35.0623C0.295577 35.1777 0.452064 35.2425 0.615234 35.2425H8.04059C8.13138 35.2426 8.22105 35.2225 8.30317 35.1838C8.38529 35.1451 8.45782 35.0887 8.51555 35.0186L9.88664 33.3536L11.2577 35.0186C11.3155 35.0887 11.388 35.1451 11.4701 35.1838C11.5522 35.2225 11.6419 35.2426 11.7327 35.2425H44.3848C44.4656 35.2426 44.5456 35.2267 44.6203 35.1958C44.6949 35.1649 44.7628 35.1196 44.8199 35.0624C44.877 35.0053 44.9224 34.9375 44.9533 34.8628C44.9842 34.7881 45 34.7081 45 34.6273V10.3695C45.0001 10.2887 44.9842 10.2086 44.9534 10.1339C44.9225 10.0592 44.8772 9.9913 44.82 9.93413C44.7629 9.87695 44.695 9.8316 44.6203 9.80068C44.5457 9.76975 44.4656 9.75386 44.3848 9.75391ZM1.23047 10.9844H7.7502L9.41273 13.0016C9.47242 13.0685 9.54556 13.122 9.62735 13.1586C9.70913 13.1952 9.79773 13.2141 9.88734 13.2141C9.97695 13.2141 10.0656 13.1952 10.1473 13.1586C10.2291 13.122 10.3023 13.0685 10.362 13.0016L12.0245 10.9844H43.7706V29.7518H1.23047V10.9844ZM43.7695 34.0117H12.0252L10.3627 31.9945C10.303 31.9276 10.2298 31.8741 10.148 31.8375C10.0663 31.8009 9.97766 31.782 9.88805 31.782C9.79844 31.782 9.70984 31.8009 9.62805 31.8375C9.54626 31.8741 9.47313 31.9276 9.41344 31.9945L7.7509 34.0117H1.23047V30.9823H43.7695V34.0117Z" fill="white"/>
<path d="M20.4609 12.5668H13.0612C12.9705 12.5667 12.8809 12.5867 12.7988 12.6255C12.7167 12.6642 12.6443 12.7206 12.5866 12.7907L9.8877 16.0652L7.18875 12.7904C7.13111 12.7203 7.05865 12.6638 6.97658 12.6251C6.89452 12.5864 6.80488 12.5663 6.71414 12.5664H3.42773C3.34688 12.5664 3.26682 12.5823 3.19213 12.6133C3.11744 12.6443 3.04959 12.6896 2.99245 12.7469C2.93531 12.8041 2.89001 12.872 2.85913 12.9467C2.82825 13.0214 2.81241 13.1015 2.8125 13.1823V27.5549C2.8125 27.7181 2.87732 27.8746 2.9927 27.99C3.10808 28.1053 3.26456 28.1702 3.42773 28.1702H20.4609C20.6241 28.1702 20.7806 28.1053 20.896 27.99C21.0114 27.8746 21.0762 27.7181 21.0762 27.5549V13.1823C21.0762 13.1015 21.0603 13.0215 21.0294 12.9468C20.9985 12.8721 20.9532 12.8042 20.8961 12.7471C20.839 12.6899 20.7711 12.6446 20.6965 12.6136C20.6218 12.5827 20.5418 12.5668 20.4609 12.5668ZM19.8457 26.9397H4.04297V13.7972H6.42375L9.41203 17.4243C9.47172 17.4911 9.54485 17.5446 9.62664 17.5812C9.70843 17.6178 9.79703 17.6368 9.88664 17.6368C9.97625 17.6368 10.0648 17.6178 10.1466 17.5812C10.2284 17.5446 10.3016 17.4911 10.3612 17.4243L13.3495 13.7972H19.8464L19.8457 26.9397Z" fill="white"/>
<path d="M40.8447 13.4997C40.3333 12.9896 39.6405 12.7031 38.9181 12.7031C38.1958 12.7031 37.503 12.9896 36.9916 13.4997L34.435 16.0562L30.1133 15.0557C29.6047 14.9363 29.074 14.9492 28.5718 15.0931C28.0697 15.2369 27.6127 15.507 27.2445 15.8776L26.2833 16.8388C26.2124 16.9096 26.1599 16.9967 26.1303 17.0924C26.1007 17.1881 26.095 17.2897 26.1136 17.3881C26.1322 17.4866 26.1746 17.579 26.2371 17.6573C26.2996 17.7357 26.3803 17.7976 26.4721 17.8376L30.7742 19.7188L28.8515 21.6411L25.0898 21.9895C24.947 22.0022 24.8132 22.0643 24.7115 22.1653L22.8482 24.0286C22.7724 24.1044 22.7177 24.1987 22.6896 24.3022C22.6614 24.4056 22.6608 24.5147 22.6877 24.6184C22.7147 24.7222 22.7683 24.8171 22.8433 24.8938C22.9182 24.9705 23.0119 25.0262 23.1151 25.0555L27.678 26.3531C28.5061 26.5884 29.382 26.5985 30.2153 26.3822C31.0486 26.1658 31.809 25.7311 32.4181 25.1227L42.0073 15.5335C42.0645 15.4764 42.1099 15.4086 42.1408 15.334C42.1717 15.2593 42.1877 15.1794 42.1877 15.0986C42.1877 15.0178 42.1717 14.9378 42.1408 14.8632C42.1099 14.7886 42.0645 14.7208 42.0073 14.6637L40.8447 13.4997ZM31.548 24.2519C31.0941 24.7056 30.5272 25.0299 29.906 25.1913C29.2848 25.3527 28.6318 25.3453 28.0144 25.1698L24.4587 24.159L25.4255 23.1922L29.1873 22.8438C29.3302 22.8308 29.4641 22.7679 29.5655 22.6663L32.2828 19.9491C32.3537 19.8783 32.4062 19.7912 32.4358 19.6955C32.4654 19.5997 32.4711 19.4982 32.4525 19.3998C32.4339 19.3013 32.3915 19.2089 32.329 19.1305C32.2665 19.0522 32.1858 18.9903 32.094 18.9503L27.7912 17.0708L28.1146 16.7474C28.3357 16.5249 28.6102 16.3628 28.9118 16.2766C29.2134 16.1904 29.532 16.1831 29.8373 16.2552L34.4885 17.3317C34.5902 17.355 34.6961 17.3522 34.7965 17.3234C34.8968 17.2947 34.9882 17.2411 35.0622 17.1675L37.86 14.3698C38.1405 14.0901 38.5204 13.9331 38.9166 13.9331C39.3127 13.9331 39.6927 14.0901 39.9732 14.3698L40.7009 15.0979L31.548 24.2519Z" fill="white"/>
<path d="M17.6484 24.1289H6.24023C6.07706 24.1289 5.92058 24.1937 5.8052 24.3091C5.68982 24.4245 5.625 24.581 5.625 24.7441C5.625 24.9073 5.68982 25.0638 5.8052 25.1792C5.92058 25.2946 6.07706 25.3594 6.24023 25.3594H17.6484C17.8116 25.3594 17.9681 25.2946 18.0835 25.1792C18.1988 25.0638 18.2637 24.9073 18.2637 24.7441C18.2637 24.581 18.1988 24.4245 18.0835 24.3091C17.9681 24.1937 17.8116 24.1289 17.6484 24.1289Z" fill="white"/>
<path d="M17.6484 21.875H6.24023C6.07706 21.875 5.92058 21.9398 5.8052 22.0552C5.68982 22.1706 5.625 22.3271 5.625 22.4902C5.625 22.6534 5.68982 22.8099 5.8052 22.9253C5.92058 23.0407 6.07706 23.1055 6.24023 23.1055H17.6484C17.8116 23.1055 17.9681 23.0407 18.0835 22.9253C18.1988 22.8099 18.2637 22.6534 18.2637 22.4902C18.2637 22.3271 18.1988 22.1706 18.0835 22.0552C17.9681 21.9398 17.8116 21.875 17.6484 21.875Z" fill="white"/>
<path d="M17.6484 19.6211H6.24023C6.07706 19.6211 5.92058 19.6859 5.8052 19.8013C5.68982 19.9167 5.625 20.0732 5.625 20.2363C5.625 20.3995 5.68982 20.556 5.8052 20.6714C5.92058 20.7867 6.07706 20.8516 6.24023 20.8516H17.6484C17.8116 20.8516 17.9681 20.7867 18.0835 20.6714C18.1988 20.556 18.2637 20.3995 18.2637 20.2363C18.2637 20.0732 18.1988 19.9167 18.0835 19.8013C17.9681 19.6859 17.8116 19.6211 17.6484 19.6211Z" fill="white"/>
<path d="M12.7334 17.9863C12.7334 18.0671 12.7492 18.1472 12.7801 18.2218C12.811 18.2965 12.8564 18.3643 12.9135 18.4215C12.9706 18.4786 13.0385 18.5239 13.1131 18.5548C13.1878 18.5857 13.2678 18.6016 13.3486 18.6016H17.6486C17.8118 18.6016 17.9683 18.5367 18.0836 18.4214C18.199 18.306 18.2638 18.1495 18.2638 17.9863C18.2638 17.8232 18.199 17.6667 18.0836 17.5513C17.9683 17.4359 17.8118 17.3711 17.6486 17.3711H13.3486C13.2678 17.371 13.1878 17.3869 13.1131 17.4178C13.0385 17.4487 12.9706 17.4941 12.9135 17.5512C12.8564 17.6083 12.811 17.6762 12.7801 17.7508C12.7492 17.8255 12.7334 17.9055 12.7334 17.9863Z" fill="white"/>
</svg>
