<svg width="96" height="96" viewBox="0 0 96 96" fill="none" xmlns="http://www.w3.org/2000/svg">
<circle cx="48" cy="48" r="48" fill="#83CD20"/>
<circle cx="48" cy="48" r="43.5" fill="#83CD20" stroke="#83CD20"/>
<path d="M66.9219 58.2344L65.0469 66.125C64.8125 67.2969 63.875 68.0781 62.7031 68.0781C43.0156 68 27 51.9844 27 32.2969C27 31.125 27.7031 30.1875 28.875 29.9531L36.7656 28.0781C37.8594 27.8438 39.0312 28.4688 39.5 29.4844L43.1719 38C43.5625 39.0156 43.3281 40.1875 42.4688 40.8125L38.25 44.25C40.9062 49.6406 45.2812 54.0156 50.75 56.6719L54.1875 52.4531C54.8125 51.6719 55.9844 51.3594 57 51.75L65.5156 55.4219C66.5312 55.9688 67.1562 57.1406 66.9219 58.2344Z" fill="white"/>
</svg>
