<svg width="24" height="24" viewBox="0 0 24 24" fill="none" xmlns="http://www.w3.org/2000/svg">
<path d="M18.7874 6.6147V15.7791C18.7874 16.1227 18.6442 16.4378 18.4151 16.6669C18.1573 16.9246 17.8423 17.0678 17.4986 17.0678C16.7826 17.0965 16.1812 16.495 16.2099 15.7791L16.1812 9.73631L7.4178 18.4997C6.9023 19.0152 6.10042 19.0152 5.58493 18.4997C5.09807 18.0129 5.06943 17.1824 5.58493 16.6669L14.3484 7.90344L8.33424 7.90344C7.61827 7.93208 7.01686 7.33066 7.0455 6.6147C7.01686 5.89873 7.61827 5.29732 8.33424 5.32596H17.4986C18.2146 5.29732 18.816 5.89873 18.7874 6.6147Z" fill="white"/>
</svg>
