<svg width="453" height="535" viewBox="0 0 453 535" fill="none" xmlns="http://www.w3.org/2000/svg">
<g clip-path="url(#clip0_3968_174)">
<g opacity="0.4">
<path d="M287.985 109.949C287.985 109.949 241.535 350.653 83.2815 444.991L147.14 461.241C147.14 461.241 157.574 409.315 217.165 424.45C276.756 439.586 258.313 491.647 258.313 491.647L318.554 506.932C318.554 506.932 224.721 380.529 304.359 114.105L287.985 109.949Z" stroke="white" stroke-width="2.19582" stroke-linecap="round" stroke-linejoin="round"/>
<path d="M283.773 303.504L281.77 311.391L209.641 293.068L211.644 285.182L283.773 303.504Z" stroke="white" stroke-width="2.19582" stroke-linecap="round" stroke-linejoin="round"/>
<path d="M291.542 386.992L286.715 405.994L159.739 373.739L164.566 354.737L291.542 386.992Z" stroke="white" stroke-width="2.19582" stroke-linecap="round" stroke-linejoin="round"/>
<path d="M250.775 325.094L250.572 376.547L205.426 365.069L230.474 319.945L250.775 325.094Z" stroke="white" stroke-width="2.19582" stroke-linecap="round" stroke-linejoin="round"/>
<path d="M305.856 114.485L312.351 116.139L317.557 95.6211L285.593 87.5102L280.385 108.005L305.856 114.485Z" stroke="white" stroke-width="2.19582" stroke-linecap="round" stroke-linejoin="round"/>
<path d="M310.905 51.6134L310.649 93.8774L292.07 89.1568L310.905 51.6134Z" stroke="white" stroke-width="2.19582" stroke-linecap="round" stroke-linejoin="round"/>
<path d="M207.88 314.203L250.772 325.095L272.544 330.629L250.704 341.598L273.967 356.742L250.569 376.548L276.894 383.226L250.652 354.091L273.044 343.052L250.772 325.095" stroke="white" stroke-width="2.19582" stroke-linecap="round" stroke-linejoin="round"/>
<path d="M229.81 319.759L201.659 324.901L216.074 345.295L179.087 358.379L205.425 365.068L194.304 336.5L221.983 334.294L208.027 314.239L229.81 319.759ZM229.81 319.759L272.691 330.665L218.778 295.362" stroke="white" stroke-width="2.19582" stroke-linecap="round" stroke-linejoin="round"/>
<path d="M247.631 235.907L276.812 243.322L253.423 221.853L280.209 219.013L262.055 199.156" stroke="white" stroke-width="2.19582" stroke-linecap="round" stroke-linejoin="round"/>
<path d="M282.682 204.389L262.055 199.154L284.561 192.081L269.2 178.517L289.174 172.133" stroke="white" stroke-width="2.19582" stroke-linecap="round" stroke-linejoin="round"/>
<path d="M283.468 418.929L154.537 386.16" stroke="white" stroke-width="2.19582" stroke-linecap="round" stroke-linejoin="round"/>
<path d="M276.811 243.32L241.626 249.616L273.862 273.592L234.668 263.623L271.859 292.763L224.867 288.526" stroke="white" stroke-width="2.19582" stroke-linecap="round" stroke-linejoin="round"/>
<path d="M272.597 167.902L289.177 172.129L276.43 156.898L293.443 154.064L280.503 140.921" stroke="white" stroke-width="2.19582" stroke-linecap="round" stroke-linejoin="round"/>
<path d="M288.68 438.914L139.978 401.129" stroke="white" stroke-width="2.19582" stroke-linecap="round" stroke-linejoin="round"/>
<path d="M318.581 506.947L254.107 448.131L294.959 458.247L258.399 491.646" stroke="white" stroke-width="2.19582" stroke-linecap="round" stroke-linejoin="round"/>
<path d="M83.2947 445.001L172.368 427.361L124.796 415.012L147.211 461.235" stroke="white" stroke-width="2.19582" stroke-linecap="round" stroke-linejoin="round"/>
<path d="M304.382 114.104L285.986 119.336L299.287 132.374L280.501 140.926L295.791 144.817" stroke="white" stroke-width="2.19582" stroke-linecap="round" stroke-linejoin="round"/>
<path d="M276.897 243.353L247.716 235.937L278.52 228.226L257.407 213.686L281.766 204.163" stroke="white" stroke-width="2.19582" stroke-linecap="round" stroke-linejoin="round"/>
<path d="M262.053 199.155L281.765 204.162L266.036 187.88L286.604 182.291L272.592 167.908" stroke="white" stroke-width="2.19582" stroke-linecap="round" stroke-linejoin="round"/>
<path d="M247.713 235.936L274.79 257.584L235.86 263.919L273.862 273.593L226.778 281.01L271.771 300.444" stroke="white" stroke-width="2.19582" stroke-linecap="round" stroke-linejoin="round"/>
<path d="M287.426 171.68L272.594 167.904L291.7 160.91L277.884 150.299L295.79 144.813" stroke="white" stroke-width="2.19582" stroke-linecap="round" stroke-linejoin="round"/>
<path d="M287.971 109.94L300.644 124.345L283.643 128.53L295.79 144.818L280.5 140.927" stroke="white" stroke-width="2.19582" stroke-linecap="round" stroke-linejoin="round"/>
<path d="M272.357 308.98L208.026 314.239" stroke="white" stroke-width="2.19582" stroke-linecap="round" stroke-linejoin="round"/>
<path d="M281.688 102.919L313.655 111.04L312.345 116.2L280.377 108.079L281.688 102.919Z" stroke="white" stroke-width="2.19582" stroke-linecap="round" stroke-linejoin="round"/>
<path d="M285.601 87.5806L317.568 95.701L316.257 100.861L284.29 92.7408L285.601 87.5806Z" stroke="white" stroke-width="2.19582" stroke-linecap="round" stroke-linejoin="round"/>
</g>
</g>
<defs>
<clipPath id="clip0_3968_174">
<rect width="345.329" height="460.725" fill="white" transform="matrix(-0.966338 -0.25893 -0.25893 0.966338 453 89.4171)"/>
</clipPath>
</defs>
</svg>
