<svg width="171" height="48" viewBox="0 0 171 48" fill="none" xmlns="http://www.w3.org/2000/svg">
<path fill-rule="evenodd" clip-rule="evenodd" d="M63.5316 21.8294L60.427 21.1558C58.8734 20.819 58.0182 19.8608 58.0182 18.4567C58.0182 16.6721 59.6025 15.3259 61.7039 15.3259C64.6118 15.3259 65.4703 17.4653 65.6648 18.1218C65.7265 18.34 65.8783 18.525 66.0823 18.627C66.2815 18.729 66.5044 18.7441 66.7179 18.6697L68.3544 18.0924C68.5509 18.0226 68.7134 17.8805 68.8086 17.695C68.9038 17.5095 68.9246 17.2946 68.8668 17.0943C68.4446 15.6096 66.8934 12.1562 61.6328 12.1562C57.7383 12.1562 54.451 15.1352 54.451 18.6621C54.451 21.6932 56.44 23.9322 59.7733 24.658L62.7333 25.3031C64.515 25.6779 65.5794 26.7641 65.5794 28.2062C65.5794 30.0467 64.0662 31.1899 61.628 31.1899C58.7629 31.1899 57.3825 29.3114 57.0457 27.5516C57.0244 27.4381 56.9793 27.3305 56.9132 27.2358C56.8472 27.1411 56.7618 27.0615 56.6627 27.0023C56.5635 26.9431 56.453 26.9056 56.3383 26.8924C56.2236 26.8791 56.1074 26.8904 55.9974 26.9254L54.1996 27.4994C54.0106 27.557 53.8495 27.6822 53.7471 27.8511C53.6447 28.02 53.6082 28.2208 53.6446 28.4149C54.2043 31.3322 56.6013 34.444 61.6612 34.444C65.9371 34.444 69.1618 31.6595 69.1618 27.969C69.1618 24.8525 67.105 22.6135 63.5169 21.8213L63.5316 21.8294ZM81.8993 24.6675C81.9088 24.7291 81.8803 24.7766 81.8613 24.7955C81.8456 24.815 81.8258 24.8306 81.8032 24.8413C81.7806 24.852 81.7559 24.8574 81.7309 24.8572H75.1373C75.1111 24.8572 75.0852 24.8512 75.0616 24.8397C75.038 24.8282 75.0173 24.8115 75.0012 24.7908C74.9861 24.7735 74.9753 24.7529 74.9696 24.7307C74.9638 24.7084 74.9633 24.6852 74.968 24.6627C75.2692 23.288 76.448 21.902 78.4023 21.902C80.3221 21.902 81.628 22.9313 81.896 24.6594L81.8993 24.6675ZM78.3767 18.8234C74.9044 18.8234 71.3135 21.7264 71.3135 26.5886C71.3135 28.932 72.082 30.9338 73.5382 32.3711C74.8873 33.704 76.7307 34.4393 78.7277 34.4393C81.702 34.4393 84.1117 32.8853 85.1743 30.2839C85.2597 30.0704 85.2549 29.8332 85.1629 29.6245C85.1175 29.5233 85.0518 29.4324 84.9697 29.3577C84.8877 29.2829 84.7912 29.2258 84.6862 29.19L83.2346 28.6872C83.0404 28.6205 82.8281 28.6295 82.6402 28.7124C82.4523 28.7953 82.3026 28.946 82.2209 29.1345C81.5948 30.6098 80.4183 31.3545 78.7249 31.3545C76.6757 31.3545 75.115 29.9741 74.8446 27.9187C74.8412 27.8957 74.8431 27.8722 74.8501 27.8501C74.857 27.8279 74.869 27.8076 74.8849 27.7907C74.9039 27.7669 74.9466 27.729 75.013 27.729H84.6349C85.0666 27.729 85.4271 27.3922 85.4508 26.9624C85.4603 26.8249 85.4651 26.6731 85.4651 26.5232C85.4651 21.7701 82.747 18.8181 78.3734 18.8181L78.3767 18.8234ZM94.7611 30.3598C92.4509 30.3598 91.0136 28.7564 91.0136 26.1759C91.0136 23.6334 92.4841 21.9902 94.7611 21.9902C96.9668 21.9902 98.4487 23.6694 98.4487 26.174C98.4487 28.6758 96.9659 30.3579 94.7606 30.3579L94.7611 30.3598ZM100.918 19.2598H99.1773C98.7267 19.2598 98.3591 19.6265 98.3591 20.0994C98.3589 20.1328 98.3489 20.1655 98.3304 20.1933C98.3118 20.2212 98.2855 20.2429 98.2547 20.2559C98.2215 20.2702 98.1551 20.2891 98.0953 20.2322C97.1988 19.4125 95.937 18.9965 94.3479 18.9965C90.4093 18.9965 87.5503 22.0182 87.5503 26.1783C87.5503 30.3204 90.4093 33.3269 94.3479 33.3269C95.8042 33.3269 97.1229 32.8487 98.0621 31.9807C98.1238 31.9237 98.1902 31.938 98.2234 31.9522C98.2471 31.9617 98.3278 32.0044 98.3278 32.1087V32.7064C98.3278 35.6 97.0612 36.9496 94.3479 36.9496C92.626 36.9496 91.2741 35.8823 90.9088 34.2324C90.8614 34.019 90.7333 33.8387 90.5483 33.7235C90.3633 33.6082 90.1403 33.5717 89.9269 33.6191L88.2173 34.0128C88.0073 34.0628 87.8254 34.1932 87.7106 34.3759C87.5958 34.5587 87.5573 34.7792 87.6035 34.99C88.2154 37.9879 90.9268 40.004 94.3441 40.004C96.8914 40.004 98.8315 39.2284 100.112 37.6986C101.17 36.4339 101.73 34.6783 101.73 32.6215V20.0904C101.73 19.6397 101.365 19.2745 100.914 19.2745L100.918 19.2598ZM121.615 18.8499C119.689 18.8499 118.122 19.5766 117.083 20.9561C117.065 20.9816 117.041 21.0022 117.013 21.0158C116.985 21.0294 116.955 21.0357 116.924 21.0339C116.901 21.0342 116.878 21.0284 116.858 21.0171C116.838 21.0059 116.821 20.9896 116.81 20.9698C115.938 19.6227 114.434 18.8495 112.683 18.8495C111.29 18.8495 109.951 19.339 109.007 20.1943C108.985 20.218 108.955 20.234 108.923 20.24C108.89 20.246 108.857 20.2416 108.827 20.2275C108.798 20.2155 108.773 20.1949 108.756 20.1684C108.739 20.142 108.731 20.1109 108.732 20.0795C108.732 19.6288 108.365 19.2636 107.915 19.2636H106.261C105.81 19.2636 105.445 19.6288 105.445 20.0795V33.186C105.445 33.6367 105.812 34.0029 106.263 34.0029H108.004C108.454 34.0029 108.82 33.6348 108.82 33.1841V25.1945C108.82 23.2529 110.006 21.948 111.775 21.948C114.09 21.948 114.436 23.7633 114.436 24.8449V33.1983C114.436 33.649 114.801 34.0142 115.252 34.0142H117.023C117.473 34.0142 117.839 33.6471 117.839 33.1964V25.166C117.839 23.2705 119.044 21.947 120.765 21.947C123.082 21.947 123.427 23.7638 123.427 24.8454V33.1988C123.427 33.6495 123.792 34.0147 124.242 34.0147H125.983C126.434 34.0147 126.799 33.6476 126.799 33.1969V24.5494C126.799 20.6217 124.195 18.8651 121.615 18.8651V18.8499ZM133.383 24.8686C133.357 24.8685 133.331 24.8626 133.308 24.8513C133.284 24.8399 133.264 24.8235 133.247 24.8031C133.233 24.7858 133.223 24.7655 133.217 24.7436C133.212 24.7218 133.211 24.699 133.216 24.677C133.518 23.3013 134.696 21.9162 136.652 21.9162C138.571 21.9162 139.878 22.9455 140.145 24.6722C140.155 24.7339 140.125 24.7813 140.107 24.8003C140.091 24.8179 140.07 24.8321 140.048 24.8418C140.026 24.8516 140.001 24.8568 139.977 24.8572H133.383V24.8686ZM136.623 18.8348C133.151 18.8348 129.56 21.7397 129.56 26.6C129.56 28.9462 130.328 30.9466 131.783 32.3853C133.13 33.7182 134.971 34.4488 136.972 34.4488C139.942 34.4488 142.352 32.8929 143.419 30.2886C143.504 30.0752 143.5 29.838 143.405 29.6293C143.31 29.4205 143.139 29.2688 142.926 29.1929L141.474 28.691C141.071 28.552 140.625 28.7479 140.46 29.1378C139.834 30.6093 138.657 31.3578 136.964 31.3578C134.915 31.3578 133.354 29.9746 133.084 27.9187C133.08 27.8955 133.081 27.8717 133.088 27.8491C133.095 27.8264 133.106 27.8055 133.122 27.7878C133.141 27.7641 133.183 27.7285 133.25 27.7285H142.874C143.306 27.7285 143.665 27.3917 143.69 26.9615C143.698 26.8239 143.704 26.6721 143.704 26.5203C143.704 21.7672 140.986 18.812 136.613 18.812L136.623 18.8348ZM154.065 18.8646C152.593 18.8646 151.301 19.3665 150.332 20.3162C150.31 20.3386 150.282 20.3537 150.251 20.3596C150.22 20.3656 150.188 20.362 150.159 20.3494C150.129 20.3364 150.103 20.3148 150.086 20.2875C150.068 20.2602 150.059 20.2283 150.059 20.1957V20.0913C150.059 19.6407 149.692 19.2754 149.241 19.2754H147.534C147.083 19.2754 146.716 19.6407 146.716 20.0913V33.1955C146.716 33.6461 147.081 34.0128 147.532 34.0128H149.301C149.752 34.0128 150.119 33.6452 150.119 33.1945V25.5446C150.119 23.8331 150.895 22.0039 153.074 22.0039C155.034 22.0039 156.028 23.0869 156.028 25.2225V33.1917C156.028 33.6423 156.393 34.0076 156.844 34.0076H158.613C159.064 34.0076 159.43 33.6376 159.43 33.187V24.7533C159.43 21.1197 157.372 18.8618 154.065 18.8618L154.065 18.8646ZM167.674 22.4138H169.738C170.188 22.4138 170.554 22.0462 170.554 21.596V20.0904C170.554 19.6397 170.188 19.2745 169.738 19.2745H167.674C167.653 19.2745 167.631 19.2702 167.611 19.2618C167.591 19.2535 167.572 19.2413 167.557 19.2259C167.541 19.2104 167.529 19.1921 167.521 19.172C167.513 19.1518 167.508 19.1303 167.508 19.1085V15.639C167.508 15.1884 167.14 14.8221 166.69 14.8221H165.153C164.702 14.8221 164.337 15.1884 164.337 15.639V17.4321C164.337 18.2717 164.016 19.274 162.493 19.274H162.231C161.78 19.274 161.415 19.6393 161.415 20.0899V21.5936C161.415 22.0443 161.781 22.4095 162.231 22.4095H163.943C164.035 22.4095 164.109 22.4807 164.109 22.5755V29.819C164.109 32.4944 165.738 34.1547 168.359 34.1547C169.09 34.1547 169.658 34.0503 169.932 33.9886C170.302 33.9032 170.562 33.5759 170.562 33.1917V31.7976C170.562 31.6829 170.537 31.5695 170.491 31.4648C170.444 31.3601 170.375 31.2664 170.29 31.1898C170.205 31.1131 170.104 31.0553 169.995 31.02C169.886 30.9848 169.771 30.9728 169.657 30.985C169.472 31.004 169.292 31.0149 169.152 31.0149C167.961 31.0149 167.515 30.5785 167.515 29.4068V22.576C167.515 22.4849 167.591 22.4109 167.681 22.4109" fill="#43AF79"/>
<path fill-rule="evenodd" clip-rule="evenodd" d="M19.7575 41.0015C17.9056 41.0015 16.0764 40.7264 14.3213 40.1823C13.8407 40.0334 13.4389 39.6996 13.2043 39.2545C12.9697 38.8094 12.9216 38.2893 13.0704 37.8086C13.3807 36.803 14.4461 36.2432 15.4446 36.5563C16.8354 36.988 18.286 37.2062 19.7575 37.2062C26.1959 37.2062 31.7863 33.0745 33.669 26.9221C33.7418 26.6839 33.861 26.4623 34.0195 26.2702C34.1781 26.078 34.373 25.919 34.5931 25.8023C34.8131 25.6855 35.0541 25.6133 35.3021 25.5898C35.5501 25.5662 35.8003 25.5918 36.0384 25.665C37.0403 25.9686 37.6038 27.0312 37.2974 28.0321C34.9237 35.7883 27.8747 41.0015 19.7575 41.0015Z" fill="#43AF79"/>
<path fill-rule="evenodd" clip-rule="evenodd" d="M4.03246 19.7389C3.7357 19.7389 3.44306 19.6693 3.17807 19.5358C2.91307 19.4022 2.6831 19.2083 2.50664 18.9697C2.33018 18.7311 2.21215 18.4544 2.16203 18.1619C2.1119 17.8694 2.13109 17.5692 2.21804 17.2855C4.59221 9.52972 11.6412 4.32031 19.7575 4.32031C21.6108 4.32031 23.4399 4.59544 25.1936 5.14C25.4316 5.21375 25.6528 5.33366 25.8445 5.49288C26.0362 5.65211 26.1946 5.84753 26.3108 6.068C26.427 6.28847 26.4986 6.52965 26.5215 6.77779C26.5444 7.02592 26.5183 7.27615 26.4445 7.51417C26.371 7.75234 26.2512 7.97366 26.092 8.16546C25.9328 8.35727 25.7374 8.51579 25.5168 8.63194C25.2963 8.74809 25.055 8.81959 24.8068 8.84235C24.5586 8.86512 24.3083 8.83869 24.0703 8.76458C22.6805 8.33766 21.2289 8.11945 19.7575 8.11945C13.3204 8.11945 7.72914 12.2511 5.84641 18.4036C5.72741 18.7918 5.48708 19.1317 5.16068 19.3733C4.83429 19.6149 4.43903 19.7456 4.03294 19.746" fill="#43AF79"/>
<path fill-rule="evenodd" clip-rule="evenodd" d="M24.6316 29.3765H1.89744C0.849102 29.3765 0 28.5274 0 27.479C0 26.4307 0.849102 25.5816 1.89744 25.5816H24.6316C25.6799 25.5816 26.529 26.4307 26.529 27.479C26.529 28.5274 25.6799 29.3765 24.6316 29.3765Z" fill="#93C8A2"/>
<path fill-rule="evenodd" clip-rule="evenodd" d="M37.6167 19.7365H14.8835C13.8352 19.7365 12.9861 18.8874 12.9861 17.839C12.9861 16.7907 13.8352 15.9416 14.8835 15.9416H37.6167C38.665 15.9416 39.5141 16.7907 39.5141 17.839C39.5141 18.8874 38.665 19.7365 37.6167 19.7365Z" fill="#93C8A2"/>
<path fill-rule="evenodd" clip-rule="evenodd" d="M32.9167 10.6084C32.9167 11.1116 32.7168 11.5942 32.361 11.9501C32.0051 12.3059 31.5225 12.5058 31.0193 12.5058C30.5161 12.5058 30.0334 12.3059 29.6776 11.9501C29.3218 11.5942 29.1218 11.1116 29.1218 10.6084C29.1218 10.1051 29.3218 9.62252 29.6776 9.26668C30.0334 8.91085 30.5161 8.71094 31.0193 8.71094C31.5225 8.71094 32.0051 8.91085 32.361 9.26668C32.7168 9.62252 32.9167 10.1051 32.9167 10.6084ZM10.3918 34.7125C10.3918 35.2157 10.1919 35.6983 9.83604 36.0541C9.4802 36.41 8.99758 36.6099 8.49435 36.6099C7.99111 36.6099 7.50849 36.41 7.15266 36.0541C6.79682 35.6983 6.59691 35.2157 6.59691 34.7125C6.59691 34.2092 6.79682 33.7266 7.15266 33.3708C7.50849 33.0149 7.99111 32.815 8.49435 32.815C8.99758 32.815 9.4802 33.0149 9.83604 33.3708C10.1919 33.7266 10.3918 34.2092 10.3918 34.7125Z" fill="#93C8A2"/>
</svg>
