<svg width="55" height="55" viewBox="0 0 55 55" fill="none" xmlns="http://www.w3.org/2000/svg">
<rect x="23" width="32" height="32" rx="16" fill="#F1F5EB"/>
<g clip-path="url(#clip0_3755_145)">
<path d="M41.7113 22.7447C41.7114 20.8746 41.1569 19.0465 40.118 17.4915C39.079 15.9365 37.6023 14.7246 35.8746 14.0089C34.1469 13.2932 32.2457 13.1059 30.4115 13.4707C28.5773 13.8356 26.8925 14.7361 25.5702 16.0585C24.2478 17.3808 23.3473 19.0656 22.9824 20.8998C22.6176 22.734 22.8049 24.6351 23.5206 26.3629C24.2363 28.0906 25.4482 29.5673 27.0032 30.6063C28.5582 31.6452 30.3863 32.1997 32.2564 32.1996C34.7632 32.1968 37.1664 31.1998 38.939 29.4272C40.7115 27.6547 41.7085 25.2514 41.7113 22.7447ZM24.0316 22.7447C24.0315 21.118 24.5139 19.5277 25.4176 18.1751C26.3213 16.8225 27.6058 15.7683 29.1087 15.1457C30.6116 14.5231 32.2653 14.3602 33.8608 14.6775C35.4563 14.9948 36.9218 15.7782 38.0721 16.9284C39.2224 18.0786 40.0058 19.5442 40.3232 21.1396C40.6405 22.7351 40.4777 24.3888 39.8552 25.8918C39.2327 27.3947 38.1785 28.6792 36.8259 29.583C35.4733 30.4868 33.8831 30.9691 32.2564 30.9691C30.0759 30.9666 27.9854 30.0993 26.4435 28.5575C24.9016 27.0157 24.0342 24.9252 24.0316 22.7447Z" fill="#034833"/>
<path d="M36.9148 41.6863H15.6892V39.6026H32.2566C32.3414 39.6023 32.4252 39.5844 32.5027 39.5499H32.5048C33.016 39.3242 45.0007 33.8862 45.0007 22.7441C45.0007 19.3642 43.658 16.1227 41.268 13.7327C38.8781 11.3427 35.6365 10 32.2566 10C28.8766 10 25.6351 11.3427 23.2451 13.7327C20.8551 16.1227 19.5124 19.3642 19.5124 22.7441C19.5124 28.5354 22.7503 32.7823 25.9316 35.5596H15.4255C14.4235 35.5608 13.4629 35.9593 12.7544 36.6678C12.0459 37.3763 11.6473 38.337 11.6462 39.3389V41.9489C11.6473 42.9509 12.0459 43.9116 12.7544 44.6201C13.4629 45.3286 14.4235 45.7271 15.4255 45.7282H36.6511V47.5504H10.4597C9.99011 46.3804 9.12783 45.4104 8.02093 44.8069C6.91403 44.2035 5.63156 44.0042 4.39373 44.2433C3.15591 44.4825 2.03995 45.1451 1.23748 46.1174C0.435011 47.0898 -0.00390625 48.3112 -0.00390625 49.5719C-0.00390625 50.8326 0.435011 52.054 1.23748 53.0263C2.03995 53.9987 3.15591 54.6613 4.39373 54.9004C5.63156 55.1396 6.91403 54.9403 8.02093 54.3368C9.12783 53.7334 9.99011 52.7634 10.4597 51.5934H36.9148C37.9168 51.5922 38.8774 51.1937 39.5859 50.4852C40.2944 49.7767 40.693 48.8161 40.6941 47.8141V45.4646C40.6927 44.4628 40.294 43.5024 39.5855 42.7941C38.8771 42.0858 37.9166 41.6874 36.9148 41.6863ZM20.7429 22.7441C20.7429 19.6905 21.9559 16.762 24.1152 14.6027C26.2744 12.4435 29.203 11.2305 32.2566 11.2305C35.3102 11.2305 38.2387 12.4435 40.398 14.6027C42.5572 16.762 43.7702 19.6905 43.7702 22.7441C43.7702 32.2304 33.9581 37.47 32.2562 38.3068C30.5533 37.4714 20.7429 32.2437 20.7429 22.7441ZM5.42779 53.7706C4.59774 53.7706 3.78633 53.5245 3.09616 53.0633C2.40599 52.6022 1.86805 51.9468 1.55037 51.1799C1.2327 50.4131 1.14954 49.5692 1.31142 48.7551C1.47331 47.941 1.87296 47.1932 2.45984 46.6062C3.04673 46.0192 3.79449 45.6194 4.60857 45.4574C5.42265 45.2954 6.2665 45.3784 7.0334 45.696C7.80031 46.0135 8.45583 46.5513 8.91708 47.2414C9.37833 47.9315 9.6246 48.7429 9.62474 49.5729C9.62372 50.6858 9.18123 51.7528 8.39439 52.5397C7.60755 53.3267 6.54064 53.7694 5.42779 53.7706ZM39.4636 47.8151C39.4629 48.4909 39.1941 49.1388 38.7163 49.6166C38.2384 50.0944 37.5905 50.3632 36.9148 50.3639H10.7909C10.8767 49.8401 10.8767 49.3058 10.7909 48.7819H36.9148C37.1711 48.7816 37.4169 48.6797 37.5981 48.4984C37.7794 48.3172 37.8813 48.0714 37.8816 47.8151V45.4656C37.8814 45.2093 37.7795 44.9635 37.5982 44.7822C37.4169 44.6009 37.1711 44.499 36.9148 44.4988H15.4255C14.7498 44.4981 14.1019 44.2293 13.6241 43.7515C13.1462 43.2736 12.8774 42.6258 12.8767 41.95V39.34C12.8774 38.6642 13.1462 38.0164 13.6241 37.5385C14.1019 37.0607 14.7498 36.7919 15.4255 36.7912H27.4521C28.2085 37.3577 28.993 37.8858 29.8027 38.3732H15.4255C15.1692 38.3734 14.9234 38.4753 14.7421 38.6566C14.5608 38.8378 14.4589 39.0836 14.4587 39.34V41.95C14.459 42.2063 14.561 42.4521 14.7422 42.6333C14.9234 42.8146 15.1692 42.9165 15.4255 42.9168H36.9148C37.5905 42.9175 38.2384 43.1863 38.7163 43.6642C39.1941 44.142 39.4629 44.7899 39.4636 45.4656V47.8151Z" fill="#034833"/>
</g>
<defs>
<clipPath id="clip0_3755_145">
<rect width="45" height="45" fill="white" transform="translate(0 10)"/>
</clipPath>
</defs>
</svg>
