<svg width="114" height="48" viewBox="0 0 114 48" fill="none" xmlns="http://www.w3.org/2000/svg">
<path d="M12.3085 13.1055V22.1932H3.96242V13.1055H0V34.7988H3.96242V26.0061H12.3085V34.7988H16.2709V13.1055H12.3085Z" fill="#33475B"/>
<path d="M28.9522 27.7859C28.9522 28.6553 28.6068 29.4891 27.9921 30.1039C27.3773 30.7186 26.5435 31.064 25.6741 31.064C24.8047 31.064 23.971 30.7186 23.3562 30.1039C22.7414 29.4891 22.3961 28.6553 22.3961 27.7859V18.4944H18.6375V27.7859C18.6375 29.6504 19.3781 31.4384 20.6965 32.7568C22.0149 34.0751 23.8029 34.8158 25.6673 34.8158C27.5318 34.8158 29.3198 34.0751 30.6382 32.7568C31.9565 31.4384 32.6972 29.6504 32.6972 27.7859V18.4944H28.9522V27.7859Z" fill="#33475B"/>
<path d="M56.8007 19.452C56.8007 17.5474 58.0606 16.9437 59.441 16.9437C60.5534 16.9437 62.0231 17.7901 62.9841 18.8171L65.4458 15.9166C64.2169 14.2548 61.7241 13.1055 59.6837 13.1055C55.6067 13.1055 52.6577 15.4934 52.6577 19.452C52.6577 26.7963 61.6348 24.4666 61.6348 28.5766C61.6348 29.8443 60.4039 30.9645 58.9945 30.9645C56.7715 30.9645 56.0513 29.8773 55.0301 28.728L52.2985 31.5683C54.0458 33.7135 56.2008 34.8027 58.7828 34.8027C62.656 34.8027 65.7719 32.3856 65.7719 28.6076C65.7719 20.4537 56.7948 22.9873 56.7948 19.452" fill="#33475B"/>
<path d="M112.337 31.3331C110.116 31.3331 109.485 30.3721 109.485 28.9005V22.3871H112.937V19.0867H109.485V14.7321L105.674 16.4425V29.7101C105.674 33.1037 108.015 34.8141 111.226 34.8141C111.73 34.8232 112.233 34.7829 112.729 34.6937L113.659 31.271C113.239 31.3001 112.758 31.3292 112.337 31.3292" fill="#33475B"/>
<path d="M43.2594 18.6039C41.3976 18.6039 40.0988 19.1436 38.8427 20.3764V13.2359H35.0783V26.4705C35.0783 31.425 38.6602 34.8185 42.6847 34.8185C47.15 34.8185 51.0774 31.3648 51.0774 26.7132C51.0774 22.1198 47.4625 18.6058 43.2594 18.6058V18.6039ZM43.2361 31.0309C42.3913 31.0309 41.5656 30.7804 40.8632 30.3111C40.1608 29.8417 39.6134 29.1747 39.2901 28.3942C38.9668 27.6138 38.8822 26.755 39.0471 25.9265C39.2119 25.098 39.6186 24.337 40.216 23.7396C40.8133 23.1423 41.5743 22.7355 42.4028 22.5707C43.2313 22.4059 44.0901 22.4905 44.8706 22.8138C45.651 23.137 46.3181 23.6845 46.7874 24.3869C47.2567 25.0892 47.5072 25.915 47.5072 26.7598C47.5072 27.8925 47.0572 28.9789 46.2562 29.7799C45.4552 30.5809 44.3688 31.0309 43.2361 31.0309Z" fill="#33475B"/>
<path d="M84.1336 26.5143C84.1336 21.8549 80.2139 18.4089 75.7409 18.4089C71.7164 18.4089 68.1345 21.8025 68.1345 26.757V39.9993H71.8989V32.8491C73.153 34.08 74.4538 34.6216 76.3136 34.6216C80.5168 34.6216 84.1317 31.1096 84.1317 26.5143H84.1336ZM80.5692 26.4677C80.5692 27.3124 80.3187 28.1382 79.8494 28.8406C79.3801 29.543 78.713 30.0904 77.9326 30.4137C77.1521 30.737 76.2934 30.8215 75.4648 30.6567C74.6363 30.4919 73.8753 30.0852 73.278 29.4878C72.6806 28.8905 72.2739 28.1295 72.1091 27.301C71.9443 26.4724 72.0288 25.6137 72.3521 24.8332C72.6754 24.0528 73.2228 23.3857 73.9252 22.9164C74.6276 22.4471 75.4533 22.1966 76.2981 22.1966C77.4309 22.1966 78.5172 22.6466 79.3182 23.4476C80.1192 24.2486 80.5692 25.3349 80.5692 26.4677Z" fill="#33475B"/>
<path d="M96.2573 18.3496V14.6066C96.752 14.3756 97.1708 14.0088 97.465 13.5489C97.7592 13.089 97.9167 12.555 97.9191 12.009V11.9216C97.9171 11.1587 97.6131 10.4276 97.0736 9.88807C96.5341 9.34858 95.803 9.04459 95.04 9.04254H94.9527C94.1897 9.04459 93.4586 9.34858 92.9191 9.88807C92.3796 10.4276 92.0756 11.1587 92.0736 11.9216V12.009C92.076 12.555 92.2335 13.089 92.5277 13.5489C92.8219 14.0088 93.2407 14.3756 93.7354 14.6066V18.3496C92.3132 18.5671 90.9738 19.1565 89.8526 20.0581L79.5748 12.0614C79.6479 11.7976 79.6871 11.5256 79.6913 11.2519C79.692 10.6095 79.5023 9.98128 79.146 9.44673C78.7898 8.91217 78.283 8.49527 77.6898 8.24873C77.0966 8.00219 76.4436 7.93708 75.8134 8.06166C75.1833 8.18623 74.6041 8.49487 74.1494 8.94857C73.6946 9.40226 73.3846 9.98063 73.2585 10.6105C73.1324 11.2404 73.1959 11.8936 73.4411 12.4873C73.6862 13.0811 74.1019 13.5889 74.6356 13.9464C75.1693 14.3039 75.797 14.4952 76.4394 14.496C77.0037 14.4939 77.5574 14.3432 78.0449 14.0591L88.15 21.9257C87.2398 23.2989 86.765 24.9146 86.7875 26.5619C86.81 28.2091 87.3288 29.8113 88.2762 31.1591L85.201 34.2343C84.9541 34.1557 84.697 34.1138 84.438 34.11C83.91 34.11 83.3939 34.2666 82.9549 34.5599C82.516 34.8532 82.1738 35.2701 81.9718 35.7579C81.7697 36.2457 81.7169 36.7824 81.8199 37.3002C81.9229 37.818 82.1771 38.2937 82.5504 38.667C82.9238 39.0403 83.3994 39.2946 83.9172 39.3976C84.435 39.5006 84.9718 39.4477 85.4596 39.2457C85.9473 39.0436 86.3642 38.7015 86.6576 38.2625C86.9509 37.8235 87.1074 37.3074 87.1074 36.7794C87.1039 36.5204 87.062 36.2633 86.9832 36.0165L90.0254 32.9743C91.0184 33.7328 92.1717 34.2544 93.3971 34.4993C94.6225 34.7441 95.8876 34.7058 97.0959 34.3871C98.3042 34.0685 99.4237 33.478 100.369 32.6607C101.314 31.8434 102.06 30.8209 102.55 29.6713C103.04 28.5217 103.261 27.2754 103.196 26.0275C103.13 24.7796 102.781 23.5631 102.174 22.4709C101.567 21.3786 100.718 20.4395 99.6926 19.7253C98.6673 19.0111 97.4922 18.5405 96.2573 18.3496ZM94.9973 30.6621C94.1649 30.6621 93.3511 30.4152 92.6589 29.9527C91.9668 29.4902 91.4273 28.8329 91.1087 28.0638C90.7902 27.2947 90.7068 26.4484 90.8692 25.632C91.0316 24.8155 91.4325 24.0655 92.0211 23.4769C92.6098 22.8883 93.3597 22.4874 94.1762 22.325C94.9927 22.1626 95.8389 22.2459 96.608 22.5645C97.3771 22.8831 98.0345 23.4225 98.497 24.1147C98.9594 24.8069 99.2063 25.6206 99.2063 26.4531C99.2063 27.5694 98.7629 28.6399 97.9735 29.4293C97.1842 30.2186 96.1136 30.6621 94.9973 30.6621Z" fill="#FF7A59"/>
</svg>
