<svg width="73" height="56" viewBox="0 0 73 56" fill="none" xmlns="http://www.w3.org/2000/svg">
<path d="M37.3485 41.5741C36.9643 41.2667 36.8874 40.8825 37.0411 40.2294L44.418 14.6792C44.5333 14.1798 44.9559 13.834 45.4938 13.834H62.8602C63.5518 13.834 63.8207 14.1413 63.8207 14.7945V17.4071C63.7823 17.9066 63.6286 18.3677 63.3597 18.7519L44.0722 44.1867C43.7648 44.6478 43.1117 44.8015 42.6122 44.4941L37.3485 41.5741ZM10.2999 41.5741C9.9157 41.2667 9.83886 40.8825 9.99255 40.2294L17.3694 14.6792C17.4847 14.1413 17.9842 13.7955 18.5221 13.834H35.8116C36.5032 13.834 36.7722 14.1413 36.7722 14.7945V17.4071C36.7337 17.9066 36.5801 18.3677 36.3111 18.7519L17.1005 44.1867C16.7931 44.6478 16.1399 44.8015 15.6405 44.4557L10.2999 41.5741Z" fill="white"/>
</svg>
