<svg width="45" height="45" viewBox="0 0 45 45" fill="none" xmlns="http://www.w3.org/2000/svg">
<g clip-path="url(#clip0_5704_7618)">
<path d="M37.1602 8.96484C38.8477 8.96484 40.2539 7.59375 40.2539 5.87109C40.2539 4.14844 38.8477 2.8125 37.1602 2.8125C35.4727 2.8125 34.0664 4.18359 34.0664 5.90625C34.0664 7.59375 35.4375 8.96484 37.1602 8.96484ZM37.1602 4.04297C38.1797 4.04297 39.0234 4.88672 39.0234 5.90625C39.0234 6.92578 38.1797 7.76953 37.1602 7.76953C36.1406 7.76953 35.2969 6.92578 35.2969 5.90625C35.2969 4.88672 36.1055 4.04297 37.1602 4.04297Z" fill="white"/>
<path d="M40.8517 16.1016C40.2892 14.9062 39.6212 13.7461 38.8478 12.6914C40.5353 11.5664 43.0314 9.35156 43.0314 5.90625C43.0314 2.63672 40.3946 0.0351562 37.1603 0.0351562C33.9259 0.0351562 31.254 2.63672 31.254 5.90625V6.29297C30.797 6.08203 30.3399 5.87109 29.8829 5.66016C16.6642 0.351562 2.03916 9.94922 1.96885 24.5391C1.9337 35.7891 11.004 44.9297 22.254 44.9648C33.504 45 42.6446 35.9297 42.6798 24.6797C42.6798 24.6094 42.6798 24.5742 42.6798 24.5039C42.6798 21.6211 42.047 18.7383 40.8517 16.1016ZM37.1603 1.23047C39.7267 1.23047 41.8009 3.30469 41.836 5.90625C41.836 9.59766 38.1798 11.7773 37.1603 12.2695C36.1759 11.7422 32.4845 9.59766 32.4845 5.90625C32.4845 3.30469 34.5587 1.23047 37.1603 1.23047ZM36.879 13.5352C37.0548 13.6055 37.2306 13.6055 37.3712 13.5352C37.4064 13.5352 37.547 13.4648 37.7579 13.3242C38.3204 14.0977 38.8126 14.9062 39.2696 15.75H35.6134L33.1524 13.2891C33.0118 13.1484 32.8009 13.0781 32.5899 13.1133L25.3478 14.7305C25.0665 14.8008 24.8556 15.0469 24.8556 15.3281V16.8047C24.8556 17.1211 25.0665 17.3672 25.3829 17.4023L30.3751 18.1758L31.6056 20.5664C31.6759 20.707 31.8165 20.8477 31.9923 20.8828L35.1564 21.7617V23.5547L33.2579 25.5234C33.1524 25.6289 33.0821 25.8047 33.0821 25.9453V28.9336L29.6017 35.0156H27.6681V33.082C27.6681 32.9062 27.5978 32.7305 27.4571 32.625L24.7853 30.1992V27.3867C24.7853 27.1406 24.6095 26.8945 24.3985 26.8242L18.9142 24.8203V20.25L22.5001 16.3828C22.7462 16.1367 22.711 15.75 22.4649 15.5039L22.4298 15.4688L19.1603 12.9375L21.8321 9.14062H27.3165C27.4923 9.14062 27.6329 9.07031 27.7384 8.96484L29.7774 6.92578C30.3399 7.17188 30.9376 7.45312 31.5001 7.76953C32.6251 11.5664 36.7032 13.4297 36.879 13.5352ZM9.98448 9.94922L11.5314 13.1484L10.3009 13.7813C10.2306 13.8164 10.1954 13.8516 10.1251 13.8867L7.20713 16.875C7.03135 17.0508 6.9962 17.2969 7.06651 17.5078L7.48838 18.7031C7.03135 18.9844 6.57432 19.3711 6.22276 19.7578L3.72666 20.1797C4.64073 16.1719 6.85557 12.5859 9.98448 9.94922ZM10.5821 30.0234C9.59776 29.4961 5.90635 27.3516 5.90635 23.6602C5.94151 21.0938 8.05088 19.0195 10.6173 19.0547C13.1485 19.0898 15.2228 21.1289 15.2228 23.6602C15.2228 27.3516 11.5665 29.5313 10.5821 30.0234ZM3.23448 23.5195C3.26963 22.8164 3.33995 22.1484 3.44541 21.4453L5.23838 21.1289C4.88682 21.8672 4.67588 22.6758 4.67588 23.4844H3.23448V23.5195ZM10.3009 36.5625V39.4453C5.8712 35.8594 3.26963 30.4805 3.19932 24.75H4.78135C5.44932 29.0742 10.1251 31.1836 10.336 31.2891C10.5118 31.3594 10.6876 31.3594 10.8282 31.2891C11.3204 31.043 11.7774 30.7969 12.2345 30.4805L12.8673 31.1133V32.8008L12.0939 33.9609C11.9181 34.207 11.9884 34.5586 12.1993 34.7695L12.3751 34.9453L10.547 36.0352C10.4064 36.1406 10.3009 36.3164 10.3009 36.5625ZM22.3243 43.6992C18.4571 43.6992 14.6954 42.5391 11.5314 40.3594V36.9141L13.8165 35.543C14.0978 35.3672 14.2032 34.9805 14.0274 34.6992C13.9923 34.6289 13.9571 34.5938 13.8868 34.5586L13.4649 34.207L14.0274 33.3633C14.0978 33.2578 14.1329 33.1523 14.1329 33.0117V30.9023C14.1329 30.7266 14.0626 30.5859 13.9571 30.4805L13.2892 29.8125C14.836 28.582 16.5235 26.543 16.5235 23.7305C16.5235 20.4961 13.922 17.8594 10.6524 17.8594C9.94932 17.8594 9.28135 17.9648 8.61338 18.2109L8.36729 17.5078L10.9337 14.8711L12.6212 14.0273C12.9376 13.8867 13.0431 13.5 12.9024 13.2188L10.9689 9.24609C16.0314 5.51953 22.6056 4.5 28.547 6.53906L27.0704 7.94531H21.5157C21.3048 7.94531 21.129 8.05078 21.0235 8.19141L17.8243 12.7266C17.6485 13.0078 17.6837 13.3594 17.9649 13.5703L21.1642 16.0312L17.8595 19.582C17.754 19.6875 17.6837 19.8281 17.6837 20.0039V25.2422C17.6837 25.4883 17.8595 25.7344 18.0704 25.8047L23.5548 27.8086V30.4805C23.5548 30.6562 23.6251 30.832 23.7657 30.9375L26.4376 33.3633V35.6484C26.4376 36 26.7189 36.2461 27.0353 36.2461H29.9532C30.1642 36.2461 30.3751 36.1406 30.4806 35.9297L34.2423 29.3906C34.3126 29.2852 34.3126 29.1797 34.3126 29.0742V26.1563L36.211 24.2578C36.3165 24.1523 36.3868 23.9766 36.3868 23.8359V21.3398C36.3868 21.0586 36.211 20.8125 35.9298 20.7422L32.5548 19.793L31.3243 17.3672C31.2189 17.1914 31.0782 17.0859 30.8673 17.0508L26.086 16.3125V15.8203L32.5196 14.3789L34.9454 16.8047C35.0509 16.9102 35.2267 16.9805 35.3673 16.9805H39.8673C40.922 19.3711 41.4493 21.9375 41.4493 24.5742C41.4493 35.1211 32.8712 43.6641 22.3243 43.6992Z" fill="white"/>
<path d="M10.582 20.5664C8.89453 20.5664 7.48828 21.9375 7.48828 23.6602C7.48828 25.3477 8.85938 26.7539 10.582 26.7539C12.3047 26.7539 13.6758 25.3828 13.6758 23.6602C13.6406 21.9727 12.2695 20.5664 10.582 20.5664ZM10.582 25.5234C9.5625 25.5234 8.71875 24.6797 8.71875 23.6602C8.71875 22.6406 9.5625 21.7969 10.582 21.7969C11.6016 21.7969 12.4453 22.6406 12.4453 23.6602C12.4453 24.6797 11.6016 25.5234 10.582 25.5234Z" fill="white"/>
</g>
<defs>
<clipPath id="clip0_5704_7618">
<rect width="45" height="45" fill="white"/>
</clipPath>
</defs>
</svg>
