<svg width="15" height="15" viewBox="0 0 15 15" fill="none" xmlns="http://www.w3.org/2000/svg">
<path d="M7.5167 3.64143C9.62138 3.64143 11.3586 5.37862 11.3586 7.4833C11.3586 9.62138 9.62138 11.3252 7.5167 11.3252C5.37862 11.3252 3.67483 9.62138 3.67483 7.4833C3.67483 5.37862 5.37862 3.64143 7.5167 3.64143ZM7.5167 9.98886C8.88641 9.98886 9.98886 8.88641 9.98886 7.4833C9.98886 6.11359 8.88641 5.01114 7.5167 5.01114C6.11359 5.01114 5.01114 6.11359 5.01114 7.4833C5.01114 8.88641 6.14699 9.98886 7.5167 9.98886ZM12.3942 3.5078C12.3942 3.00668 11.9933 2.60579 11.4922 2.60579C10.9911 2.60579 10.5902 3.00668 10.5902 3.5078C10.5902 4.00891 10.9911 4.4098 11.4922 4.4098C11.9933 4.4098 12.3942 4.00891 12.3942 3.5078ZM14.9332 4.4098C15 5.64588 15 9.35412 14.9332 10.5902C14.8664 11.7929 14.5991 12.8285 13.7305 13.7305C12.8619 14.5991 11.7929 14.8664 10.5902 14.9332C9.35412 15 5.64588 15 4.4098 14.9332C3.20713 14.8664 2.17149 14.5991 1.26949 13.7305C0.400891 12.8285 0.13363 11.7929 0.0668151 10.5902C0 9.35412 0 5.64588 0.0668151 4.4098C0.13363 3.20713 0.400891 2.13808 1.26949 1.26949C2.17149 0.400891 3.20713 0.13363 4.4098 0.0668151C5.64588 0 9.35412 0 10.5902 0.0668151C11.7929 0.13363 12.8619 0.400891 13.7305 1.26949C14.5991 2.13808 14.8664 3.20713 14.9332 4.4098ZM13.3296 11.8931C13.7305 10.9243 13.6303 8.58575 13.6303 7.4833C13.6303 6.41425 13.7305 4.07572 13.3296 3.0735C13.0624 2.43875 12.5612 1.90423 11.9265 1.67038C10.9243 1.26949 8.58575 1.36971 7.5167 1.36971C6.41425 1.36971 4.07572 1.26949 3.1069 1.67038C2.43875 1.93764 1.93764 2.43875 1.67038 3.0735C1.26949 4.07572 1.36971 6.41425 1.36971 7.4833C1.36971 8.58575 1.26949 10.9243 1.67038 11.8931C1.93764 12.5612 2.43875 13.0624 3.1069 13.3296C4.07572 13.7305 6.41425 13.6303 7.5167 13.6303C8.58575 13.6303 10.9243 13.7305 11.9265 13.3296C12.5612 13.0624 13.0958 12.5612 13.3296 11.8931Z" fill="#034833"/>
</svg>
