<svg width="55" height="55" viewBox="0 0 55 55" fill="none" xmlns="http://www.w3.org/2000/svg">
<rect x="13" width="42" height="42" rx="20" fill="#F1F5EB"/>
<g clip-path="url(#clip0_3755_127)">
<path d="M37.3238 37.0674C37.3614 36.5889 37.3864 36.1133 37.3864 35.6524V17.6464C37.3864 17.5251 37.3505 17.4065 37.2833 17.3055C37.216 17.2045 37.1204 17.1257 37.0085 17.079L20.1996 10.0477C20.1243 10.0162 20.0436 10 19.9621 10C19.8805 10 19.7998 10.0162 19.7246 10.0477L2.91604 17.079C2.8041 17.1257 2.70848 17.2045 2.64123 17.3055C2.57398 17.4065 2.5381 17.5251 2.53811 17.6464V35.6524C2.5323 39.2412 3.59066 42.7512 5.57939 45.7387C7.56813 48.7261 10.3979 51.0569 13.7111 52.4363L19.7253 54.9521C19.8005 54.9836 19.8812 54.9999 19.9628 54.9999C20.0443 54.9999 20.1251 54.9836 20.2003 54.9521L26.2148 52.4363C26.3076 52.3976 26.398 52.3551 26.4897 52.3147C27.4706 53.2505 28.6414 53.9643 29.9225 54.4077C31.2037 54.8511 32.5653 55.0136 33.9148 54.8842C35.2643 54.7549 36.5702 54.3367 37.7438 53.6581C38.9175 52.9794 39.9313 52.0562 40.7166 50.9511C41.5019 49.846 42.0403 48.5849 42.2951 47.2533C42.5499 45.9218 42.5153 44.551 42.1935 43.234C41.8717 41.9171 41.2704 40.6847 40.4303 39.6207C39.5901 38.5567 38.5309 37.6859 37.3245 37.0674H37.3238ZM19.9623 53.7177L14.1854 51.3015C11.0964 50.0151 8.45812 47.8419 6.604 45.0565C4.74988 42.271 3.76317 38.9984 3.76858 35.6524V18.056L19.9623 11.282L36.1559 18.056V35.6524C36.1559 35.947 36.1461 36.25 36.1292 36.5524C35.397 36.2953 34.6359 36.13 33.863 36.0602C33.8673 35.9217 33.8708 35.7849 33.8708 35.6516V19.9867C33.8708 19.8654 33.8349 19.7467 33.7676 19.6457C33.7004 19.5447 33.6048 19.4658 33.4928 19.419L20.1996 13.8586C20.1243 13.8272 20.0436 13.8109 19.9621 13.8109C19.8805 13.8109 19.7998 13.8272 19.7246 13.8586L6.43131 19.419C6.31946 19.4659 6.22396 19.5448 6.15679 19.6458C6.08962 19.7468 6.05377 19.8654 6.05374 19.9867V35.6524C6.04904 38.5476 6.90282 41.3793 8.50713 43.7895C10.1114 46.1997 12.3943 48.0801 15.0671 49.1931L19.7246 51.1411C19.7998 51.1727 19.8805 51.1889 19.9621 51.1889C20.0436 51.1889 20.1244 51.1727 20.1996 51.1411L24.4014 49.3833C24.7225 50.0874 25.1288 50.7494 25.6112 51.3545L19.9623 53.7177ZM23.5524 45.4754C23.5519 46.4099 23.6906 47.3393 23.9637 48.233L19.9623 49.9068L15.5421 48.0579C13.0932 47.0383 11.0017 45.3156 9.53183 43.1074C8.06198 40.8993 7.27981 38.305 7.2842 35.6524V20.3963L19.9623 15.093L32.6403 20.3963V35.6541C32.6403 35.7768 32.6371 35.9034 32.6333 36.0317C30.1938 36.1307 27.887 37.1686 26.1948 38.9284C24.5026 40.6882 23.5558 43.0339 23.5524 45.4754ZM28.2173 52.155V51.3999C28.2182 50.5377 28.5611 49.7111 29.1708 49.1014C29.7805 48.4918 30.6071 48.1489 31.4692 48.1479H34.5454C35.4076 48.1489 36.2342 48.4918 36.8439 49.1014C37.4535 49.7111 37.7964 50.5377 37.7974 51.3999V52.1547C36.4022 53.1593 34.7265 53.6998 33.0073 53.6998C31.2881 53.6998 29.6124 53.1596 28.2173 52.155ZM39.012 51.0874C38.9323 49.9569 38.4275 48.8985 37.5992 48.125C36.7709 47.3514 35.6805 46.9202 34.5472 46.9178H31.471C30.3377 46.9201 29.2472 47.3513 28.4189 48.1249C27.5906 48.8984 27.0858 49.9568 27.0062 51.0874C25.9104 49.9166 25.1808 48.4512 24.9071 46.8712C24.6334 45.2913 24.8275 43.6658 25.4655 42.1947C26.1036 40.7236 27.1577 39.4711 28.4983 38.5913C29.8389 37.7115 31.4074 37.2428 33.0109 37.2428C34.6143 37.2428 36.1828 37.7115 37.5234 38.5913C38.864 39.4711 39.9181 40.7236 40.5562 42.1947C41.1942 43.6658 41.3883 45.2913 41.1146 46.8712C40.8409 48.4512 40.1113 49.9166 39.0155 51.0874H39.012Z" fill="#034833"/>
<path d="M33.0068 39.0054C32.3164 38.9669 31.6302 39.1365 31.0372 39.4922C30.4441 39.848 29.9715 40.3735 29.6804 41.0008C29.3893 41.6281 29.2931 42.3283 29.4044 43.0109C29.5156 43.6934 29.8291 44.3269 30.3043 44.8293C30.7795 45.3318 31.3945 45.68 32.0698 45.8291C32.7451 45.9782 33.4496 45.9211 34.0921 45.6654C34.7347 45.4097 35.2857 44.9671 35.6739 44.3947C36.0621 43.8224 36.2697 43.1468 36.2697 42.4552C36.2928 41.5656 35.9624 40.703 35.3508 40.0564C34.7393 39.4098 33.8964 39.0318 33.0068 39.0054ZM33.0068 44.6743C32.5596 44.7137 32.1109 44.617 31.7195 44.397C31.3282 44.177 31.0124 43.8438 30.8137 43.4412C30.6149 43.0386 30.5425 42.5854 30.6058 42.1409C30.6691 41.6964 30.8652 41.2814 31.1685 40.9503C31.4717 40.6192 31.8679 40.3875 32.3051 40.2855C32.7424 40.1834 33.2002 40.2159 33.6187 40.3786C34.0371 40.5413 34.3967 40.8266 34.6502 41.1972C34.9036 41.5678 35.0393 42.0063 35.0392 42.4552C35.0626 43.0188 34.862 43.5687 34.4811 43.9848C34.1003 44.4008 33.5703 44.6492 33.0068 44.6757V44.6743Z" fill="#034833"/>
<path d="M19.9622 19.9453C18.4212 19.9453 16.9149 20.4023 15.6336 21.2584C14.3523 22.1145 13.3537 23.3313 12.764 24.755C12.1743 26.1787 12.02 27.7453 12.3206 29.2567C12.6212 30.768 13.3633 32.1563 14.4529 33.2459C15.5426 34.3356 16.9308 35.0776 18.4422 35.3783C19.9536 35.6789 21.5202 35.5246 22.9438 34.9349C24.3675 34.3452 25.5844 33.3465 26.4405 32.0653C27.2966 30.784 27.7536 29.2776 27.7536 27.7366C27.7512 25.671 26.9296 23.6906 25.469 22.2299C24.0083 20.7693 22.0279 19.9476 19.9622 19.9453ZM25.8892 30.5309H23.9131C24.0566 29.8123 24.1427 29.0834 24.1704 28.3512H26.4907C26.4191 29.1073 26.2155 29.845 25.8892 30.5309ZM14.0352 24.941H16.011C15.8678 25.6596 15.7818 26.3885 15.7537 27.1207H13.4334C13.5051 26.3646 13.7088 25.6268 14.0352 24.941ZM20.5775 23.7105V21.3445C21.2187 21.6792 21.8396 22.5135 22.2868 23.7112L20.5775 23.7105ZM22.6517 24.941C22.8119 25.6576 22.9078 26.3871 22.9382 27.1207H20.5775V24.941H22.6517ZM19.347 21.3438V23.7105H17.6377C18.0849 22.5152 18.7057 21.6792 19.347 21.3445V21.3438ZM19.347 24.941V27.1207H16.9863C17.0165 26.387 17.1124 25.6576 17.2728 24.941H19.347ZM13.4327 28.3512H15.753C15.7811 29.0834 15.8671 29.8122 16.0103 30.5309H14.0345C13.7081 29.845 13.5044 29.1073 13.4327 28.3512ZM16.9863 28.3512H19.347V30.5309H17.2728C17.1124 29.8143 17.0165 29.0848 16.9863 28.3512ZM19.347 31.7613V34.128C18.7057 33.7937 18.0849 32.9591 17.6373 31.7613H19.347ZM20.5775 34.128V31.7613H22.2868C21.8396 32.9595 21.2187 33.7937 20.5775 34.128ZM20.5775 30.5309V28.3512H22.9382C22.9078 29.0848 22.8119 29.8143 22.6517 30.5309H20.5775ZM24.1704 27.1207C24.1425 26.3885 24.0565 25.6596 23.9131 24.941H25.8892C26.2159 25.6268 26.4199 26.3645 26.4918 27.1207H24.1704ZM25.1316 23.7105H23.5949C23.3846 23.0357 23.0893 22.3903 22.716 21.79C23.662 22.2298 24.4899 22.8881 25.1316 23.7105ZM17.2067 21.7907C16.8341 22.3909 16.5393 23.036 16.3295 23.7105H14.7929C15.4342 22.8886 16.2615 22.2306 17.2067 21.7907ZM14.7925 31.7613H16.3295C16.5393 32.4361 16.834 33.0815 17.2067 33.6819C16.2613 33.2418 15.4339 32.5835 14.7925 31.7613ZM22.7174 33.6823C23.0907 33.0818 23.386 32.4363 23.5963 31.7613H25.1334C24.4915 32.5839 23.6634 33.2421 22.7174 33.6823Z" fill="#034833"/>
</g>
<defs>
<clipPath id="clip0_3755_127">
<rect width="45" height="45" fill="white" transform="translate(0 10)"/>
</clipPath>
</defs>
</svg>
