<svg width="45" height="45" viewBox="0 0 45 45" fill="none" xmlns="http://www.w3.org/2000/svg">
<path d="M22.5 7.78906C19.1213 7.79288 15.8821 9.13669 13.493 11.5257C11.1039 13.9147 9.75986 17.1538 9.75586 20.5325C9.75586 31.6746 21.7406 37.1125 22.2507 37.3372C22.3292 37.372 22.4141 37.3899 22.5 37.3899C22.5859 37.3899 22.6708 37.372 22.7493 37.3372C23.2594 37.1111 35.2441 31.6732 35.2441 20.5325C35.2401 17.1538 33.8961 13.9147 31.507 11.5257C29.1179 9.13669 25.8787 7.79288 22.5 7.78906ZM22.5 36.0955C20.7967 35.2605 10.9863 30.0324 10.9863 20.5325C10.9863 17.4789 12.1994 14.5503 14.3586 12.3911C16.5178 10.2319 19.4464 9.01883 22.5 9.01883C25.5536 9.01883 28.4822 10.2319 30.6414 12.3911C32.8006 14.5503 34.0137 17.4789 34.0137 20.5325C34.0137 30.0194 24.2016 35.2591 22.5 36.0955Z" fill="#034833"/>
<path d="M22.4998 11.0781C20.6298 11.0781 18.8018 11.6327 17.2469 12.6716C15.692 13.7106 14.4802 15.1873 13.7646 16.915C13.049 18.6427 12.8618 20.5438 13.2267 22.3779C13.5915 24.212 14.4921 25.8967 15.8145 27.2189C17.1368 28.5412 18.8216 29.4416 20.6557 29.8064C22.4898 30.1711 24.3909 29.9838 26.1186 29.2681C27.8462 28.5523 29.3228 27.3404 30.3617 25.7854C31.4005 24.2305 31.9549 22.4024 31.9548 20.5323C31.9517 18.0258 30.9546 15.6227 29.1821 13.8503C27.4096 12.078 25.0064 11.081 22.4998 11.0781ZM17.7098 27.212V26.4576C17.7104 25.5951 18.0531 24.7682 18.6628 24.1582C19.2725 23.5483 20.0993 23.2052 20.9618 23.2042H24.0379C24.9001 23.2052 25.7267 23.5481 26.3364 24.1577C26.946 24.7674 27.289 25.594 27.2899 26.4562V27.212C25.8947 28.2166 24.2191 28.7572 22.4998 28.7572C20.7806 28.7572 19.105 28.2166 17.7098 27.212ZM28.5045 26.1447C28.4249 25.0142 27.9201 23.9557 27.0918 23.1822C26.2635 22.4087 25.173 21.9774 24.0397 21.9752H20.9635C19.8302 21.9774 18.7397 22.4087 17.9114 23.1822C17.0831 23.9557 16.5784 25.0142 16.4987 26.1447C15.403 24.974 14.6734 23.5085 14.3996 21.9286C14.1259 20.3486 14.32 18.7231 14.958 17.252C15.5961 15.781 16.6502 14.5285 17.9908 13.6487C19.3314 12.7689 20.8999 12.3001 22.5034 12.3001C24.1069 12.3001 25.6754 12.7689 27.0159 13.6487C28.3565 14.5285 29.4107 15.781 30.0487 17.252C30.6867 18.7231 30.8808 20.3486 30.6071 21.9286C30.3334 23.5085 29.6038 24.974 28.5081 26.1447H28.5045Z" fill="#034833"/>
<path d="M0.379688 11.6754C0.492081 11.722 0.615779 11.7342 0.735123 11.7105C0.854467 11.6868 0.964091 11.6282 1.05012 11.5421L4.61883 7.97379L9.51645 12.8714C9.63187 12.9869 9.78843 13.0517 9.95168 13.0518C9.97329 13.0518 9.99489 13.0506 10.0164 13.0482C10.1076 13.0387 10.1955 13.0088 10.2736 12.9608C10.3517 12.9128 10.4181 12.8479 10.4678 12.7709C11.0838 11.8202 11.8093 10.9453 12.6295 10.164C12.689 10.1074 12.7365 10.0395 12.7692 9.96426C12.802 9.88902 12.8194 9.80798 12.8204 9.72591C12.8214 9.64385 12.8059 9.56242 12.775 9.48642C12.744 9.41041 12.6981 9.34137 12.6401 9.28336L7.97484 4.61777L11.5432 1.04906C11.6289 0.963096 11.6873 0.853675 11.7109 0.734592C11.7346 0.615509 11.7224 0.492094 11.676 0.379903C11.6296 0.267711 11.5511 0.171765 11.4502 0.104158C11.3494 0.0365511 11.2308 0.000308996 11.1094 0L0.615234 0C0.452247 -2.39492e-07 0.295919 0.0646741 0.18057 0.179825C0.0652219 0.294976 0.000279408 0.451192 0 0.61418L0 11.1073C-3.44277e-07 11.2289 0.0360738 11.3478 0.103659 11.4489C0.171244 11.5501 0.267304 11.6289 0.379688 11.6754ZM1.23047 1.23047H9.62297L6.66985 4.18359C6.61267 4.2407 6.56731 4.30852 6.53636 4.38317C6.50541 4.45782 6.48948 4.53784 6.48948 4.61865C6.48948 4.69946 6.50541 4.77948 6.53636 4.85414C6.56731 4.92879 6.61267 4.9966 6.66985 5.05371L11.3333 9.71684C10.8006 10.2668 10.3089 10.855 9.86203 11.4768L5.05371 6.66879C4.9966 6.61161 4.92879 6.56625 4.85414 6.5353C4.77948 6.50435 4.69947 6.48842 4.61865 6.48842C4.53784 6.48842 4.45782 6.50435 4.38317 6.5353C4.30852 6.56625 4.2407 6.61161 4.18359 6.66879L1.23047 9.62191V1.23047Z" fill="#034833"/>
<path d="M11.7454 30.8915C11.6925 30.8208 11.6251 30.7623 11.5477 30.72C11.4703 30.6776 11.3847 30.6525 11.2967 30.6461C11.2087 30.6398 11.1204 30.6524 11.0377 30.6833C10.9551 30.7141 10.88 30.7623 10.8176 30.8247L4.61883 37.0238L1.05012 33.455C0.964077 33.3691 0.85448 33.3105 0.735177 33.2868C0.615874 33.2631 0.492218 33.2753 0.379837 33.3218C0.267455 33.3684 0.171391 33.4472 0.103784 33.5483C0.0361774 33.6494 6.16089e-05 33.7683 9.041e-07 33.8899V44.383C-0.000137752 44.4639 0.0156734 44.544 0.0465298 44.6188C0.0773861 44.6935 0.122682 44.7615 0.179826 44.8187C0.236969 44.876 0.304839 44.9214 0.379551 44.9524C0.454264 44.9834 0.534353 44.9993 0.615235 44.9993H11.1094C11.2311 44.9994 11.3501 44.9634 11.4513 44.8958C11.5525 44.8282 11.6314 44.7321 11.678 44.6197C11.7246 44.5072 11.7367 44.3835 11.7129 44.2641C11.6891 44.1448 11.6304 44.0352 11.5443 43.9492L7.9759 40.3805L14.0087 34.347C14.0661 34.2896 14.1115 34.2214 14.1424 34.1464C14.1733 34.0714 14.1891 33.991 14.1888 33.9098C14.1885 33.8287 14.1721 33.7484 14.1407 33.6736C14.1092 33.5988 14.0633 33.531 14.0055 33.474C13.1886 32.671 12.433 31.8077 11.7454 30.8915ZM6.66984 39.9445C6.61268 40.0016 6.56732 40.0694 6.53638 40.144C6.50544 40.2187 6.48951 40.2986 6.48951 40.3794C6.48951 40.4602 6.50544 40.5402 6.53638 40.6148C6.56732 40.6894 6.61268 40.7572 6.66984 40.8143L9.62297 43.7674H1.23047V35.3756L4.18359 38.3288C4.2407 38.3859 4.30852 38.4313 4.38317 38.4622C4.45782 38.4932 4.53784 38.5091 4.61865 38.5091C4.69946 38.5091 4.77948 38.4932 4.85414 38.4622C4.92879 38.4313 4.9966 38.3859 5.05371 38.3288L11.1934 32.1891C11.6617 32.7758 12.1676 33.351 12.7051 33.9082L6.66984 39.9445Z" fill="#034833"/>
<path d="M44.6196 33.3217C44.5072 33.2751 44.3835 33.2629 44.2642 33.2866C44.1448 33.3103 44.0352 33.3689 43.9492 33.455L40.3805 37.0237L34.1814 30.8246C34.1188 30.7624 34.0437 30.7144 33.9611 30.6836C33.8784 30.6528 33.7902 30.64 33.7022 30.646C33.6142 30.6523 33.5286 30.6776 33.4512 30.7201C33.3739 30.7626 33.3066 30.8212 33.254 30.8921C32.5662 31.8077 31.8107 32.6704 30.9938 33.4729C30.936 33.5299 30.8901 33.5977 30.8586 33.6725C30.8272 33.7473 30.8108 33.8276 30.8106 33.9087C30.8103 33.9898 30.826 34.0702 30.8569 34.1452C30.8878 34.2203 30.9333 34.2884 30.9906 34.3458L37.0245 40.38L33.4561 43.948C33.3697 44.0339 33.3107 44.1435 33.2866 44.2629C33.2626 44.3824 33.2745 44.5063 33.321 44.6189C33.3675 44.7315 33.4464 44.8278 33.5477 44.8955C33.649 44.9632 33.7681 44.9993 33.8899 44.9992H44.3841C44.5472 44.9992 44.7037 44.9344 44.8191 44.819C44.9345 44.7036 44.9993 44.5472 44.9993 44.384V33.8898C44.9993 33.7682 44.9632 33.6493 44.8956 33.5482C44.828 33.4471 44.732 33.3683 44.6196 33.3217ZM43.7688 43.7687H35.3763L38.3295 40.8156C38.3866 40.7585 38.432 40.6908 38.4629 40.6161C38.4939 40.5415 38.5098 40.4615 38.5098 40.3807C38.5098 40.3 38.4939 40.22 38.4629 40.1453C38.432 40.0707 38.3866 40.0029 38.3295 39.9459L32.2935 33.9081C32.8317 33.3509 33.3376 32.7757 33.8052 32.189L39.9449 38.3283C40.002 38.3855 40.0698 38.4309 40.1445 38.4618C40.2191 38.4928 40.2991 38.5087 40.38 38.5087C40.4608 38.5087 40.5408 38.4928 40.6154 38.4618C40.6901 38.4309 40.7579 38.3855 40.815 38.3283L43.7681 35.3752L43.7688 43.7687Z" fill="#034833"/>
<path d="M44.3849 2.3923e-07H33.8907C33.769 -0.000107101 33.65 0.0359095 33.5488 0.103488C33.4476 0.171067 33.3687 0.267168 33.3221 0.379619C33.2755 0.49207 33.2634 0.615812 33.2872 0.735172C33.311 0.854533 33.3697 0.964142 33.4559 1.05012L37.0242 4.61883L32.36 9.28336C32.302 9.34137 32.2561 9.41041 32.2252 9.48641C32.1942 9.56242 32.1787 9.64385 32.1797 9.72591C32.1807 9.80798 32.1981 9.88901 32.2309 9.96425C32.2637 10.0395 32.3112 10.1074 32.3706 10.164C33.1907 10.9454 33.9162 11.8203 34.5323 12.7709C34.5821 12.8479 34.6484 12.9128 34.7265 12.9608C34.8047 13.0088 34.8926 13.0387 34.9837 13.0482C35.0052 13.0506 35.0268 13.0518 35.0484 13.0518C35.2117 13.0517 35.3682 12.9869 35.4837 12.8714L40.3813 7.97379L43.95 11.5421C44.036 11.6281 44.1456 11.6867 44.2649 11.7104C44.3842 11.7341 44.5079 11.7219 44.6203 11.6754C44.7327 11.6288 44.8287 11.55 44.8963 11.4489C44.9639 11.3478 45.0001 11.2289 45.0001 11.1073V0.61418C44.9998 0.451192 44.9349 0.294976 44.8195 0.179825C44.7042 0.0646743 44.5479 -2.6283e-10 44.3849 2.3923e-07ZM43.7696 9.62191L40.8165 6.66879C40.7594 6.61161 40.6916 6.56625 40.6169 6.5353C40.5423 6.50435 40.4623 6.48842 40.3815 6.48842C40.3007 6.48842 40.2206 6.50435 40.146 6.5353C40.0713 6.56625 40.0035 6.61161 39.9464 6.66879L35.1381 11.4768C34.6913 10.855 34.1995 10.2668 33.6668 9.71684L38.3303 5.05301C38.3874 4.9959 38.4328 4.92808 38.4638 4.85343C38.4947 4.77878 38.5106 4.69876 38.5106 4.61795C38.5106 4.53714 38.4947 4.45712 38.4638 4.38247C38.4328 4.30782 38.3874 4.24 38.3303 4.18289L35.3771 1.22977H43.7696V9.62191Z" fill="#034833"/>
<path d="M22.5 14.064C21.8095 14.0255 21.1234 14.1951 20.5303 14.5508C19.9373 14.9065 19.4646 15.4321 19.1735 16.0594C18.8825 16.6867 18.7863 17.3869 18.8975 18.0695C19.0088 18.752 19.3222 19.3855 19.7974 19.8879C20.2726 20.3904 20.8877 20.7386 21.563 20.8877C22.2383 21.0368 22.9428 20.9797 23.5853 20.724C24.2278 20.4683 24.7789 20.0257 25.1671 19.4533C25.5553 18.881 25.7628 18.2054 25.7629 17.5138C25.7859 16.6241 25.4555 15.7616 24.844 15.115C24.2324 14.4684 23.3896 14.0904 22.5 14.064ZM22.5 19.7329C22.0528 19.7723 21.6041 19.6756 21.2127 19.4556C20.8213 19.2356 20.5056 18.9024 20.3068 18.4998C20.1081 18.0972 20.0356 17.644 20.0989 17.1995C20.1622 16.755 20.3584 16.34 20.6616 16.0089C20.9649 15.6778 21.3611 15.4461 21.7983 15.3441C22.2355 15.242 22.6934 15.2745 23.1118 15.4372C23.5303 15.5999 23.8898 15.8852 24.1433 16.2558C24.3968 16.6263 24.5324 17.0649 24.5324 17.5138C24.5553 18.0771 24.3544 18.6265 23.9736 19.0421C23.5928 19.4577 23.0631 19.7058 22.5 19.7322V19.7329Z" fill="#034833"/>
</svg>
