<svg width="160" height="160" viewBox="0 0 160 160" fill="none" xmlns="http://www.w3.org/2000/svg">
<g filter="url(#filter0_d_3755_291)">
<path opacity="0.1" d="M80 104C96.5685 104 110 90.5685 110 74C110 57.4315 96.5685 44 80 44C63.4315 44 50 57.4315 50 74C50 90.5685 63.4315 104 80 104Z" fill="#034833"/>
</g>
<path d="M86.9688 74C86.9688 74.5625 86.5312 75 86 75H76.4062L79.6875 78.3125C80.0938 78.6875 80.0938 79.3438 79.6875 79.7188C79.5 79.9062 79.25 80 79 80C78.7188 80 78.4688 79.9062 78.2812 79.7188L73.2812 74.7188C72.875 74.3438 72.875 73.6875 73.2812 73.3125L78.2812 68.3125C78.6562 67.9062 79.3125 67.9062 79.6875 68.3125C80.0938 68.6875 80.0938 69.3438 79.6875 69.7188L76.4062 73H86C86.5312 73 86.9688 73.4688 86.9688 74Z" fill="#034833"/>
<defs>
<filter id="filter0_d_3755_291" x="0" y="0" width="160" height="160" filterUnits="userSpaceOnUse" color-interpolation-filters="sRGB">
<feFlood flood-opacity="0" result="BackgroundImageFix"/>
<feColorMatrix in="SourceAlpha" type="matrix" values="0 0 0 0 0 0 0 0 0 0 0 0 0 0 0 0 0 0 127 0" result="hardAlpha"/>
<feOffset dy="6"/>
<feGaussianBlur stdDeviation="25"/>
<feColorMatrix type="matrix" values="0 0 0 0 0.145098 0 0 0 0 0.145098 0 0 0 0 0.145098 0 0 0 0.051 0"/>
<feBlend mode="normal" in2="BackgroundImageFix" result="effect1_dropShadow_3755_291"/>
<feBlend mode="normal" in="SourceGraphic" in2="effect1_dropShadow_3755_291" result="shape"/>
</filter>
</defs>
</svg>
