<svg width="55" height="55" viewBox="0 0 55 55" fill="none" xmlns="http://www.w3.org/2000/svg">
<rect x="23" width="32" height="32" rx="16" fill="#F1F5EB"/>
<g clip-path="url(#clip0_3755_177)">
<path d="M22.5 17.7891C19.1213 17.7929 15.8821 19.1367 13.493 21.5257C11.1039 23.9147 9.75986 27.1538 9.75586 30.5325C9.75586 41.6746 21.7406 47.1125 22.2507 47.3372C22.3292 47.372 22.4141 47.3899 22.5 47.3899C22.5859 47.3899 22.6708 47.372 22.7493 47.3372C23.2594 47.1111 35.2441 41.6732 35.2441 30.5325C35.2401 27.1538 33.8961 23.9147 31.507 21.5257C29.1179 19.1367 25.8787 17.7929 22.5 17.7891ZM22.5 46.0955C20.7967 45.2605 10.9863 40.0324 10.9863 30.5325C10.9863 27.4789 12.1994 24.5503 14.3586 22.3911C16.5178 20.2319 19.4464 19.0188 22.5 19.0188C25.5536 19.0188 28.4822 20.2319 30.6414 22.3911C32.8006 24.5503 34.0137 27.4789 34.0137 30.5325C34.0137 40.0194 24.2016 45.2591 22.5 46.0955Z" fill="#034833"/>
<path d="M22.4998 21.0781C20.6298 21.0781 18.8018 21.6327 17.2469 22.6716C15.692 23.7106 14.4802 25.1873 13.7646 26.915C13.049 28.6427 12.8618 30.5438 13.2267 32.3779C13.5915 34.212 14.4921 35.8967 15.8145 37.2189C17.1368 38.5412 18.8216 39.4416 20.6557 39.8064C22.4898 40.1711 24.3909 39.9838 26.1186 39.2681C27.8462 38.5523 29.3228 37.3404 30.3617 35.7854C31.4005 34.2305 31.9549 32.4024 31.9548 30.5323C31.9517 28.0258 30.9546 25.6227 29.1821 23.8503C27.4096 22.078 25.0064 21.081 22.4998 21.0781ZM17.7098 37.212V36.4576C17.7104 35.5951 18.0531 34.7682 18.6628 34.1582C19.2725 33.5483 20.0993 33.2052 20.9618 33.2042H24.0379C24.9001 33.2052 25.7267 33.5481 26.3364 34.1577C26.946 34.7674 27.289 35.594 27.2899 36.4562V37.212C25.8947 38.2166 24.2191 38.7572 22.4998 38.7572C20.7806 38.7572 19.105 38.2166 17.7098 37.212ZM28.5045 36.1447C28.4249 35.0142 27.9201 33.9557 27.0918 33.1822C26.2635 32.4087 25.173 31.9774 24.0397 31.9752H20.9635C19.8302 31.9774 18.7397 32.4087 17.9114 33.1822C17.0831 33.9557 16.5784 35.0142 16.4987 36.1447C15.403 34.974 14.6734 33.5085 14.3996 31.9286C14.1259 30.3486 14.32 28.7231 14.958 27.252C15.5961 25.781 16.6502 24.5285 17.9908 23.6487C19.3314 22.7689 20.8999 22.3001 22.5034 22.3001C24.1069 22.3001 25.6754 22.7689 27.0159 23.6487C28.3565 24.5285 29.4107 25.781 30.0487 27.252C30.6867 28.7231 30.8808 30.3486 30.6071 31.9286C30.3334 33.5085 29.6038 34.974 28.5081 36.1447H28.5045Z" fill="#034833"/>
<path d="M0.379688 21.6754C0.492081 21.722 0.615779 21.7342 0.735123 21.7105C0.854467 21.6868 0.964091 21.6282 1.05012 21.5421L4.61883 17.9738L9.51645 22.8714C9.63187 22.9869 9.78843 23.0517 9.95168 23.0518C9.97329 23.0518 9.99489 23.0506 10.0164 23.0482C10.1076 23.0387 10.1955 23.0088 10.2736 22.9608C10.3517 22.9128 10.4181 22.8479 10.4678 22.7709C11.0838 21.8202 11.8093 20.9453 12.6295 20.164C12.689 20.1074 12.7365 20.0395 12.7692 19.9643C12.802 19.889 12.8194 19.808 12.8204 19.7259C12.8214 19.6439 12.8059 19.5624 12.775 19.4864C12.744 19.4104 12.6981 19.3414 12.6401 19.2834L7.97484 14.6178L11.5432 11.0491C11.6289 10.9631 11.6873 10.8537 11.7109 10.7346C11.7346 10.6155 11.7224 10.4921 11.676 10.3799C11.6296 10.2677 11.5511 10.1718 11.4502 10.1042C11.3494 10.0366 11.2308 10.0003 11.1094 10H0.615234C0.452247 10 0.295919 10.0647 0.18057 10.1798C0.0652219 10.295 0.000279408 10.4512 0 10.6142L0 21.1073C-3.44277e-07 21.2289 0.0360738 21.3478 0.103659 21.4489C0.171244 21.5501 0.267304 21.6289 0.379688 21.6754ZM1.23047 11.2305H9.62297L6.66985 14.1836C6.61267 14.2407 6.56731 14.3085 6.53636 14.3832C6.50541 14.4578 6.48948 14.5378 6.48948 14.6187C6.48948 14.6995 6.50541 14.7795 6.53636 14.8541C6.56731 14.9288 6.61267 14.9966 6.66985 15.0537L11.3333 19.7168C10.8006 20.2668 10.3089 20.855 9.86203 21.4768L5.05371 16.6688C4.9966 16.6116 4.92879 16.5663 4.85414 16.5353C4.77948 16.5044 4.69947 16.4884 4.61865 16.4884C4.53784 16.4884 4.45782 16.5044 4.38317 16.5353C4.30852 16.5663 4.2407 16.6116 4.18359 16.6688L1.23047 19.6219V11.2305Z" fill="#034833"/>
<path d="M11.7454 40.8915C11.6925 40.8208 11.6251 40.7623 11.5477 40.72C11.4703 40.6776 11.3847 40.6525 11.2967 40.6461C11.2087 40.6398 11.1204 40.6524 11.0377 40.6833C10.9551 40.7141 10.88 40.7623 10.8176 40.8247L4.61883 47.0238L1.05012 43.455C0.964077 43.3691 0.85448 43.3105 0.735177 43.2868C0.615874 43.2631 0.492218 43.2753 0.379837 43.3218C0.267455 43.3684 0.171391 43.4472 0.103784 43.5483C0.0361774 43.6494 6.16089e-05 43.7683 9.041e-07 43.8899V54.383C-0.000137752 54.4639 0.0156734 54.544 0.0465298 54.6188C0.0773861 54.6935 0.122682 54.7615 0.179826 54.8187C0.236969 54.876 0.304839 54.9214 0.379551 54.9524C0.454264 54.9834 0.534353 54.9993 0.615235 54.9993H11.1094C11.2311 54.9994 11.3501 54.9634 11.4513 54.8958C11.5525 54.8282 11.6314 54.7321 11.678 54.6197C11.7246 54.5072 11.7367 54.3835 11.7129 54.2641C11.6891 54.1448 11.6304 54.0352 11.5443 53.9492L7.9759 50.3805L14.0087 44.347C14.0661 44.2896 14.1115 44.2214 14.1424 44.1464C14.1733 44.0714 14.1891 43.991 14.1888 43.9098C14.1885 43.8287 14.1721 43.7484 14.1407 43.6736C14.1092 43.5988 14.0633 43.531 14.0055 43.474C13.1886 42.671 12.433 41.8077 11.7454 40.8915ZM6.66984 49.9445C6.61268 50.0016 6.56732 50.0694 6.53638 50.144C6.50544 50.2187 6.48951 50.2986 6.48951 50.3794C6.48951 50.4602 6.50544 50.5402 6.53638 50.6148C6.56732 50.6894 6.61268 50.7572 6.66984 50.8143L9.62297 53.7674H1.23047V45.3756L4.18359 48.3288C4.2407 48.3859 4.30852 48.4313 4.38317 48.4622C4.45782 48.4932 4.53784 48.5091 4.61865 48.5091C4.69946 48.5091 4.77948 48.4932 4.85414 48.4622C4.92879 48.4313 4.9966 48.3859 5.05371 48.3288L11.1934 42.1891C11.6617 42.7758 12.1676 43.351 12.7051 43.9082L6.66984 49.9445Z" fill="#034833"/>
<path d="M44.6206 43.3217C44.5082 43.2751 44.3845 43.2629 44.2652 43.2866C44.1458 43.3103 44.0362 43.3689 43.9502 43.455L40.3815 47.0237L34.1824 40.8246C34.1198 40.7624 34.0447 40.7144 33.962 40.6836C33.8794 40.6528 33.7912 40.64 33.7032 40.646C33.6152 40.6523 33.5296 40.6776 33.4522 40.7201C33.3748 40.7626 33.3076 40.8212 33.2549 40.8921C32.5672 41.8077 31.8117 42.6704 30.9947 43.4729C30.937 43.5299 30.891 43.5977 30.8596 43.6725C30.8282 43.7473 30.8118 43.8276 30.8115 43.9087C30.8112 43.9898 30.827 44.0702 30.8579 44.1452C30.8888 44.2203 30.9342 44.2884 30.9916 44.3458L37.0254 50.38L33.4571 53.948C33.3706 54.0339 33.3116 54.1435 33.2876 54.2629C33.2635 54.3824 33.2755 54.5063 33.322 54.6189C33.3685 54.7315 33.4474 54.8278 33.5487 54.8955C33.65 54.9632 33.7691 54.9993 33.8909 54.9992H44.3851C44.5482 54.9992 44.7047 54.9344 44.8201 54.819C44.9355 54.7036 45.0003 54.5472 45.0003 54.384V43.8898C45.0002 43.7682 44.9641 43.6493 44.8966 43.5482C44.829 43.4471 44.733 43.3683 44.6206 43.3217ZM43.7698 53.7687H35.3773L38.3304 50.8156C38.3876 50.7585 38.433 50.6908 38.4639 50.6161C38.4949 50.5415 38.5108 50.4615 38.5108 50.3807C38.5108 50.3 38.4949 50.22 38.4639 50.1453C38.433 50.0707 38.3876 50.0029 38.3304 49.9459L32.2945 43.9081C32.8327 43.3509 33.3386 42.7757 33.8062 42.189L39.9459 48.3283C40.003 48.3855 40.0708 48.4309 40.1455 48.4618C40.2201 48.4928 40.3001 48.5087 40.3809 48.5087C40.4617 48.5087 40.5418 48.4928 40.6164 48.4618C40.6911 48.4309 40.7589 48.3855 40.816 48.3283L43.7691 45.3752L43.7698 53.7687Z" fill="#034833"/>
<path d="M44.3849 10H33.8907C33.769 9.99989 33.65 10.0359 33.5488 10.1035C33.4476 10.1711 33.3687 10.2672 33.3221 10.3796C33.2755 10.4921 33.2634 10.6158 33.2872 10.7352C33.311 10.8545 33.3697 10.9641 33.4559 11.0501L37.0242 14.6188L32.36 19.2834C32.302 19.3414 32.2561 19.4104 32.2252 19.4864C32.1942 19.5624 32.1787 19.6438 32.1797 19.7259C32.1807 19.808 32.1981 19.889 32.2309 19.9643C32.2637 20.0395 32.3112 20.1074 32.3706 20.164C33.1907 20.9454 33.9162 21.8203 34.5323 22.7709C34.5821 22.8479 34.6484 22.9128 34.7265 22.9608C34.8047 23.0088 34.8926 23.0387 34.9837 23.0482C35.0052 23.0506 35.0268 23.0518 35.0484 23.0518C35.2117 23.0517 35.3682 22.9869 35.4837 22.8714L40.3813 17.9738L43.95 21.5421C44.036 21.6281 44.1456 21.6867 44.2649 21.7104C44.3842 21.7341 44.5079 21.7219 44.6203 21.6754C44.7327 21.6288 44.8287 21.55 44.8963 21.4489C44.9639 21.3478 45.0001 21.2289 45.0001 21.1073V10.6142C44.9998 10.4512 44.9349 10.295 44.8195 10.1798C44.7042 10.0647 44.5479 10 44.3849 10ZM43.7696 19.6219L40.8165 16.6688C40.7594 16.6116 40.6916 16.5662 40.6169 16.5353C40.5423 16.5044 40.4623 16.4884 40.3815 16.4884C40.3007 16.4884 40.2206 16.5044 40.146 16.5353C40.0713 16.5662 40.0035 16.6116 39.9464 16.6688L35.1381 21.4768C34.6913 20.855 34.1995 20.2668 33.6668 19.7168L38.3303 15.053C38.3874 14.9959 38.4328 14.9281 38.4638 14.8534C38.4947 14.7788 38.5106 14.6988 38.5106 14.6179C38.5106 14.5371 38.4947 14.4571 38.4638 14.3825C38.4328 14.3078 38.3874 14.24 38.3303 14.1829L35.3771 11.2298H43.7696V19.6219Z" fill="#034833"/>
<path d="M22.5 24.064C21.8095 24.0255 21.1234 24.1951 20.5303 24.5508C19.9373 24.9065 19.4646 25.4321 19.1735 26.0594C18.8825 26.6867 18.7863 27.3869 18.8975 28.0695C19.0088 28.752 19.3222 29.3855 19.7974 29.8879C20.2726 30.3904 20.8877 30.7386 21.563 30.8877C22.2383 31.0368 22.9428 30.9797 23.5853 30.724C24.2278 30.4683 24.7789 30.0257 25.1671 29.4533C25.5553 28.881 25.7628 28.2054 25.7629 27.5138C25.7859 26.6241 25.4555 25.7616 24.844 25.115C24.2324 24.4684 23.3896 24.0904 22.5 24.064ZM22.5 29.7329C22.0528 29.7723 21.6041 29.6756 21.2127 29.4556C20.8213 29.2356 20.5056 28.9024 20.3068 28.4998C20.1081 28.0972 20.0356 27.644 20.0989 27.1995C20.1622 26.755 20.3584 26.34 20.6616 26.0089C20.9649 25.6778 21.3611 25.4461 21.7983 25.3441C22.2355 25.242 22.6934 25.2745 23.1118 25.4372C23.5303 25.5999 23.8898 25.8852 24.1433 26.2558C24.3968 26.6263 24.5324 27.0649 24.5324 27.5138C24.5553 28.0771 24.3544 28.6265 23.9736 29.0421C23.5928 29.4577 23.0631 29.7058 22.5 29.7322V29.7329Z" fill="#034833"/>
</g>
<defs>
<clipPath id="clip0_3755_177">
<rect width="45" height="45" fill="white" transform="translate(0 10)"/>
</clipPath>
</defs>
</svg>
