<svg width="41" height="41" viewBox="0 0 41 41" fill="none" xmlns="http://www.w3.org/2000/svg">
<path d="M36.1903 24.5611C37.5386 20.5877 37.5029 16.2751 36.0891 12.3246C34.6752 8.37409 31.9663 5.01815 28.4031 2.8026C24.8398 0.587056 20.6318 -0.357748 16.4634 0.121858C12.295 0.601463 8.41151 2.47726 5.44452 5.44416C2.47754 8.41106 0.601636 12.2945 0.121916 16.4629C-0.357804 20.6313 0.586884 24.8393 2.80233 28.4027C5.01778 31.966 8.37364 34.6749 12.3241 36.0889C16.2746 37.5029 20.5872 37.5387 24.5606 36.1905C25.1736 37.422 26.0707 38.4901 27.1779 39.3066C28.285 40.123 29.5705 40.6644 30.9282 40.886C32.2859 41.1077 33.6769 41.0031 34.9862 40.5811C36.2955 40.1591 37.4857 39.4317 38.4585 38.459C39.4312 37.4863 40.1587 36.2961 40.5807 34.9868C41.0027 33.6775 41.1073 32.2866 40.8857 30.9289C40.6641 29.5712 40.1228 28.2856 39.3064 27.1784C38.4899 26.0712 37.4219 25.1741 36.1903 24.5611ZM35.1551 24.1256C33.0239 23.3866 30.6882 23.5098 28.6466 24.4689L29.468 23.0353C29.5165 22.9504 29.542 22.8544 29.5419 22.7567V20.1069L31.2833 18.3156C31.3851 18.211 31.442 18.0708 31.4418 17.9249V15.6453C31.4418 15.5229 31.4017 15.4039 31.3277 15.3065C31.2537 15.209 31.1498 15.1385 31.0319 15.1057L27.9578 14.2488L26.821 12.0245C26.7808 11.9459 26.7225 11.8778 26.6509 11.8259C26.5794 11.7741 26.4965 11.7399 26.4092 11.7261L22.0511 11.0405V10.6127L27.9341 9.31069L30.1324 11.5074C30.2376 11.6125 30.3802 11.6715 30.5289 11.6717H34.6212C36.3274 15.615 36.5175 20.0494 35.1551 24.1243V24.1256ZM34.0852 10.5522H30.7607L28.5105 8.30104C28.4439 8.2345 28.3616 8.18578 28.2713 8.15937C28.1809 8.13295 28.0853 8.1297 27.9934 8.1499L21.3696 9.61554C21.2451 9.64314 21.1337 9.71237 21.0539 9.81181C20.974 9.91124 20.9304 10.0349 20.9303 10.1625V11.5196C20.9304 11.653 20.9781 11.7821 21.0648 11.8836C21.1516 11.985 21.2717 12.0521 21.4036 12.0729L25.9529 12.7883L27.0715 14.9773C27.1067 15.0462 27.1558 15.1072 27.2158 15.1562C27.2758 15.2052 27.3452 15.2412 27.4199 15.262L30.321 16.0705V17.6972L28.5797 19.4885C28.478 19.5932 28.4212 19.7333 28.4212 19.8792V22.6071L26.571 25.8378C25.8222 26.502 25.1931 27.2899 24.7111 28.1671H23.4623V26.3934C23.4622 26.3157 23.4461 26.2389 23.4148 26.1678C23.3836 26.0967 23.3379 26.0328 23.2807 25.9803L20.8573 23.7583V21.1818C20.8573 21.0668 20.8219 20.9546 20.7559 20.8604C20.6899 20.7662 20.5965 20.6947 20.4884 20.6554L15.4827 18.8353V14.6724L18.7535 11.1407C18.8064 11.0835 18.8469 11.0159 18.8723 10.9422C18.8976 10.8684 18.9073 10.7902 18.9007 10.7125C18.8941 10.6348 18.8714 10.5593 18.8339 10.4909C18.7965 10.4225 18.7452 10.3627 18.6833 10.3152L15.6918 8.02053L18.1434 4.56217H23.1462C23.2948 4.56209 23.4373 4.503 23.5423 4.39789L25.4182 2.52237C29.1476 4.11806 32.2099 6.95521 34.0852 10.5522ZM7.32069 5.27369L8.72773 8.17199L7.59479 8.73878C7.53911 8.76659 7.48846 8.80349 7.44493 8.84797L4.78519 11.5618C4.71169 11.6368 4.66071 11.7309 4.63807 11.8334C4.61542 11.936 4.62202 12.0428 4.65711 12.1417L5.03849 13.2138C4.60129 13.4832 4.20535 13.8145 3.86296 14.1972L1.60318 14.5776C2.46647 10.9453 4.47012 7.68481 7.32069 5.27369ZM1.13598 18.7568H2.9718L7.60376 20.4991L9.97338 24.5108V26.1164L9.27914 27.1706C9.20308 27.2858 9.17228 27.4251 9.19267 27.5617C9.21306 27.6983 9.2832 27.8226 9.38962 27.9106L9.56574 28.056L7.88491 29.0608C7.8018 29.1105 7.73297 29.1808 7.68516 29.265C7.63734 29.3492 7.61216 29.4443 7.61208 29.5411V32.1551C5.61081 30.5381 3.99226 28.4982 2.87258 26.1817C1.7529 23.8652 1.15985 21.3296 1.13598 18.7568ZM18.5933 36.0554C15.0711 36.0585 11.6313 34.9902 8.73061 32.9921C8.73061 32.9851 8.73253 32.9784 8.73253 32.9713V29.8598L10.821 28.6109C10.8981 28.565 10.963 28.5011 11.0103 28.4249C11.0576 28.3486 11.0858 28.262 11.0926 28.1725C11.0995 28.0831 11.0847 27.9932 11.0496 27.9106C11.0145 27.828 10.96 27.7551 10.8908 27.698L10.4912 27.3672L11.0013 26.5929C11.0618 26.5014 11.094 26.3942 11.0938 26.2845V24.3574C11.0939 24.2573 11.0671 24.1589 11.016 24.0728L8.46835 19.7594C8.40336 19.6494 8.30268 19.5648 8.18303 19.5199L3.27088 17.6719C3.20781 17.6482 3.141 17.6361 3.07362 17.6361H1.15904C1.19424 17.0054 1.2634 16.377 1.36622 15.7538L4.24819 15.269C4.38128 15.2466 4.5018 15.1769 4.58762 15.0727C4.96776 14.6125 5.44079 14.2378 5.97577 13.9731C6.09821 13.9119 6.19405 13.8081 6.24519 13.6811C6.29634 13.5542 6.29925 13.4129 6.2534 13.284L5.83071 12.0953L8.17983 9.69847L9.72425 8.92611C9.85616 8.8601 9.95676 8.74478 10.0042 8.60512C10.0517 8.46546 10.0422 8.31272 9.97786 8.18L8.21922 4.55864C10.4922 2.87286 13.1419 1.76656 15.9388 1.33553C18.7356 0.904494 21.5954 1.16173 24.2705 2.08495L22.9141 3.4414H17.8536C17.7641 3.44144 17.6759 3.46291 17.5963 3.50402C17.5167 3.54514 17.4482 3.6047 17.3964 3.67772L14.4654 7.81271C14.3816 7.93097 14.347 8.0771 14.3686 8.2204C14.3903 8.36369 14.4667 8.49302 14.5816 8.58123L17.5132 10.8298L14.5115 14.0691C14.4154 14.1728 14.362 14.3089 14.362 14.4502V19.2279C14.362 19.3429 14.3974 19.4551 14.4634 19.5493C14.5294 19.6435 14.6228 19.715 14.7309 19.7543L19.7365 21.5744V24.0049C19.7365 24.0826 19.7527 24.1594 19.7839 24.2305C19.8152 24.3016 19.8609 24.3654 19.9181 24.418L22.3418 26.6396V28.7275C22.3418 28.8761 22.4009 29.0186 22.506 29.1237C22.611 29.2288 22.7536 29.2879 22.9022 29.2879H24.1981C23.4909 31.1756 23.4652 33.2511 24.1254 35.1559C22.342 35.7523 20.4738 36.0561 18.5933 36.0554ZM32.3237 39.8788C30.8294 39.8788 29.3687 39.4358 28.1263 38.6057C26.8838 37.7755 25.9154 36.5956 25.3436 35.2151C24.7717 33.8346 24.6221 32.3156 24.9136 30.85C25.2051 29.3845 25.9246 28.0383 26.9812 26.9817C28.0378 25.9251 29.384 25.2056 30.8495 24.9141C32.3151 24.6226 33.8342 24.7722 35.2147 25.3441C36.5951 25.9159 37.7751 26.8843 38.6052 28.1268C39.4353 29.3692 39.8783 30.8299 39.8783 32.3242C39.876 34.3271 39.0793 36.2473 37.6631 37.6635C36.2468 39.0798 34.3266 39.8765 32.3237 39.8788Z" fill="white"/>
<path d="M38.323 29.1586L37.6105 28.4458C37.2629 28.0983 36.7916 27.9031 36.3001 27.9031C35.8087 27.9031 35.3373 28.0983 34.9898 28.4458L33.495 29.9403L30.9461 29.3501C30.6041 29.2698 30.2472 29.2785 29.9094 29.3752C29.5717 29.472 29.2644 29.6536 29.0168 29.9028L28.4279 30.492C28.3633 30.5565 28.3154 30.6358 28.2885 30.7229C28.2615 30.8101 28.2562 30.9026 28.2732 30.9923C28.2901 31.0819 28.3287 31.1661 28.3855 31.2375C28.4424 31.3089 28.5159 31.3652 28.5995 31.4017L30.99 32.4457L30.0485 33.3868L27.8099 33.5943C27.6798 33.6058 27.558 33.6625 27.4653 33.7544L26.3228 34.8966C26.2538 34.9657 26.204 35.0516 26.1785 35.1458C26.1529 35.24 26.1523 35.3393 26.1769 35.4338C26.2014 35.5283 26.2502 35.6147 26.3184 35.6845C26.3867 35.7544 26.4719 35.8052 26.5658 35.832L29.362 36.6274C29.9008 36.7807 30.4709 36.7873 31.0131 36.6465C31.5554 36.5058 32.0503 36.2228 32.4466 35.8269L38.323 29.9505C38.375 29.8985 38.4163 29.8368 38.4445 29.7688C38.4727 29.7008 38.4872 29.628 38.4872 29.5544C38.4872 29.4808 38.4727 29.408 38.4445 29.34C38.4163 29.272 38.375 29.2106 38.323 29.1586ZM31.6541 35.0346C31.3991 35.2896 31.0806 35.4719 30.7316 35.5625C30.3825 35.6532 30.0156 35.6491 29.6687 35.5505L27.7903 35.0164L28.115 34.6917L30.3537 34.4839C30.4837 34.4724 30.6056 34.4158 30.6982 34.3237L32.3634 32.6586C32.4279 32.5941 32.4757 32.5148 32.5026 32.4277C32.5295 32.3405 32.5347 32.2481 32.5177 32.1584C32.5008 32.0688 32.4622 31.9847 32.4053 31.9134C32.3485 31.842 32.275 31.7857 32.1914 31.7492L29.8013 30.705L29.8096 30.6966C29.9229 30.5824 30.0637 30.4991 30.2184 30.4548C30.373 30.4105 30.5365 30.4067 30.6931 30.4437L33.5453 31.1039C33.6379 31.1254 33.7345 31.1229 33.8259 31.0967C33.9172 31.0705 34.0004 31.0214 34.0676 30.9541L35.7823 29.24C35.9217 29.1065 36.1072 29.032 36.3001 29.032C36.4931 29.032 36.6786 29.1065 36.8179 29.24L37.1343 29.5563L31.6541 35.0346Z" fill="white"/>
</svg>
