<svg width="55" height="55" viewBox="0 0 55 55" fill="none" xmlns="http://www.w3.org/2000/svg">
<rect x="23" width="32" height="32" rx="16" fill="#F1F5EB"/>
<path d="M37.793 50.2539H24.873V42.0801H31.9468C32.0477 42.0801 32.147 42.0553 32.236 42.0079C32.325 41.9605 32.401 41.892 32.4573 41.8083L35.9757 36.5781C36.044 36.4766 36.0804 36.357 36.0804 36.2346C36.0804 36.1123 36.044 35.9927 35.9757 35.8912L32.4573 30.6624C32.401 30.5787 32.325 30.5102 32.236 30.4628C32.147 30.4154 32.0477 30.3906 31.9468 30.3906H24.873V27.4023H31.9468C32.11 27.4023 32.2665 27.3375 32.3819 27.2221C32.4973 27.1068 32.5621 26.9503 32.5621 26.7871V16.3281C32.5621 16.165 32.4973 16.0085 32.3819 15.8931C32.2665 15.7777 32.11 15.7129 31.9468 15.7129H24.873V12.0204C24.8721 11.4847 24.6588 10.9712 24.2799 10.5924C23.9009 10.2137 23.3873 10.0007 22.8516 10H22.1484C21.6125 10.0007 21.0987 10.2138 20.7198 10.5928C20.3408 10.9718 20.1276 11.4856 20.127 12.0215V15.7129H13.0532C12.9523 15.7129 12.853 15.7377 12.764 15.7851C12.675 15.8324 12.599 15.901 12.5427 15.9846L9.02426 21.2148C8.95603 21.3164 8.9196 21.436 8.9196 21.5583C8.9196 21.6807 8.95603 21.8002 9.02426 21.9018L12.5427 27.1306C12.599 27.2143 12.675 27.2828 12.764 27.3302C12.853 27.3776 12.9523 27.4023 13.0532 27.4023H20.127V30.3906H13.0532C12.89 30.3907 12.7336 30.4556 12.6182 30.5709C12.5029 30.6863 12.438 30.8427 12.4379 31.0059V41.4648C12.438 41.628 12.5029 41.7844 12.6182 41.8998C12.7336 42.0151 12.89 42.08 13.0532 42.0801H20.127V50.2539H7.20703C7.04386 50.2539 6.88737 50.3187 6.772 50.4341C6.65662 50.5495 6.5918 50.706 6.5918 50.8691V54.3848C6.59189 54.5479 6.65674 54.7043 6.7721 54.8197C6.88746 54.9351 7.04389 54.9999 7.20703 55H37.793C37.9561 55 38.1126 54.9352 38.228 54.8198C38.3434 54.7044 38.4082 54.5479 38.4082 54.3848V50.8691C38.4082 50.7883 38.3924 50.7083 38.3615 50.6336C38.3306 50.559 38.2852 50.4911 38.2281 50.434C38.171 50.3769 38.1031 50.3315 38.0285 50.3006C37.9538 50.2697 37.8738 50.2539 37.793 50.2539ZM21.3574 12.0204C21.3579 11.8109 21.4414 11.6101 21.5897 11.462C21.738 11.3139 21.9389 11.2307 22.1484 11.2305H22.8516C23.0613 11.2307 23.2623 11.3142 23.4106 11.4625C23.5589 11.6107 23.6423 11.8118 23.6426 12.0215V15.7129H21.3574V12.0204ZM10.2762 21.5576L13.3805 16.9434H31.3316V26.1719H13.3805L10.2762 21.5576ZM21.3574 27.4023H23.6426V30.3906H21.3574V27.4023ZM13.6684 31.6211H31.6192L34.7235 36.2354L31.6192 40.8496H13.6684V31.6211ZM21.3574 42.0801H23.6426V50.2539H21.3574V42.0801ZM37.1777 53.7685H7.82227V51.4844H37.1777V53.7685Z" fill="#034833"/>
<path d="M14.5508 19.7539H29.1343C29.2975 19.7539 29.454 19.6891 29.5693 19.5737C29.6847 19.4583 29.7495 19.3018 29.7495 19.1387C29.7495 18.9755 29.6847 18.819 29.5693 18.7036C29.454 18.5883 29.2975 18.5234 29.1343 18.5234H14.5508C14.3876 18.5234 14.2311 18.5883 14.1157 18.7036C14.0004 18.819 13.9355 18.9755 13.9355 19.1387C13.9355 19.3018 14.0004 19.4583 14.1157 19.5737C14.2311 19.6891 14.3876 19.7539 14.5508 19.7539Z" fill="#034833"/>
<path d="M14.5508 22.1719H29.1343C29.2975 22.1719 29.454 22.1071 29.5693 21.9917C29.6847 21.8763 29.7495 21.7198 29.7495 21.5566C29.7495 21.3935 29.6847 21.237 29.5693 21.1216C29.454 21.0062 29.2975 20.9414 29.1343 20.9414H14.5508C14.3876 20.9414 14.2311 21.0062 14.1157 21.1216C14.0004 21.237 13.9355 21.3935 13.9355 21.5566C13.9355 21.7198 14.0004 21.8763 14.1157 21.9917C14.2311 22.1071 14.3876 22.1719 14.5508 22.1719Z" fill="#034833"/>
<path d="M22.4578 23.9746C22.4577 23.8115 22.3928 23.655 22.2775 23.5397C22.1621 23.4243 22.0057 23.3595 21.8425 23.3594H14.5508C14.3876 23.3594 14.2311 23.4242 14.1157 23.5396C14.0004 23.655 13.9355 23.8114 13.9355 23.9746C13.9355 24.1378 14.0004 24.2943 14.1157 24.4096C14.2311 24.525 14.3876 24.5898 14.5508 24.5898H21.8425C22.0057 24.5898 22.1621 24.5249 22.2775 24.4095C22.3928 24.2942 22.4577 24.1378 22.4578 23.9746Z" fill="#034833"/>
<path d="M15.6064 34.4102H30.19C30.3531 34.4102 30.5096 34.3453 30.625 34.23C30.7404 34.1146 30.8052 33.9581 30.8052 33.7949C30.8052 33.6318 30.7404 33.4753 30.625 33.3599C30.5096 33.2445 30.3531 33.1797 30.19 33.1797H15.6064C15.4433 33.1797 15.2868 33.2445 15.1714 33.3599C15.056 33.4753 14.9912 33.6318 14.9912 33.7949C14.9912 33.9581 15.056 34.1146 15.1714 34.23C15.2868 34.3453 15.4433 34.4102 15.6064 34.4102Z" fill="#034833"/>
<path d="M15.6064 36.8281H30.19C30.3531 36.8281 30.5096 36.7633 30.625 36.6479C30.7404 36.5326 30.8052 36.3761 30.8052 36.2129C30.8052 36.0497 30.7404 35.8932 30.625 35.7779C30.5096 35.6625 30.3531 35.5977 30.19 35.5977H15.6064C15.4433 35.5977 15.2868 35.6625 15.1714 35.7779C15.056 35.8932 14.9912 36.0497 14.9912 36.2129C14.9912 36.3761 15.056 36.5326 15.1714 36.6479C15.2868 36.7633 15.4433 36.8281 15.6064 36.8281Z" fill="#034833"/>
<path d="M23.5134 38.6309C23.5134 38.4677 23.4486 38.3112 23.3332 38.1958C23.2179 38.0804 23.0614 38.0156 22.8982 38.0156H15.6064C15.4433 38.0156 15.2868 38.0804 15.1714 38.1958C15.056 38.3112 14.9912 38.4677 14.9912 38.6309C14.9912 38.794 15.056 38.9505 15.1714 39.0659C15.2868 39.1813 15.4433 39.2461 15.6064 39.2461H22.8982C23.0614 39.2461 23.2179 39.1813 23.3332 39.0659C23.4486 38.9505 23.5134 38.794 23.5134 38.6309Z" fill="#034833"/>
</svg>
