<svg width="108" height="48" viewBox="0 0 108 48" fill="none" xmlns="http://www.w3.org/2000/svg">
<path d="M11.4932 29.3759C11.4932 30.0887 11.3425 30.751 11.041 31.3635C10.7395 31.9673 10.3123 32.487 9.77609 32.9066C9.23164 33.3342 8.58675 33.6612 7.84098 33.8959C7.09555 34.1307 6.27475 34.2481 5.38675 34.2481C4.32275 34.2481 3.36809 34.1055 2.53075 33.8121C1.69315 33.5269 0.847199 33.0405 0.000976562 32.3694L1.40009 30.0965C2.07013 30.6584 2.67298 31.069 3.21787 31.3294C3.75395 31.5894 4.30675 31.7152 4.87653 31.7152C5.57173 31.7152 6.12453 31.539 6.55209 31.1785C6.97929 30.8179 7.18027 30.3399 7.18027 29.7278C7.18027 29.4679 7.13838 29.2247 7.06302 28.9983C6.98763 28.7718 6.84524 28.5371 6.64426 28.2939C6.4432 28.0591 6.15849 27.7908 5.79831 27.514C5.44649 27.2372 4.98587 26.8851 4.41609 26.474C3.98889 26.1722 3.56178 25.8535 3.1512 25.5345C2.7408 25.2075 2.37227 24.8636 2.02853 24.4945C1.69351 24.1255 1.42551 23.7147 1.21609 23.2536C1.01502 22.8008 0.906221 22.2723 0.906221 21.6936C0.906221 21.0228 1.04862 20.402 1.32498 19.8483C1.60133 19.2945 1.98667 18.8252 2.47253 18.4314C2.95831 18.0372 3.53653 17.7354 4.22275 17.5176C4.90115 17.2996 5.63787 17.1906 6.44231 17.1906C7.28827 17.1906 8.10098 17.2996 8.88764 17.526C9.67493 17.7524 10.4041 18.0795 11.0823 18.5154L9.81742 20.5616C8.95475 19.9578 8.04142 19.6478 7.08675 19.6478C6.5088 19.6478 6.02275 19.7988 5.64586 20.1006C5.26898 20.4025 5.07626 20.7799 5.07626 21.2411C5.07626 21.6772 5.24382 22.0713 5.57884 22.4153C5.91387 22.7675 6.49173 23.2455 7.31307 23.8828C8.14231 24.4867 8.82951 25.0233 9.36551 25.4757C9.90995 25.9285 10.3371 26.3646 10.6553 26.7673C10.9736 27.1699 11.183 27.5724 11.3086 27.9913C11.4342 28.4189 11.4929 28.8717 11.4929 29.3753L11.4932 29.3759ZM25.8577 25.5439C25.8577 26.1728 25.7907 26.8524 25.6567 27.5812C25.531 28.3108 25.3049 28.9821 24.9867 29.6026C24.6684 30.2231 24.258 30.735 23.7467 31.1288C23.2357 31.5313 22.5822 31.7325 21.8036 31.7325C20.4969 31.7325 19.4667 31.2126 18.7129 30.1645C17.959 29.1245 17.5822 27.6908 17.5822 25.8712C17.5822 24.001 17.9591 22.5254 18.7298 21.4268C19.492 20.3281 20.5307 19.7832 21.8373 19.7832C23.0773 19.7832 24.0569 20.3031 24.7769 21.3263C25.4972 22.3574 25.8578 23.7663 25.8578 25.5441L25.8577 25.5439ZM30.3972 25.3845C30.3972 24.1685 30.2213 23.0619 29.878 22.0725C29.5261 21.0743 29.0404 20.2192 28.3953 19.4983C27.7504 18.7772 26.9962 18.2236 26.1171 17.821C25.238 17.4183 24.2664 17.2172 23.2024 17.2172C22.03 17.2172 20.9997 17.4436 20.1117 17.8797C19.2239 18.3242 18.3944 19.0202 17.6406 19.9757L17.6156 17.6024H13.436V41.9935H17.6076V31.6913C18.018 32.1692 18.4116 32.5717 18.7969 32.8984C19.1738 33.2254 19.5591 33.4938 19.9524 33.695C20.346 33.8963 20.7564 34.0472 21.1916 34.1311C21.6271 34.2149 22.0964 34.2569 22.5907 34.2569C23.6964 34.2569 24.7347 34.0304 25.6893 33.5944C26.644 33.15 27.4733 32.5295 28.1684 31.7242C28.8636 30.9188 29.4084 29.9802 29.8022 28.9153C30.2043 27.8415 30.3969 26.6593 30.3969 25.3846L30.3972 25.3845ZM32.2568 33.8628H36.5448V9.99609H32.2568V33.8628ZM54.8346 33.8711V17.5867H50.5466V26.3493C50.5466 27.1292 50.5131 27.7333 50.446 28.1609C50.379 28.5885 50.2701 28.9659 50.1194 29.3182C49.5163 30.6596 48.402 31.3396 46.786 31.3396C45.5211 31.3396 44.642 30.8868 44.1389 29.9724C43.938 29.6286 43.8039 29.2345 43.7285 28.7982C43.6531 28.3622 43.6113 27.7333 43.6113 26.9031V17.5876H39.3233V26.8409C39.3233 27.4698 39.3316 28.0062 39.3401 28.4338C39.3484 28.8614 39.382 29.2556 39.4238 29.5911C39.4657 29.9266 39.5159 30.2284 39.5746 30.4889C39.6248 30.7488 39.7086 31.0004 39.8175 31.2352C40.2111 32.2334 40.8397 32.9881 41.7188 33.4992C42.5983 34.0107 43.6788 34.2623 44.9517 34.2623C46.0993 34.2623 47.1126 34.061 47.9837 33.6585C48.8548 33.256 49.7011 32.6016 50.5215 31.6878L50.5299 33.8683L54.8348 33.8766L54.8346 33.8711ZM73.3146 33.8628V24.6272C73.3146 23.9982 73.3062 23.4619 73.2978 23.0174C73.2894 22.573 73.2644 22.1873 73.214 21.8601C73.1722 21.533 73.1136 21.2479 73.0549 21.0047C72.9879 20.7532 72.9125 20.51 72.8288 20.2751C72.4351 19.3027 71.8066 18.548 70.9275 18.0191C70.0484 17.4902 68.9675 17.2225 67.6857 17.2225C66.5381 17.2225 65.5248 17.4237 64.6537 17.8262C63.7826 18.2287 62.9364 18.8911 62.1159 19.7969L62.1076 17.6164H57.7938V33.8653H62.1156V25.0938C62.1156 24.339 62.1407 23.7436 62.1993 23.324C62.2495 22.9047 62.3585 22.5106 62.5092 22.1329C62.7856 21.4788 63.2212 20.9924 63.799 20.6573C64.3769 20.3222 65.0639 20.1542 65.8675 20.1542C67.1323 20.1542 68.0115 20.607 68.5146 21.5213C68.7073 21.8652 68.8412 22.2593 68.9166 22.6867C68.992 23.1144 69.0339 23.7516 69.0339 24.5738V33.8449L73.3139 33.8533L73.3146 33.8628ZM91.0568 32.789L84.5243 24.6628L90.0435 18.7428L86.7937 17.3428L81.0479 24.0094H80.5956V10.0005H76.2739V33.8672H80.5956V25.2219L87.0614 34.1908L91.0561 32.7899L91.0568 32.789ZM107.759 26.9525V24.2939L94.7635 17.7694V20.6956L104.835 25.6014L94.7635 30.5739V33.4334L107.759 26.9516V26.9525ZM96.0257 13.5481C95.2301 13.5481 94.5848 14.2021 94.5848 15.0076C94.5848 15.8294 95.2301 16.4752 96.0257 16.4752C96.8301 16.4752 97.4666 15.8295 97.4666 15.0076C97.4666 14.1942 96.8301 13.5481 96.0257 13.5481ZM96.0346 13.7745C96.679 13.7745 97.1981 14.3279 97.1981 15.0154C97.1981 15.703 96.679 16.2563 96.0346 16.2483C95.3812 16.2483 94.8612 15.7032 94.8612 15.0074C94.8612 14.3281 95.3812 13.7745 96.0346 13.7745ZM95.7581 15.1585H95.9332C96.143 15.1585 96.2435 15.234 96.2852 15.4436C96.319 15.6617 96.3608 15.8043 96.3946 15.8546H96.671C96.6452 15.8043 96.6035 15.7036 96.5706 15.4521C96.5368 15.2089 96.4444 15.0831 96.2941 15.058V15.0412C96.4701 14.9909 96.6124 14.8567 96.6124 14.647C96.6124 14.4961 96.5617 14.3787 96.4612 14.3116C96.3608 14.2361 96.2017 14.1858 95.959 14.1858C95.7661 14.1858 95.6319 14.2026 95.4986 14.2277V15.8544H95.7581V15.1584V15.1585ZM95.7581 14.4037C95.7999 14.3954 95.8586 14.387 95.9421 14.387C96.2355 14.387 96.3359 14.5296 96.3359 14.6721C96.3359 14.8734 96.151 14.9488 95.9421 14.9488H95.7581V14.4038V14.4037Z" fill="#034833"/>
</svg>
