<svg width="108" height="48" viewBox="0 0 108 48" fill="none" xmlns="http://www.w3.org/2000/svg">
<path d="M11.4923 29.3759C11.4923 30.0887 11.3415 30.751 11.04 31.3635C10.7385 31.9673 10.3113 32.487 9.77511 32.9066C9.23067 33.3342 8.58578 33.6612 7.84 33.8959C7.09458 34.1307 6.27378 34.2481 5.38578 34.2481C4.32178 34.2481 3.36711 34.1055 2.52978 33.8121C1.69218 33.5269 0.846222 33.0405 0 32.3694L1.39911 30.0965C2.06916 30.6584 2.672 31.069 3.21689 31.3294C3.75298 31.5894 4.30578 31.7152 4.87556 31.7152C5.57076 31.7152 6.12356 31.539 6.55111 31.1785C6.97831 30.8179 7.17929 30.3399 7.17929 29.7278C7.17929 29.4679 7.1374 29.2247 7.06204 28.9983C6.98666 28.7718 6.84427 28.5371 6.64329 28.2939C6.44222 28.0591 6.15751 27.7908 5.79733 27.514C5.44551 27.2372 4.98489 26.8851 4.41511 26.474C3.98791 26.1722 3.5608 25.8535 3.15022 25.5345C2.73982 25.2075 2.37129 24.8636 2.02756 24.4945C1.69253 24.1255 1.42453 23.7147 1.21511 23.2536C1.01404 22.8008 0.905244 22.2723 0.905244 21.6936C0.905244 21.0228 1.04764 20.402 1.324 19.8483C1.60036 19.2945 1.98569 18.8252 2.47156 18.4314C2.95733 18.0372 3.53556 17.7354 4.22178 17.5176C4.90018 17.2996 5.63689 17.1906 6.44133 17.1906C7.28729 17.1906 8.1 17.2996 8.88667 17.526C9.67395 17.7524 10.4031 18.0795 11.0813 18.5154L9.81644 20.5616C8.95378 19.9578 8.04044 19.6478 7.08578 19.6478C6.50782 19.6478 6.02178 19.7988 5.64489 20.1006C5.268 20.4025 5.07529 20.7799 5.07529 21.2411C5.07529 21.6772 5.24284 22.0713 5.57787 22.4153C5.91289 22.7675 6.49076 23.2455 7.31209 23.8828C8.14133 24.4867 8.82853 25.0233 9.36453 25.4757C9.90898 25.9285 10.3361 26.3646 10.6543 26.7673C10.9726 27.1699 11.182 27.5724 11.3076 27.9913C11.4332 28.4189 11.4919 28.8717 11.4919 29.3753L11.4923 29.3759ZM25.8567 25.5439C25.8567 26.1728 25.7897 26.8524 25.6557 27.5812C25.53 28.3108 25.3039 28.9821 24.9857 29.6026C24.6674 30.2231 24.257 30.735 23.7457 31.1288C23.2348 31.5313 22.5812 31.7325 21.8026 31.7325C20.4959 31.7325 19.4657 31.2126 18.7119 30.1645C17.958 29.1245 17.5812 27.6908 17.5812 25.8712C17.5812 24.001 17.9581 22.5254 18.7288 21.4268C19.491 20.3281 20.5297 19.7832 21.8364 19.7832C23.0764 19.7832 24.0559 20.3031 24.7759 21.3263C25.4963 22.3574 25.8568 23.7663 25.8568 25.5441L25.8567 25.5439ZM30.3963 25.3845C30.3963 24.1685 30.2204 23.0619 29.877 22.0725C29.5252 21.0743 29.0394 20.2192 28.3943 19.4983C27.7494 18.7772 26.9952 18.2236 26.1161 17.821C25.237 17.4183 24.2654 17.2172 23.2014 17.2172C22.029 17.2172 20.9988 17.4436 20.1108 17.8797C19.2229 18.3242 18.3934 19.0202 17.6396 19.9757L17.6146 17.6024H13.435V41.9935H17.6066V31.6913C18.017 32.1692 18.4106 32.5717 18.7959 32.8984C19.1728 33.2254 19.5581 33.4938 19.9515 33.695C20.3451 33.8963 20.7555 34.0472 21.1906 34.1311C21.6261 34.2149 22.0955 34.2569 22.5897 34.2569C23.6955 34.2569 24.7337 34.0304 25.6884 33.5944C26.643 33.15 27.4724 32.5295 28.1675 31.7242C28.8626 30.9188 29.4075 29.9802 29.8012 28.9153C30.2033 27.8415 30.3959 26.6593 30.3959 25.3846L30.3963 25.3845ZM32.2558 33.8628H36.5438V9.99609H32.2558V33.8628ZM54.8336 33.8711V17.5867H50.5456V26.3493C50.5456 27.1292 50.5121 27.7333 50.4451 28.1609C50.378 28.5885 50.2691 28.9659 50.1184 29.3182C49.5154 30.6596 48.4011 31.3396 46.7851 31.3396C45.5202 31.3396 44.6411 30.8868 44.138 29.9724C43.937 29.6286 43.8029 29.2345 43.7276 28.7982C43.6522 28.3622 43.6103 27.7333 43.6103 26.9031V17.5876H39.3223V26.8409C39.3223 27.4698 39.3307 28.0062 39.3391 28.4338C39.3475 28.8614 39.381 29.2556 39.4228 29.5911C39.4647 29.9266 39.5149 30.2284 39.5736 30.4889C39.6238 30.7488 39.7076 31.0004 39.8165 31.2352C40.2101 32.2334 40.8388 32.9881 41.7179 33.4992C42.5973 34.0107 43.6779 34.2623 44.9508 34.2623C46.0983 34.2623 47.1116 34.061 47.9827 33.6585C48.8539 33.256 49.7001 32.6016 50.5205 31.6878L50.5289 33.8683L54.8338 33.8766L54.8336 33.8711ZM73.3136 33.8628V24.6272C73.3136 23.9982 73.3052 23.4619 73.2968 23.0174C73.2884 22.573 73.2634 22.1873 73.2131 21.8601C73.1712 21.533 73.1126 21.2479 73.0539 21.0047C72.9869 20.7532 72.9116 20.51 72.8278 20.2751C72.4341 19.3027 71.8056 18.548 70.9265 18.0191C70.0474 17.4902 68.9665 17.2225 67.6847 17.2225C66.5372 17.2225 65.5238 17.4237 64.6527 17.8262C63.7816 18.2287 62.9354 18.8911 62.1149 19.7969L62.1066 17.6164H57.7928V33.8653H62.1146V25.0938C62.1146 24.339 62.1397 23.7436 62.1983 23.324C62.2485 22.9047 62.3575 22.5106 62.5083 22.1329C62.7846 21.4788 63.2202 20.9924 63.798 20.6573C64.3759 20.3222 65.0629 20.1542 65.8665 20.1542C67.1314 20.1542 68.0105 20.607 68.5136 21.5213C68.7063 21.8652 68.8403 22.2593 68.9156 22.6867C68.991 23.1144 69.0329 23.7516 69.0329 24.5738V33.8449L73.3129 33.8533L73.3136 33.8628ZM91.0558 32.789L84.5234 24.6628L90.0425 18.7428L86.7927 17.3428L81.0469 24.0094H80.5947V10.0005H76.2729V33.8672H80.5947V25.2219L87.0604 34.1908L91.0551 32.7899L91.0558 32.789ZM107.758 26.9525V24.2939L94.7625 17.7694V20.6956L104.834 25.6014L94.7625 30.5739V33.4334L107.758 26.9516V26.9525ZM96.0247 13.5481C95.2291 13.5481 94.5838 14.2021 94.5838 15.0076C94.5838 15.8294 95.2291 16.4752 96.0247 16.4752C96.8291 16.4752 97.4656 15.8295 97.4656 15.0076C97.4656 14.1942 96.8291 13.5481 96.0247 13.5481ZM96.0336 13.7745C96.678 13.7745 97.1972 14.3279 97.1972 15.0154C97.1972 15.703 96.678 16.2563 96.0336 16.2483C95.3803 16.2483 94.8603 15.7032 94.8603 15.0074C94.8603 14.3281 95.3803 13.7745 96.0336 13.7745ZM95.7571 15.1585H95.9323C96.142 15.1585 96.2425 15.234 96.2843 15.4436C96.318 15.6617 96.3598 15.8043 96.3936 15.8546H96.67C96.6443 15.8043 96.6025 15.7036 96.5696 15.4521C96.5358 15.2089 96.4434 15.0831 96.2932 15.058V15.0412C96.4692 14.9909 96.6114 14.8567 96.6114 14.647C96.6114 14.4961 96.5607 14.3787 96.4603 14.3116C96.3598 14.2361 96.2007 14.1858 95.958 14.1858C95.7652 14.1858 95.6309 14.2026 95.4976 14.2277V15.8544H95.7571V15.1584V15.1585ZM95.7571 14.4037C95.7989 14.3954 95.8576 14.387 95.9411 14.387C96.2345 14.387 96.3349 14.5296 96.3349 14.6721C96.3349 14.8734 96.15 14.9488 95.9411 14.9488H95.7571V14.4038V14.4037Z" fill="#0C1724"/>
</svg>
