<svg width="19" height="19" viewBox="0 0 19 19" fill="none" xmlns="http://www.w3.org/2000/svg">
<path d="M14.8736 5.23671V12.492C14.8736 12.7641 14.7602 13.0135 14.5789 13.1949C14.3748 13.3989 14.1254 13.5123 13.8533 13.5123C13.2865 13.5349 12.8104 13.0588 12.8331 12.492L12.8104 7.70805L5.87252 14.6459C5.46441 15.054 4.82957 15.054 4.42146 14.6459C4.03602 14.2605 4.01335 13.603 4.42146 13.1949L11.3593 6.25699L6.59805 6.25699C6.03123 6.27966 5.5551 5.80353 5.57777 5.23671C5.5551 4.6699 6.03123 4.19377 6.59805 4.21644H13.8533C14.4201 4.19377 14.8963 4.6699 14.8736 5.23671Z" fill="#034833"/>
</svg>
