<svg width="523" height="590" viewBox="0 0 523 590" fill="none" xmlns="http://www.w3.org/2000/svg">
<rect x="199.969" y="66.2352" width="331.45" height="475.597" rx="21.3651" transform="rotate(10 199.969 66.2352)" fill="#F1F5EB"/>
<rect x="1.11339" y="114.212" width="412.893" height="476.471" rx="18.6945" transform="rotate(-5 1.11339 114.212)" fill="#D9D9D9" stroke="#83CD20" stroke-width="5.34127"/>
<g opacity="0.4" clip-path="url(#clip0_3839_154)">
<path d="M175.515 45.8842C174.828 44.2382 174.427 43.2018 173.912 42.1962C173.396 41.1905 172.249 40.5829 171.301 41.18C170.669 41.5781 170.209 42.6165 170.065 43.4558C169.949 44.4019 170.464 45.4075 170.836 46.7949C169 46.3719 167.996 45.3826 166.82 44.6684C165.214 43.7262 164.123 43.7897 163.404 44.7829C162.686 45.7761 162.914 47.0875 164.147 48.0152C166.901 50.0226 169.769 51.9992 172.609 53.8691C174.53 55.0698 176.023 54.6698 177.202 52.6382C177.978 51.4008 178.468 50.0115 179.244 48.7741C180.825 45.9484 182.407 43.1226 183.988 40.2969C184.678 39.197 184.765 38.1442 183.676 37.2924C182.729 36.5165 181.064 36.7339 180.231 37.7579C179.484 38.6444 178.88 39.6068 178.276 40.5692C177.471 42.1576 176.666 43.7459 175.515 45.8842Z" fill="#83CD20"/>
<path d="M88.2651 43.184C88.0649 42.437 88.1516 41.8419 87.9224 41.4458C87.4063 40.8978 86.6319 40.3046 86.0005 40.245C85.484 40.1547 84.5648 40.8585 84.3633 41.4844C83.8167 42.6602 83.7005 44.064 83.2398 45.56C82.4931 45.9888 81.603 46.3417 80.77 46.908C79.7074 47.5359 78.9603 48.4224 79.4469 49.7789C80.0483 51.1047 81.1676 51.148 82.3737 50.596C82.7182 50.5037 82.9479 50.4422 83.3786 50.2124C84.325 50.9882 84.6677 52.7265 86.5051 52.2341C88.8019 51.6187 87.7993 49.7141 88.2886 48.3248C89.0353 47.896 89.782 47.4672 90.5573 47.1451C91.6485 46.6239 92.3956 45.7374 91.9948 44.701C91.7084 44.0915 90.6181 43.6973 89.901 43.3176C89.3272 43.0138 88.8965 43.2436 88.2651 43.184Z" fill="#83CD20"/>
<path d="M107.117 17.9995C106.169 19.0542 105.278 19.8648 105.851 21.0838C106.424 22.3029 107.543 22.3461 108.921 21.9769C112.481 21.023 116.07 20.1758 119.63 19.2219C120.893 18.8834 122.013 18.469 121.986 16.9893C122.044 15.8298 120.782 14.7953 119.261 15.0887C115.184 15.9522 111.165 17.0292 107.117 17.9995Z" fill="#83CD20"/>
<path d="M63.3903 65.1754C62.5188 63.8076 60.6697 63.5024 59.9847 64.7153C58.5543 67.3862 57.3274 70.3457 56.3361 73.2421C56.2149 73.7321 57.147 74.8549 57.8503 75.124C58.7572 75.6817 59.7028 74.9708 60.2094 74.0344C61.3437 71.6716 62.3602 69.3404 63.3481 66.9024C63.5585 66.2741 63.3583 65.5271 63.3903 65.1754Z" fill="#83CD20"/>
<path d="M139.927 15.4966C139.382 15.2995 138.493 14.7371 137.632 14.7391C135.135 14.6075 132.667 14.5826 130.198 14.5577C129.079 14.5145 128.246 15.0808 128.044 16.1644C127.871 17.3546 128.501 18.3295 129.62 18.3727C132.634 18.5947 135.647 18.8166 138.575 18.7184C140.154 18.6386 140.816 16.9743 139.927 15.4966Z" fill="#83CD20"/>
<path d="M97.1514 26.7305C96.2917 25.3596 94.7135 24.9818 93.8801 26.0058C92.0408 28.3287 90.2873 30.9718 88.7349 33.4466C88.1312 34.409 88.6755 35.5214 89.7943 36.0222C90.9132 36.5231 91.861 35.926 92.4647 34.9636C93.787 33.0079 95.1378 31.159 96.3453 29.2342C96.9776 28.3785 97.0647 27.3257 97.1514 26.7305Z" fill="#83CD20"/>
<path d="M87.0194 55.5234C86.876 55.4475 85.9868 54.8851 85.2977 55.0697C84.6087 55.2543 83.6605 56.3091 83.6024 57.0109C83.5706 60.1077 84.5723 62.9276 86.8949 65.1647C87.7265 65.9714 88.7882 66.2588 89.8222 65.5242C90.9711 64.7588 90.7137 63.7984 90.1981 62.7927C89.2531 60.6439 88.2795 58.3884 87.0194 55.5234Z" fill="#83CD20"/>
<path d="M169.447 32.4093C168.415 31.3133 166.867 29.6693 165.118 28.1935C164.315 27.4937 163.138 27.237 162.133 28.0783C161.041 29.0571 161.327 30.1243 162.072 31.0684C163.334 32.5605 164.681 33.9151 165.943 35.4072C167.204 36.8993 168.323 37.4002 169.357 36.6656C170.534 36.0069 170.622 34.4965 169.447 32.4093Z" fill="#83CD20"/>
<path d="M101.465 72.7004C102.758 72.011 103.018 70.2256 101.755 69.6488C99.2021 68.3885 96.5912 67.3724 93.8941 66.4937C93.349 66.2967 92.2292 66.7111 91.9704 67.1236C91.6254 67.6735 91.5383 68.7263 91.9395 69.3051C92.7988 71.1337 98.5657 73.363 100.661 72.9158C100.92 72.961 101.236 72.762 101.465 72.7004Z" fill="#83CD20"/>
<path d="M117.019 49.8878C116.072 49.5696 115.297 48.9764 114.608 49.1611C113.919 49.3457 112.914 50.187 112.942 50.7514C113.026 53.3597 113.253 56.0441 113.681 58.5601C113.824 59.0937 114.971 59.7013 115.602 59.7609C116.205 59.7138 117.325 58.8417 117.441 58.3533C117.415 55.5007 117.188 52.8163 117.019 49.8878Z" fill="#83CD20"/>
<path d="M154.498 24.8629C155.704 23.8533 155.935 22.8765 155.189 21.9324C154.673 21.3844 153.928 20.8979 153.21 20.5182C151.776 19.7587 150.112 19.0608 148.678 18.3013C147.674 17.7697 146.813 17.7716 146.037 18.5514C145.06 19.4994 145.317 20.4599 146.034 21.2973C146.378 21.6626 146.722 22.0279 147.152 22.2558C148.845 23.0604 150.566 23.9718 152.345 24.639C152.919 24.9428 153.866 24.8033 154.498 24.8629Z" fill="#83CD20"/>
<path d="M69.3685 53.5068C68.1329 54.8673 66.6391 56.1826 65.5755 57.7258C64.8284 58.6122 64.9995 59.7102 66.0321 60.3485C67.0648 60.9869 67.9549 60.634 68.9603 59.7927C70.1382 58.6764 71.3733 57.7736 72.6947 56.7332C73.7287 55.9986 74.4758 55.1122 73.903 53.8931C73.3874 52.8874 72.0674 52.5548 70.5169 53.1991C70.1723 53.2914 69.9712 53.4597 69.6553 53.6587C69.5405 53.6895 69.397 53.6135 69.3685 53.5068Z" fill="#83CD20"/>
<path d="M107.554 43.503C106.809 43.0165 106.321 42.5753 105.776 42.3782C104.169 41.8937 102.562 41.4092 100.956 40.9247C99.779 40.668 98.602 40.869 98.3138 42.0901C98.1408 42.8227 98.5988 44.0726 99.1726 44.3764C101.123 45.2262 103.275 45.9077 105.485 46.3451C106.002 46.4354 106.949 45.8384 107.323 45.3951C107.668 44.8452 107.468 44.0981 107.554 43.503Z" fill="#83CD20"/>
<path d="M111.918 69.8988C112.694 69.1191 113.958 67.8653 115.05 66.4289C115.884 65.4049 115.684 64.2002 114.508 63.4859C113.475 62.8476 112.528 63.4447 111.637 64.2552C110.545 65.234 109.482 66.3195 108.362 67.1916C107.242 68.0637 106.208 68.7982 106.953 70.2C107.497 71.3124 108.989 71.37 110.626 70.5882C110.942 70.3892 111.057 70.3584 111.918 69.8988Z" fill="#83CD20"/>
</g>
<path fill-rule="evenodd" clip-rule="evenodd" d="M402.18 62.8664C407.298 61.6076 412.227 61.6901 417.418 61.5392C418.432 61.5099 419.275 62.3063 419.306 63.3172C419.336 64.3286 418.536 65.1727 417.522 65.2026C412.599 65.3456 407.915 65.2301 403.053 66.4248C402.07 66.6666 401.074 66.065 400.836 65.0829C400.592 64.1014 401.196 63.1077 402.18 62.8664Z" fill="#E3DBD8"/>
<path fill-rule="evenodd" clip-rule="evenodd" d="M392.261 52.1719C400.066 43.6321 410.107 35.5858 420.246 29.9619C421.132 29.4714 422.25 29.7909 422.738 30.6752C423.227 31.5596 422.909 32.6761 422.024 33.1666C412.221 38.6049 402.51 46.3866 394.967 54.6442C394.282 55.3906 393.122 55.4425 392.377 54.7603C391.632 54.0781 391.577 52.9182 392.261 52.1719Z" fill="#E3DBD8"/>
<path fill-rule="evenodd" clip-rule="evenodd" d="M383.734 50.0065C382.446 42.196 384.644 34.1455 387.753 27.0434C388.162 26.1169 389.243 25.6942 390.166 26.0992C391.094 26.5047 391.515 27.5864 391.112 28.513C388.278 34.981 386.177 42.2962 387.35 49.4098C387.515 50.4078 386.837 51.3514 385.841 51.5157C384.846 51.6807 383.899 51.0039 383.734 50.0065Z" fill="#E3DBD8"/>
<defs>
<clipPath id="clip0_3839_154">
<rect width="132.76" height="52.7947" fill="white" transform="matrix(0.966223 -0.258899 -0.258899 -0.966223 59.6902 85.3817)"/>
</clipPath>
</defs>
</svg>
