<svg width="27" height="25" viewBox="0 0 27 25" fill="none" xmlns="http://www.w3.org/2000/svg">
<path fill-rule="evenodd" clip-rule="evenodd" d="M21.1278 13.212C17.8848 13.212 15.2558 15.8409 15.2558 19.0842C15.2558 22.3272 17.8848 24.9562 21.1278 24.9562C24.3708 24.9562 26.9997 22.3272 26.9997 19.0842C26.9997 15.8409 24.3708 13.212 21.1278 13.212ZM5.87196 13.2125C2.62899 13.2125 0 15.8409 0 19.0842C0 22.3272 2.62899 24.9562 5.87196 24.9562C9.11506 24.9562 11.7442 22.3272 11.7442 19.0842C11.7442 15.8409 9.11506 13.2125 5.87196 13.2125ZM19.3717 5.87183C19.3717 9.11507 16.7429 11.7443 13.4999 11.7443C10.2568 11.7443 7.62793 9.11507 7.62793 5.87183C7.62793 2.62925 10.2568 0 13.4999 0C16.7429 0 19.3717 2.62925 19.3717 5.87183Z" fill="#F06A6A"/>
</svg>
