<svg width="170" height="35" viewBox="0 0 170 35" fill="none" xmlns="http://www.w3.org/2000/svg">
<rect x="0.5" y="0.5" width="34" height="34" rx="17" stroke="#727272"/>
<path d="M20.6289 17.625H18.5781V23.75H15.8438V17.625H13.6016V15.1094H15.8438V13.168C15.8438 10.9805 17.1562 9.75 19.1523 9.75C20.1094 9.75 21.1211 9.94141 21.1211 9.94141V12.1016H20C18.9062 12.1016 18.5781 12.7578 18.5781 13.4688V15.1094H21.0117L20.6289 17.625Z" fill="#034833"/>
<rect x="45.5" y="0.5" width="34" height="34" rx="17" stroke="#83CD20"/>
<path d="M64.5222 16.7749L70.4785 10H69.0671L63.8952 15.8826L59.7644 10H55L61.2466 18.8955L55 26H56.4115L61.8732 19.7878L66.2356 26H71L64.5218 16.7749H64.5222ZM62.5889 18.9738L61.956 18.0881L56.9201 11.0397H59.0882L63.1522 16.728L63.7851 17.6137L69.0677 25.0075H66.8997L62.5889 18.9742V18.9738Z" fill="#034833"/>
<rect x="90.5" y="0.5" width="34" height="34" rx="17" stroke="#727272"/>
<path d="M112.375 10.625C112.84 10.625 113.25 11.0352 113.25 11.5273V22C113.25 22.4922 112.84 22.875 112.375 22.875H101.848C101.383 22.875 101 22.4922 101 22V11.5273C101 11.0352 101.383 10.625 101.848 10.625H112.375ZM104.691 21.125V15.3008H102.887V21.125H104.691ZM103.789 14.4805C104.363 14.4805 104.828 14.0156 104.828 13.4414C104.828 12.8672 104.363 12.375 103.789 12.375C103.188 12.375 102.723 12.8672 102.723 13.4414C102.723 14.0156 103.188 14.4805 103.789 14.4805ZM111.5 21.125V17.9258C111.5 16.3672 111.145 15.1367 109.312 15.1367C108.438 15.1367 107.836 15.6289 107.59 16.0938H107.562V15.3008H105.84V21.125H107.645V18.2539C107.645 17.4883 107.781 16.75 108.738 16.75C109.668 16.75 109.668 17.625 109.668 18.2812V21.125H111.5Z" fill="#034833"/>
<rect x="135.5" y="0.5" width="34" height="34" rx="17" stroke="#727272"/>
<path d="M152.578 10.9414C155.148 10.9414 157.5 12.7188 157.5 15.4258C157.5 17.9688 156.188 20.8125 153.289 20.8125C152.578 20.8125 151.73 20.457 151.375 19.8281C150.773 22.2891 150.801 22.6719 149.434 24.5586C149.297 24.6133 149.324 24.6133 149.242 24.5039C149.188 23.9844 149.133 23.4922 149.133 22.9727C149.133 21.3047 149.898 18.8711 150.281 17.2578C150.062 16.8203 150.008 16.3281 150.008 15.8633C150.008 13.6758 152.578 13.3477 152.578 15.1523C152.578 16.2188 151.84 17.2305 151.84 18.2695C151.84 18.9531 152.441 19.4453 153.125 19.4453C155.012 19.4453 155.586 16.7383 155.586 15.2891C155.586 13.3477 154.219 12.2812 152.332 12.2812C150.172 12.2812 148.504 13.8398 148.504 16.0273C148.504 17.0938 149.16 17.6406 149.16 17.8867C149.16 18.1055 148.996 18.8438 148.723 18.8438C148.066 18.8438 147 17.75 147 15.8359C147 12.8008 149.762 10.9414 152.578 10.9414Z" fill="#034833"/>
</svg>
