<svg width="144" height="48" viewBox="0 0 144 48" fill="none" xmlns="http://www.w3.org/2000/svg">
<path d="M143.733 23.6228V19.0287C142.834 19.0647 140.138 19.4314 138.945 20.8621V19.3451H133.912V34.6516H138.945V27.4189C139.664 24.0111 142.921 23.6516 143.747 23.6228H143.733ZM98.6546 23.8026C98.1146 23.3196 97.4973 22.9308 96.8285 22.6523C96.2777 22.3838 95.6725 22.246 95.0598 22.2496C94.606 22.2452 94.1567 22.3409 93.7442 22.53C93.5562 22.6063 93.3969 22.7396 93.2885 22.9111C93.1802 23.0826 93.1283 23.2837 93.1402 23.4862C93.1353 23.6916 93.1971 23.893 93.3163 24.0603C93.4356 24.2275 93.6059 24.3515 93.8017 24.4137C94.5041 24.6737 95.2251 24.8804 95.9585 25.032C96.5559 25.1615 97.1424 25.3369 97.7128 25.5568C98.2864 25.7756 98.8243 26.0785 99.3089 26.4555C99.7816 26.8274 100.173 27.2924 100.459 27.8215C100.76 28.413 100.909 29.0705 100.891 29.734C100.922 30.5442 100.739 31.3484 100.361 32.0654C99.9819 32.7825 99.4207 33.3868 98.7337 33.8176C98.0748 34.2447 97.3441 34.5492 96.5768 34.7163C95.8044 34.9016 95.013 34.9957 94.2187 34.9967C92.9599 34.9968 91.7095 34.7928 90.5161 34.3928C89.3829 34.0403 88.3469 33.43 87.4893 32.6098L89.9768 29.4967C90.5831 30.0505 91.272 30.5065 92.0187 30.8483C92.6721 31.177 93.3938 31.347 94.1252 31.3444C94.552 31.34 94.9723 31.2393 95.3546 31.0496C95.5489 30.9593 95.7109 30.8117 95.8189 30.6267C95.9268 30.4416 95.9756 30.2279 95.9585 30.0143C95.9612 29.7867 95.8935 29.5638 95.7649 29.3759C95.6362 29.1881 95.4528 29.0445 95.2396 28.9647C94.4898 28.6527 93.7123 28.412 92.9174 28.2457C92.3677 28.1167 91.8272 27.951 91.2997 27.7496C90.7801 27.5478 90.295 27.2665 89.8618 26.9157C89.448 26.5626 89.1062 26.1329 88.8553 25.6503C88.5746 25.0731 88.4366 24.437 88.4527 23.7954C88.4291 22.9656 88.633 22.1451 89.0422 21.4229C89.4273 20.7728 89.9561 20.2195 90.588 19.8052C91.2156 19.3847 91.9113 19.0758 92.6442 18.8921C93.3812 18.6992 94.1397 18.6001 94.9017 18.5974C96.0542 18.5962 97.1997 18.7782 98.2951 19.1366C99.3409 19.4633 100.301 20.0183 101.106 20.7614L98.6546 23.8026ZM128.11 25.0104C128.104 24.3058 127.849 23.626 127.391 23.0908C127.095 22.7883 126.736 22.5547 126.34 22.4068C125.944 22.259 125.519 22.2004 125.098 22.2353C124.639 22.2314 124.184 22.3093 123.753 22.4653C123.362 22.6084 122.999 22.8202 122.682 23.0908C122.387 23.3551 122.143 23.6721 121.963 24.0255C121.803 24.3322 121.703 24.6664 121.668 25.0104H128.11ZM132.747 27.0882V27.6993C132.759 27.8933 132.759 28.0877 132.747 28.2817H121.647C121.679 28.6925 121.81 29.0895 122.028 29.4392C122.244 29.7902 122.525 30.0974 122.855 30.3451C123.199 30.6028 123.583 30.8042 123.991 30.9418C124.409 31.0855 124.849 31.1584 125.292 31.1575C125.994 31.1779 126.69 31.0248 127.319 30.7117C127.849 30.4348 128.308 30.0415 128.664 29.5614L132.165 31.7686C131.435 32.8091 130.443 33.6377 129.289 34.1699C128.016 34.7432 126.631 35.0256 125.234 34.9967C124.126 35.0031 123.025 34.8208 121.977 34.4575C120.989 34.1208 120.077 33.5904 119.296 32.8973C118.519 32.1961 117.904 31.3353 117.491 30.3738C117.032 29.2925 116.806 28.1262 116.83 26.9516C116.815 25.7915 117.032 24.6401 117.47 23.5653C117.873 22.6005 118.467 21.7274 119.217 20.9987C119.971 20.2864 120.857 19.7294 121.826 19.3595C122.871 18.9619 123.98 18.7643 125.098 18.7771C126.157 18.7671 127.209 18.9599 128.196 19.3451C129.114 19.7072 129.942 20.2668 130.619 20.9843C131.316 21.7342 131.854 22.617 132.201 23.5797C132.594 24.702 132.786 25.8848 132.769 27.0738L132.747 27.0882ZM72.118 23.4934V18.8706H67.8043V15.4412C67.6965 13.464 66.7618 11.9902 62.9442 11.9902V29.7987C62.9407 30.5123 63.0326 31.2231 63.2174 31.9124C63.3804 32.518 63.675 33.0801 64.0801 33.5588C64.514 34.0356 65.0602 34.3964 65.669 34.6085C66.5195 34.879 67.4081 35.0101 68.3004 34.9967C69.6003 35.0126 70.8928 34.7984 72.118 34.364V30.266C71.3002 30.4756 70.4603 30.5866 69.6161 30.5967C69.3532 30.6292 69.0864 30.6 68.8368 30.5114C68.5872 30.4228 68.3617 30.2772 68.1782 30.0862C67.8907 29.6194 67.762 29.0721 67.8115 28.5261V23.4934H72.118Z" fill="#008FB4"/>
<path d="M112.487 26.4844L118.167 19.2949H112.157L107.124 25.6504V15.5851C107.031 13.5145 106.132 11.9903 102.257 11.9903V34.6517H107.124V27.3328L112.876 34.6517H118.951L112.487 26.4844ZM86.6338 34.6373V24.5001C86.6338 20.1361 83.1685 18.5687 80.0986 18.5687C77.6813 18.4481 75.3034 19.2152 73.4123 20.7256L75.9502 23.8746C76.9721 22.977 78.2491 22.4215 79.6025 22.2857C81.4502 22.2857 81.8312 23.3426 81.8312 24.6942V24.953H80.1704C75.8999 24.953 73.3332 26.8008 73.3332 30.0936C73.3332 33.6883 76.4966 34.623 80.3502 34.623L86.6338 34.6373ZM81.8312 31.4524H80.2352C78.9914 31.4524 78.2293 30.9347 78.2293 29.8635C78.2293 28.7923 78.9914 28.174 80.5155 28.174H81.8312V31.4524ZM45.215 14.7727C45.215 15.5163 45.5104 16.2295 46.0362 16.7553C46.562 17.2812 47.2752 17.5766 48.0189 17.5766C48.7625 17.5766 49.4757 17.2812 50.0015 16.7553C50.5274 16.2295 50.8228 15.5163 50.8228 14.7727C50.8228 14.029 50.5274 13.3158 50.0015 12.79C49.4757 12.2642 48.7625 11.9688 48.0189 11.9688C47.2752 11.9688 46.562 12.2642 46.0362 12.79C45.5104 13.3158 45.215 14.029 45.215 14.7727ZM45.6895 18.9066H45.481V34.6517H50.5496V22.221C50.4058 20.3086 49.428 18.9066 45.6895 18.9066ZM61.83 23.623V19.0289C60.9385 19.0648 58.2352 19.4315 57.0417 20.8622V19.3452H52.0091V34.6517H57.0417V27.5413C57.0383 27.5006 57.0383 27.4597 57.0417 27.4191C57.7607 24.0112 61.0104 23.6517 61.8443 23.623H61.83ZM142.274 32.3439H141.993V32.8759H142.274C142.31 32.8779 142.346 32.8724 142.38 32.8599C142.414 32.8474 142.445 32.8282 142.471 32.8033C142.497 32.7784 142.518 32.7484 142.532 32.7151C142.547 32.6819 142.554 32.6461 142.554 32.6099C142.554 32.5737 142.547 32.5379 142.532 32.5047C142.518 32.4714 142.497 32.4414 142.471 32.4165C142.445 32.3916 142.414 32.3723 142.38 32.3598C142.346 32.3474 142.31 32.3419 142.274 32.3439ZM142.554 33.8177L142.209 33.0988H141.993V33.8177H141.677V32.0707H142.353C142.424 32.0687 142.496 32.0813 142.562 32.1076C142.629 32.1339 142.69 32.1735 142.741 32.2238C142.792 32.2742 142.832 32.3344 142.859 32.4007C142.887 32.467 142.9 32.5382 142.899 32.6099C142.9 32.7145 142.868 32.8167 142.807 32.902C142.746 32.9872 142.66 33.051 142.561 33.0844L142.942 33.8034L142.554 33.8177ZM142.223 31.6609C141.961 31.6479 141.7 31.714 141.476 31.8505C141.251 31.987 141.072 32.1876 140.963 32.4266C140.853 32.6656 140.818 32.9319 140.861 33.1913C140.904 33.4506 141.024 33.691 141.205 33.8816C141.386 34.0721 141.62 34.204 141.877 34.2602C142.134 34.3164 142.402 34.2944 142.646 34.197C142.89 34.0997 143.1 33.9313 143.247 33.7138C143.395 33.4962 143.474 33.2395 143.474 32.9766C143.479 32.8079 143.45 32.6399 143.39 32.4824C143.33 32.3248 143.239 32.1808 143.122 32.0585C143.006 31.9362 142.867 31.8381 142.713 31.7699C142.558 31.7016 142.392 31.6646 142.223 31.6609ZM142.223 34.5942C141.903 34.6041 141.586 34.5185 141.314 34.3482C141.043 34.1778 140.827 33.9305 140.696 33.6376C140.566 33.3448 140.525 33.0196 140.579 32.7034C140.633 32.3872 140.78 32.0943 141.002 31.862C141.223 31.6296 141.508 31.4683 141.821 31.3985C142.134 31.3286 142.461 31.3535 142.76 31.4699C143.059 31.5863 143.317 31.7889 143.5 32.0521C143.684 32.3153 143.785 32.627 143.791 32.9478C143.796 33.3699 143.635 33.7771 143.341 34.0802C143.047 34.3834 142.645 34.5579 142.223 34.5654V34.5942ZM31.332 25.7726L33.5823 19.3021L35.8326 25.7726H31.332ZM35.9477 11.9903H31.4254L24.4444 30.4387H21.698C19.8256 30.518 17.9703 30.0535 16.3562 29.1014C15.7128 28.6886 15.1907 28.1122 14.8433 27.4313C14.4959 26.7504 14.3357 25.9894 14.3791 25.2262V23.0694H12.1503C10.0772 23.0125 8.09193 22.22 6.54966 20.8334C5.34474 19.5697 4.58714 17.9459 4.3928 16.2106H20.0157C22.8555 16.2106 23.9052 17.5982 24.5594 18.8419C24.8809 19.4658 25.1224 20.1276 25.2784 20.8119L27.2555 15.5851C27.2555 15.5851 25.6019 11.9903 20.0157 11.9903H0V14.1472C0 18.2165 1.20784 21.4805 3.59477 23.8243C5.46844 25.5974 7.8388 26.7563 10.3889 27.1459C11.2876 31.7615 15.5294 34.6373 21.698 34.6373H28.1111L29.549 30.4818H37.5797L39.0176 34.6302H44.5032L35.9477 11.9903Z" fill="#008FB4"/>
</svg>
