<svg width="453" height="535" viewBox="0 0 453 535" fill="none" xmlns="http://www.w3.org/2000/svg">
<g opacity="0.2" clip-path="url(#clip0_3827_18)">
<g opacity="0.4">
<path d="M165.015 109.949C165.015 109.949 211.465 350.653 369.719 444.991L305.86 461.241C305.86 461.241 295.426 409.315 235.835 424.45C176.244 439.586 194.687 491.647 194.687 491.647L134.446 506.932C134.446 506.932 228.279 380.529 148.641 114.105L165.015 109.949Z" stroke="white" stroke-width="2.19582" stroke-linecap="round" stroke-linejoin="round"/>
<path d="M169.227 303.504L171.23 311.391L243.359 293.068L241.356 285.182L169.227 303.504Z" stroke="white" stroke-width="2.19582" stroke-linecap="round" stroke-linejoin="round"/>
<path d="M161.458 386.992L166.285 405.994L293.261 373.739L288.434 354.737L161.458 386.992Z" stroke="white" stroke-width="2.19582" stroke-linecap="round" stroke-linejoin="round"/>
<path d="M202.225 325.094L202.428 376.547L247.574 365.069L222.526 319.945L202.225 325.094Z" stroke="white" stroke-width="2.19582" stroke-linecap="round" stroke-linejoin="round"/>
<path d="M147.144 114.485L140.649 116.139L135.443 95.6211L167.407 87.5102L172.615 108.005L147.144 114.485Z" stroke="white" stroke-width="2.19582" stroke-linecap="round" stroke-linejoin="round"/>
<path d="M142.095 51.6134L142.351 93.8774L160.93 89.1568L142.095 51.6134Z" stroke="white" stroke-width="2.19582" stroke-linecap="round" stroke-linejoin="round"/>
<path d="M245.12 314.203L202.228 325.095L180.456 330.629L202.296 341.598L179.033 356.742L202.431 376.548L176.106 383.226L202.348 354.091L179.956 343.052L202.228 325.095" stroke="white" stroke-width="2.19582" stroke-linecap="round" stroke-linejoin="round"/>
<path d="M223.19 319.759L251.341 324.901L236.926 345.295L273.913 358.379L247.575 365.068L258.696 336.5L231.017 334.294L244.973 314.239L223.19 319.759ZM223.19 319.759L180.309 330.665L234.222 295.362" stroke="white" stroke-width="2.19582" stroke-linecap="round" stroke-linejoin="round"/>
<path d="M205.369 235.907L176.188 243.322L199.577 221.853L172.791 219.013L190.945 199.156" stroke="white" stroke-width="2.19582" stroke-linecap="round" stroke-linejoin="round"/>
<path d="M170.318 204.389L190.945 199.154L168.439 192.081L183.8 178.517L163.826 172.133" stroke="white" stroke-width="2.19582" stroke-linecap="round" stroke-linejoin="round"/>
<path d="M169.532 418.929L298.463 386.16" stroke="white" stroke-width="2.19582" stroke-linecap="round" stroke-linejoin="round"/>
<path d="M176.189 243.32L211.374 249.616L179.138 273.592L218.332 263.623L181.141 292.763L228.133 288.526" stroke="white" stroke-width="2.19582" stroke-linecap="round" stroke-linejoin="round"/>
<path d="M180.403 167.902L163.823 172.129L176.57 156.898L159.557 154.064L172.497 140.921" stroke="white" stroke-width="2.19582" stroke-linecap="round" stroke-linejoin="round"/>
<path d="M164.32 438.914L313.022 401.129" stroke="white" stroke-width="2.19582" stroke-linecap="round" stroke-linejoin="round"/>
<path d="M134.419 506.947L198.893 448.131L158.041 458.247L194.601 491.646" stroke="white" stroke-width="2.19582" stroke-linecap="round" stroke-linejoin="round"/>
<path d="M369.705 445.001L280.632 427.361L328.204 415.012L305.789 461.235" stroke="white" stroke-width="2.19582" stroke-linecap="round" stroke-linejoin="round"/>
<path d="M148.618 114.104L167.014 119.336L153.713 132.374L172.499 140.926L157.209 144.817" stroke="white" stroke-width="2.19582" stroke-linecap="round" stroke-linejoin="round"/>
<path d="M176.103 243.353L205.284 235.937L174.48 228.226L195.593 213.686L171.234 204.163" stroke="white" stroke-width="2.19582" stroke-linecap="round" stroke-linejoin="round"/>
<path d="M190.947 199.155L171.235 204.162L186.964 187.88L166.396 182.291L180.408 167.908" stroke="white" stroke-width="2.19582" stroke-linecap="round" stroke-linejoin="round"/>
<path d="M205.287 235.936L178.21 257.584L217.14 263.919L179.138 273.593L226.222 281.01L181.229 300.444" stroke="white" stroke-width="2.19582" stroke-linecap="round" stroke-linejoin="round"/>
<path d="M165.574 171.68L180.406 167.904L161.3 160.91L175.116 150.299L157.21 144.813" stroke="white" stroke-width="2.19582" stroke-linecap="round" stroke-linejoin="round"/>
<path d="M165.029 109.94L152.356 124.345L169.357 128.53L157.21 144.818L172.5 140.927" stroke="white" stroke-width="2.19582" stroke-linecap="round" stroke-linejoin="round"/>
<path d="M180.643 308.98L244.974 314.239" stroke="white" stroke-width="2.19582" stroke-linecap="round" stroke-linejoin="round"/>
<path d="M171.312 102.919L139.345 111.04L140.655 116.2L172.623 108.079L171.312 102.919Z" stroke="white" stroke-width="2.19582" stroke-linecap="round" stroke-linejoin="round"/>
<path d="M167.399 87.5806L135.432 95.701L136.743 100.861L168.71 92.7408L167.399 87.5806Z" stroke="white" stroke-width="2.19582" stroke-linecap="round" stroke-linejoin="round"/>
</g>
</g>
<defs>
<clipPath id="clip0_3827_18">
<rect width="345.329" height="460.725" fill="white" transform="translate(0 89.4171) scale(1.00043) rotate(-15)"/>
</clipPath>
</defs>
</svg>
