<svg width="11" height="15" viewBox="0 0 11 15" fill="none" xmlns="http://www.w3.org/2000/svg">
<path d="M4.8125 14.3229C3.32292 12.4609 0 8.02083 0 5.5C0 2.46354 2.4349 0 5.5 0C8.53646 0 11 2.46354 11 5.5C11 8.02083 7.64844 12.4609 6.15885 14.3229C5.8151 14.7526 5.15625 14.7526 4.8125 14.3229ZM5.5 7.33333C6.5026 7.33333 7.33333 6.53125 7.33333 5.5C7.33333 4.4974 6.5026 3.66667 5.5 3.66667C4.46875 3.66667 3.66667 4.4974 3.66667 5.5C3.66667 6.53125 4.46875 7.33333 5.5 7.33333Z" fill="#727272"/>
</svg>
