<svg width="15" height="15" viewBox="0 0 15 15" fill="none" xmlns="http://www.w3.org/2000/svg">
<path d="M14.9416 1.10895L13.0739 13.2198C13.0447 13.5117 12.8696 13.7743 12.607 13.9202C12.4611 13.9786 12.3152 14.037 12.1401 14.037C12.0233 14.037 11.9066 14.0078 11.7899 13.9494L8.22957 12.4611L6.74125 14.679C6.62451 14.8833 6.42023 14.9708 6.21595 14.9708C5.89494 14.9708 5.6323 14.7082 5.6323 14.3872V11.5856C5.6323 11.3521 5.69066 11.1479 5.80739 11.0019L12.1693 2.83074L3.58949 10.5642L0.583658 9.30934C0.262646 9.16342 0.0291829 8.8716 0.0291829 8.49222C0 8.08366 0.175097 7.79183 0.496109 7.61673L13.57 0.175097C13.8619 0 14.2704 0 14.5623 0.20428C14.8541 0.40856 15 0.758755 14.9416 1.10895Z" fill="white"/>
</svg>
