<svg width="18" height="13" viewBox="0 0 18 13" fill="none" xmlns="http://www.w3.org/2000/svg">
<path d="M3.85714 6.74402e-07C5.98661 1.04673e-06 7.71428 1.72768 7.71428 3.85714L7.71428 7.71429C7.71428 10.567 5.38393 12.8571 2.57143 12.8571C1.84821 12.8571 1.28571 12.2946 1.28571 11.5714C1.28571 10.8884 1.84821 10.2857 2.57143 10.2857C3.97768 10.2857 5.14285 9.16072 5.14286 7.71429L5.14286 7.51339C4.70089 7.63393 4.29911 7.71429 3.85714 7.71429C1.6875 7.71429 -1.81808e-06 6.02679 -1.43873e-06 3.85714C-1.0664e-06 1.72768 1.6875 2.9505e-07 3.85714 6.74402e-07ZM18 3.85715L18 7.71429C18 10.567 15.6696 12.8571 12.8571 12.8571C12.1339 12.8571 11.5714 12.2946 11.5714 11.5714C11.5714 10.8884 12.1339 10.2857 12.8571 10.2857C14.2634 10.2857 15.4286 9.16072 15.4286 7.71429L15.4286 7.5134C14.9866 7.63393 14.5848 7.71429 14.1429 7.71429C11.9732 7.71429 10.2857 6.02679 10.2857 3.85714C10.2857 1.72768 11.9732 2.09346e-06 14.1429 2.47281e-06C16.2723 2.84514e-06 18 1.72768 18 3.85715Z" fill="#83CD20"/>
</svg>
