<svg width="25" height="25" viewBox="0 0 25 25" fill="none" xmlns="http://www.w3.org/2000/svg">
<path d="M10.4193 18.7487C12.3422 18.7487 14.1099 18.0872 15.5203 16.9904L20.0995 21.5695L21.5724 20.0966L16.9932 15.5174C18.0911 14.106 18.7526 12.3383 18.7526 10.4154C18.7526 5.82057 15.0141 2.08203 10.4193 2.08203C5.82448 2.08203 2.08594 5.82057 2.08594 10.4154C2.08594 15.0102 5.82448 18.7487 10.4193 18.7487ZM10.4193 4.16536C13.8661 4.16536 16.6693 6.96849 16.6693 10.4154C16.6693 13.8622 13.8661 16.6654 10.4193 16.6654C6.9724 16.6654 4.16927 13.8622 4.16927 10.4154C4.16927 6.96849 6.9724 4.16536 10.4193 4.16536Z" fill="#034833"/>
</svg>
