<svg width="30" height="30" viewBox="0 0 30 30" fill="none" xmlns="http://www.w3.org/2000/svg">
<g clip-path="url(#clip0_3761_459)">
<path d="M29.5898 23.939H27.041V10.8103C27.0411 10.7396 27.023 10.6701 26.9883 10.6085C26.9537 10.5469 26.9037 10.4953 26.8432 10.4587L15.2123 3.42253C15.1483 3.38377 15.0749 3.36328 15 3.36328C14.9251 3.36328 14.8517 3.38377 14.7877 3.42253L3.1568 10.4594C3.09633 10.496 3.04634 10.5476 3.01168 10.6092C2.97703 10.6708 2.95887 10.7403 2.95898 10.811V23.9397H0.410157C0.356255 23.9397 0.302881 23.9503 0.253088 23.971C0.203295 23.9916 0.158059 24.0219 0.119966 24.06C0.0818737 24.0982 0.0516716 24.1434 0.0310869 24.1932C0.0105022 24.2431 -6.13343e-05 24.2964 2.67882e-07 24.3503V26.2253C2.67882e-07 26.3341 0.043213 26.4384 0.120132 26.5154C0.197051 26.5923 0.301376 26.6355 0.410157 26.6355H29.5898C29.6986 26.6355 29.8029 26.5923 29.8799 26.5154C29.9568 26.4384 30 26.3341 30 26.2253V24.3503C30.0002 24.2964 29.9897 24.2429 29.9691 24.193C29.9486 24.1431 29.9184 24.0978 29.8803 24.0596C29.8422 24.0213 29.7969 23.991 29.7471 23.9703C29.6972 23.9497 29.6438 23.939 29.5898 23.939ZM3.7793 19.78H11.0156V21.6295H3.7793V19.78ZM11.8359 15.475C11.8365 14.9624 12.0404 14.4709 12.4029 14.1084C12.7654 13.7459 13.2569 13.542 13.7695 13.5414H14.5898V17.7283C14.5893 18.8399 14.342 19.9375 13.8657 20.942C13.3895 21.9464 12.6962 22.8326 11.8359 23.5366V15.475ZM26.2207 21.6299H18.9844V19.78H26.2207V21.6299ZM18.1641 23.5366C17.3037 22.8326 16.6104 21.9465 16.1342 20.942C15.658 19.9376 15.4107 18.8399 15.4102 17.7283V13.5414H16.2305C16.7431 13.542 17.2346 13.7459 17.5971 14.1084C17.9596 14.4709 18.1635 14.9624 18.1641 15.475V23.5366ZM12.7402 23.8364C13.7797 22.8747 14.5574 21.6643 15 20.3191C15.4601 21.7117 16.2761 22.9599 17.3672 23.94H12.6328C12.6696 23.905 12.7031 23.8701 12.7402 23.8364ZM18.9844 22.4503H26.2207V23.939H18.9844V22.4503ZM15 4.25268L26.2207 11.0416V18.9597H18.9844V15.475C18.9835 14.7449 18.6931 14.045 18.1768 13.5287C17.6605 13.0124 16.9606 12.722 16.2305 12.7211H13.7695C13.0394 12.7219 12.3394 13.0123 11.8231 13.5286C11.3068 14.0449 11.0164 14.7449 11.0156 15.475V18.9597H3.7793V11.0416L15 4.25268ZM3.7793 22.4503H11.0156V23.939H3.7793V22.4503ZM29.1797 25.814H0.820313V24.7593H29.1797V25.814Z" fill="white"/>
<path d="M7.39707 17.5192C7.78604 17.5193 8.1663 17.404 8.48974 17.1879C8.81318 16.9718 9.06529 16.6647 9.21418 16.3053C9.36306 15.946 9.40204 15.5506 9.32619 15.1691C9.25033 14.7875 9.06304 14.4371 8.78801 14.162C8.51298 13.887 8.16256 13.6996 7.78106 13.6237C7.39957 13.5478 7.00413 13.5868 6.64476 13.7356C6.28539 13.8845 5.97823 14.1365 5.76212 14.4599C5.54601 14.7834 5.43066 15.1636 5.43066 15.5526C5.43122 16.074 5.63857 16.5738 6.00721 16.9425C6.37586 17.3112 6.8757 17.5186 7.39707 17.5192ZM7.39707 14.4063C7.6238 14.4062 7.84546 14.4734 8.034 14.5993C8.22254 14.7253 8.36951 14.9043 8.45631 15.1137C8.54311 15.3232 8.56584 15.5537 8.52163 15.7761C8.47743 15.9985 8.36827 16.2027 8.20796 16.3631C8.04766 16.5234 7.8434 16.6326 7.62103 16.6769C7.39866 16.7211 7.16816 16.6984 6.95868 16.6117C6.7492 16.5249 6.57015 16.378 6.44418 16.1895C6.31821 16.001 6.25098 15.7793 6.25098 15.5526C6.25153 15.2488 6.37245 14.9576 6.58726 14.7427C6.80207 14.5279 7.09326 14.4069 7.39707 14.4063Z" fill="white"/>
<path d="M14.9998 11.4333C15.3888 11.4333 15.7691 11.3179 16.0925 11.1018C16.416 10.8857 16.668 10.5785 16.8169 10.2191C16.9657 9.85968 17.0046 9.46422 16.9286 9.08271C16.8527 8.7012 16.6653 8.35078 16.3902 8.07577C16.1151 7.80076 15.7646 7.61351 15.3831 7.5377C15.0015 7.4619 14.6061 7.50095 14.2468 7.6499C13.8874 7.79886 13.5803 8.05104 13.3643 8.37455C13.1483 8.69805 13.0331 9.07835 13.0332 9.46734C13.0339 9.98864 13.2414 10.4884 13.6101 10.8569C13.9788 11.2254 14.4786 11.4327 14.9998 11.4333ZM14.9998 8.32031C15.2265 8.32031 15.4481 8.38753 15.6366 8.51346C15.8251 8.63938 15.9721 8.81838 16.0588 9.0278C16.1456 9.23722 16.1684 9.46767 16.1242 9.69002C16.08 9.91237 15.9709 10.1166 15.8107 10.277C15.6504 10.4373 15.4462 10.5465 15.2239 10.5909C15.0016 10.6352 14.7711 10.6126 14.5617 10.5259C14.3522 10.4393 14.1731 10.2924 14.047 10.104C13.921 9.9156 13.8537 9.69404 13.8535 9.46734C13.8539 9.16337 13.9748 8.87194 14.1896 8.65693C14.4045 8.44192 14.6959 8.32087 14.9998 8.32031Z" fill="white"/>
<path d="M22.6021 17.5192C22.9911 17.5193 23.3714 17.404 23.6948 17.1879C24.0183 16.9718 24.2704 16.6647 24.4193 16.3053C24.5681 15.946 24.6071 15.5506 24.5313 15.1691C24.4554 14.7875 24.2681 14.4371 23.9931 14.162C23.7181 13.887 23.3676 13.6996 22.9861 13.6237C22.6046 13.5478 22.2092 13.5868 21.8498 13.7356C21.4905 13.8845 21.1833 14.1365 20.9672 14.4599C20.7511 14.7834 20.6357 15.1636 20.6357 15.5526C20.6363 16.074 20.8436 16.5738 21.2123 16.9425C21.5809 17.3112 22.0808 17.5186 22.6021 17.5192ZM22.6021 14.4063C22.8289 14.4062 23.0505 14.4734 23.2391 14.5993C23.4276 14.7253 23.5746 14.9043 23.6614 15.1137C23.7482 15.3232 23.7709 15.5537 23.7267 15.7761C23.6825 15.9985 23.5734 16.2027 23.413 16.3631C23.2527 16.5234 23.0485 16.6326 22.8261 16.6769C22.6037 16.7211 22.3732 16.6984 22.1638 16.6117C21.9543 16.5249 21.7752 16.378 21.6493 16.1895C21.5233 16.001 21.4561 15.7793 21.4561 15.5526C21.4566 15.2488 21.5775 14.9576 21.7923 14.7427C22.0071 14.5279 22.2983 14.4069 22.6021 14.4063Z" fill="white"/>
</g>
<defs>
<clipPath id="clip0_3761_459">
<rect width="30" height="30" fill="white"/>
</clipPath>
</defs>
</svg>
