<svg width="30" height="30" viewBox="0 0 30 30" fill="none" xmlns="http://www.w3.org/2000/svg">
<path d="M28.1836 3.16406H1.81641C1.33484 3.16462 0.873151 3.35617 0.53263 3.69669C0.192108 4.03721 0.00055827 4.4989 0 4.98047L0 26.4244C6.2096e-05 26.5331 0.0432948 26.6374 0.120201 26.7143C0.197106 26.7912 0.301395 26.8345 0.410156 26.8345H29.5898C29.6986 26.8345 29.8029 26.7912 29.8798 26.7143C29.9567 26.6374 29.9999 26.5331 30 26.4244V4.98047C29.9994 4.4989 29.8079 4.03721 29.4674 3.69669C29.1269 3.35617 28.6652 3.16462 28.1836 3.16406ZM0.820312 4.98047C0.820623 4.71638 0.925668 4.4632 1.1124 4.27647C1.29914 4.08973 1.55232 3.98469 1.81641 3.98438H28.1836C28.4477 3.98469 28.7009 4.08973 28.8876 4.27647C29.0743 4.4632 29.1794 4.71638 29.1797 4.98047V8.70398H0.820312V4.98047ZM29.1797 26.0142H0.820312V9.5243H29.1797V26.0142Z" fill="white"/>
<path d="M27.7147 5.03906H9.78809C9.67931 5.03906 9.57498 5.08228 9.49806 5.15919C9.42114 5.23611 9.37793 5.34044 9.37793 5.44922V7.23891C9.37793 7.34769 9.42114 7.45201 9.49806 7.52893C9.57498 7.60585 9.67931 7.64906 9.78809 7.64906H27.7147C27.8235 7.649 27.9278 7.60577 28.0047 7.52886C28.0816 7.45196 28.1248 7.34767 28.1249 7.23891V5.44922C28.1248 5.34046 28.0816 5.23617 28.0047 5.15926C27.9278 5.08236 27.8235 5.03912 27.7147 5.03906ZM27.3046 6.82875H10.1982V5.85938H27.3046V6.82875Z" fill="white"/>
<path d="M4.16016 5.03906H2.28516C2.1764 5.03912 2.07211 5.08236 1.9952 5.15926C1.91829 5.23617 1.87506 5.34046 1.875 5.44922V7.23891C1.87506 7.34767 1.91829 7.45196 1.9952 7.52886C2.07211 7.60577 2.1764 7.649 2.28516 7.64906H4.16016C4.26892 7.649 4.37321 7.60577 4.45011 7.52886C4.52702 7.45196 4.57025 7.34767 4.57031 7.23891V5.44922C4.57025 5.34046 4.52702 5.23617 4.45011 5.15926C4.37321 5.08236 4.26892 5.03912 4.16016 5.03906ZM3.75 6.82875H2.69531V5.85938H3.75V6.82875Z" fill="white"/>
<path d="M7.91113 5.03906H6.03613C5.92737 5.03912 5.82308 5.08236 5.74618 5.15926C5.66927 5.23617 5.62604 5.34046 5.62598 5.44922V7.23891C5.62604 7.34767 5.66927 7.45196 5.74618 7.52886C5.82308 7.60577 5.92737 7.649 6.03613 7.64906H7.91113C8.01991 7.64906 8.12424 7.60585 8.20116 7.52893C8.27808 7.45201 8.32129 7.34769 8.32129 7.23891V5.44922C8.32129 5.34044 8.27808 5.23611 8.20116 5.15919C8.12424 5.08228 8.01991 5.03906 7.91113 5.03906ZM7.50098 6.82875H6.44629V5.85938H7.50098V6.82875Z" fill="white"/>
<path d="M15.0001 24.1217C16.256 24.1218 17.4837 23.7494 18.528 23.0517C19.5722 22.354 20.3862 21.3623 20.8668 20.202C21.3475 19.0417 21.4732 17.7649 21.2283 16.5331C20.9833 15.3014 20.3785 14.1699 19.4905 13.2818C18.6024 12.3937 17.471 11.7889 16.2392 11.5439C15.0074 11.2989 13.7307 11.4246 12.5704 11.9052C11.41 12.3858 10.4183 13.1997 9.72056 14.2439C9.02281 15.2882 8.65039 16.5159 8.65039 17.7718C8.65225 19.4553 9.32182 21.0693 10.5122 22.2597C11.7026 23.4502 13.3166 24.1198 15.0001 24.1217ZM15.0001 12.2424C16.0938 12.2424 17.1629 12.5667 18.0723 13.1742C18.9816 13.7818 19.6904 14.6454 20.109 15.6558C20.5275 16.6663 20.637 17.7781 20.4237 18.8507C20.2103 19.9234 19.6837 20.9087 18.9103 21.6821C18.137 22.4554 17.1517 22.9821 16.079 23.1954C15.0064 23.4088 13.8945 23.2992 12.8841 22.8807C11.8737 22.4621 11.0101 21.7534 10.4025 20.844C9.79493 19.9346 9.47066 18.8655 9.4707 17.7718C9.47238 16.3058 10.0555 14.9004 11.0921 13.8638C12.1287 12.8272 13.5341 12.2441 15.0001 12.2424Z" fill="white"/>
<path d="M12.1441 20.9365H17.8544C17.9631 20.9364 18.0674 20.8932 18.1443 20.8163C18.2212 20.7394 18.2645 20.6351 18.2645 20.5263V16.4963C18.2645 16.3875 18.2212 16.2832 18.1443 16.2063C18.0674 16.1294 17.9631 16.0862 17.8544 16.0861H17.0809L16.8302 14.9255C16.8104 14.8337 16.7598 14.7515 16.6868 14.6926C16.6138 14.6336 16.5228 14.6015 16.4289 14.6016H13.5695C13.4758 14.6016 13.385 14.6337 13.312 14.6925C13.2391 14.7514 13.1886 14.8334 13.1687 14.925L12.918 16.0856H12.1445C12.0358 16.0857 11.9315 16.1289 11.8546 16.2058C11.7777 16.2827 11.7344 16.387 11.7344 16.4958V20.5263C11.7344 20.635 11.7776 20.7392 11.8544 20.8161C11.9312 20.893 12.0354 20.9363 12.1441 20.9365ZM12.5542 20.1162V18.6288H13.6323V18.6701C13.6323 18.7789 13.6756 18.8832 13.7525 18.9601C13.8294 19.037 13.9337 19.0802 14.0425 19.0802C14.1513 19.0802 14.2556 19.037 14.3325 18.9601C14.4094 18.8832 14.4527 18.7789 14.4527 18.6701V18.6288H15.5448V18.6701C15.5448 18.7789 15.5881 18.8832 15.665 18.9601C15.7419 19.037 15.8462 19.0802 15.955 19.0802C16.0638 19.0802 16.1681 19.037 16.245 18.9601C16.3219 18.8832 16.3652 18.7789 16.3652 18.6701V18.6288H17.4433V20.1162H12.5542ZM13.9007 15.4219H16.0975L16.2412 16.0856H13.757L13.9007 15.4219ZM16.7484 16.9059H17.4442V17.808H12.5542V16.9064L16.7484 16.9059Z" fill="white"/>
</svg>
