<svg width="73" height="56" viewBox="0 0 73 56" fill="none" xmlns="http://www.w3.org/2000/svg">
<path d="M44.6026 14.7325L44.6028 14.7326L44.6052 14.7224C44.7003 14.3102 45.0452 14.0261 45.4938 14.0261H62.8602C63.1823 14.0261 63.3602 14.0982 63.4619 14.203C63.5647 14.3091 63.6286 14.4886 63.6286 14.7945V17.3996C63.5917 17.8649 63.4487 18.2884 63.2043 18.6388L43.9191 44.0707L43.9188 44.0705L43.9124 44.0802C43.6625 44.455 43.1245 44.5838 42.7129 44.3305L42.713 44.3303L42.7054 44.3261L37.4563 41.4143C37.3009 41.2866 37.2168 41.1527 37.1806 40.9897C37.1419 40.8155 37.1539 40.5904 37.227 40.278L44.6026 14.7325ZM17.554 14.7325L17.5545 14.7326L17.5573 14.7195C17.6511 14.2816 18.0593 13.9935 18.5084 14.0256L18.5083 14.0261H18.5221H35.8116C36.1338 14.0261 36.3117 14.0982 36.4133 14.203C36.5162 14.3091 36.5801 14.4886 36.5801 14.7945V17.3996C36.5431 17.865 36.4001 18.2886 36.1557 18.6389L16.9472 44.071L16.9469 44.0708L16.9406 44.0802C16.6911 44.4545 16.1584 44.5806 15.7498 44.2977L15.7411 44.2917L15.7317 44.2866L10.4069 41.4136C10.252 41.2861 10.1682 41.1524 10.1321 40.9897C10.0933 40.8155 10.1053 40.5904 10.1785 40.278L17.554 14.7325Z" stroke="#83CD20" stroke-width="0.379325"/>
</svg>
