<svg width="40" height="40" viewBox="0 0 40 40" fill="none" xmlns="http://www.w3.org/2000/svg">
<path d="M38.2031 15.2989H36.0562C36.8555 13.8538 37.2636 12.2251 37.2403 10.5739C37.2171 8.92274 36.7632 7.30621 35.9235 5.88423C35.0839 4.46225 33.8876 3.28408 32.453 2.46623C31.0184 1.64838 29.3951 1.21919 27.7437 1.2211C26.2274 1.22589 24.7339 1.59201 23.3873 2.2891C22.0406 2.98619 20.8794 3.99418 20 5.22954C18.5991 3.24872 16.4929 1.87959 14.1139 1.40339C11.735 0.927201 9.26405 1.38011 7.20866 2.66909C5.15328 3.95806 3.66955 5.98521 3.06228 8.33411C2.45501 10.683 2.77032 13.1753 3.94344 15.2989H1.79688C1.32049 15.2995 0.863786 15.489 0.526932 15.8258C0.190078 16.1627 0.000578888 16.6194 0 17.0958L0 36.9811C0.000578888 37.4575 0.190078 37.9142 0.526932 38.251C0.863786 38.5879 1.32049 38.7774 1.79688 38.778H38.2031C38.6795 38.7775 39.1363 38.588 39.4732 38.2511C39.81 37.9143 39.9995 37.4575 40 36.9811V17.0958C39.9995 16.6194 39.81 16.1626 39.4732 15.8258C39.1363 15.4889 38.6795 15.2994 38.2031 15.2989ZM27.7431 2.31485C29.2561 2.31453 30.741 2.72271 32.0412 3.4963C33.3414 4.26989 34.4087 5.38019 35.1302 6.70998C35.8518 8.03977 36.2009 9.53971 36.1408 11.0515C36.0806 12.5632 35.6134 14.0307 34.7884 15.2989H33.0219C34.1333 14.0325 34.7444 12.4041 34.7406 10.7192C34.7409 9.11185 34.1877 7.55339 33.1741 6.30589C32.1605 5.05839 30.7483 4.19791 29.1749 3.86914C27.6015 3.54036 25.9629 3.76334 24.5346 4.50058C23.1062 5.23782 21.9753 6.44436 21.3319 7.91735C21.1531 7.34035 20.9193 6.78186 20.6338 6.24954C21.3921 5.04856 22.4412 4.05834 23.6839 3.37056C24.9266 2.68277 26.3228 2.31966 27.7431 2.31485ZM21.3319 13.5227C21.6168 14.1689 21.9987 14.7679 22.4644 15.2989H20.5703C20.8844 14.7345 21.1396 14.1393 21.3319 13.5227ZM21.8391 10.7183C21.8368 9.72029 22.0876 8.738 22.5679 7.8632C23.0483 6.98841 23.7425 6.24964 24.5858 5.71592C25.4291 5.1822 26.394 4.87094 27.3902 4.81123C28.3864 4.75152 29.3815 4.94531 30.2825 5.37448C31.1835 5.80365 31.961 6.4542 32.5424 7.26536C33.1238 8.07653 33.4901 9.02182 33.6071 10.0129C33.7241 11.0041 33.5879 12.0087 33.2114 12.9329C32.8348 13.8571 32.2301 14.6708 31.4538 15.298H24.0312C23.3457 14.7479 22.7927 14.0507 22.4132 13.258C22.0338 12.4652 21.8375 11.5972 21.8391 10.7183ZM3.85281 10.7183C3.85265 9.41035 4.15776 8.12044 4.74387 6.95118C5.32999 5.78193 6.18092 4.76561 7.22896 3.98311C8.27699 3.20061 9.4932 2.67353 10.7808 2.44381C12.0684 2.21408 13.3918 2.28806 14.6458 2.65986C15.8998 3.03165 17.0497 3.691 18.004 4.58543C18.9583 5.47986 19.6906 6.58468 20.1428 7.81197C20.5949 9.03926 20.7544 10.3551 20.6085 11.6549C20.4625 12.9547 20.0152 14.2024 19.3022 15.2989H17.5356C18.6469 14.0325 19.2581 12.4041 19.2544 10.7192C19.2605 9.7963 19.0841 8.88128 18.7352 8.02683C18.3863 7.17238 17.8718 6.39539 17.2213 5.7406C16.5709 5.0858 15.7974 4.56614 14.9453 4.21152C14.0932 3.8569 13.1793 3.67433 12.2564 3.67433C11.3335 3.67433 10.4196 3.8569 9.56754 4.21152C8.71545 4.56614 7.94191 5.0858 7.29148 5.7406C6.64104 6.39539 6.12656 7.17238 5.77764 8.02683C5.42872 8.88128 5.25227 9.7963 5.25844 10.7192C5.25471 12.4041 5.86584 14.0325 6.97719 15.2989H5.21156C4.32208 13.937 3.84982 12.3449 3.85281 10.7183ZM6.35281 10.7183C6.3509 9.72044 6.60192 8.73838 7.08241 7.86383C7.56291 6.98929 8.25721 6.25078 9.10048 5.7173C9.94374 5.18381 10.9085 4.87274 11.9045 4.81314C12.9006 4.75354 13.8955 4.94736 14.7964 5.37649C15.6973 5.80563 16.4747 6.45607 17.056 7.26709C17.6374 8.0781 18.0037 9.02322 18.1208 10.0142C18.2379 11.0051 18.1019 12.0096 17.7255 12.9338C17.3492 13.8579 16.7448 14.6716 15.9688 15.2989H8.54625C7.8603 14.749 7.30695 14.0517 6.92724 13.2587C6.54752 12.4657 6.3512 11.5975 6.35281 10.7183ZM38.9062 36.9811C38.906 37.1675 38.8318 37.3462 38.7 37.478C38.5682 37.6098 38.3895 37.684 38.2031 37.6842H1.79688C1.61047 37.684 1.43177 37.6098 1.29996 37.478C1.16816 37.3462 1.094 37.1675 1.09375 36.9811V17.0958C1.094 16.9094 1.16816 16.7307 1.29996 16.5989C1.43177 16.4671 1.61047 16.3929 1.79688 16.3927H38.2031C38.3895 16.3929 38.5682 16.4671 38.7 16.5989C38.8318 16.7307 38.906 16.9094 38.9062 17.0958V36.9811Z" fill="white"/>
<path d="M36.9531 20.6336C36.3471 20.6329 35.766 20.3919 35.3375 19.9633C34.9089 19.5348 34.6678 18.9537 34.6672 18.3477C34.6672 18.2026 34.6096 18.0635 34.507 17.961C34.4045 17.8584 34.2654 17.8008 34.1203 17.8008H5.87969C5.73465 17.8008 5.59555 17.8584 5.49299 17.961C5.39043 18.0635 5.33281 18.2026 5.33281 18.3477C5.33215 18.9537 5.0911 19.5348 4.66255 19.9633C4.23399 20.3919 3.65294 20.6329 3.04688 20.6336C2.90186 20.6337 2.76281 20.6913 2.66027 20.7939C2.55773 20.8964 2.50008 21.0355 2.5 21.1805V32.8992C2.5 33.0443 2.55762 33.1834 2.66018 33.2859C2.76273 33.3885 2.90183 33.4461 3.04688 33.4461C3.65297 33.4468 4.23402 33.688 4.66256 34.1166C5.09111 34.5452 5.33215 35.1262 5.33281 35.7323C5.33281 35.8774 5.39043 36.0165 5.49299 36.119C5.59555 36.2216 5.73465 36.2792 5.87969 36.2792H34.1203C34.2654 36.2792 34.4045 36.2216 34.507 36.119C34.6096 36.0165 34.6672 35.8774 34.6672 35.7323C34.6678 35.1262 34.9089 34.5452 35.3374 34.1166C35.766 33.688 36.347 33.4468 36.9531 33.4461C37.025 33.4461 37.0961 33.432 37.1625 33.4045C37.2288 33.3771 37.2891 33.3368 37.3399 33.286C37.3907 33.2352 37.431 33.1749 37.4585 33.1085C37.4859 33.0422 37.5 32.971 37.5 32.8992V21.1805C37.5 21.0354 37.4424 20.8963 37.3398 20.7938C37.2373 20.6912 37.0982 20.6336 36.9531 20.6336ZM6.38219 35.1861C6.2666 34.4884 5.93558 33.8443 5.43552 33.3442C4.93547 32.8441 4.29145 32.513 3.59375 32.3973V21.6833C4.29143 21.5676 4.93542 21.2365 5.43547 20.7364C5.93552 20.2363 6.26656 19.5922 6.38219 18.8945H15.6444C14.169 19.6827 12.9353 20.8569 12.0752 22.2915C11.2151 23.7262 10.7608 25.3676 10.7608 27.0403C10.7608 28.7131 11.2151 30.3544 12.0752 31.7891C12.9353 33.2238 14.169 34.3979 15.6444 35.1861H6.38219ZM20 18.8945C21.6111 18.8945 23.1861 19.3722 24.5258 20.2672C25.8654 21.1623 26.9095 22.4345 27.5261 23.923C28.1427 25.4115 28.304 27.0494 27.9897 28.6296C27.6754 30.2098 26.8996 31.6613 25.7604 32.8005C24.6211 33.9398 23.1696 34.7156 21.5894 35.0299C20.0092 35.3442 18.3713 35.1829 16.8829 34.5663C15.3944 33.9497 14.1221 32.9056 13.2271 31.5659C12.332 30.2263 11.8543 28.6513 11.8544 27.0402C11.8572 24.8807 12.7163 22.8104 14.2433 21.2834C15.7703 19.7564 17.8405 18.8973 20 18.8945ZM36.4062 32.3973C35.7084 32.5128 35.0643 32.8438 34.5641 33.344C34.064 33.8441 33.733 34.4883 33.6175 35.1861H24.3556C25.831 34.3979 27.0647 33.2238 27.9248 31.7891C28.7849 30.3544 29.2392 28.7131 29.2392 27.0403C29.2392 25.3676 28.7849 23.7262 27.9248 22.2915C27.0647 20.8569 25.831 19.6827 24.3556 18.8945H33.6175C33.7331 19.5923 34.0641 20.2364 34.5642 20.7365C35.0644 21.2367 35.7085 21.5677 36.4062 21.6833V32.3973Z" fill="white"/>
<path d="M21.8065 29.4214H16.9434C16.7983 29.4214 16.6592 29.479 16.5567 29.5816C16.4541 29.6841 16.3965 29.8232 16.3965 29.9683C16.3965 30.1133 16.4541 30.2524 16.5567 30.355C16.6592 30.4575 16.7983 30.5152 16.9434 30.5152H18.3155V31.8705C18.3155 32.0155 18.3732 32.1546 18.4757 32.2572C18.5783 32.3597 18.7174 32.4173 18.8624 32.4173C19.0075 32.4173 19.1466 32.3597 19.2491 32.2572C19.3517 32.1546 19.4093 32.0155 19.4093 31.8705V30.5152H20.5905V31.8705C20.5905 32.0155 20.6482 32.1546 20.7507 32.2572C20.8533 32.3597 20.9924 32.4173 21.1374 32.4173C21.2825 32.4173 21.4216 32.3597 21.5241 32.2572C21.6267 32.1546 21.6843 32.0155 21.6843 31.8705V30.5152H21.8065C22.2829 30.5147 22.7396 30.3252 23.0765 29.9883C23.4134 29.6514 23.6029 29.1947 23.6034 28.7183V27.0386C23.6034 26.8936 23.5457 26.7545 23.4432 26.6519C23.3406 26.5493 23.2015 26.4917 23.0565 26.4917H17.4902V25.3589C17.4905 25.1725 17.5646 24.9938 17.6964 24.862C17.8283 24.7302 18.007 24.656 18.1934 24.6558H23.0565C23.2015 24.6558 23.3406 24.5982 23.4432 24.4956C23.5457 24.393 23.6034 24.2539 23.6034 24.1089C23.6034 23.9639 23.5457 23.8248 23.4432 23.7222C23.3406 23.6196 23.2015 23.562 23.0565 23.562H21.6843V22.207C21.6843 22.062 21.6267 21.9229 21.5241 21.8203C21.4216 21.7178 21.2825 21.6602 21.1374 21.6602C20.9924 21.6602 20.8533 21.7178 20.7507 21.8203C20.6482 21.9229 20.5905 22.062 20.5905 22.207V23.5623H19.4093V22.207C19.4093 22.062 19.3517 21.9229 19.2491 21.8203C19.1466 21.7178 19.0075 21.6602 18.8624 21.6602C18.7174 21.6602 18.5783 21.7178 18.4757 21.8203C18.3732 21.9229 18.3155 22.062 18.3155 22.207V23.5623H18.1934C17.717 23.5628 17.2602 23.7523 16.9233 24.0892C16.5865 24.4261 16.397 24.8828 16.3965 25.3592V27.0389C16.3964 27.1107 16.4106 27.1819 16.438 27.2482C16.4655 27.3146 16.5058 27.3749 16.5566 27.4257C16.6074 27.4765 16.6677 27.5168 16.734 27.5442C16.8004 27.5717 16.8715 27.5858 16.9434 27.5858H22.5096V28.7186C22.5093 28.9049 22.4351 29.0836 22.3033 29.2153C22.1715 29.347 21.9928 29.4212 21.8065 29.4214Z" fill="white"/>
<path d="M14.0141 7.37553L12.2572 9.20959L10.5004 7.37553C10.4507 7.32367 10.3912 7.28212 10.3255 7.25323C10.2597 7.22435 10.1889 7.20869 10.1171 7.20717C10.0453 7.20565 9.9739 7.21828 9.90698 7.24435C9.84006 7.27043 9.77892 7.30942 9.72707 7.35912C9.67522 7.40882 9.63367 7.46824 9.60478 7.534C9.57589 7.59975 9.56024 7.67056 9.55872 7.74236C9.55719 7.81417 9.56983 7.88557 9.5959 7.95249C9.62197 8.01942 9.66097 8.08055 9.71067 8.1324L10.976 9.45303H10.265C10.12 9.45303 9.9809 9.51064 9.87834 9.6132C9.77578 9.71576 9.71817 9.85486 9.71817 9.9999C9.71817 10.1449 9.77578 10.284 9.87834 10.3866C9.9809 10.4892 10.12 10.5468 10.265 10.5468H11.7104V11.2505H10.265C10.12 11.2505 9.9809 11.3081 9.87834 11.4107C9.77578 11.5133 9.71817 11.6524 9.71817 11.7974C9.71817 11.9424 9.77578 12.0815 9.87834 12.1841C9.9809 12.2867 10.12 12.3443 10.265 12.3443H11.7104V13.3208C11.7104 13.4659 11.768 13.605 11.8705 13.7075C11.9731 13.8101 12.1122 13.8677 12.2572 13.8677C12.4023 13.8677 12.5414 13.8101 12.6439 13.7075C12.7465 13.605 12.8041 13.4659 12.8041 13.3208V12.3443H14.2504C14.3954 12.3443 14.5345 12.2867 14.6371 12.1841C14.7396 12.0815 14.7972 11.9424 14.7972 11.7974C14.7972 11.6524 14.7396 11.5133 14.6371 11.4107C14.5345 11.3081 14.3954 11.2505 14.2504 11.2505H12.8041V10.5474H14.2504C14.3954 10.5474 14.5345 10.4898 14.6371 10.3872C14.7396 10.2847 14.7972 10.1456 14.7972 10.0005C14.7972 9.85549 14.7396 9.71639 14.6371 9.61383C14.5345 9.51127 14.3954 9.45365 14.2504 9.45365H13.5385L14.8041 8.13303C14.9046 8.02827 14.9593 7.88789 14.9562 7.74279C14.9532 7.59768 14.8926 7.45973 14.7879 7.35928C14.6831 7.25883 14.5427 7.2041 14.3976 7.20715C14.2525 7.2102 14.1146 7.27077 14.0141 7.37553Z" fill="white"/>
<path d="M29.5004 7.37551L27.7439 9.20957L25.9867 7.37551C25.937 7.32366 25.8776 7.2821 25.8118 7.25322C25.746 7.22433 25.6752 7.20868 25.6034 7.20715C25.5316 7.20563 25.4602 7.21827 25.3933 7.24434C25.3264 7.27041 25.2653 7.30941 25.2134 7.3591C25.1616 7.4088 25.12 7.46822 25.0911 7.53398C25.0622 7.59974 25.0466 7.67054 25.045 7.74235C25.0435 7.81415 25.0562 7.88555 25.0822 7.95248C25.1083 8.0194 25.1473 8.08053 25.197 8.13238L26.4623 9.45301H25.7504C25.6054 9.45301 25.4663 9.51063 25.3637 9.61319C25.2612 9.71574 25.2036 9.85484 25.2036 9.99988C25.2036 10.1449 25.2612 10.284 25.3637 10.3866C25.4663 10.4891 25.6054 10.5468 25.7504 10.5468H27.1957V11.2505H25.7504C25.6054 11.2505 25.4663 11.3081 25.3637 11.4107C25.2612 11.5132 25.2036 11.6523 25.2036 11.7974C25.2036 11.9424 25.2612 12.0815 25.3637 12.1841C25.4663 12.2866 25.6054 12.3443 25.7504 12.3443H27.1957V13.3208C27.1957 13.4659 27.2534 13.605 27.3559 13.7075C27.4585 13.8101 27.5976 13.8677 27.7426 13.8677C27.8877 13.8677 28.0268 13.8101 28.1293 13.7075C28.2319 13.605 28.2895 13.4659 28.2895 13.3208V12.3443H29.7348C29.8798 12.3443 30.0189 12.2866 30.1215 12.1841C30.2241 12.0815 30.2817 11.9424 30.2817 11.7974C30.2817 11.6523 30.2241 11.5132 30.1215 11.4107C30.0189 11.3081 29.8798 11.2505 29.7348 11.2505H28.2904V10.5474H29.7357C29.8808 10.5474 30.0199 10.4898 30.1224 10.3872C30.225 10.2846 30.2826 10.1455 30.2826 10.0005C30.2826 9.85547 30.225 9.71637 30.1224 9.61381C30.0199 9.51125 29.8808 9.45363 29.7357 9.45363H29.0248L30.2901 8.13301C30.3399 8.08116 30.3789 8.02002 30.405 7.95308C30.4311 7.88614 30.4438 7.81471 30.4423 7.74288C30.4408 7.67104 30.4252 7.60021 30.3963 7.53441C30.3674 7.46862 30.3259 7.40915 30.274 7.35942C30.2222 7.30968 30.161 7.27064 30.0941 7.24453C30.0272 7.21842 29.9557 7.20575 29.8839 7.20725C29.8121 7.20874 29.7412 7.22437 29.6754 7.25324C29.6096 7.28211 29.5502 7.32366 29.5004 7.37551Z" fill="white"/>
</svg>
